<?xml version="1.0" encoding="UTF-8" standalone="no"?>
<!-- This is a Stata 18.0 generated SVG file (http://www.stata.com) -->

<svg version="1.1" width="6.000in" height="4.000in" viewBox="0 0 4320 2880" xmlns="http://www.w3.org/2000/svg" xmlns:xlink="http://www.w3.org/1999/xlink">
	<desc>Stata Graph - graph1</desc>
	<rect x="0" y="0" width="4320" height="2880" style="fill:#FFFFFF;stroke:none"/>
	<rect x="0.00" y="0.00" width="4320.00" height="2880.00" style="fill:#FFFFFF"/>
	<rect x="2.88" y="2.88" width="4314.24" height="2874.24" style="fill:none;stroke:#FFFFFF;stroke-width:5.76"/>
	<rect x="466.56" y="100.85" width="3752.60" height="2358.35" style="fill:#FFFFFF"/>
	<rect x="469.44" y="103.73" width="3746.84" height="2352.59" style="fill:none;stroke:#FFFFFF;stroke-width:5.76"/>
	<line x1="466.56" y1="2395.88" x2="524.21" y2="2395.88" style="stroke:#F0F0F0;stroke-width:8.64"/>
	<line x1="552.96" y1="2395.88" x2="610.61" y2="2395.88" style="stroke:#F0F0F0;stroke-width:8.64"/>
	<line x1="639.36" y1="2395.88" x2="697.01" y2="2395.88" style="stroke:#F0F0F0;stroke-width:8.64"/>
	<line x1="725.76" y1="2395.88" x2="783.41" y2="2395.88" style="stroke:#F0F0F0;stroke-width:8.64"/>
	<line x1="812.16" y1="2395.88" x2="869.81" y2="2395.88" style="stroke:#F0F0F0;stroke-width:8.64"/>
	<line x1="898.56" y1="2395.88" x2="956.21" y2="2395.88" style="stroke:#F0F0F0;stroke-width:8.64"/>
	<line x1="984.96" y1="2395.88" x2="1042.61" y2="2395.88" style="stroke:#F0F0F0;stroke-width:8.64"/>
	<line x1="1071.36" y1="2395.88" x2="1129.01" y2="2395.88" style="stroke:#F0F0F0;stroke-width:8.64"/>
	<line x1="1157.76" y1="2395.88" x2="1215.41" y2="2395.88" style="stroke:#F0F0F0;stroke-width:8.64"/>
	<line x1="1244.16" y1="2395.88" x2="1301.81" y2="2395.88" style="stroke:#F0F0F0;stroke-width:8.64"/>
	<line x1="1330.56" y1="2395.88" x2="1388.21" y2="2395.88" style="stroke:#F0F0F0;stroke-width:8.64"/>
	<line x1="1416.96" y1="2395.88" x2="1474.61" y2="2395.88" style="stroke:#F0F0F0;stroke-width:8.64"/>
	<line x1="1503.36" y1="2395.88" x2="1561.01" y2="2395.88" style="stroke:#F0F0F0;stroke-width:8.64"/>
	<line x1="1589.76" y1="2395.88" x2="1647.41" y2="2395.88" style="stroke:#F0F0F0;stroke-width:8.64"/>
	<line x1="1676.16" y1="2395.88" x2="1733.81" y2="2395.88" style="stroke:#F0F0F0;stroke-width:8.64"/>
	<line x1="1762.56" y1="2395.88" x2="1820.21" y2="2395.88" style="stroke:#F0F0F0;stroke-width:8.64"/>
	<line x1="1848.96" y1="2395.88" x2="1906.61" y2="2395.88" style="stroke:#F0F0F0;stroke-width:8.64"/>
	<line x1="1935.36" y1="2395.88" x2="1993.01" y2="2395.88" style="stroke:#F0F0F0;stroke-width:8.64"/>
	<line x1="2021.76" y1="2395.88" x2="2079.41" y2="2395.88" style="stroke:#F0F0F0;stroke-width:8.64"/>
	<line x1="2108.16" y1="2395.88" x2="2165.80" y2="2395.88" style="stroke:#F0F0F0;stroke-width:8.64"/>
	<line x1="2194.56" y1="2395.88" x2="2252.21" y2="2395.88" style="stroke:#F0F0F0;stroke-width:8.64"/>
	<line x1="2280.96" y1="2395.88" x2="2338.61" y2="2395.88" style="stroke:#F0F0F0;stroke-width:8.64"/>
	<line x1="2367.36" y1="2395.88" x2="2425.01" y2="2395.88" style="stroke:#F0F0F0;stroke-width:8.64"/>
	<line x1="2453.76" y1="2395.88" x2="2511.41" y2="2395.88" style="stroke:#F0F0F0;stroke-width:8.64"/>
	<line x1="2540.16" y1="2395.88" x2="2597.80" y2="2395.88" style="stroke:#F0F0F0;stroke-width:8.64"/>
	<line x1="2626.56" y1="2395.88" x2="2684.21" y2="2395.88" style="stroke:#F0F0F0;stroke-width:8.64"/>
	<line x1="2712.96" y1="2395.88" x2="2770.61" y2="2395.88" style="stroke:#F0F0F0;stroke-width:8.64"/>
	<line x1="2799.36" y1="2395.88" x2="2857.01" y2="2395.88" style="stroke:#F0F0F0;stroke-width:8.64"/>
	<line x1="2885.76" y1="2395.88" x2="2943.41" y2="2395.88" style="stroke:#F0F0F0;stroke-width:8.64"/>
	<line x1="2972.16" y1="2395.88" x2="3029.81" y2="2395.88" style="stroke:#F0F0F0;stroke-width:8.64"/>
	<line x1="3058.56" y1="2395.88" x2="3116.21" y2="2395.88" style="stroke:#F0F0F0;stroke-width:8.64"/>
	<line x1="3144.96" y1="2395.88" x2="3202.61" y2="2395.88" style="stroke:#F0F0F0;stroke-width:8.64"/>
	<line x1="3231.36" y1="2395.88" x2="3289.01" y2="2395.88" style="stroke:#F0F0F0;stroke-width:8.64"/>
	<line x1="3317.76" y1="2395.88" x2="3375.41" y2="2395.88" style="stroke:#F0F0F0;stroke-width:8.64"/>
	<line x1="3404.16" y1="2395.88" x2="3461.81" y2="2395.88" style="stroke:#F0F0F0;stroke-width:8.64"/>
	<line x1="3490.56" y1="2395.88" x2="3548.21" y2="2395.88" style="stroke:#F0F0F0;stroke-width:8.64"/>
	<line x1="3576.96" y1="2395.88" x2="3634.61" y2="2395.88" style="stroke:#F0F0F0;stroke-width:8.64"/>
	<line x1="3663.36" y1="2395.88" x2="3721.01" y2="2395.88" style="stroke:#F0F0F0;stroke-width:8.64"/>
	<line x1="3749.76" y1="2395.88" x2="3807.41" y2="2395.88" style="stroke:#F0F0F0;stroke-width:8.64"/>
	<line x1="3836.16" y1="2395.88" x2="3893.81" y2="2395.88" style="stroke:#F0F0F0;stroke-width:8.64"/>
	<line x1="3922.56" y1="2395.88" x2="3980.21" y2="2395.88" style="stroke:#F0F0F0;stroke-width:8.64"/>
	<line x1="4008.96" y1="2395.88" x2="4066.61" y2="2395.88" style="stroke:#F0F0F0;stroke-width:8.64"/>
	<line x1="4095.36" y1="2395.88" x2="4153.01" y2="2395.88" style="stroke:#F0F0F0;stroke-width:8.64"/>
	<line x1="4181.76" y1="2395.88" x2="4219.16" y2="2395.88" style="stroke:#F0F0F0;stroke-width:8.64"/>
	<line x1="466.56" y1="1837.92" x2="524.21" y2="1837.92" style="stroke:#F0F0F0;stroke-width:8.64"/>
	<line x1="552.96" y1="1837.92" x2="610.61" y2="1837.92" style="stroke:#F0F0F0;stroke-width:8.64"/>
	<line x1="639.36" y1="1837.92" x2="697.01" y2="1837.92" style="stroke:#F0F0F0;stroke-width:8.64"/>
	<line x1="725.76" y1="1837.92" x2="783.41" y2="1837.92" style="stroke:#F0F0F0;stroke-width:8.64"/>
	<line x1="812.16" y1="1837.92" x2="869.81" y2="1837.92" style="stroke:#F0F0F0;stroke-width:8.64"/>
	<line x1="898.56" y1="1837.92" x2="956.21" y2="1837.92" style="stroke:#F0F0F0;stroke-width:8.64"/>
	<line x1="984.96" y1="1837.92" x2="1042.61" y2="1837.92" style="stroke:#F0F0F0;stroke-width:8.64"/>
	<line x1="1071.36" y1="1837.92" x2="1129.01" y2="1837.92" style="stroke:#F0F0F0;stroke-width:8.64"/>
	<line x1="1157.76" y1="1837.92" x2="1215.41" y2="1837.92" style="stroke:#F0F0F0;stroke-width:8.64"/>
	<line x1="1244.16" y1="1837.92" x2="1301.81" y2="1837.92" style="stroke:#F0F0F0;stroke-width:8.64"/>
	<line x1="1330.56" y1="1837.92" x2="1388.21" y2="1837.92" style="stroke:#F0F0F0;stroke-width:8.64"/>
	<line x1="1416.96" y1="1837.92" x2="1474.61" y2="1837.92" style="stroke:#F0F0F0;stroke-width:8.64"/>
	<line x1="1503.36" y1="1837.92" x2="1561.01" y2="1837.92" style="stroke:#F0F0F0;stroke-width:8.64"/>
	<line x1="1589.76" y1="1837.92" x2="1647.41" y2="1837.92" style="stroke:#F0F0F0;stroke-width:8.64"/>
	<line x1="1676.16" y1="1837.92" x2="1733.81" y2="1837.92" style="stroke:#F0F0F0;stroke-width:8.64"/>
	<line x1="1762.56" y1="1837.92" x2="1820.21" y2="1837.92" style="stroke:#F0F0F0;stroke-width:8.64"/>
	<line x1="1848.96" y1="1837.92" x2="1906.61" y2="1837.92" style="stroke:#F0F0F0;stroke-width:8.64"/>
	<line x1="1935.36" y1="1837.92" x2="1993.01" y2="1837.92" style="stroke:#F0F0F0;stroke-width:8.64"/>
	<line x1="2021.76" y1="1837.92" x2="2079.41" y2="1837.92" style="stroke:#F0F0F0;stroke-width:8.64"/>
	<line x1="2108.16" y1="1837.92" x2="2165.80" y2="1837.92" style="stroke:#F0F0F0;stroke-width:8.64"/>
	<line x1="2194.56" y1="1837.92" x2="2252.21" y2="1837.92" style="stroke:#F0F0F0;stroke-width:8.64"/>
	<line x1="2280.96" y1="1837.92" x2="2338.61" y2="1837.92" style="stroke:#F0F0F0;stroke-width:8.64"/>
	<line x1="2367.36" y1="1837.92" x2="2425.01" y2="1837.92" style="stroke:#F0F0F0;stroke-width:8.64"/>
	<line x1="2453.76" y1="1837.92" x2="2511.41" y2="1837.92" style="stroke:#F0F0F0;stroke-width:8.64"/>
	<line x1="2540.16" y1="1837.92" x2="2597.80" y2="1837.92" style="stroke:#F0F0F0;stroke-width:8.64"/>
	<line x1="2626.56" y1="1837.92" x2="2684.21" y2="1837.92" style="stroke:#F0F0F0;stroke-width:8.64"/>
	<line x1="2712.96" y1="1837.92" x2="2770.61" y2="1837.92" style="stroke:#F0F0F0;stroke-width:8.64"/>
	<line x1="2799.36" y1="1837.92" x2="2857.01" y2="1837.92" style="stroke:#F0F0F0;stroke-width:8.64"/>
	<line x1="2885.76" y1="1837.92" x2="2943.41" y2="1837.92" style="stroke:#F0F0F0;stroke-width:8.64"/>
	<line x1="2972.16" y1="1837.92" x2="3029.81" y2="1837.92" style="stroke:#F0F0F0;stroke-width:8.64"/>
	<line x1="3058.56" y1="1837.92" x2="3116.21" y2="1837.92" style="stroke:#F0F0F0;stroke-width:8.64"/>
	<line x1="3144.96" y1="1837.92" x2="3202.61" y2="1837.92" style="stroke:#F0F0F0;stroke-width:8.64"/>
	<line x1="3231.36" y1="1837.92" x2="3289.01" y2="1837.92" style="stroke:#F0F0F0;stroke-width:8.64"/>
	<line x1="3317.76" y1="1837.92" x2="3375.41" y2="1837.92" style="stroke:#F0F0F0;stroke-width:8.64"/>
	<line x1="3404.16" y1="1837.92" x2="3461.81" y2="1837.92" style="stroke:#F0F0F0;stroke-width:8.64"/>
	<line x1="3490.56" y1="1837.92" x2="3548.21" y2="1837.92" style="stroke:#F0F0F0;stroke-width:8.64"/>
	<line x1="3576.96" y1="1837.92" x2="3634.61" y2="1837.92" style="stroke:#F0F0F0;stroke-width:8.64"/>
	<line x1="3663.36" y1="1837.92" x2="3721.01" y2="1837.92" style="stroke:#F0F0F0;stroke-width:8.64"/>
	<line x1="3749.76" y1="1837.92" x2="3807.41" y2="1837.92" style="stroke:#F0F0F0;stroke-width:8.64"/>
	<line x1="3836.16" y1="1837.92" x2="3893.81" y2="1837.92" style="stroke:#F0F0F0;stroke-width:8.64"/>
	<line x1="3922.56" y1="1837.92" x2="3980.21" y2="1837.92" style="stroke:#F0F0F0;stroke-width:8.64"/>
	<line x1="4008.96" y1="1837.92" x2="4066.61" y2="1837.92" style="stroke:#F0F0F0;stroke-width:8.64"/>
	<line x1="4095.36" y1="1837.92" x2="4153.01" y2="1837.92" style="stroke:#F0F0F0;stroke-width:8.64"/>
	<line x1="4181.76" y1="1837.92" x2="4219.16" y2="1837.92" style="stroke:#F0F0F0;stroke-width:8.64"/>
	<line x1="466.56" y1="1279.95" x2="524.21" y2="1279.95" style="stroke:#F0F0F0;stroke-width:8.64"/>
	<line x1="552.96" y1="1279.95" x2="610.61" y2="1279.95" style="stroke:#F0F0F0;stroke-width:8.64"/>
	<line x1="639.36" y1="1279.95" x2="697.01" y2="1279.95" style="stroke:#F0F0F0;stroke-width:8.64"/>
	<line x1="725.76" y1="1279.95" x2="783.41" y2="1279.95" style="stroke:#F0F0F0;stroke-width:8.64"/>
	<line x1="812.16" y1="1279.95" x2="869.81" y2="1279.95" style="stroke:#F0F0F0;stroke-width:8.64"/>
	<line x1="898.56" y1="1279.95" x2="956.21" y2="1279.95" style="stroke:#F0F0F0;stroke-width:8.64"/>
	<line x1="984.96" y1="1279.95" x2="1042.61" y2="1279.95" style="stroke:#F0F0F0;stroke-width:8.64"/>
	<line x1="1071.36" y1="1279.95" x2="1129.01" y2="1279.95" style="stroke:#F0F0F0;stroke-width:8.64"/>
	<line x1="1157.76" y1="1279.95" x2="1215.41" y2="1279.95" style="stroke:#F0F0F0;stroke-width:8.64"/>
	<line x1="1244.16" y1="1279.95" x2="1301.81" y2="1279.95" style="stroke:#F0F0F0;stroke-width:8.64"/>
	<line x1="1330.56" y1="1279.95" x2="1388.21" y2="1279.95" style="stroke:#F0F0F0;stroke-width:8.64"/>
	<line x1="1416.96" y1="1279.95" x2="1474.61" y2="1279.95" style="stroke:#F0F0F0;stroke-width:8.64"/>
	<line x1="1503.36" y1="1279.95" x2="1561.01" y2="1279.95" style="stroke:#F0F0F0;stroke-width:8.64"/>
	<line x1="1589.76" y1="1279.95" x2="1647.41" y2="1279.95" style="stroke:#F0F0F0;stroke-width:8.64"/>
	<line x1="1676.16" y1="1279.95" x2="1733.81" y2="1279.95" style="stroke:#F0F0F0;stroke-width:8.64"/>
	<line x1="1762.56" y1="1279.95" x2="1820.21" y2="1279.95" style="stroke:#F0F0F0;stroke-width:8.64"/>
	<line x1="1848.96" y1="1279.95" x2="1906.61" y2="1279.95" style="stroke:#F0F0F0;stroke-width:8.64"/>
	<line x1="1935.36" y1="1279.95" x2="1993.01" y2="1279.95" style="stroke:#F0F0F0;stroke-width:8.64"/>
	<line x1="2021.76" y1="1279.95" x2="2079.41" y2="1279.95" style="stroke:#F0F0F0;stroke-width:8.64"/>
	<line x1="2108.16" y1="1279.95" x2="2165.80" y2="1279.95" style="stroke:#F0F0F0;stroke-width:8.64"/>
	<line x1="2194.56" y1="1279.95" x2="2252.21" y2="1279.95" style="stroke:#F0F0F0;stroke-width:8.64"/>
	<line x1="2280.96" y1="1279.95" x2="2338.61" y2="1279.95" style="stroke:#F0F0F0;stroke-width:8.64"/>
	<line x1="2367.36" y1="1279.95" x2="2425.01" y2="1279.95" style="stroke:#F0F0F0;stroke-width:8.64"/>
	<line x1="2453.76" y1="1279.95" x2="2511.41" y2="1279.95" style="stroke:#F0F0F0;stroke-width:8.64"/>
	<line x1="2540.16" y1="1279.95" x2="2597.80" y2="1279.95" style="stroke:#F0F0F0;stroke-width:8.64"/>
	<line x1="2626.56" y1="1279.95" x2="2684.21" y2="1279.95" style="stroke:#F0F0F0;stroke-width:8.64"/>
	<line x1="2712.96" y1="1279.95" x2="2770.61" y2="1279.95" style="stroke:#F0F0F0;stroke-width:8.64"/>
	<line x1="2799.36" y1="1279.95" x2="2857.01" y2="1279.95" style="stroke:#F0F0F0;stroke-width:8.64"/>
	<line x1="2885.76" y1="1279.95" x2="2943.41" y2="1279.95" style="stroke:#F0F0F0;stroke-width:8.64"/>
	<line x1="2972.16" y1="1279.95" x2="3029.81" y2="1279.95" style="stroke:#F0F0F0;stroke-width:8.64"/>
	<line x1="3058.56" y1="1279.95" x2="3116.21" y2="1279.95" style="stroke:#F0F0F0;stroke-width:8.64"/>
	<line x1="3144.96" y1="1279.95" x2="3202.61" y2="1279.95" style="stroke:#F0F0F0;stroke-width:8.64"/>
	<line x1="3231.36" y1="1279.95" x2="3289.01" y2="1279.95" style="stroke:#F0F0F0;stroke-width:8.64"/>
	<line x1="3317.76" y1="1279.95" x2="3375.41" y2="1279.95" style="stroke:#F0F0F0;stroke-width:8.64"/>
	<line x1="3404.16" y1="1279.95" x2="3461.81" y2="1279.95" style="stroke:#F0F0F0;stroke-width:8.64"/>
	<line x1="3490.56" y1="1279.95" x2="3548.21" y2="1279.95" style="stroke:#F0F0F0;stroke-width:8.64"/>
	<line x1="3576.96" y1="1279.95" x2="3634.61" y2="1279.95" style="stroke:#F0F0F0;stroke-width:8.64"/>
	<line x1="3663.36" y1="1279.95" x2="3721.01" y2="1279.95" style="stroke:#F0F0F0;stroke-width:8.64"/>
	<line x1="3749.76" y1="1279.95" x2="3807.41" y2="1279.95" style="stroke:#F0F0F0;stroke-width:8.64"/>
	<line x1="3836.16" y1="1279.95" x2="3893.81" y2="1279.95" style="stroke:#F0F0F0;stroke-width:8.64"/>
	<line x1="3922.56" y1="1279.95" x2="3980.21" y2="1279.95" style="stroke:#F0F0F0;stroke-width:8.64"/>
	<line x1="4008.96" y1="1279.95" x2="4066.61" y2="1279.95" style="stroke:#F0F0F0;stroke-width:8.64"/>
	<line x1="4095.36" y1="1279.95" x2="4153.01" y2="1279.95" style="stroke:#F0F0F0;stroke-width:8.64"/>
	<line x1="4181.76" y1="1279.95" x2="4219.16" y2="1279.95" style="stroke:#F0F0F0;stroke-width:8.64"/>
	<line x1="466.56" y1="722.13" x2="524.21" y2="722.13" style="stroke:#F0F0F0;stroke-width:8.64"/>
	<line x1="552.96" y1="722.13" x2="610.61" y2="722.13" style="stroke:#F0F0F0;stroke-width:8.64"/>
	<line x1="639.36" y1="722.13" x2="697.01" y2="722.13" style="stroke:#F0F0F0;stroke-width:8.64"/>
	<line x1="725.76" y1="722.13" x2="783.41" y2="722.13" style="stroke:#F0F0F0;stroke-width:8.64"/>
	<line x1="812.16" y1="722.13" x2="869.81" y2="722.13" style="stroke:#F0F0F0;stroke-width:8.64"/>
	<line x1="898.56" y1="722.13" x2="956.21" y2="722.13" style="stroke:#F0F0F0;stroke-width:8.64"/>
	<line x1="984.96" y1="722.13" x2="1042.61" y2="722.13" style="stroke:#F0F0F0;stroke-width:8.64"/>
	<line x1="1071.36" y1="722.13" x2="1129.01" y2="722.13" style="stroke:#F0F0F0;stroke-width:8.64"/>
	<line x1="1157.76" y1="722.13" x2="1215.41" y2="722.13" style="stroke:#F0F0F0;stroke-width:8.64"/>
	<line x1="1244.16" y1="722.13" x2="1301.81" y2="722.13" style="stroke:#F0F0F0;stroke-width:8.64"/>
	<line x1="1330.56" y1="722.13" x2="1388.21" y2="722.13" style="stroke:#F0F0F0;stroke-width:8.64"/>
	<line x1="1416.96" y1="722.13" x2="1474.61" y2="722.13" style="stroke:#F0F0F0;stroke-width:8.64"/>
	<line x1="1503.36" y1="722.13" x2="1561.01" y2="722.13" style="stroke:#F0F0F0;stroke-width:8.64"/>
	<line x1="1589.76" y1="722.13" x2="1647.41" y2="722.13" style="stroke:#F0F0F0;stroke-width:8.64"/>
	<line x1="1676.16" y1="722.13" x2="1733.81" y2="722.13" style="stroke:#F0F0F0;stroke-width:8.64"/>
	<line x1="1762.56" y1="722.13" x2="1820.21" y2="722.13" style="stroke:#F0F0F0;stroke-width:8.64"/>
	<line x1="1848.96" y1="722.13" x2="1906.61" y2="722.13" style="stroke:#F0F0F0;stroke-width:8.64"/>
	<line x1="1935.36" y1="722.13" x2="1993.01" y2="722.13" style="stroke:#F0F0F0;stroke-width:8.64"/>
	<line x1="2021.76" y1="722.13" x2="2079.41" y2="722.13" style="stroke:#F0F0F0;stroke-width:8.64"/>
	<line x1="2108.16" y1="722.13" x2="2165.80" y2="722.13" style="stroke:#F0F0F0;stroke-width:8.64"/>
	<line x1="2194.56" y1="722.13" x2="2252.21" y2="722.13" style="stroke:#F0F0F0;stroke-width:8.64"/>
	<line x1="2280.96" y1="722.13" x2="2338.61" y2="722.13" style="stroke:#F0F0F0;stroke-width:8.64"/>
	<line x1="2367.36" y1="722.13" x2="2425.01" y2="722.13" style="stroke:#F0F0F0;stroke-width:8.64"/>
	<line x1="2453.76" y1="722.13" x2="2511.41" y2="722.13" style="stroke:#F0F0F0;stroke-width:8.64"/>
	<line x1="2540.16" y1="722.13" x2="2597.80" y2="722.13" style="stroke:#F0F0F0;stroke-width:8.64"/>
	<line x1="2626.56" y1="722.13" x2="2684.21" y2="722.13" style="stroke:#F0F0F0;stroke-width:8.64"/>
	<line x1="2712.96" y1="722.13" x2="2770.61" y2="722.13" style="stroke:#F0F0F0;stroke-width:8.64"/>
	<line x1="2799.36" y1="722.13" x2="2857.01" y2="722.13" style="stroke:#F0F0F0;stroke-width:8.64"/>
	<line x1="2885.76" y1="722.13" x2="2943.41" y2="722.13" style="stroke:#F0F0F0;stroke-width:8.64"/>
	<line x1="2972.16" y1="722.13" x2="3029.81" y2="722.13" style="stroke:#F0F0F0;stroke-width:8.64"/>
	<line x1="3058.56" y1="722.13" x2="3116.21" y2="722.13" style="stroke:#F0F0F0;stroke-width:8.64"/>
	<line x1="3144.96" y1="722.13" x2="3202.61" y2="722.13" style="stroke:#F0F0F0;stroke-width:8.64"/>
	<line x1="3231.36" y1="722.13" x2="3289.01" y2="722.13" style="stroke:#F0F0F0;stroke-width:8.64"/>
	<line x1="3317.76" y1="722.13" x2="3375.41" y2="722.13" style="stroke:#F0F0F0;stroke-width:8.64"/>
	<line x1="3404.16" y1="722.13" x2="3461.81" y2="722.13" style="stroke:#F0F0F0;stroke-width:8.64"/>
	<line x1="3490.56" y1="722.13" x2="3548.21" y2="722.13" style="stroke:#F0F0F0;stroke-width:8.64"/>
	<line x1="3576.96" y1="722.13" x2="3634.61" y2="722.13" style="stroke:#F0F0F0;stroke-width:8.64"/>
	<line x1="3663.36" y1="722.13" x2="3721.01" y2="722.13" style="stroke:#F0F0F0;stroke-width:8.64"/>
	<line x1="3749.76" y1="722.13" x2="3807.41" y2="722.13" style="stroke:#F0F0F0;stroke-width:8.64"/>
	<line x1="3836.16" y1="722.13" x2="3893.81" y2="722.13" style="stroke:#F0F0F0;stroke-width:8.64"/>
	<line x1="3922.56" y1="722.13" x2="3980.21" y2="722.13" style="stroke:#F0F0F0;stroke-width:8.64"/>
	<line x1="4008.96" y1="722.13" x2="4066.61" y2="722.13" style="stroke:#F0F0F0;stroke-width:8.64"/>
	<line x1="4095.36" y1="722.13" x2="4153.01" y2="722.13" style="stroke:#F0F0F0;stroke-width:8.64"/>
	<line x1="4181.76" y1="722.13" x2="4219.16" y2="722.13" style="stroke:#F0F0F0;stroke-width:8.64"/>
	<line x1="466.56" y1="164.16" x2="524.21" y2="164.16" style="stroke:#F0F0F0;stroke-width:8.64"/>
	<line x1="552.96" y1="164.16" x2="610.61" y2="164.16" style="stroke:#F0F0F0;stroke-width:8.64"/>
	<line x1="639.36" y1="164.16" x2="697.01" y2="164.16" style="stroke:#F0F0F0;stroke-width:8.64"/>
	<line x1="725.76" y1="164.16" x2="783.41" y2="164.16" style="stroke:#F0F0F0;stroke-width:8.64"/>
	<line x1="812.16" y1="164.16" x2="869.81" y2="164.16" style="stroke:#F0F0F0;stroke-width:8.64"/>
	<line x1="898.56" y1="164.16" x2="956.21" y2="164.16" style="stroke:#F0F0F0;stroke-width:8.64"/>
	<line x1="984.96" y1="164.16" x2="1042.61" y2="164.16" style="stroke:#F0F0F0;stroke-width:8.64"/>
	<line x1="1071.36" y1="164.16" x2="1129.01" y2="164.16" style="stroke:#F0F0F0;stroke-width:8.64"/>
	<line x1="1157.76" y1="164.16" x2="1215.41" y2="164.16" style="stroke:#F0F0F0;stroke-width:8.64"/>
	<line x1="1244.16" y1="164.16" x2="1301.81" y2="164.16" style="stroke:#F0F0F0;stroke-width:8.64"/>
	<line x1="1330.56" y1="164.16" x2="1388.21" y2="164.16" style="stroke:#F0F0F0;stroke-width:8.64"/>
	<line x1="1416.96" y1="164.16" x2="1474.61" y2="164.16" style="stroke:#F0F0F0;stroke-width:8.64"/>
	<line x1="1503.36" y1="164.16" x2="1561.01" y2="164.16" style="stroke:#F0F0F0;stroke-width:8.64"/>
	<line x1="1589.76" y1="164.16" x2="1647.41" y2="164.16" style="stroke:#F0F0F0;stroke-width:8.64"/>
	<line x1="1676.16" y1="164.16" x2="1733.81" y2="164.16" style="stroke:#F0F0F0;stroke-width:8.64"/>
	<line x1="1762.56" y1="164.16" x2="1820.21" y2="164.16" style="stroke:#F0F0F0;stroke-width:8.64"/>
	<line x1="1848.96" y1="164.16" x2="1906.61" y2="164.16" style="stroke:#F0F0F0;stroke-width:8.64"/>
	<line x1="1935.36" y1="164.16" x2="1993.01" y2="164.16" style="stroke:#F0F0F0;stroke-width:8.64"/>
	<line x1="2021.76" y1="164.16" x2="2079.41" y2="164.16" style="stroke:#F0F0F0;stroke-width:8.64"/>
	<line x1="2108.16" y1="164.16" x2="2165.80" y2="164.16" style="stroke:#F0F0F0;stroke-width:8.64"/>
	<line x1="2194.56" y1="164.16" x2="2252.21" y2="164.16" style="stroke:#F0F0F0;stroke-width:8.64"/>
	<line x1="2280.96" y1="164.16" x2="2338.61" y2="164.16" style="stroke:#F0F0F0;stroke-width:8.64"/>
	<line x1="2367.36" y1="164.16" x2="2425.01" y2="164.16" style="stroke:#F0F0F0;stroke-width:8.64"/>
	<line x1="2453.76" y1="164.16" x2="2511.41" y2="164.16" style="stroke:#F0F0F0;stroke-width:8.64"/>
	<line x1="2540.16" y1="164.16" x2="2597.80" y2="164.16" style="stroke:#F0F0F0;stroke-width:8.64"/>
	<line x1="2626.56" y1="164.16" x2="2684.21" y2="164.16" style="stroke:#F0F0F0;stroke-width:8.64"/>
	<line x1="2712.96" y1="164.16" x2="2770.61" y2="164.16" style="stroke:#F0F0F0;stroke-width:8.64"/>
	<line x1="2799.36" y1="164.16" x2="2857.01" y2="164.16" style="stroke:#F0F0F0;stroke-width:8.64"/>
	<line x1="2885.76" y1="164.16" x2="2943.41" y2="164.16" style="stroke:#F0F0F0;stroke-width:8.64"/>
	<line x1="2972.16" y1="164.16" x2="3029.81" y2="164.16" style="stroke:#F0F0F0;stroke-width:8.64"/>
	<line x1="3058.56" y1="164.16" x2="3116.21" y2="164.16" style="stroke:#F0F0F0;stroke-width:8.64"/>
	<line x1="3144.96" y1="164.16" x2="3202.61" y2="164.16" style="stroke:#F0F0F0;stroke-width:8.64"/>
	<line x1="3231.36" y1="164.16" x2="3289.01" y2="164.16" style="stroke:#F0F0F0;stroke-width:8.64"/>
	<line x1="3317.76" y1="164.16" x2="3375.41" y2="164.16" style="stroke:#F0F0F0;stroke-width:8.64"/>
	<line x1="3404.16" y1="164.16" x2="3461.81" y2="164.16" style="stroke:#F0F0F0;stroke-width:8.64"/>
	<line x1="3490.56" y1="164.16" x2="3548.21" y2="164.16" style="stroke:#F0F0F0;stroke-width:8.64"/>
	<line x1="3576.96" y1="164.16" x2="3634.61" y2="164.16" style="stroke:#F0F0F0;stroke-width:8.64"/>
	<line x1="3663.36" y1="164.16" x2="3721.01" y2="164.16" style="stroke:#F0F0F0;stroke-width:8.64"/>
	<line x1="3749.76" y1="164.16" x2="3807.41" y2="164.16" style="stroke:#F0F0F0;stroke-width:8.64"/>
	<line x1="3836.16" y1="164.16" x2="3893.81" y2="164.16" style="stroke:#F0F0F0;stroke-width:8.64"/>
	<line x1="3922.56" y1="164.16" x2="3980.21" y2="164.16" style="stroke:#F0F0F0;stroke-width:8.64"/>
	<line x1="4008.96" y1="164.16" x2="4066.61" y2="164.16" style="stroke:#F0F0F0;stroke-width:8.64"/>
	<line x1="4095.36" y1="164.16" x2="4153.01" y2="164.16" style="stroke:#F0F0F0;stroke-width:8.64"/>
	<line x1="4181.76" y1="164.16" x2="4219.16" y2="164.16" style="stroke:#F0F0F0;stroke-width:8.64"/>
	<line x1="530.01" y1="2459.20" x2="530.01" y2="2401.55" style="stroke:#F0F0F0;stroke-width:8.64"/>
	<line x1="530.01" y1="2372.80" x2="530.01" y2="2315.15" style="stroke:#F0F0F0;stroke-width:8.64"/>
	<line x1="530.01" y1="2286.40" x2="530.01" y2="2228.75" style="stroke:#F0F0F0;stroke-width:8.64"/>
	<line x1="530.01" y1="2199.99" x2="530.01" y2="2142.35" style="stroke:#F0F0F0;stroke-width:8.64"/>
	<line x1="530.01" y1="2113.59" x2="530.01" y2="2055.95" style="stroke:#F0F0F0;stroke-width:8.64"/>
	<line x1="530.01" y1="2027.19" x2="530.01" y2="1969.55" style="stroke:#F0F0F0;stroke-width:8.64"/>
	<line x1="530.01" y1="1940.79" x2="530.01" y2="1883.14" style="stroke:#F0F0F0;stroke-width:8.64"/>
	<line x1="530.01" y1="1854.39" x2="530.01" y2="1796.74" style="stroke:#F0F0F0;stroke-width:8.64"/>
	<line x1="530.01" y1="1767.99" x2="530.01" y2="1710.34" style="stroke:#F0F0F0;stroke-width:8.64"/>
	<line x1="530.01" y1="1681.59" x2="530.01" y2="1623.94" style="stroke:#F0F0F0;stroke-width:8.64"/>
	<line x1="530.01" y1="1595.18" x2="530.01" y2="1537.54" style="stroke:#F0F0F0;stroke-width:8.64"/>
	<line x1="530.01" y1="1508.78" x2="530.01" y2="1451.14" style="stroke:#F0F0F0;stroke-width:8.64"/>
	<line x1="530.01" y1="1422.38" x2="530.01" y2="1364.74" style="stroke:#F0F0F0;stroke-width:8.64"/>
	<line x1="530.01" y1="1335.98" x2="530.01" y2="1278.33" style="stroke:#F0F0F0;stroke-width:8.64"/>
	<line x1="530.01" y1="1249.58" x2="530.01" y2="1191.93" style="stroke:#F0F0F0;stroke-width:8.64"/>
	<line x1="530.01" y1="1163.18" x2="530.01" y2="1105.53" style="stroke:#F0F0F0;stroke-width:8.64"/>
	<line x1="530.01" y1="1076.78" x2="530.01" y2="1019.13" style="stroke:#F0F0F0;stroke-width:8.64"/>
	<line x1="530.01" y1="990.38" x2="530.01" y2="932.73" style="stroke:#F0F0F0;stroke-width:8.64"/>
	<line x1="530.01" y1="903.97" x2="530.01" y2="846.33" style="stroke:#F0F0F0;stroke-width:8.64"/>
	<line x1="530.01" y1="817.57" x2="530.01" y2="759.93" style="stroke:#F0F0F0;stroke-width:8.64"/>
	<line x1="530.01" y1="731.17" x2="530.01" y2="673.53" style="stroke:#F0F0F0;stroke-width:8.64"/>
	<line x1="530.01" y1="644.77" x2="530.01" y2="587.12" style="stroke:#F0F0F0;stroke-width:8.64"/>
	<line x1="530.01" y1="558.37" x2="530.01" y2="500.72" style="stroke:#F0F0F0;stroke-width:8.64"/>
	<line x1="530.01" y1="471.97" x2="530.01" y2="414.32" style="stroke:#F0F0F0;stroke-width:8.64"/>
	<line x1="530.01" y1="385.57" x2="530.01" y2="327.92" style="stroke:#F0F0F0;stroke-width:8.64"/>
	<line x1="530.01" y1="299.16" x2="530.01" y2="241.52" style="stroke:#F0F0F0;stroke-width:8.64"/>
	<line x1="530.01" y1="212.76" x2="530.01" y2="155.12" style="stroke:#F0F0F0;stroke-width:8.64"/>
	<line x1="530.01" y1="126.36" x2="530.01" y2="100.85" style="stroke:#F0F0F0;stroke-width:8.64"/>
	<line x1="1048.01" y1="2459.20" x2="1048.01" y2="2401.55" style="stroke:#F0F0F0;stroke-width:8.64"/>
	<line x1="1048.01" y1="2372.80" x2="1048.01" y2="2315.15" style="stroke:#F0F0F0;stroke-width:8.64"/>
	<line x1="1048.01" y1="2286.40" x2="1048.01" y2="2228.75" style="stroke:#F0F0F0;stroke-width:8.64"/>
	<line x1="1048.01" y1="2199.99" x2="1048.01" y2="2142.35" style="stroke:#F0F0F0;stroke-width:8.64"/>
	<line x1="1048.01" y1="2113.59" x2="1048.01" y2="2055.95" style="stroke:#F0F0F0;stroke-width:8.64"/>
	<line x1="1048.01" y1="2027.19" x2="1048.01" y2="1969.55" style="stroke:#F0F0F0;stroke-width:8.64"/>
	<line x1="1048.01" y1="1940.79" x2="1048.01" y2="1883.14" style="stroke:#F0F0F0;stroke-width:8.64"/>
	<line x1="1048.01" y1="1854.39" x2="1048.01" y2="1796.74" style="stroke:#F0F0F0;stroke-width:8.64"/>
	<line x1="1048.01" y1="1767.99" x2="1048.01" y2="1710.34" style="stroke:#F0F0F0;stroke-width:8.64"/>
	<line x1="1048.01" y1="1681.59" x2="1048.01" y2="1623.94" style="stroke:#F0F0F0;stroke-width:8.64"/>
	<line x1="1048.01" y1="1595.18" x2="1048.01" y2="1537.54" style="stroke:#F0F0F0;stroke-width:8.64"/>
	<line x1="1048.01" y1="1508.78" x2="1048.01" y2="1451.14" style="stroke:#F0F0F0;stroke-width:8.64"/>
	<line x1="1048.01" y1="1422.38" x2="1048.01" y2="1364.74" style="stroke:#F0F0F0;stroke-width:8.64"/>
	<line x1="1048.01" y1="1335.98" x2="1048.01" y2="1278.33" style="stroke:#F0F0F0;stroke-width:8.64"/>
	<line x1="1048.01" y1="1249.58" x2="1048.01" y2="1191.93" style="stroke:#F0F0F0;stroke-width:8.64"/>
	<line x1="1048.01" y1="1163.18" x2="1048.01" y2="1105.53" style="stroke:#F0F0F0;stroke-width:8.64"/>
	<line x1="1048.01" y1="1076.78" x2="1048.01" y2="1019.13" style="stroke:#F0F0F0;stroke-width:8.64"/>
	<line x1="1048.01" y1="990.38" x2="1048.01" y2="932.73" style="stroke:#F0F0F0;stroke-width:8.64"/>
	<line x1="1048.01" y1="903.97" x2="1048.01" y2="846.33" style="stroke:#F0F0F0;stroke-width:8.64"/>
	<line x1="1048.01" y1="817.57" x2="1048.01" y2="759.93" style="stroke:#F0F0F0;stroke-width:8.64"/>
	<line x1="1048.01" y1="731.17" x2="1048.01" y2="673.53" style="stroke:#F0F0F0;stroke-width:8.64"/>
	<line x1="1048.01" y1="644.77" x2="1048.01" y2="587.12" style="stroke:#F0F0F0;stroke-width:8.64"/>
	<line x1="1048.01" y1="558.37" x2="1048.01" y2="500.72" style="stroke:#F0F0F0;stroke-width:8.64"/>
	<line x1="1048.01" y1="471.97" x2="1048.01" y2="414.32" style="stroke:#F0F0F0;stroke-width:8.64"/>
	<line x1="1048.01" y1="385.57" x2="1048.01" y2="327.92" style="stroke:#F0F0F0;stroke-width:8.64"/>
	<line x1="1048.01" y1="299.16" x2="1048.01" y2="241.52" style="stroke:#F0F0F0;stroke-width:8.64"/>
	<line x1="1048.01" y1="212.76" x2="1048.01" y2="155.12" style="stroke:#F0F0F0;stroke-width:8.64"/>
	<line x1="1048.01" y1="126.36" x2="1048.01" y2="100.85" style="stroke:#F0F0F0;stroke-width:8.64"/>
	<line x1="1565.87" y1="2459.20" x2="1565.87" y2="2401.55" style="stroke:#F0F0F0;stroke-width:8.64"/>
	<line x1="1565.87" y1="2372.80" x2="1565.87" y2="2315.15" style="stroke:#F0F0F0;stroke-width:8.64"/>
	<line x1="1565.87" y1="2286.40" x2="1565.87" y2="2228.75" style="stroke:#F0F0F0;stroke-width:8.64"/>
	<line x1="1565.87" y1="2199.99" x2="1565.87" y2="2142.35" style="stroke:#F0F0F0;stroke-width:8.64"/>
	<line x1="1565.87" y1="2113.59" x2="1565.87" y2="2055.95" style="stroke:#F0F0F0;stroke-width:8.64"/>
	<line x1="1565.87" y1="2027.19" x2="1565.87" y2="1969.55" style="stroke:#F0F0F0;stroke-width:8.64"/>
	<line x1="1565.87" y1="1940.79" x2="1565.87" y2="1883.14" style="stroke:#F0F0F0;stroke-width:8.64"/>
	<line x1="1565.87" y1="1854.39" x2="1565.87" y2="1796.74" style="stroke:#F0F0F0;stroke-width:8.64"/>
	<line x1="1565.87" y1="1767.99" x2="1565.87" y2="1710.34" style="stroke:#F0F0F0;stroke-width:8.64"/>
	<line x1="1565.87" y1="1681.59" x2="1565.87" y2="1623.94" style="stroke:#F0F0F0;stroke-width:8.64"/>
	<line x1="1565.87" y1="1595.18" x2="1565.87" y2="1537.54" style="stroke:#F0F0F0;stroke-width:8.64"/>
	<line x1="1565.87" y1="1508.78" x2="1565.87" y2="1451.14" style="stroke:#F0F0F0;stroke-width:8.64"/>
	<line x1="1565.87" y1="1422.38" x2="1565.87" y2="1364.74" style="stroke:#F0F0F0;stroke-width:8.64"/>
	<line x1="1565.87" y1="1335.98" x2="1565.87" y2="1278.33" style="stroke:#F0F0F0;stroke-width:8.64"/>
	<line x1="1565.87" y1="1249.58" x2="1565.87" y2="1191.93" style="stroke:#F0F0F0;stroke-width:8.64"/>
	<line x1="1565.87" y1="1163.18" x2="1565.87" y2="1105.53" style="stroke:#F0F0F0;stroke-width:8.64"/>
	<line x1="1565.87" y1="1076.78" x2="1565.87" y2="1019.13" style="stroke:#F0F0F0;stroke-width:8.64"/>
	<line x1="1565.87" y1="990.38" x2="1565.87" y2="932.73" style="stroke:#F0F0F0;stroke-width:8.64"/>
	<line x1="1565.87" y1="903.97" x2="1565.87" y2="846.33" style="stroke:#F0F0F0;stroke-width:8.64"/>
	<line x1="1565.87" y1="817.57" x2="1565.87" y2="759.93" style="stroke:#F0F0F0;stroke-width:8.64"/>
	<line x1="1565.87" y1="731.17" x2="1565.87" y2="673.53" style="stroke:#F0F0F0;stroke-width:8.64"/>
	<line x1="1565.87" y1="644.77" x2="1565.87" y2="587.12" style="stroke:#F0F0F0;stroke-width:8.64"/>
	<line x1="1565.87" y1="558.37" x2="1565.87" y2="500.72" style="stroke:#F0F0F0;stroke-width:8.64"/>
	<line x1="1565.87" y1="471.97" x2="1565.87" y2="414.32" style="stroke:#F0F0F0;stroke-width:8.64"/>
	<line x1="1565.87" y1="385.57" x2="1565.87" y2="327.92" style="stroke:#F0F0F0;stroke-width:8.64"/>
	<line x1="1565.87" y1="299.16" x2="1565.87" y2="241.52" style="stroke:#F0F0F0;stroke-width:8.64"/>
	<line x1="1565.87" y1="212.76" x2="1565.87" y2="155.12" style="stroke:#F0F0F0;stroke-width:8.64"/>
	<line x1="1565.87" y1="126.36" x2="1565.87" y2="100.85" style="stroke:#F0F0F0;stroke-width:8.64"/>
	<line x1="2083.86" y1="2459.20" x2="2083.86" y2="2401.55" style="stroke:#F0F0F0;stroke-width:8.64"/>
	<line x1="2083.86" y1="2372.80" x2="2083.86" y2="2315.15" style="stroke:#F0F0F0;stroke-width:8.64"/>
	<line x1="2083.86" y1="2286.40" x2="2083.86" y2="2228.75" style="stroke:#F0F0F0;stroke-width:8.64"/>
	<line x1="2083.86" y1="2199.99" x2="2083.86" y2="2142.35" style="stroke:#F0F0F0;stroke-width:8.64"/>
	<line x1="2083.86" y1="2113.59" x2="2083.86" y2="2055.95" style="stroke:#F0F0F0;stroke-width:8.64"/>
	<line x1="2083.86" y1="2027.19" x2="2083.86" y2="1969.55" style="stroke:#F0F0F0;stroke-width:8.64"/>
	<line x1="2083.86" y1="1940.79" x2="2083.86" y2="1883.14" style="stroke:#F0F0F0;stroke-width:8.64"/>
	<line x1="2083.86" y1="1854.39" x2="2083.86" y2="1796.74" style="stroke:#F0F0F0;stroke-width:8.64"/>
	<line x1="2083.86" y1="1767.99" x2="2083.86" y2="1710.34" style="stroke:#F0F0F0;stroke-width:8.64"/>
	<line x1="2083.86" y1="1681.59" x2="2083.86" y2="1623.94" style="stroke:#F0F0F0;stroke-width:8.64"/>
	<line x1="2083.86" y1="1595.18" x2="2083.86" y2="1537.54" style="stroke:#F0F0F0;stroke-width:8.64"/>
	<line x1="2083.86" y1="1508.78" x2="2083.86" y2="1451.14" style="stroke:#F0F0F0;stroke-width:8.64"/>
	<line x1="2083.86" y1="1422.38" x2="2083.86" y2="1364.74" style="stroke:#F0F0F0;stroke-width:8.64"/>
	<line x1="2083.86" y1="1335.98" x2="2083.86" y2="1278.33" style="stroke:#F0F0F0;stroke-width:8.64"/>
	<line x1="2083.86" y1="1249.58" x2="2083.86" y2="1191.93" style="stroke:#F0F0F0;stroke-width:8.64"/>
	<line x1="2083.86" y1="1163.18" x2="2083.86" y2="1105.53" style="stroke:#F0F0F0;stroke-width:8.64"/>
	<line x1="2083.86" y1="1076.78" x2="2083.86" y2="1019.13" style="stroke:#F0F0F0;stroke-width:8.64"/>
	<line x1="2083.86" y1="990.38" x2="2083.86" y2="932.73" style="stroke:#F0F0F0;stroke-width:8.64"/>
	<line x1="2083.86" y1="903.97" x2="2083.86" y2="846.33" style="stroke:#F0F0F0;stroke-width:8.64"/>
	<line x1="2083.86" y1="817.57" x2="2083.86" y2="759.93" style="stroke:#F0F0F0;stroke-width:8.64"/>
	<line x1="2083.86" y1="731.17" x2="2083.86" y2="673.53" style="stroke:#F0F0F0;stroke-width:8.64"/>
	<line x1="2083.86" y1="644.77" x2="2083.86" y2="587.12" style="stroke:#F0F0F0;stroke-width:8.64"/>
	<line x1="2083.86" y1="558.37" x2="2083.86" y2="500.72" style="stroke:#F0F0F0;stroke-width:8.64"/>
	<line x1="2083.86" y1="471.97" x2="2083.86" y2="414.32" style="stroke:#F0F0F0;stroke-width:8.64"/>
	<line x1="2083.86" y1="385.57" x2="2083.86" y2="327.92" style="stroke:#F0F0F0;stroke-width:8.64"/>
	<line x1="2083.86" y1="299.16" x2="2083.86" y2="241.52" style="stroke:#F0F0F0;stroke-width:8.64"/>
	<line x1="2083.86" y1="212.76" x2="2083.86" y2="155.12" style="stroke:#F0F0F0;stroke-width:8.64"/>
	<line x1="2083.86" y1="126.36" x2="2083.86" y2="100.85" style="stroke:#F0F0F0;stroke-width:8.64"/>
	<line x1="2601.86" y1="2459.20" x2="2601.86" y2="2401.55" style="stroke:#F0F0F0;stroke-width:8.64"/>
	<line x1="2601.86" y1="2372.80" x2="2601.86" y2="2315.15" style="stroke:#F0F0F0;stroke-width:8.64"/>
	<line x1="2601.86" y1="2286.40" x2="2601.86" y2="2228.75" style="stroke:#F0F0F0;stroke-width:8.64"/>
	<line x1="2601.86" y1="2199.99" x2="2601.86" y2="2142.35" style="stroke:#F0F0F0;stroke-width:8.64"/>
	<line x1="2601.86" y1="2113.59" x2="2601.86" y2="2055.95" style="stroke:#F0F0F0;stroke-width:8.64"/>
	<line x1="2601.86" y1="2027.19" x2="2601.86" y2="1969.55" style="stroke:#F0F0F0;stroke-width:8.64"/>
	<line x1="2601.86" y1="1940.79" x2="2601.86" y2="1883.14" style="stroke:#F0F0F0;stroke-width:8.64"/>
	<line x1="2601.86" y1="1854.39" x2="2601.86" y2="1796.74" style="stroke:#F0F0F0;stroke-width:8.64"/>
	<line x1="2601.86" y1="1767.99" x2="2601.86" y2="1710.34" style="stroke:#F0F0F0;stroke-width:8.64"/>
	<line x1="2601.86" y1="1681.59" x2="2601.86" y2="1623.94" style="stroke:#F0F0F0;stroke-width:8.64"/>
	<line x1="2601.86" y1="1595.18" x2="2601.86" y2="1537.54" style="stroke:#F0F0F0;stroke-width:8.64"/>
	<line x1="2601.86" y1="1508.78" x2="2601.86" y2="1451.14" style="stroke:#F0F0F0;stroke-width:8.64"/>
	<line x1="2601.86" y1="1422.38" x2="2601.86" y2="1364.74" style="stroke:#F0F0F0;stroke-width:8.64"/>
	<line x1="2601.86" y1="1335.98" x2="2601.86" y2="1278.33" style="stroke:#F0F0F0;stroke-width:8.64"/>
	<line x1="2601.86" y1="1249.58" x2="2601.86" y2="1191.93" style="stroke:#F0F0F0;stroke-width:8.64"/>
	<line x1="2601.86" y1="1163.18" x2="2601.86" y2="1105.53" style="stroke:#F0F0F0;stroke-width:8.64"/>
	<line x1="2601.86" y1="1076.78" x2="2601.86" y2="1019.13" style="stroke:#F0F0F0;stroke-width:8.64"/>
	<line x1="2601.86" y1="990.38" x2="2601.86" y2="932.73" style="stroke:#F0F0F0;stroke-width:8.64"/>
	<line x1="2601.86" y1="903.97" x2="2601.86" y2="846.33" style="stroke:#F0F0F0;stroke-width:8.64"/>
	<line x1="2601.86" y1="817.57" x2="2601.86" y2="759.93" style="stroke:#F0F0F0;stroke-width:8.64"/>
	<line x1="2601.86" y1="731.17" x2="2601.86" y2="673.53" style="stroke:#F0F0F0;stroke-width:8.64"/>
	<line x1="2601.86" y1="644.77" x2="2601.86" y2="587.12" style="stroke:#F0F0F0;stroke-width:8.64"/>
	<line x1="2601.86" y1="558.37" x2="2601.86" y2="500.72" style="stroke:#F0F0F0;stroke-width:8.64"/>
	<line x1="2601.86" y1="471.97" x2="2601.86" y2="414.32" style="stroke:#F0F0F0;stroke-width:8.64"/>
	<line x1="2601.86" y1="385.57" x2="2601.86" y2="327.92" style="stroke:#F0F0F0;stroke-width:8.64"/>
	<line x1="2601.86" y1="299.16" x2="2601.86" y2="241.52" style="stroke:#F0F0F0;stroke-width:8.64"/>
	<line x1="2601.86" y1="212.76" x2="2601.86" y2="155.12" style="stroke:#F0F0F0;stroke-width:8.64"/>
	<line x1="2601.86" y1="126.36" x2="2601.86" y2="100.85" style="stroke:#F0F0F0;stroke-width:8.64"/>
	<line x1="3119.85" y1="2459.20" x2="3119.85" y2="2401.55" style="stroke:#F0F0F0;stroke-width:8.64"/>
	<line x1="3119.85" y1="2372.80" x2="3119.85" y2="2315.15" style="stroke:#F0F0F0;stroke-width:8.64"/>
	<line x1="3119.85" y1="2286.40" x2="3119.85" y2="2228.75" style="stroke:#F0F0F0;stroke-width:8.64"/>
	<line x1="3119.85" y1="2199.99" x2="3119.85" y2="2142.35" style="stroke:#F0F0F0;stroke-width:8.64"/>
	<line x1="3119.85" y1="2113.59" x2="3119.85" y2="2055.95" style="stroke:#F0F0F0;stroke-width:8.64"/>
	<line x1="3119.85" y1="2027.19" x2="3119.85" y2="1969.55" style="stroke:#F0F0F0;stroke-width:8.64"/>
	<line x1="3119.85" y1="1940.79" x2="3119.85" y2="1883.14" style="stroke:#F0F0F0;stroke-width:8.64"/>
	<line x1="3119.85" y1="1854.39" x2="3119.85" y2="1796.74" style="stroke:#F0F0F0;stroke-width:8.64"/>
	<line x1="3119.85" y1="1767.99" x2="3119.85" y2="1710.34" style="stroke:#F0F0F0;stroke-width:8.64"/>
	<line x1="3119.85" y1="1681.59" x2="3119.85" y2="1623.94" style="stroke:#F0F0F0;stroke-width:8.64"/>
	<line x1="3119.85" y1="1595.18" x2="3119.85" y2="1537.54" style="stroke:#F0F0F0;stroke-width:8.64"/>
	<line x1="3119.85" y1="1508.78" x2="3119.85" y2="1451.14" style="stroke:#F0F0F0;stroke-width:8.64"/>
	<line x1="3119.85" y1="1422.38" x2="3119.85" y2="1364.74" style="stroke:#F0F0F0;stroke-width:8.64"/>
	<line x1="3119.85" y1="1335.98" x2="3119.85" y2="1278.33" style="stroke:#F0F0F0;stroke-width:8.64"/>
	<line x1="3119.85" y1="1249.58" x2="3119.85" y2="1191.93" style="stroke:#F0F0F0;stroke-width:8.64"/>
	<line x1="3119.85" y1="1163.18" x2="3119.85" y2="1105.53" style="stroke:#F0F0F0;stroke-width:8.64"/>
	<line x1="3119.85" y1="1076.78" x2="3119.85" y2="1019.13" style="stroke:#F0F0F0;stroke-width:8.64"/>
	<line x1="3119.85" y1="990.38" x2="3119.85" y2="932.73" style="stroke:#F0F0F0;stroke-width:8.64"/>
	<line x1="3119.85" y1="903.97" x2="3119.85" y2="846.33" style="stroke:#F0F0F0;stroke-width:8.64"/>
	<line x1="3119.85" y1="817.57" x2="3119.85" y2="759.93" style="stroke:#F0F0F0;stroke-width:8.64"/>
	<line x1="3119.85" y1="731.17" x2="3119.85" y2="673.53" style="stroke:#F0F0F0;stroke-width:8.64"/>
	<line x1="3119.85" y1="644.77" x2="3119.85" y2="587.12" style="stroke:#F0F0F0;stroke-width:8.64"/>
	<line x1="3119.85" y1="558.37" x2="3119.85" y2="500.72" style="stroke:#F0F0F0;stroke-width:8.64"/>
	<line x1="3119.85" y1="471.97" x2="3119.85" y2="414.32" style="stroke:#F0F0F0;stroke-width:8.64"/>
	<line x1="3119.85" y1="385.57" x2="3119.85" y2="327.92" style="stroke:#F0F0F0;stroke-width:8.64"/>
	<line x1="3119.85" y1="299.16" x2="3119.85" y2="241.52" style="stroke:#F0F0F0;stroke-width:8.64"/>
	<line x1="3119.85" y1="212.76" x2="3119.85" y2="155.12" style="stroke:#F0F0F0;stroke-width:8.64"/>
	<line x1="3119.85" y1="126.36" x2="3119.85" y2="100.85" style="stroke:#F0F0F0;stroke-width:8.64"/>
	<line x1="3637.85" y1="2459.20" x2="3637.85" y2="2401.55" style="stroke:#F0F0F0;stroke-width:8.64"/>
	<line x1="3637.85" y1="2372.80" x2="3637.85" y2="2315.15" style="stroke:#F0F0F0;stroke-width:8.64"/>
	<line x1="3637.85" y1="2286.40" x2="3637.85" y2="2228.75" style="stroke:#F0F0F0;stroke-width:8.64"/>
	<line x1="3637.85" y1="2199.99" x2="3637.85" y2="2142.35" style="stroke:#F0F0F0;stroke-width:8.64"/>
	<line x1="3637.85" y1="2113.59" x2="3637.85" y2="2055.95" style="stroke:#F0F0F0;stroke-width:8.64"/>
	<line x1="3637.85" y1="2027.19" x2="3637.85" y2="1969.55" style="stroke:#F0F0F0;stroke-width:8.64"/>
	<line x1="3637.85" y1="1940.79" x2="3637.85" y2="1883.14" style="stroke:#F0F0F0;stroke-width:8.64"/>
	<line x1="3637.85" y1="1854.39" x2="3637.85" y2="1796.74" style="stroke:#F0F0F0;stroke-width:8.64"/>
	<line x1="3637.85" y1="1767.99" x2="3637.85" y2="1710.34" style="stroke:#F0F0F0;stroke-width:8.64"/>
	<line x1="3637.85" y1="1681.59" x2="3637.85" y2="1623.94" style="stroke:#F0F0F0;stroke-width:8.64"/>
	<line x1="3637.85" y1="1595.18" x2="3637.85" y2="1537.54" style="stroke:#F0F0F0;stroke-width:8.64"/>
	<line x1="3637.85" y1="1508.78" x2="3637.85" y2="1451.14" style="stroke:#F0F0F0;stroke-width:8.64"/>
	<line x1="3637.85" y1="1422.38" x2="3637.85" y2="1364.74" style="stroke:#F0F0F0;stroke-width:8.64"/>
	<line x1="3637.85" y1="1335.98" x2="3637.85" y2="1278.33" style="stroke:#F0F0F0;stroke-width:8.64"/>
	<line x1="3637.85" y1="1249.58" x2="3637.85" y2="1191.93" style="stroke:#F0F0F0;stroke-width:8.64"/>
	<line x1="3637.85" y1="1163.18" x2="3637.85" y2="1105.53" style="stroke:#F0F0F0;stroke-width:8.64"/>
	<line x1="3637.85" y1="1076.78" x2="3637.85" y2="1019.13" style="stroke:#F0F0F0;stroke-width:8.64"/>
	<line x1="3637.85" y1="990.38" x2="3637.85" y2="932.73" style="stroke:#F0F0F0;stroke-width:8.64"/>
	<line x1="3637.85" y1="903.97" x2="3637.85" y2="846.33" style="stroke:#F0F0F0;stroke-width:8.64"/>
	<line x1="3637.85" y1="817.57" x2="3637.85" y2="759.93" style="stroke:#F0F0F0;stroke-width:8.64"/>
	<line x1="3637.85" y1="731.17" x2="3637.85" y2="673.53" style="stroke:#F0F0F0;stroke-width:8.64"/>
	<line x1="3637.85" y1="644.77" x2="3637.85" y2="587.12" style="stroke:#F0F0F0;stroke-width:8.64"/>
	<line x1="3637.85" y1="558.37" x2="3637.85" y2="500.72" style="stroke:#F0F0F0;stroke-width:8.64"/>
	<line x1="3637.85" y1="471.97" x2="3637.85" y2="414.32" style="stroke:#F0F0F0;stroke-width:8.64"/>
	<line x1="3637.85" y1="385.57" x2="3637.85" y2="327.92" style="stroke:#F0F0F0;stroke-width:8.64"/>
	<line x1="3637.85" y1="299.16" x2="3637.85" y2="241.52" style="stroke:#F0F0F0;stroke-width:8.64"/>
	<line x1="3637.85" y1="212.76" x2="3637.85" y2="155.12" style="stroke:#F0F0F0;stroke-width:8.64"/>
	<line x1="3637.85" y1="126.36" x2="3637.85" y2="100.85" style="stroke:#F0F0F0;stroke-width:8.64"/>
	<line x1="4155.84" y1="2459.20" x2="4155.84" y2="2401.55" style="stroke:#F0F0F0;stroke-width:8.64"/>
	<line x1="4155.84" y1="2372.80" x2="4155.84" y2="2315.15" style="stroke:#F0F0F0;stroke-width:8.64"/>
	<line x1="4155.84" y1="2286.40" x2="4155.84" y2="2228.75" style="stroke:#F0F0F0;stroke-width:8.64"/>
	<line x1="4155.84" y1="2199.99" x2="4155.84" y2="2142.35" style="stroke:#F0F0F0;stroke-width:8.64"/>
	<line x1="4155.84" y1="2113.59" x2="4155.84" y2="2055.95" style="stroke:#F0F0F0;stroke-width:8.64"/>
	<line x1="4155.84" y1="2027.19" x2="4155.84" y2="1969.55" style="stroke:#F0F0F0;stroke-width:8.64"/>
	<line x1="4155.84" y1="1940.79" x2="4155.84" y2="1883.14" style="stroke:#F0F0F0;stroke-width:8.64"/>
	<line x1="4155.84" y1="1854.39" x2="4155.84" y2="1796.74" style="stroke:#F0F0F0;stroke-width:8.64"/>
	<line x1="4155.84" y1="1767.99" x2="4155.84" y2="1710.34" style="stroke:#F0F0F0;stroke-width:8.64"/>
	<line x1="4155.84" y1="1681.59" x2="4155.84" y2="1623.94" style="stroke:#F0F0F0;stroke-width:8.64"/>
	<line x1="4155.84" y1="1595.18" x2="4155.84" y2="1537.54" style="stroke:#F0F0F0;stroke-width:8.64"/>
	<line x1="4155.84" y1="1508.78" x2="4155.84" y2="1451.14" style="stroke:#F0F0F0;stroke-width:8.64"/>
	<line x1="4155.84" y1="1422.38" x2="4155.84" y2="1364.74" style="stroke:#F0F0F0;stroke-width:8.64"/>
	<line x1="4155.84" y1="1335.98" x2="4155.84" y2="1278.33" style="stroke:#F0F0F0;stroke-width:8.64"/>
	<line x1="4155.84" y1="1249.58" x2="4155.84" y2="1191.93" style="stroke:#F0F0F0;stroke-width:8.64"/>
	<line x1="4155.84" y1="1163.18" x2="4155.84" y2="1105.53" style="stroke:#F0F0F0;stroke-width:8.64"/>
	<line x1="4155.84" y1="1076.78" x2="4155.84" y2="1019.13" style="stroke:#F0F0F0;stroke-width:8.64"/>
	<line x1="4155.84" y1="990.38" x2="4155.84" y2="932.73" style="stroke:#F0F0F0;stroke-width:8.64"/>
	<line x1="4155.84" y1="903.97" x2="4155.84" y2="846.33" style="stroke:#F0F0F0;stroke-width:8.64"/>
	<line x1="4155.84" y1="817.57" x2="4155.84" y2="759.93" style="stroke:#F0F0F0;stroke-width:8.64"/>
	<line x1="4155.84" y1="731.17" x2="4155.84" y2="673.53" style="stroke:#F0F0F0;stroke-width:8.64"/>
	<line x1="4155.84" y1="644.77" x2="4155.84" y2="587.12" style="stroke:#F0F0F0;stroke-width:8.64"/>
	<line x1="4155.84" y1="558.37" x2="4155.84" y2="500.72" style="stroke:#F0F0F0;stroke-width:8.64"/>
	<line x1="4155.84" y1="471.97" x2="4155.84" y2="414.32" style="stroke:#F0F0F0;stroke-width:8.64"/>
	<line x1="4155.84" y1="385.57" x2="4155.84" y2="327.92" style="stroke:#F0F0F0;stroke-width:8.64"/>
	<line x1="4155.84" y1="299.16" x2="4155.84" y2="241.52" style="stroke:#F0F0F0;stroke-width:8.64"/>
	<line x1="4155.84" y1="212.76" x2="4155.84" y2="155.12" style="stroke:#F0F0F0;stroke-width:8.64"/>
	<line x1="4155.84" y1="126.36" x2="4155.84" y2="100.85" style="stroke:#F0F0F0;stroke-width:8.64"/>
	<path d=" M529.88 610.61 L788.94 498.97 L1047.87 498.97 L1306.80 1503.25 L1565.87 945.28 L1824.80 1280.09 L2083.86 498.97 L2342.79 1503.25 L2601.86 1614.76 L2860.79 1614.76 L3119.72 2172.72 L3378.78 2172.72 L3637.71 387.46 L3896.78 1391.60 L4155.71 1949.57" stroke-linejoin="round" style="fill:none;stroke:#1A85FF;stroke-width:8.64"/>
	<line x1="466.56" y1="2459.20" x2="466.56" y2="100.85" style="stroke:#000000;stroke-width:5.76"/>
	<line x1="466.56" y1="2395.88" x2="426.60" y2="2395.88" style="stroke:#000000;stroke-width:5.76"/>
	<text x="406.62" y="2430.93" style="font-family:'Helvetica';font-size:100.04px;fill:#000000" text-anchor="end">0</text>
	<line x1="466.56" y1="1837.92" x2="426.60" y2="1837.92" style="stroke:#000000;stroke-width:5.76"/>
	<text x="406.62" y="1872.97" style="font-family:'Helvetica';font-size:100.04px;fill:#000000" text-anchor="end">5</text>
	<line x1="466.56" y1="1279.95" x2="426.60" y2="1279.95" style="stroke:#000000;stroke-width:5.76"/>
	<text x="406.62" y="1315.00" style="font-family:'Helvetica';font-size:100.04px;fill:#000000" text-anchor="end">10</text>
	<line x1="466.56" y1="722.13" x2="426.60" y2="722.13" style="stroke:#000000;stroke-width:5.76"/>
	<text x="406.62" y="757.17" style="font-family:'Helvetica';font-size:100.04px;fill:#000000" text-anchor="end">15</text>
	<line x1="466.56" y1="164.16" x2="426.60" y2="164.16" style="stroke:#000000;stroke-width:5.76"/>
	<text x="406.62" y="199.21" style="font-family:'Helvetica';font-size:100.04px;fill:#000000" text-anchor="end">20</text>
	<text x="190.78" y="1279.95" style="font-family:'Helvetica';font-size:100.04px;fill:#000000" transform="rotate(-90 190.78,1279.95)" text-anchor="middle">Distance</text>
	<line x1="466.56" y1="2459.20" x2="4219.16" y2="2459.20" style="stroke:#000000;stroke-width:5.76"/>
	<line x1="530.01" y1="2459.20" x2="530.01" y2="2499.16" style="stroke:#000000;stroke-width:5.76"/>
	<text x="530.01" y="2589.10" style="font-family:'Helvetica';font-size:100.04px;fill:#000000" text-anchor="middle">2008</text>
	<line x1="1048.01" y1="2459.20" x2="1048.01" y2="2499.16" style="stroke:#000000;stroke-width:5.76"/>
	<text x="1048.01" y="2589.10" style="font-family:'Helvetica';font-size:100.04px;fill:#000000" text-anchor="middle">2010</text>
	<line x1="1565.87" y1="2459.20" x2="1565.87" y2="2499.16" style="stroke:#000000;stroke-width:5.76"/>
	<text x="1565.87" y="2589.10" style="font-family:'Helvetica';font-size:100.04px;fill:#000000" text-anchor="middle">2012</text>
	<line x1="2083.86" y1="2459.20" x2="2083.86" y2="2499.16" style="stroke:#000000;stroke-width:5.76"/>
	<text x="2083.86" y="2589.10" style="font-family:'Helvetica';font-size:100.04px;fill:#000000" text-anchor="middle">2014</text>
	<line x1="2601.86" y1="2459.20" x2="2601.86" y2="2499.16" style="stroke:#000000;stroke-width:5.76"/>
	<text x="2601.86" y="2589.10" style="font-family:'Helvetica';font-size:100.04px;fill:#000000" text-anchor="middle">2016</text>
	<line x1="3119.85" y1="2459.20" x2="3119.85" y2="2499.16" style="stroke:#000000;stroke-width:5.76"/>
	<text x="3119.85" y="2589.10" style="font-family:'Helvetica';font-size:100.04px;fill:#000000" text-anchor="middle">2018</text>
	<line x1="3637.85" y1="2459.20" x2="3637.85" y2="2499.16" style="stroke:#000000;stroke-width:5.76"/>
	<text x="3637.85" y="2589.10" style="font-family:'Helvetica';font-size:100.04px;fill:#000000" text-anchor="middle">2020</text>
	<line x1="4155.84" y1="2459.20" x2="4155.84" y2="2499.16" style="stroke:#000000;stroke-width:5.76"/>
	<text x="4155.84" y="2589.10" style="font-family:'Helvetica';font-size:100.04px;fill:#000000" text-anchor="middle">2022</text>
	<text x="2342.93" y="2729.09" style="font-family:'Helvetica';font-size:100.04px;fill:#000000" text-anchor="middle">Year</text>
</svg>
