<?xml version="1.0" encoding="UTF-8" standalone="no"?>
<!-- This is a Stata 18.0 generated SVG file (http://www.stata.com) -->

<svg version="1.1" width="6.000in" height="4.000in" viewBox="0 0 4320 2880" xmlns="http://www.w3.org/2000/svg" xmlns:xlink="http://www.w3.org/1999/xlink">
	<desc>Stata Graph - graph1</desc>
	<rect x="0" y="0" width="4320" height="2880" style="fill:#FFFFFF;stroke:none"/>
	<rect x="0.00" y="0.00" width="4320.00" height="2880.00" style="fill:#FFFFFF"/>
	<rect x="2.88" y="2.88" width="4314.24" height="2874.24" style="fill:none;stroke:#FFFFFF;stroke-width:5.76"/>
	<rect x="618.30" y="100.85" width="3600.85" height="2358.35" style="fill:#FFFFFF"/>
	<rect x="621.18" y="103.73" width="3595.10" height="2352.59" style="fill:none;stroke:#FFFFFF;stroke-width:5.76"/>
	<line x1="618.30" y1="2395.88" x2="675.95" y2="2395.88" style="stroke:#F0F0F0;stroke-width:8.64"/>
	<line x1="704.70" y1="2395.88" x2="762.35" y2="2395.88" style="stroke:#F0F0F0;stroke-width:8.64"/>
	<line x1="791.10" y1="2395.88" x2="848.75" y2="2395.88" style="stroke:#F0F0F0;stroke-width:8.64"/>
	<line x1="877.50" y1="2395.88" x2="935.15" y2="2395.88" style="stroke:#F0F0F0;stroke-width:8.64"/>
	<line x1="963.90" y1="2395.88" x2="1021.55" y2="2395.88" style="stroke:#F0F0F0;stroke-width:8.64"/>
	<line x1="1050.30" y1="2395.88" x2="1107.95" y2="2395.88" style="stroke:#F0F0F0;stroke-width:8.64"/>
	<line x1="1136.70" y1="2395.88" x2="1194.35" y2="2395.88" style="stroke:#F0F0F0;stroke-width:8.64"/>
	<line x1="1223.10" y1="2395.88" x2="1280.74" y2="2395.88" style="stroke:#F0F0F0;stroke-width:8.64"/>
	<line x1="1309.50" y1="2395.88" x2="1367.15" y2="2395.88" style="stroke:#F0F0F0;stroke-width:8.64"/>
	<line x1="1395.90" y1="2395.88" x2="1453.55" y2="2395.88" style="stroke:#F0F0F0;stroke-width:8.64"/>
	<line x1="1482.30" y1="2395.88" x2="1539.95" y2="2395.88" style="stroke:#F0F0F0;stroke-width:8.64"/>
	<line x1="1568.70" y1="2395.88" x2="1626.35" y2="2395.88" style="stroke:#F0F0F0;stroke-width:8.64"/>
	<line x1="1655.10" y1="2395.88" x2="1712.75" y2="2395.88" style="stroke:#F0F0F0;stroke-width:8.64"/>
	<line x1="1741.50" y1="2395.88" x2="1799.15" y2="2395.88" style="stroke:#F0F0F0;stroke-width:8.64"/>
	<line x1="1827.90" y1="2395.88" x2="1885.55" y2="2395.88" style="stroke:#F0F0F0;stroke-width:8.64"/>
	<line x1="1914.30" y1="2395.88" x2="1971.95" y2="2395.88" style="stroke:#F0F0F0;stroke-width:8.64"/>
	<line x1="2000.70" y1="2395.88" x2="2058.34" y2="2395.88" style="stroke:#F0F0F0;stroke-width:8.64"/>
	<line x1="2087.10" y1="2395.88" x2="2144.75" y2="2395.88" style="stroke:#F0F0F0;stroke-width:8.64"/>
	<line x1="2173.50" y1="2395.88" x2="2231.15" y2="2395.88" style="stroke:#F0F0F0;stroke-width:8.64"/>
	<line x1="2259.90" y1="2395.88" x2="2317.55" y2="2395.88" style="stroke:#F0F0F0;stroke-width:8.64"/>
	<line x1="2346.30" y1="2395.88" x2="2403.95" y2="2395.88" style="stroke:#F0F0F0;stroke-width:8.64"/>
	<line x1="2432.70" y1="2395.88" x2="2490.34" y2="2395.88" style="stroke:#F0F0F0;stroke-width:8.64"/>
	<line x1="2519.10" y1="2395.88" x2="2576.75" y2="2395.88" style="stroke:#F0F0F0;stroke-width:8.64"/>
	<line x1="2605.50" y1="2395.88" x2="2663.15" y2="2395.88" style="stroke:#F0F0F0;stroke-width:8.64"/>
	<line x1="2691.90" y1="2395.88" x2="2749.55" y2="2395.88" style="stroke:#F0F0F0;stroke-width:8.64"/>
	<line x1="2778.30" y1="2395.88" x2="2835.95" y2="2395.88" style="stroke:#F0F0F0;stroke-width:8.64"/>
	<line x1="2864.70" y1="2395.88" x2="2922.35" y2="2395.88" style="stroke:#F0F0F0;stroke-width:8.64"/>
	<line x1="2951.10" y1="2395.88" x2="3008.75" y2="2395.88" style="stroke:#F0F0F0;stroke-width:8.64"/>
	<line x1="3037.50" y1="2395.88" x2="3095.15" y2="2395.88" style="stroke:#F0F0F0;stroke-width:8.64"/>
	<line x1="3123.90" y1="2395.88" x2="3181.55" y2="2395.88" style="stroke:#F0F0F0;stroke-width:8.64"/>
	<line x1="3210.30" y1="2395.88" x2="3267.95" y2="2395.88" style="stroke:#F0F0F0;stroke-width:8.64"/>
	<line x1="3296.70" y1="2395.88" x2="3354.35" y2="2395.88" style="stroke:#F0F0F0;stroke-width:8.64"/>
	<line x1="3383.10" y1="2395.88" x2="3440.75" y2="2395.88" style="stroke:#F0F0F0;stroke-width:8.64"/>
	<line x1="3469.50" y1="2395.88" x2="3527.15" y2="2395.88" style="stroke:#F0F0F0;stroke-width:8.64"/>
	<line x1="3555.90" y1="2395.88" x2="3613.55" y2="2395.88" style="stroke:#F0F0F0;stroke-width:8.64"/>
	<line x1="3642.30" y1="2395.88" x2="3699.95" y2="2395.88" style="stroke:#F0F0F0;stroke-width:8.64"/>
	<line x1="3728.70" y1="2395.88" x2="3786.35" y2="2395.88" style="stroke:#F0F0F0;stroke-width:8.64"/>
	<line x1="3815.10" y1="2395.88" x2="3872.75" y2="2395.88" style="stroke:#F0F0F0;stroke-width:8.64"/>
	<line x1="3901.50" y1="2395.88" x2="3959.15" y2="2395.88" style="stroke:#F0F0F0;stroke-width:8.64"/>
	<line x1="3987.90" y1="2395.88" x2="4045.55" y2="2395.88" style="stroke:#F0F0F0;stroke-width:8.64"/>
	<line x1="4074.30" y1="2395.88" x2="4131.95" y2="2395.88" style="stroke:#F0F0F0;stroke-width:8.64"/>
	<line x1="4160.70" y1="2395.88" x2="4218.35" y2="2395.88" style="stroke:#F0F0F0;stroke-width:8.64"/>
	<line x1="618.30" y1="1651.89" x2="675.95" y2="1651.89" style="stroke:#F0F0F0;stroke-width:8.64"/>
	<line x1="704.70" y1="1651.89" x2="762.35" y2="1651.89" style="stroke:#F0F0F0;stroke-width:8.64"/>
	<line x1="791.10" y1="1651.89" x2="848.75" y2="1651.89" style="stroke:#F0F0F0;stroke-width:8.64"/>
	<line x1="877.50" y1="1651.89" x2="935.15" y2="1651.89" style="stroke:#F0F0F0;stroke-width:8.64"/>
	<line x1="963.90" y1="1651.89" x2="1021.55" y2="1651.89" style="stroke:#F0F0F0;stroke-width:8.64"/>
	<line x1="1050.30" y1="1651.89" x2="1107.95" y2="1651.89" style="stroke:#F0F0F0;stroke-width:8.64"/>
	<line x1="1136.70" y1="1651.89" x2="1194.35" y2="1651.89" style="stroke:#F0F0F0;stroke-width:8.64"/>
	<line x1="1223.10" y1="1651.89" x2="1280.74" y2="1651.89" style="stroke:#F0F0F0;stroke-width:8.64"/>
	<line x1="1309.50" y1="1651.89" x2="1367.15" y2="1651.89" style="stroke:#F0F0F0;stroke-width:8.64"/>
	<line x1="1395.90" y1="1651.89" x2="1453.55" y2="1651.89" style="stroke:#F0F0F0;stroke-width:8.64"/>
	<line x1="1482.30" y1="1651.89" x2="1539.95" y2="1651.89" style="stroke:#F0F0F0;stroke-width:8.64"/>
	<line x1="1568.70" y1="1651.89" x2="1626.35" y2="1651.89" style="stroke:#F0F0F0;stroke-width:8.64"/>
	<line x1="1655.10" y1="1651.89" x2="1712.75" y2="1651.89" style="stroke:#F0F0F0;stroke-width:8.64"/>
	<line x1="1741.50" y1="1651.89" x2="1799.15" y2="1651.89" style="stroke:#F0F0F0;stroke-width:8.64"/>
	<line x1="1827.90" y1="1651.89" x2="1885.55" y2="1651.89" style="stroke:#F0F0F0;stroke-width:8.64"/>
	<line x1="1914.30" y1="1651.89" x2="1971.95" y2="1651.89" style="stroke:#F0F0F0;stroke-width:8.64"/>
	<line x1="2000.70" y1="1651.89" x2="2058.34" y2="1651.89" style="stroke:#F0F0F0;stroke-width:8.64"/>
	<line x1="2087.10" y1="1651.89" x2="2144.75" y2="1651.89" style="stroke:#F0F0F0;stroke-width:8.64"/>
	<line x1="2173.50" y1="1651.89" x2="2231.15" y2="1651.89" style="stroke:#F0F0F0;stroke-width:8.64"/>
	<line x1="2259.90" y1="1651.89" x2="2317.55" y2="1651.89" style="stroke:#F0F0F0;stroke-width:8.64"/>
	<line x1="2346.30" y1="1651.89" x2="2403.95" y2="1651.89" style="stroke:#F0F0F0;stroke-width:8.64"/>
	<line x1="2432.70" y1="1651.89" x2="2490.34" y2="1651.89" style="stroke:#F0F0F0;stroke-width:8.64"/>
	<line x1="2519.10" y1="1651.89" x2="2576.75" y2="1651.89" style="stroke:#F0F0F0;stroke-width:8.64"/>
	<line x1="2605.50" y1="1651.89" x2="2663.15" y2="1651.89" style="stroke:#F0F0F0;stroke-width:8.64"/>
	<line x1="2691.90" y1="1651.89" x2="2749.55" y2="1651.89" style="stroke:#F0F0F0;stroke-width:8.64"/>
	<line x1="2778.30" y1="1651.89" x2="2835.95" y2="1651.89" style="stroke:#F0F0F0;stroke-width:8.64"/>
	<line x1="2864.70" y1="1651.89" x2="2922.35" y2="1651.89" style="stroke:#F0F0F0;stroke-width:8.64"/>
	<line x1="2951.10" y1="1651.89" x2="3008.75" y2="1651.89" style="stroke:#F0F0F0;stroke-width:8.64"/>
	<line x1="3037.50" y1="1651.89" x2="3095.15" y2="1651.89" style="stroke:#F0F0F0;stroke-width:8.64"/>
	<line x1="3123.90" y1="1651.89" x2="3181.55" y2="1651.89" style="stroke:#F0F0F0;stroke-width:8.64"/>
	<line x1="3210.30" y1="1651.89" x2="3267.95" y2="1651.89" style="stroke:#F0F0F0;stroke-width:8.64"/>
	<line x1="3296.70" y1="1651.89" x2="3354.35" y2="1651.89" style="stroke:#F0F0F0;stroke-width:8.64"/>
	<line x1="3383.10" y1="1651.89" x2="3440.75" y2="1651.89" style="stroke:#F0F0F0;stroke-width:8.64"/>
	<line x1="3469.50" y1="1651.89" x2="3527.15" y2="1651.89" style="stroke:#F0F0F0;stroke-width:8.64"/>
	<line x1="3555.90" y1="1651.89" x2="3613.55" y2="1651.89" style="stroke:#F0F0F0;stroke-width:8.64"/>
	<line x1="3642.30" y1="1651.89" x2="3699.95" y2="1651.89" style="stroke:#F0F0F0;stroke-width:8.64"/>
	<line x1="3728.70" y1="1651.89" x2="3786.35" y2="1651.89" style="stroke:#F0F0F0;stroke-width:8.64"/>
	<line x1="3815.10" y1="1651.89" x2="3872.75" y2="1651.89" style="stroke:#F0F0F0;stroke-width:8.64"/>
	<line x1="3901.50" y1="1651.89" x2="3959.15" y2="1651.89" style="stroke:#F0F0F0;stroke-width:8.64"/>
	<line x1="3987.90" y1="1651.89" x2="4045.55" y2="1651.89" style="stroke:#F0F0F0;stroke-width:8.64"/>
	<line x1="4074.30" y1="1651.89" x2="4131.95" y2="1651.89" style="stroke:#F0F0F0;stroke-width:8.64"/>
	<line x1="4160.70" y1="1651.89" x2="4218.35" y2="1651.89" style="stroke:#F0F0F0;stroke-width:8.64"/>
	<line x1="618.30" y1="908.02" x2="675.95" y2="908.02" style="stroke:#F0F0F0;stroke-width:8.64"/>
	<line x1="704.70" y1="908.02" x2="762.35" y2="908.02" style="stroke:#F0F0F0;stroke-width:8.64"/>
	<line x1="791.10" y1="908.02" x2="848.75" y2="908.02" style="stroke:#F0F0F0;stroke-width:8.64"/>
	<line x1="877.50" y1="908.02" x2="935.15" y2="908.02" style="stroke:#F0F0F0;stroke-width:8.64"/>
	<line x1="963.90" y1="908.02" x2="1021.55" y2="908.02" style="stroke:#F0F0F0;stroke-width:8.64"/>
	<line x1="1050.30" y1="908.02" x2="1107.95" y2="908.02" style="stroke:#F0F0F0;stroke-width:8.64"/>
	<line x1="1136.70" y1="908.02" x2="1194.35" y2="908.02" style="stroke:#F0F0F0;stroke-width:8.64"/>
	<line x1="1223.10" y1="908.02" x2="1280.74" y2="908.02" style="stroke:#F0F0F0;stroke-width:8.64"/>
	<line x1="1309.50" y1="908.02" x2="1367.15" y2="908.02" style="stroke:#F0F0F0;stroke-width:8.64"/>
	<line x1="1395.90" y1="908.02" x2="1453.55" y2="908.02" style="stroke:#F0F0F0;stroke-width:8.64"/>
	<line x1="1482.30" y1="908.02" x2="1539.95" y2="908.02" style="stroke:#F0F0F0;stroke-width:8.64"/>
	<line x1="1568.70" y1="908.02" x2="1626.35" y2="908.02" style="stroke:#F0F0F0;stroke-width:8.64"/>
	<line x1="1655.10" y1="908.02" x2="1712.75" y2="908.02" style="stroke:#F0F0F0;stroke-width:8.64"/>
	<line x1="1741.50" y1="908.02" x2="1799.15" y2="908.02" style="stroke:#F0F0F0;stroke-width:8.64"/>
	<line x1="1827.90" y1="908.02" x2="1885.55" y2="908.02" style="stroke:#F0F0F0;stroke-width:8.64"/>
	<line x1="1914.30" y1="908.02" x2="1971.95" y2="908.02" style="stroke:#F0F0F0;stroke-width:8.64"/>
	<line x1="2000.70" y1="908.02" x2="2058.34" y2="908.02" style="stroke:#F0F0F0;stroke-width:8.64"/>
	<line x1="2087.10" y1="908.02" x2="2144.75" y2="908.02" style="stroke:#F0F0F0;stroke-width:8.64"/>
	<line x1="2173.50" y1="908.02" x2="2231.15" y2="908.02" style="stroke:#F0F0F0;stroke-width:8.64"/>
	<line x1="2259.90" y1="908.02" x2="2317.55" y2="908.02" style="stroke:#F0F0F0;stroke-width:8.64"/>
	<line x1="2346.30" y1="908.02" x2="2403.95" y2="908.02" style="stroke:#F0F0F0;stroke-width:8.64"/>
	<line x1="2432.70" y1="908.02" x2="2490.34" y2="908.02" style="stroke:#F0F0F0;stroke-width:8.64"/>
	<line x1="2519.10" y1="908.02" x2="2576.75" y2="908.02" style="stroke:#F0F0F0;stroke-width:8.64"/>
	<line x1="2605.50" y1="908.02" x2="2663.15" y2="908.02" style="stroke:#F0F0F0;stroke-width:8.64"/>
	<line x1="2691.90" y1="908.02" x2="2749.55" y2="908.02" style="stroke:#F0F0F0;stroke-width:8.64"/>
	<line x1="2778.30" y1="908.02" x2="2835.95" y2="908.02" style="stroke:#F0F0F0;stroke-width:8.64"/>
	<line x1="2864.70" y1="908.02" x2="2922.35" y2="908.02" style="stroke:#F0F0F0;stroke-width:8.64"/>
	<line x1="2951.10" y1="908.02" x2="3008.75" y2="908.02" style="stroke:#F0F0F0;stroke-width:8.64"/>
	<line x1="3037.50" y1="908.02" x2="3095.15" y2="908.02" style="stroke:#F0F0F0;stroke-width:8.64"/>
	<line x1="3123.90" y1="908.02" x2="3181.55" y2="908.02" style="stroke:#F0F0F0;stroke-width:8.64"/>
	<line x1="3210.30" y1="908.02" x2="3267.95" y2="908.02" style="stroke:#F0F0F0;stroke-width:8.64"/>
	<line x1="3296.70" y1="908.02" x2="3354.35" y2="908.02" style="stroke:#F0F0F0;stroke-width:8.64"/>
	<line x1="3383.10" y1="908.02" x2="3440.75" y2="908.02" style="stroke:#F0F0F0;stroke-width:8.64"/>
	<line x1="3469.50" y1="908.02" x2="3527.15" y2="908.02" style="stroke:#F0F0F0;stroke-width:8.64"/>
	<line x1="3555.90" y1="908.02" x2="3613.55" y2="908.02" style="stroke:#F0F0F0;stroke-width:8.64"/>
	<line x1="3642.30" y1="908.02" x2="3699.95" y2="908.02" style="stroke:#F0F0F0;stroke-width:8.64"/>
	<line x1="3728.70" y1="908.02" x2="3786.35" y2="908.02" style="stroke:#F0F0F0;stroke-width:8.64"/>
	<line x1="3815.10" y1="908.02" x2="3872.75" y2="908.02" style="stroke:#F0F0F0;stroke-width:8.64"/>
	<line x1="3901.50" y1="908.02" x2="3959.15" y2="908.02" style="stroke:#F0F0F0;stroke-width:8.64"/>
	<line x1="3987.90" y1="908.02" x2="4045.55" y2="908.02" style="stroke:#F0F0F0;stroke-width:8.64"/>
	<line x1="4074.30" y1="908.02" x2="4131.95" y2="908.02" style="stroke:#F0F0F0;stroke-width:8.64"/>
	<line x1="4160.70" y1="908.02" x2="4218.35" y2="908.02" style="stroke:#F0F0F0;stroke-width:8.64"/>
	<line x1="618.30" y1="164.16" x2="675.95" y2="164.16" style="stroke:#F0F0F0;stroke-width:8.64"/>
	<line x1="704.70" y1="164.16" x2="762.35" y2="164.16" style="stroke:#F0F0F0;stroke-width:8.64"/>
	<line x1="791.10" y1="164.16" x2="848.75" y2="164.16" style="stroke:#F0F0F0;stroke-width:8.64"/>
	<line x1="877.50" y1="164.16" x2="935.15" y2="164.16" style="stroke:#F0F0F0;stroke-width:8.64"/>
	<line x1="963.90" y1="164.16" x2="1021.55" y2="164.16" style="stroke:#F0F0F0;stroke-width:8.64"/>
	<line x1="1050.30" y1="164.16" x2="1107.95" y2="164.16" style="stroke:#F0F0F0;stroke-width:8.64"/>
	<line x1="1136.70" y1="164.16" x2="1194.35" y2="164.16" style="stroke:#F0F0F0;stroke-width:8.64"/>
	<line x1="1223.10" y1="164.16" x2="1280.74" y2="164.16" style="stroke:#F0F0F0;stroke-width:8.64"/>
	<line x1="1309.50" y1="164.16" x2="1367.15" y2="164.16" style="stroke:#F0F0F0;stroke-width:8.64"/>
	<line x1="1395.90" y1="164.16" x2="1453.55" y2="164.16" style="stroke:#F0F0F0;stroke-width:8.64"/>
	<line x1="1482.30" y1="164.16" x2="1539.95" y2="164.16" style="stroke:#F0F0F0;stroke-width:8.64"/>
	<line x1="1568.70" y1="164.16" x2="1626.35" y2="164.16" style="stroke:#F0F0F0;stroke-width:8.64"/>
	<line x1="1655.10" y1="164.16" x2="1712.75" y2="164.16" style="stroke:#F0F0F0;stroke-width:8.64"/>
	<line x1="1741.50" y1="164.16" x2="1799.15" y2="164.16" style="stroke:#F0F0F0;stroke-width:8.64"/>
	<line x1="1827.90" y1="164.16" x2="1885.55" y2="164.16" style="stroke:#F0F0F0;stroke-width:8.64"/>
	<line x1="1914.30" y1="164.16" x2="1971.95" y2="164.16" style="stroke:#F0F0F0;stroke-width:8.64"/>
	<line x1="2000.70" y1="164.16" x2="2058.34" y2="164.16" style="stroke:#F0F0F0;stroke-width:8.64"/>
	<line x1="2087.10" y1="164.16" x2="2144.75" y2="164.16" style="stroke:#F0F0F0;stroke-width:8.64"/>
	<line x1="2173.50" y1="164.16" x2="2231.15" y2="164.16" style="stroke:#F0F0F0;stroke-width:8.64"/>
	<line x1="2259.90" y1="164.16" x2="2317.55" y2="164.16" style="stroke:#F0F0F0;stroke-width:8.64"/>
	<line x1="2346.30" y1="164.16" x2="2403.95" y2="164.16" style="stroke:#F0F0F0;stroke-width:8.64"/>
	<line x1="2432.70" y1="164.16" x2="2490.34" y2="164.16" style="stroke:#F0F0F0;stroke-width:8.64"/>
	<line x1="2519.10" y1="164.16" x2="2576.75" y2="164.16" style="stroke:#F0F0F0;stroke-width:8.64"/>
	<line x1="2605.50" y1="164.16" x2="2663.15" y2="164.16" style="stroke:#F0F0F0;stroke-width:8.64"/>
	<line x1="2691.90" y1="164.16" x2="2749.55" y2="164.16" style="stroke:#F0F0F0;stroke-width:8.64"/>
	<line x1="2778.30" y1="164.16" x2="2835.95" y2="164.16" style="stroke:#F0F0F0;stroke-width:8.64"/>
	<line x1="2864.70" y1="164.16" x2="2922.35" y2="164.16" style="stroke:#F0F0F0;stroke-width:8.64"/>
	<line x1="2951.10" y1="164.16" x2="3008.75" y2="164.16" style="stroke:#F0F0F0;stroke-width:8.64"/>
	<line x1="3037.50" y1="164.16" x2="3095.15" y2="164.16" style="stroke:#F0F0F0;stroke-width:8.64"/>
	<line x1="3123.90" y1="164.16" x2="3181.55" y2="164.16" style="stroke:#F0F0F0;stroke-width:8.64"/>
	<line x1="3210.30" y1="164.16" x2="3267.95" y2="164.16" style="stroke:#F0F0F0;stroke-width:8.64"/>
	<line x1="3296.70" y1="164.16" x2="3354.35" y2="164.16" style="stroke:#F0F0F0;stroke-width:8.64"/>
	<line x1="3383.10" y1="164.16" x2="3440.75" y2="164.16" style="stroke:#F0F0F0;stroke-width:8.64"/>
	<line x1="3469.50" y1="164.16" x2="3527.15" y2="164.16" style="stroke:#F0F0F0;stroke-width:8.64"/>
	<line x1="3555.90" y1="164.16" x2="3613.55" y2="164.16" style="stroke:#F0F0F0;stroke-width:8.64"/>
	<line x1="3642.30" y1="164.16" x2="3699.95" y2="164.16" style="stroke:#F0F0F0;stroke-width:8.64"/>
	<line x1="3728.70" y1="164.16" x2="3786.35" y2="164.16" style="stroke:#F0F0F0;stroke-width:8.64"/>
	<line x1="3815.10" y1="164.16" x2="3872.75" y2="164.16" style="stroke:#F0F0F0;stroke-width:8.64"/>
	<line x1="3901.50" y1="164.16" x2="3959.15" y2="164.16" style="stroke:#F0F0F0;stroke-width:8.64"/>
	<line x1="3987.90" y1="164.16" x2="4045.55" y2="164.16" style="stroke:#F0F0F0;stroke-width:8.64"/>
	<line x1="4074.30" y1="164.16" x2="4131.95" y2="164.16" style="stroke:#F0F0F0;stroke-width:8.64"/>
	<line x1="4160.70" y1="164.16" x2="4218.35" y2="164.16" style="stroke:#F0F0F0;stroke-width:8.64"/>
	<line x1="681.62" y1="2459.20" x2="681.62" y2="2401.55" style="stroke:#F0F0F0;stroke-width:8.64"/>
	<line x1="681.62" y1="2372.80" x2="681.62" y2="2315.15" style="stroke:#F0F0F0;stroke-width:8.64"/>
	<line x1="681.62" y1="2286.40" x2="681.62" y2="2228.75" style="stroke:#F0F0F0;stroke-width:8.64"/>
	<line x1="681.62" y1="2199.99" x2="681.62" y2="2142.35" style="stroke:#F0F0F0;stroke-width:8.64"/>
	<line x1="681.62" y1="2113.59" x2="681.62" y2="2055.95" style="stroke:#F0F0F0;stroke-width:8.64"/>
	<line x1="681.62" y1="2027.19" x2="681.62" y2="1969.55" style="stroke:#F0F0F0;stroke-width:8.64"/>
	<line x1="681.62" y1="1940.79" x2="681.62" y2="1883.14" style="stroke:#F0F0F0;stroke-width:8.64"/>
	<line x1="681.62" y1="1854.39" x2="681.62" y2="1796.74" style="stroke:#F0F0F0;stroke-width:8.64"/>
	<line x1="681.62" y1="1767.99" x2="681.62" y2="1710.34" style="stroke:#F0F0F0;stroke-width:8.64"/>
	<line x1="681.62" y1="1681.59" x2="681.62" y2="1623.94" style="stroke:#F0F0F0;stroke-width:8.64"/>
	<line x1="681.62" y1="1595.18" x2="681.62" y2="1537.54" style="stroke:#F0F0F0;stroke-width:8.64"/>
	<line x1="681.62" y1="1508.78" x2="681.62" y2="1451.14" style="stroke:#F0F0F0;stroke-width:8.64"/>
	<line x1="681.62" y1="1422.38" x2="681.62" y2="1364.74" style="stroke:#F0F0F0;stroke-width:8.64"/>
	<line x1="681.62" y1="1335.98" x2="681.62" y2="1278.33" style="stroke:#F0F0F0;stroke-width:8.64"/>
	<line x1="681.62" y1="1249.58" x2="681.62" y2="1191.93" style="stroke:#F0F0F0;stroke-width:8.64"/>
	<line x1="681.62" y1="1163.18" x2="681.62" y2="1105.53" style="stroke:#F0F0F0;stroke-width:8.64"/>
	<line x1="681.62" y1="1076.78" x2="681.62" y2="1019.13" style="stroke:#F0F0F0;stroke-width:8.64"/>
	<line x1="681.62" y1="990.38" x2="681.62" y2="932.73" style="stroke:#F0F0F0;stroke-width:8.64"/>
	<line x1="681.62" y1="903.97" x2="681.62" y2="846.33" style="stroke:#F0F0F0;stroke-width:8.64"/>
	<line x1="681.62" y1="817.57" x2="681.62" y2="759.93" style="stroke:#F0F0F0;stroke-width:8.64"/>
	<line x1="681.62" y1="731.17" x2="681.62" y2="673.53" style="stroke:#F0F0F0;stroke-width:8.64"/>
	<line x1="681.62" y1="644.77" x2="681.62" y2="587.12" style="stroke:#F0F0F0;stroke-width:8.64"/>
	<line x1="681.62" y1="558.37" x2="681.62" y2="500.72" style="stroke:#F0F0F0;stroke-width:8.64"/>
	<line x1="681.62" y1="471.97" x2="681.62" y2="414.32" style="stroke:#F0F0F0;stroke-width:8.64"/>
	<line x1="681.62" y1="385.57" x2="681.62" y2="327.92" style="stroke:#F0F0F0;stroke-width:8.64"/>
	<line x1="681.62" y1="299.16" x2="681.62" y2="241.52" style="stroke:#F0F0F0;stroke-width:8.64"/>
	<line x1="681.62" y1="212.76" x2="681.62" y2="155.12" style="stroke:#F0F0F0;stroke-width:8.64"/>
	<line x1="681.62" y1="126.36" x2="681.62" y2="100.85" style="stroke:#F0F0F0;stroke-width:8.64"/>
	<line x1="1376.46" y1="2459.20" x2="1376.46" y2="2401.55" style="stroke:#F0F0F0;stroke-width:8.64"/>
	<line x1="1376.46" y1="2372.80" x2="1376.46" y2="2315.15" style="stroke:#F0F0F0;stroke-width:8.64"/>
	<line x1="1376.46" y1="2286.40" x2="1376.46" y2="2228.75" style="stroke:#F0F0F0;stroke-width:8.64"/>
	<line x1="1376.46" y1="2199.99" x2="1376.46" y2="2142.35" style="stroke:#F0F0F0;stroke-width:8.64"/>
	<line x1="1376.46" y1="2113.59" x2="1376.46" y2="2055.95" style="stroke:#F0F0F0;stroke-width:8.64"/>
	<line x1="1376.46" y1="2027.19" x2="1376.46" y2="1969.55" style="stroke:#F0F0F0;stroke-width:8.64"/>
	<line x1="1376.46" y1="1940.79" x2="1376.46" y2="1883.14" style="stroke:#F0F0F0;stroke-width:8.64"/>
	<line x1="1376.46" y1="1854.39" x2="1376.46" y2="1796.74" style="stroke:#F0F0F0;stroke-width:8.64"/>
	<line x1="1376.46" y1="1767.99" x2="1376.46" y2="1710.34" style="stroke:#F0F0F0;stroke-width:8.64"/>
	<line x1="1376.46" y1="1681.59" x2="1376.46" y2="1623.94" style="stroke:#F0F0F0;stroke-width:8.64"/>
	<line x1="1376.46" y1="1595.18" x2="1376.46" y2="1537.54" style="stroke:#F0F0F0;stroke-width:8.64"/>
	<line x1="1376.46" y1="1508.78" x2="1376.46" y2="1451.14" style="stroke:#F0F0F0;stroke-width:8.64"/>
	<line x1="1376.46" y1="1422.38" x2="1376.46" y2="1364.74" style="stroke:#F0F0F0;stroke-width:8.64"/>
	<line x1="1376.46" y1="1335.98" x2="1376.46" y2="1278.33" style="stroke:#F0F0F0;stroke-width:8.64"/>
	<line x1="1376.46" y1="1249.58" x2="1376.46" y2="1191.93" style="stroke:#F0F0F0;stroke-width:8.64"/>
	<line x1="1376.46" y1="1163.18" x2="1376.46" y2="1105.53" style="stroke:#F0F0F0;stroke-width:8.64"/>
	<line x1="1376.46" y1="1076.78" x2="1376.46" y2="1019.13" style="stroke:#F0F0F0;stroke-width:8.64"/>
	<line x1="1376.46" y1="990.38" x2="1376.46" y2="932.73" style="stroke:#F0F0F0;stroke-width:8.64"/>
	<line x1="1376.46" y1="903.97" x2="1376.46" y2="846.33" style="stroke:#F0F0F0;stroke-width:8.64"/>
	<line x1="1376.46" y1="817.57" x2="1376.46" y2="759.93" style="stroke:#F0F0F0;stroke-width:8.64"/>
	<line x1="1376.46" y1="731.17" x2="1376.46" y2="673.53" style="stroke:#F0F0F0;stroke-width:8.64"/>
	<line x1="1376.46" y1="644.77" x2="1376.46" y2="587.12" style="stroke:#F0F0F0;stroke-width:8.64"/>
	<line x1="1376.46" y1="558.37" x2="1376.46" y2="500.72" style="stroke:#F0F0F0;stroke-width:8.64"/>
	<line x1="1376.46" y1="471.97" x2="1376.46" y2="414.32" style="stroke:#F0F0F0;stroke-width:8.64"/>
	<line x1="1376.46" y1="385.57" x2="1376.46" y2="327.92" style="stroke:#F0F0F0;stroke-width:8.64"/>
	<line x1="1376.46" y1="299.16" x2="1376.46" y2="241.52" style="stroke:#F0F0F0;stroke-width:8.64"/>
	<line x1="1376.46" y1="212.76" x2="1376.46" y2="155.12" style="stroke:#F0F0F0;stroke-width:8.64"/>
	<line x1="1376.46" y1="126.36" x2="1376.46" y2="100.85" style="stroke:#F0F0F0;stroke-width:8.64"/>
	<line x1="2071.30" y1="2459.20" x2="2071.30" y2="2401.55" style="stroke:#F0F0F0;stroke-width:8.64"/>
	<line x1="2071.30" y1="2372.80" x2="2071.30" y2="2315.15" style="stroke:#F0F0F0;stroke-width:8.64"/>
	<line x1="2071.30" y1="2286.40" x2="2071.30" y2="2228.75" style="stroke:#F0F0F0;stroke-width:8.64"/>
	<line x1="2071.30" y1="2199.99" x2="2071.30" y2="2142.35" style="stroke:#F0F0F0;stroke-width:8.64"/>
	<line x1="2071.30" y1="2113.59" x2="2071.30" y2="2055.95" style="stroke:#F0F0F0;stroke-width:8.64"/>
	<line x1="2071.30" y1="2027.19" x2="2071.30" y2="1969.55" style="stroke:#F0F0F0;stroke-width:8.64"/>
	<line x1="2071.30" y1="1940.79" x2="2071.30" y2="1883.14" style="stroke:#F0F0F0;stroke-width:8.64"/>
	<line x1="2071.30" y1="1854.39" x2="2071.30" y2="1796.74" style="stroke:#F0F0F0;stroke-width:8.64"/>
	<line x1="2071.30" y1="1767.99" x2="2071.30" y2="1710.34" style="stroke:#F0F0F0;stroke-width:8.64"/>
	<line x1="2071.30" y1="1681.59" x2="2071.30" y2="1623.94" style="stroke:#F0F0F0;stroke-width:8.64"/>
	<line x1="2071.30" y1="1595.18" x2="2071.30" y2="1537.54" style="stroke:#F0F0F0;stroke-width:8.64"/>
	<line x1="2071.30" y1="1508.78" x2="2071.30" y2="1451.14" style="stroke:#F0F0F0;stroke-width:8.64"/>
	<line x1="2071.30" y1="1422.38" x2="2071.30" y2="1364.74" style="stroke:#F0F0F0;stroke-width:8.64"/>
	<line x1="2071.30" y1="1335.98" x2="2071.30" y2="1278.33" style="stroke:#F0F0F0;stroke-width:8.64"/>
	<line x1="2071.30" y1="1249.58" x2="2071.30" y2="1191.93" style="stroke:#F0F0F0;stroke-width:8.64"/>
	<line x1="2071.30" y1="1163.18" x2="2071.30" y2="1105.53" style="stroke:#F0F0F0;stroke-width:8.64"/>
	<line x1="2071.30" y1="1076.78" x2="2071.30" y2="1019.13" style="stroke:#F0F0F0;stroke-width:8.64"/>
	<line x1="2071.30" y1="990.38" x2="2071.30" y2="932.73" style="stroke:#F0F0F0;stroke-width:8.64"/>
	<line x1="2071.30" y1="903.97" x2="2071.30" y2="846.33" style="stroke:#F0F0F0;stroke-width:8.64"/>
	<line x1="2071.30" y1="817.57" x2="2071.30" y2="759.93" style="stroke:#F0F0F0;stroke-width:8.64"/>
	<line x1="2071.30" y1="731.17" x2="2071.30" y2="673.53" style="stroke:#F0F0F0;stroke-width:8.64"/>
	<line x1="2071.30" y1="644.77" x2="2071.30" y2="587.12" style="stroke:#F0F0F0;stroke-width:8.64"/>
	<line x1="2071.30" y1="558.37" x2="2071.30" y2="500.72" style="stroke:#F0F0F0;stroke-width:8.64"/>
	<line x1="2071.30" y1="471.97" x2="2071.30" y2="414.32" style="stroke:#F0F0F0;stroke-width:8.64"/>
	<line x1="2071.30" y1="385.57" x2="2071.30" y2="327.92" style="stroke:#F0F0F0;stroke-width:8.64"/>
	<line x1="2071.30" y1="299.16" x2="2071.30" y2="241.52" style="stroke:#F0F0F0;stroke-width:8.64"/>
	<line x1="2071.30" y1="212.76" x2="2071.30" y2="155.12" style="stroke:#F0F0F0;stroke-width:8.64"/>
	<line x1="2071.30" y1="126.36" x2="2071.30" y2="100.85" style="stroke:#F0F0F0;stroke-width:8.64"/>
	<line x1="2766.15" y1="2459.20" x2="2766.15" y2="2401.55" style="stroke:#F0F0F0;stroke-width:8.64"/>
	<line x1="2766.15" y1="2372.80" x2="2766.15" y2="2315.15" style="stroke:#F0F0F0;stroke-width:8.64"/>
	<line x1="2766.15" y1="2286.40" x2="2766.15" y2="2228.75" style="stroke:#F0F0F0;stroke-width:8.64"/>
	<line x1="2766.15" y1="2199.99" x2="2766.15" y2="2142.35" style="stroke:#F0F0F0;stroke-width:8.64"/>
	<line x1="2766.15" y1="2113.59" x2="2766.15" y2="2055.95" style="stroke:#F0F0F0;stroke-width:8.64"/>
	<line x1="2766.15" y1="2027.19" x2="2766.15" y2="1969.55" style="stroke:#F0F0F0;stroke-width:8.64"/>
	<line x1="2766.15" y1="1940.79" x2="2766.15" y2="1883.14" style="stroke:#F0F0F0;stroke-width:8.64"/>
	<line x1="2766.15" y1="1854.39" x2="2766.15" y2="1796.74" style="stroke:#F0F0F0;stroke-width:8.64"/>
	<line x1="2766.15" y1="1767.99" x2="2766.15" y2="1710.34" style="stroke:#F0F0F0;stroke-width:8.64"/>
	<line x1="2766.15" y1="1681.59" x2="2766.15" y2="1623.94" style="stroke:#F0F0F0;stroke-width:8.64"/>
	<line x1="2766.15" y1="1595.18" x2="2766.15" y2="1537.54" style="stroke:#F0F0F0;stroke-width:8.64"/>
	<line x1="2766.15" y1="1508.78" x2="2766.15" y2="1451.14" style="stroke:#F0F0F0;stroke-width:8.64"/>
	<line x1="2766.15" y1="1422.38" x2="2766.15" y2="1364.74" style="stroke:#F0F0F0;stroke-width:8.64"/>
	<line x1="2766.15" y1="1335.98" x2="2766.15" y2="1278.33" style="stroke:#F0F0F0;stroke-width:8.64"/>
	<line x1="2766.15" y1="1249.58" x2="2766.15" y2="1191.93" style="stroke:#F0F0F0;stroke-width:8.64"/>
	<line x1="2766.15" y1="1163.18" x2="2766.15" y2="1105.53" style="stroke:#F0F0F0;stroke-width:8.64"/>
	<line x1="2766.15" y1="1076.78" x2="2766.15" y2="1019.13" style="stroke:#F0F0F0;stroke-width:8.64"/>
	<line x1="2766.15" y1="990.38" x2="2766.15" y2="932.73" style="stroke:#F0F0F0;stroke-width:8.64"/>
	<line x1="2766.15" y1="903.97" x2="2766.15" y2="846.33" style="stroke:#F0F0F0;stroke-width:8.64"/>
	<line x1="2766.15" y1="817.57" x2="2766.15" y2="759.93" style="stroke:#F0F0F0;stroke-width:8.64"/>
	<line x1="2766.15" y1="731.17" x2="2766.15" y2="673.53" style="stroke:#F0F0F0;stroke-width:8.64"/>
	<line x1="2766.15" y1="644.77" x2="2766.15" y2="587.12" style="stroke:#F0F0F0;stroke-width:8.64"/>
	<line x1="2766.15" y1="558.37" x2="2766.15" y2="500.72" style="stroke:#F0F0F0;stroke-width:8.64"/>
	<line x1="2766.15" y1="471.97" x2="2766.15" y2="414.32" style="stroke:#F0F0F0;stroke-width:8.64"/>
	<line x1="2766.15" y1="385.57" x2="2766.15" y2="327.92" style="stroke:#F0F0F0;stroke-width:8.64"/>
	<line x1="2766.15" y1="299.16" x2="2766.15" y2="241.52" style="stroke:#F0F0F0;stroke-width:8.64"/>
	<line x1="2766.15" y1="212.76" x2="2766.15" y2="155.12" style="stroke:#F0F0F0;stroke-width:8.64"/>
	<line x1="2766.15" y1="126.36" x2="2766.15" y2="100.85" style="stroke:#F0F0F0;stroke-width:8.64"/>
	<line x1="3461.00" y1="2459.20" x2="3461.00" y2="2401.55" style="stroke:#F0F0F0;stroke-width:8.64"/>
	<line x1="3461.00" y1="2372.80" x2="3461.00" y2="2315.15" style="stroke:#F0F0F0;stroke-width:8.64"/>
	<line x1="3461.00" y1="2286.40" x2="3461.00" y2="2228.75" style="stroke:#F0F0F0;stroke-width:8.64"/>
	<line x1="3461.00" y1="2199.99" x2="3461.00" y2="2142.35" style="stroke:#F0F0F0;stroke-width:8.64"/>
	<line x1="3461.00" y1="2113.59" x2="3461.00" y2="2055.95" style="stroke:#F0F0F0;stroke-width:8.64"/>
	<line x1="3461.00" y1="2027.19" x2="3461.00" y2="1969.55" style="stroke:#F0F0F0;stroke-width:8.64"/>
	<line x1="3461.00" y1="1940.79" x2="3461.00" y2="1883.14" style="stroke:#F0F0F0;stroke-width:8.64"/>
	<line x1="3461.00" y1="1854.39" x2="3461.00" y2="1796.74" style="stroke:#F0F0F0;stroke-width:8.64"/>
	<line x1="3461.00" y1="1767.99" x2="3461.00" y2="1710.34" style="stroke:#F0F0F0;stroke-width:8.64"/>
	<line x1="3461.00" y1="1681.59" x2="3461.00" y2="1623.94" style="stroke:#F0F0F0;stroke-width:8.64"/>
	<line x1="3461.00" y1="1595.18" x2="3461.00" y2="1537.54" style="stroke:#F0F0F0;stroke-width:8.64"/>
	<line x1="3461.00" y1="1508.78" x2="3461.00" y2="1451.14" style="stroke:#F0F0F0;stroke-width:8.64"/>
	<line x1="3461.00" y1="1422.38" x2="3461.00" y2="1364.74" style="stroke:#F0F0F0;stroke-width:8.64"/>
	<line x1="3461.00" y1="1335.98" x2="3461.00" y2="1278.33" style="stroke:#F0F0F0;stroke-width:8.64"/>
	<line x1="3461.00" y1="1249.58" x2="3461.00" y2="1191.93" style="stroke:#F0F0F0;stroke-width:8.64"/>
	<line x1="3461.00" y1="1163.18" x2="3461.00" y2="1105.53" style="stroke:#F0F0F0;stroke-width:8.64"/>
	<line x1="3461.00" y1="1076.78" x2="3461.00" y2="1019.13" style="stroke:#F0F0F0;stroke-width:8.64"/>
	<line x1="3461.00" y1="990.38" x2="3461.00" y2="932.73" style="stroke:#F0F0F0;stroke-width:8.64"/>
	<line x1="3461.00" y1="903.97" x2="3461.00" y2="846.33" style="stroke:#F0F0F0;stroke-width:8.64"/>
	<line x1="3461.00" y1="817.57" x2="3461.00" y2="759.93" style="stroke:#F0F0F0;stroke-width:8.64"/>
	<line x1="3461.00" y1="731.17" x2="3461.00" y2="673.53" style="stroke:#F0F0F0;stroke-width:8.64"/>
	<line x1="3461.00" y1="644.77" x2="3461.00" y2="587.12" style="stroke:#F0F0F0;stroke-width:8.64"/>
	<line x1="3461.00" y1="558.37" x2="3461.00" y2="500.72" style="stroke:#F0F0F0;stroke-width:8.64"/>
	<line x1="3461.00" y1="471.97" x2="3461.00" y2="414.32" style="stroke:#F0F0F0;stroke-width:8.64"/>
	<line x1="3461.00" y1="385.57" x2="3461.00" y2="327.92" style="stroke:#F0F0F0;stroke-width:8.64"/>
	<line x1="3461.00" y1="299.16" x2="3461.00" y2="241.52" style="stroke:#F0F0F0;stroke-width:8.64"/>
	<line x1="3461.00" y1="212.76" x2="3461.00" y2="155.12" style="stroke:#F0F0F0;stroke-width:8.64"/>
	<line x1="3461.00" y1="126.36" x2="3461.00" y2="100.85" style="stroke:#F0F0F0;stroke-width:8.64"/>
	<line x1="4155.84" y1="2459.20" x2="4155.84" y2="2401.55" style="stroke:#F0F0F0;stroke-width:8.64"/>
	<line x1="4155.84" y1="2372.80" x2="4155.84" y2="2315.15" style="stroke:#F0F0F0;stroke-width:8.64"/>
	<line x1="4155.84" y1="2286.40" x2="4155.84" y2="2228.75" style="stroke:#F0F0F0;stroke-width:8.64"/>
	<line x1="4155.84" y1="2199.99" x2="4155.84" y2="2142.35" style="stroke:#F0F0F0;stroke-width:8.64"/>
	<line x1="4155.84" y1="2113.59" x2="4155.84" y2="2055.95" style="stroke:#F0F0F0;stroke-width:8.64"/>
	<line x1="4155.84" y1="2027.19" x2="4155.84" y2="1969.55" style="stroke:#F0F0F0;stroke-width:8.64"/>
	<line x1="4155.84" y1="1940.79" x2="4155.84" y2="1883.14" style="stroke:#F0F0F0;stroke-width:8.64"/>
	<line x1="4155.84" y1="1854.39" x2="4155.84" y2="1796.74" style="stroke:#F0F0F0;stroke-width:8.64"/>
	<line x1="4155.84" y1="1767.99" x2="4155.84" y2="1710.34" style="stroke:#F0F0F0;stroke-width:8.64"/>
	<line x1="4155.84" y1="1681.59" x2="4155.84" y2="1623.94" style="stroke:#F0F0F0;stroke-width:8.64"/>
	<line x1="4155.84" y1="1595.18" x2="4155.84" y2="1537.54" style="stroke:#F0F0F0;stroke-width:8.64"/>
	<line x1="4155.84" y1="1508.78" x2="4155.84" y2="1451.14" style="stroke:#F0F0F0;stroke-width:8.64"/>
	<line x1="4155.84" y1="1422.38" x2="4155.84" y2="1364.74" style="stroke:#F0F0F0;stroke-width:8.64"/>
	<line x1="4155.84" y1="1335.98" x2="4155.84" y2="1278.33" style="stroke:#F0F0F0;stroke-width:8.64"/>
	<line x1="4155.84" y1="1249.58" x2="4155.84" y2="1191.93" style="stroke:#F0F0F0;stroke-width:8.64"/>
	<line x1="4155.84" y1="1163.18" x2="4155.84" y2="1105.53" style="stroke:#F0F0F0;stroke-width:8.64"/>
	<line x1="4155.84" y1="1076.78" x2="4155.84" y2="1019.13" style="stroke:#F0F0F0;stroke-width:8.64"/>
	<line x1="4155.84" y1="990.38" x2="4155.84" y2="932.73" style="stroke:#F0F0F0;stroke-width:8.64"/>
	<line x1="4155.84" y1="903.97" x2="4155.84" y2="846.33" style="stroke:#F0F0F0;stroke-width:8.64"/>
	<line x1="4155.84" y1="817.57" x2="4155.84" y2="759.93" style="stroke:#F0F0F0;stroke-width:8.64"/>
	<line x1="4155.84" y1="731.17" x2="4155.84" y2="673.53" style="stroke:#F0F0F0;stroke-width:8.64"/>
	<line x1="4155.84" y1="644.77" x2="4155.84" y2="587.12" style="stroke:#F0F0F0;stroke-width:8.64"/>
	<line x1="4155.84" y1="558.37" x2="4155.84" y2="500.72" style="stroke:#F0F0F0;stroke-width:8.64"/>
	<line x1="4155.84" y1="471.97" x2="4155.84" y2="414.32" style="stroke:#F0F0F0;stroke-width:8.64"/>
	<line x1="4155.84" y1="385.57" x2="4155.84" y2="327.92" style="stroke:#F0F0F0;stroke-width:8.64"/>
	<line x1="4155.84" y1="299.16" x2="4155.84" y2="241.52" style="stroke:#F0F0F0;stroke-width:8.64"/>
	<line x1="4155.84" y1="212.76" x2="4155.84" y2="155.12" style="stroke:#F0F0F0;stroke-width:8.64"/>
	<line x1="4155.84" y1="126.36" x2="4155.84" y2="100.85" style="stroke:#F0F0F0;stroke-width:8.64"/>
	<path d=" M681.62 1704.00 L710.51 1958.21 L739.53 1977.11 L768.42 2004.38 L797.31 1337.60 L826.34 1316.54 L855.23 804.48 L884.25 881.16 L913.14 1756.11 L942.17 1552.25 L971.06 1716.55 L1000.08 1283.87 L1028.97 1434.26 L1057.99 1420.22 L1086.89 1156.83 L1115.78 1607.74 L1144.80 1782.03 L1173.69 1232.70 L1202.71 1200.17 L1231.61 1291.43 L1260.63 1491.64 L1289.52 1754.49 L1318.55 1877.47 L1347.44 1977.51 L1376.46 2039.61 L1405.35 1886.11 L1434.24 2237.93 L1463.27 2348.63 L1492.16 2275.06 L1521.18 2085.11 L1550.07 2203.23 L1579.10 2016.26 L1607.99 1921.89 L1637.01 2088.48 L1665.90 1656.48 L1694.93 1638.93 L1723.82 1410.64 L1752.71 1476.92 L1781.73 1167.77 L1810.62 1680.10 L1839.65 1873.29 L1868.54 2093.61 L1897.56 1945.79 L1926.45 1912.71 L1955.48 1792.29 L1984.37 1336.66 L2013.39 924.36 L2042.28 1731.81 L2071.17 1455.86 L2100.20 1678.75 L2129.09 1301.56 L2158.11 1401.73 L2187.00 1901.10 L2216.03 2196.08 L2244.92 2257.78 L2273.94 2108.60 L2302.83 2128.44 L2331.72 1505.81 L2360.75 1484.08 L2389.64 1832.52 L2418.66 1840.35 L2447.55 1673.89 L2476.57 1605.31 L2505.47 1593.97 L2534.49 1886.11 L2563.38 2084.03 L2592.41 1950.38 L2621.30 1980.62 L2650.19 1878.01 L2679.21 1605.72 L2708.10 1691.98 L2737.13 1772.85 L2766.02 2010.32 L2795.04 1643.65 L2823.93 2141.27 L2852.96 943.66 L2881.85 399.34 L2910.87 534.47 L2939.76 1111.88 L2968.65 1155.89 L2997.68 823.11 L3026.57 1371.35 L3055.59 1460.45 L3084.48 1032.23 L3113.51 1038.30 L3142.40 898.98 L3171.42 763.44 L3200.31 867.39 L3229.34 1010.36 L3258.23 1248.50 L3287.12 1505.68 L3316.14 1515.13 L3345.03 1384.31 L3374.06 1931.75 L3402.95 1951.73 L3431.97 1801.74 L3460.86 1927.16 L3489.89 1998.71 L3518.78 2278.70 L3547.80 2207.42 L3576.69 2087.40 L3605.58 2077.14 L3634.61 1888.68 L3663.50 2006.40 L3692.52 1692.52 L3721.41 1721.55 L3750.44 2104.82 L3779.33 1796.74 L3808.35 1659.99 L3837.24 1884.76 L3866.13 1890.30 L3895.16 1865.19 L3924.05 1967.93" stroke-linejoin="round" style="fill:none;stroke:#1A85FF;stroke-width:8.64"/>
	<line x1="618.30" y1="2459.20" x2="618.30" y2="100.85" style="stroke:#000000;stroke-width:5.76"/>
	<line x1="618.30" y1="2395.88" x2="578.34" y2="2395.88" style="stroke:#000000;stroke-width:5.76"/>
	<text x="558.23" y="2430.93" style="font-family:'Helvetica';font-size:100.04px;fill:#000000" text-anchor="end">-2000</text>
	<line x1="618.30" y1="1651.89" x2="578.34" y2="1651.89" style="stroke:#000000;stroke-width:5.76"/>
	<text x="558.23" y="1686.93" style="font-family:'Helvetica';font-size:100.04px;fill:#000000" text-anchor="end">0</text>
	<line x1="618.30" y1="908.02" x2="578.34" y2="908.02" style="stroke:#000000;stroke-width:5.76"/>
	<text x="558.23" y="943.07" style="font-family:'Helvetica';font-size:100.04px;fill:#000000" text-anchor="end">2000</text>
	<line x1="618.30" y1="164.16" x2="578.34" y2="164.16" style="stroke:#000000;stroke-width:5.76"/>
	<text x="558.23" y="199.21" style="font-family:'Helvetica';font-size:100.04px;fill:#000000" text-anchor="end">4000</text>
	<text x="190.78" y="1279.95" style="font-family:'Helvetica';font-size:100.04px;fill:#000000" transform="rotate(-90 190.78,1279.95)" text-anchor="middle">Residuals</text>
	<line x1="618.30" y1="2459.20" x2="4219.16" y2="2459.20" style="stroke:#000000;stroke-width:5.76"/>
	<line x1="681.62" y1="2459.20" x2="681.62" y2="2499.16" style="stroke:#000000;stroke-width:5.76"/>
	<text x="681.62" y="2589.10" style="font-family:'Helvetica';font-size:100.04px;fill:#000000" text-anchor="middle">2014</text>
	<line x1="1376.46" y1="2459.20" x2="1376.46" y2="2499.16" style="stroke:#000000;stroke-width:5.76"/>
	<text x="1376.46" y="2589.10" style="font-family:'Helvetica';font-size:100.04px;fill:#000000" text-anchor="middle">2016</text>
	<line x1="2071.30" y1="2459.20" x2="2071.30" y2="2499.16" style="stroke:#000000;stroke-width:5.76"/>
	<text x="2071.30" y="2589.10" style="font-family:'Helvetica';font-size:100.04px;fill:#000000" text-anchor="middle">2018</text>
	<line x1="2766.15" y1="2459.20" x2="2766.15" y2="2499.16" style="stroke:#000000;stroke-width:5.76"/>
	<text x="2766.15" y="2589.10" style="font-family:'Helvetica';font-size:100.04px;fill:#000000" text-anchor="middle">2020</text>
	<line x1="3461.00" y1="2459.20" x2="3461.00" y2="2499.16" style="stroke:#000000;stroke-width:5.76"/>
	<text x="3461.00" y="2589.10" style="font-family:'Helvetica';font-size:100.04px;fill:#000000" text-anchor="middle">2022</text>
	<line x1="4155.84" y1="2459.20" x2="4155.84" y2="2499.16" style="stroke:#000000;stroke-width:5.76"/>
	<text x="4155.84" y="2589.10" style="font-family:'Helvetica';font-size:100.04px;fill:#000000" text-anchor="middle">2024</text>
	<text x="2418.66" y="2729.09" style="font-family:'Helvetica';font-size:100.04px;fill:#000000" text-anchor="middle">Month</text>
</svg>
