<?xml version="1.0" encoding="UTF-8" standalone="no"?>
<!-- This is a Stata 18.0 generated SVG file (http://www.stata.com) -->

<svg version="1.1" width="6.000in" height="4.000in" viewBox="0 0 4320 2880" xmlns="http://www.w3.org/2000/svg" xmlns:xlink="http://www.w3.org/1999/xlink">
	<desc>Stata Graph - graph1</desc>
	<rect x="0" y="0" width="4320" height="2880" style="fill:#FFFFFF;stroke:none"/>
	<rect x="0.00" y="0.00" width="4320.00" height="2880.00" style="fill:#FFFFFF"/>
	<rect x="2.88" y="2.88" width="4314.24" height="2874.24" style="fill:none;stroke:#FFFFFF;stroke-width:5.76"/>
	<rect x="641.66" y="100.85" width="3577.50" height="2358.35" style="fill:#FFFFFF"/>
	<rect x="644.53" y="103.73" width="3571.74" height="2352.59" style="fill:none;stroke:#FFFFFF;stroke-width:5.76"/>
	<line x1="641.66" y1="2254.40" x2="699.30" y2="2254.40" style="stroke:#F0F0F0;stroke-width:8.64"/>
	<line x1="728.06" y1="2254.40" x2="785.70" y2="2254.40" style="stroke:#F0F0F0;stroke-width:8.64"/>
	<line x1="814.46" y1="2254.40" x2="872.10" y2="2254.40" style="stroke:#F0F0F0;stroke-width:8.64"/>
	<line x1="900.86" y1="2254.40" x2="958.50" y2="2254.40" style="stroke:#F0F0F0;stroke-width:8.64"/>
	<line x1="987.26" y1="2254.40" x2="1044.90" y2="2254.40" style="stroke:#F0F0F0;stroke-width:8.64"/>
	<line x1="1073.66" y1="2254.40" x2="1131.30" y2="2254.40" style="stroke:#F0F0F0;stroke-width:8.64"/>
	<line x1="1160.06" y1="2254.40" x2="1217.70" y2="2254.40" style="stroke:#F0F0F0;stroke-width:8.64"/>
	<line x1="1246.46" y1="2254.40" x2="1304.10" y2="2254.40" style="stroke:#F0F0F0;stroke-width:8.64"/>
	<line x1="1332.86" y1="2254.40" x2="1390.50" y2="2254.40" style="stroke:#F0F0F0;stroke-width:8.64"/>
	<line x1="1419.26" y1="2254.40" x2="1476.90" y2="2254.40" style="stroke:#F0F0F0;stroke-width:8.64"/>
	<line x1="1505.66" y1="2254.40" x2="1563.30" y2="2254.40" style="stroke:#F0F0F0;stroke-width:8.64"/>
	<line x1="1592.06" y1="2254.40" x2="1649.70" y2="2254.40" style="stroke:#F0F0F0;stroke-width:8.64"/>
	<line x1="1678.46" y1="2254.40" x2="1736.10" y2="2254.40" style="stroke:#F0F0F0;stroke-width:8.64"/>
	<line x1="1764.86" y1="2254.40" x2="1822.50" y2="2254.40" style="stroke:#F0F0F0;stroke-width:8.64"/>
	<line x1="1851.26" y1="2254.40" x2="1908.90" y2="2254.40" style="stroke:#F0F0F0;stroke-width:8.64"/>
	<line x1="1937.66" y1="2254.40" x2="1995.30" y2="2254.40" style="stroke:#F0F0F0;stroke-width:8.64"/>
	<line x1="2024.06" y1="2254.40" x2="2081.70" y2="2254.40" style="stroke:#F0F0F0;stroke-width:8.64"/>
	<line x1="2110.46" y1="2254.40" x2="2168.10" y2="2254.40" style="stroke:#F0F0F0;stroke-width:8.64"/>
	<line x1="2196.86" y1="2254.40" x2="2254.50" y2="2254.40" style="stroke:#F0F0F0;stroke-width:8.64"/>
	<line x1="2283.26" y1="2254.40" x2="2340.90" y2="2254.40" style="stroke:#F0F0F0;stroke-width:8.64"/>
	<line x1="2369.66" y1="2254.40" x2="2427.30" y2="2254.40" style="stroke:#F0F0F0;stroke-width:8.64"/>
	<line x1="2456.05" y1="2254.40" x2="2513.70" y2="2254.40" style="stroke:#F0F0F0;stroke-width:8.64"/>
	<line x1="2542.46" y1="2254.40" x2="2600.10" y2="2254.40" style="stroke:#F0F0F0;stroke-width:8.64"/>
	<line x1="2628.86" y1="2254.40" x2="2686.50" y2="2254.40" style="stroke:#F0F0F0;stroke-width:8.64"/>
	<line x1="2715.26" y1="2254.40" x2="2772.90" y2="2254.40" style="stroke:#F0F0F0;stroke-width:8.64"/>
	<line x1="2801.66" y1="2254.40" x2="2859.30" y2="2254.40" style="stroke:#F0F0F0;stroke-width:8.64"/>
	<line x1="2888.06" y1="2254.40" x2="2945.70" y2="2254.40" style="stroke:#F0F0F0;stroke-width:8.64"/>
	<line x1="2974.46" y1="2254.40" x2="3032.10" y2="2254.40" style="stroke:#F0F0F0;stroke-width:8.64"/>
	<line x1="3060.86" y1="2254.40" x2="3118.50" y2="2254.40" style="stroke:#F0F0F0;stroke-width:8.64"/>
	<line x1="3147.26" y1="2254.40" x2="3204.90" y2="2254.40" style="stroke:#F0F0F0;stroke-width:8.64"/>
	<line x1="3233.66" y1="2254.40" x2="3291.30" y2="2254.40" style="stroke:#F0F0F0;stroke-width:8.64"/>
	<line x1="3320.06" y1="2254.40" x2="3377.70" y2="2254.40" style="stroke:#F0F0F0;stroke-width:8.64"/>
	<line x1="3406.46" y1="2254.40" x2="3464.10" y2="2254.40" style="stroke:#F0F0F0;stroke-width:8.64"/>
	<line x1="3492.86" y1="2254.40" x2="3550.50" y2="2254.40" style="stroke:#F0F0F0;stroke-width:8.64"/>
	<line x1="3579.26" y1="2254.40" x2="3636.90" y2="2254.40" style="stroke:#F0F0F0;stroke-width:8.64"/>
	<line x1="3665.66" y1="2254.40" x2="3723.30" y2="2254.40" style="stroke:#F0F0F0;stroke-width:8.64"/>
	<line x1="3752.06" y1="2254.40" x2="3809.70" y2="2254.40" style="stroke:#F0F0F0;stroke-width:8.64"/>
	<line x1="3838.46" y1="2254.40" x2="3896.10" y2="2254.40" style="stroke:#F0F0F0;stroke-width:8.64"/>
	<line x1="3924.86" y1="2254.40" x2="3982.50" y2="2254.40" style="stroke:#F0F0F0;stroke-width:8.64"/>
	<line x1="4011.26" y1="2254.40" x2="4068.90" y2="2254.40" style="stroke:#F0F0F0;stroke-width:8.64"/>
	<line x1="4097.66" y1="2254.40" x2="4155.30" y2="2254.40" style="stroke:#F0F0F0;stroke-width:8.64"/>
	<line x1="4184.06" y1="2254.40" x2="4219.16" y2="2254.40" style="stroke:#F0F0F0;stroke-width:8.64"/>
	<line x1="641.66" y1="1836.30" x2="699.30" y2="1836.30" style="stroke:#F0F0F0;stroke-width:8.64"/>
	<line x1="728.06" y1="1836.30" x2="785.70" y2="1836.30" style="stroke:#F0F0F0;stroke-width:8.64"/>
	<line x1="814.46" y1="1836.30" x2="872.10" y2="1836.30" style="stroke:#F0F0F0;stroke-width:8.64"/>
	<line x1="900.86" y1="1836.30" x2="958.50" y2="1836.30" style="stroke:#F0F0F0;stroke-width:8.64"/>
	<line x1="987.26" y1="1836.30" x2="1044.90" y2="1836.30" style="stroke:#F0F0F0;stroke-width:8.64"/>
	<line x1="1073.66" y1="1836.30" x2="1131.30" y2="1836.30" style="stroke:#F0F0F0;stroke-width:8.64"/>
	<line x1="1160.06" y1="1836.30" x2="1217.70" y2="1836.30" style="stroke:#F0F0F0;stroke-width:8.64"/>
	<line x1="1246.46" y1="1836.30" x2="1304.10" y2="1836.30" style="stroke:#F0F0F0;stroke-width:8.64"/>
	<line x1="1332.86" y1="1836.30" x2="1390.50" y2="1836.30" style="stroke:#F0F0F0;stroke-width:8.64"/>
	<line x1="1419.26" y1="1836.30" x2="1476.90" y2="1836.30" style="stroke:#F0F0F0;stroke-width:8.64"/>
	<line x1="1505.66" y1="1836.30" x2="1563.30" y2="1836.30" style="stroke:#F0F0F0;stroke-width:8.64"/>
	<line x1="1592.06" y1="1836.30" x2="1649.70" y2="1836.30" style="stroke:#F0F0F0;stroke-width:8.64"/>
	<line x1="1678.46" y1="1836.30" x2="1736.10" y2="1836.30" style="stroke:#F0F0F0;stroke-width:8.64"/>
	<line x1="1764.86" y1="1836.30" x2="1822.50" y2="1836.30" style="stroke:#F0F0F0;stroke-width:8.64"/>
	<line x1="1851.26" y1="1836.30" x2="1908.90" y2="1836.30" style="stroke:#F0F0F0;stroke-width:8.64"/>
	<line x1="1937.66" y1="1836.30" x2="1995.30" y2="1836.30" style="stroke:#F0F0F0;stroke-width:8.64"/>
	<line x1="2024.06" y1="1836.30" x2="2081.70" y2="1836.30" style="stroke:#F0F0F0;stroke-width:8.64"/>
	<line x1="2110.46" y1="1836.30" x2="2168.10" y2="1836.30" style="stroke:#F0F0F0;stroke-width:8.64"/>
	<line x1="2196.86" y1="1836.30" x2="2254.50" y2="1836.30" style="stroke:#F0F0F0;stroke-width:8.64"/>
	<line x1="2283.26" y1="1836.30" x2="2340.90" y2="1836.30" style="stroke:#F0F0F0;stroke-width:8.64"/>
	<line x1="2369.66" y1="1836.30" x2="2427.30" y2="1836.30" style="stroke:#F0F0F0;stroke-width:8.64"/>
	<line x1="2456.05" y1="1836.30" x2="2513.70" y2="1836.30" style="stroke:#F0F0F0;stroke-width:8.64"/>
	<line x1="2542.46" y1="1836.30" x2="2600.10" y2="1836.30" style="stroke:#F0F0F0;stroke-width:8.64"/>
	<line x1="2628.86" y1="1836.30" x2="2686.50" y2="1836.30" style="stroke:#F0F0F0;stroke-width:8.64"/>
	<line x1="2715.26" y1="1836.30" x2="2772.90" y2="1836.30" style="stroke:#F0F0F0;stroke-width:8.64"/>
	<line x1="2801.66" y1="1836.30" x2="2859.30" y2="1836.30" style="stroke:#F0F0F0;stroke-width:8.64"/>
	<line x1="2888.06" y1="1836.30" x2="2945.70" y2="1836.30" style="stroke:#F0F0F0;stroke-width:8.64"/>
	<line x1="2974.46" y1="1836.30" x2="3032.10" y2="1836.30" style="stroke:#F0F0F0;stroke-width:8.64"/>
	<line x1="3060.86" y1="1836.30" x2="3118.50" y2="1836.30" style="stroke:#F0F0F0;stroke-width:8.64"/>
	<line x1="3147.26" y1="1836.30" x2="3204.90" y2="1836.30" style="stroke:#F0F0F0;stroke-width:8.64"/>
	<line x1="3233.66" y1="1836.30" x2="3291.30" y2="1836.30" style="stroke:#F0F0F0;stroke-width:8.64"/>
	<line x1="3320.06" y1="1836.30" x2="3377.70" y2="1836.30" style="stroke:#F0F0F0;stroke-width:8.64"/>
	<line x1="3406.46" y1="1836.30" x2="3464.10" y2="1836.30" style="stroke:#F0F0F0;stroke-width:8.64"/>
	<line x1="3492.86" y1="1836.30" x2="3550.50" y2="1836.30" style="stroke:#F0F0F0;stroke-width:8.64"/>
	<line x1="3579.26" y1="1836.30" x2="3636.90" y2="1836.30" style="stroke:#F0F0F0;stroke-width:8.64"/>
	<line x1="3665.66" y1="1836.30" x2="3723.30" y2="1836.30" style="stroke:#F0F0F0;stroke-width:8.64"/>
	<line x1="3752.06" y1="1836.30" x2="3809.70" y2="1836.30" style="stroke:#F0F0F0;stroke-width:8.64"/>
	<line x1="3838.46" y1="1836.30" x2="3896.10" y2="1836.30" style="stroke:#F0F0F0;stroke-width:8.64"/>
	<line x1="3924.86" y1="1836.30" x2="3982.50" y2="1836.30" style="stroke:#F0F0F0;stroke-width:8.64"/>
	<line x1="4011.26" y1="1836.30" x2="4068.90" y2="1836.30" style="stroke:#F0F0F0;stroke-width:8.64"/>
	<line x1="4097.66" y1="1836.30" x2="4155.30" y2="1836.30" style="stroke:#F0F0F0;stroke-width:8.64"/>
	<line x1="4184.06" y1="1836.30" x2="4219.16" y2="1836.30" style="stroke:#F0F0F0;stroke-width:8.64"/>
	<line x1="641.66" y1="1418.33" x2="699.30" y2="1418.33" style="stroke:#F0F0F0;stroke-width:8.64"/>
	<line x1="728.06" y1="1418.33" x2="785.70" y2="1418.33" style="stroke:#F0F0F0;stroke-width:8.64"/>
	<line x1="814.46" y1="1418.33" x2="872.10" y2="1418.33" style="stroke:#F0F0F0;stroke-width:8.64"/>
	<line x1="900.86" y1="1418.33" x2="958.50" y2="1418.33" style="stroke:#F0F0F0;stroke-width:8.64"/>
	<line x1="987.26" y1="1418.33" x2="1044.90" y2="1418.33" style="stroke:#F0F0F0;stroke-width:8.64"/>
	<line x1="1073.66" y1="1418.33" x2="1131.30" y2="1418.33" style="stroke:#F0F0F0;stroke-width:8.64"/>
	<line x1="1160.06" y1="1418.33" x2="1217.70" y2="1418.33" style="stroke:#F0F0F0;stroke-width:8.64"/>
	<line x1="1246.46" y1="1418.33" x2="1304.10" y2="1418.33" style="stroke:#F0F0F0;stroke-width:8.64"/>
	<line x1="1332.86" y1="1418.33" x2="1390.50" y2="1418.33" style="stroke:#F0F0F0;stroke-width:8.64"/>
	<line x1="1419.26" y1="1418.33" x2="1476.90" y2="1418.33" style="stroke:#F0F0F0;stroke-width:8.64"/>
	<line x1="1505.66" y1="1418.33" x2="1563.30" y2="1418.33" style="stroke:#F0F0F0;stroke-width:8.64"/>
	<line x1="1592.06" y1="1418.33" x2="1649.70" y2="1418.33" style="stroke:#F0F0F0;stroke-width:8.64"/>
	<line x1="1678.46" y1="1418.33" x2="1736.10" y2="1418.33" style="stroke:#F0F0F0;stroke-width:8.64"/>
	<line x1="1764.86" y1="1418.33" x2="1822.50" y2="1418.33" style="stroke:#F0F0F0;stroke-width:8.64"/>
	<line x1="1851.26" y1="1418.33" x2="1908.90" y2="1418.33" style="stroke:#F0F0F0;stroke-width:8.64"/>
	<line x1="1937.66" y1="1418.33" x2="1995.30" y2="1418.33" style="stroke:#F0F0F0;stroke-width:8.64"/>
	<line x1="2024.06" y1="1418.33" x2="2081.70" y2="1418.33" style="stroke:#F0F0F0;stroke-width:8.64"/>
	<line x1="2110.46" y1="1418.33" x2="2168.10" y2="1418.33" style="stroke:#F0F0F0;stroke-width:8.64"/>
	<line x1="2196.86" y1="1418.33" x2="2254.50" y2="1418.33" style="stroke:#F0F0F0;stroke-width:8.64"/>
	<line x1="2283.26" y1="1418.33" x2="2340.90" y2="1418.33" style="stroke:#F0F0F0;stroke-width:8.64"/>
	<line x1="2369.66" y1="1418.33" x2="2427.30" y2="1418.33" style="stroke:#F0F0F0;stroke-width:8.64"/>
	<line x1="2456.05" y1="1418.33" x2="2513.70" y2="1418.33" style="stroke:#F0F0F0;stroke-width:8.64"/>
	<line x1="2542.46" y1="1418.33" x2="2600.10" y2="1418.33" style="stroke:#F0F0F0;stroke-width:8.64"/>
	<line x1="2628.86" y1="1418.33" x2="2686.50" y2="1418.33" style="stroke:#F0F0F0;stroke-width:8.64"/>
	<line x1="2715.26" y1="1418.33" x2="2772.90" y2="1418.33" style="stroke:#F0F0F0;stroke-width:8.64"/>
	<line x1="2801.66" y1="1418.33" x2="2859.30" y2="1418.33" style="stroke:#F0F0F0;stroke-width:8.64"/>
	<line x1="2888.06" y1="1418.33" x2="2945.70" y2="1418.33" style="stroke:#F0F0F0;stroke-width:8.64"/>
	<line x1="2974.46" y1="1418.33" x2="3032.10" y2="1418.33" style="stroke:#F0F0F0;stroke-width:8.64"/>
	<line x1="3060.86" y1="1418.33" x2="3118.50" y2="1418.33" style="stroke:#F0F0F0;stroke-width:8.64"/>
	<line x1="3147.26" y1="1418.33" x2="3204.90" y2="1418.33" style="stroke:#F0F0F0;stroke-width:8.64"/>
	<line x1="3233.66" y1="1418.33" x2="3291.30" y2="1418.33" style="stroke:#F0F0F0;stroke-width:8.64"/>
	<line x1="3320.06" y1="1418.33" x2="3377.70" y2="1418.33" style="stroke:#F0F0F0;stroke-width:8.64"/>
	<line x1="3406.46" y1="1418.33" x2="3464.10" y2="1418.33" style="stroke:#F0F0F0;stroke-width:8.64"/>
	<line x1="3492.86" y1="1418.33" x2="3550.50" y2="1418.33" style="stroke:#F0F0F0;stroke-width:8.64"/>
	<line x1="3579.26" y1="1418.33" x2="3636.90" y2="1418.33" style="stroke:#F0F0F0;stroke-width:8.64"/>
	<line x1="3665.66" y1="1418.33" x2="3723.30" y2="1418.33" style="stroke:#F0F0F0;stroke-width:8.64"/>
	<line x1="3752.06" y1="1418.33" x2="3809.70" y2="1418.33" style="stroke:#F0F0F0;stroke-width:8.64"/>
	<line x1="3838.46" y1="1418.33" x2="3896.10" y2="1418.33" style="stroke:#F0F0F0;stroke-width:8.64"/>
	<line x1="3924.86" y1="1418.33" x2="3982.50" y2="1418.33" style="stroke:#F0F0F0;stroke-width:8.64"/>
	<line x1="4011.26" y1="1418.33" x2="4068.90" y2="1418.33" style="stroke:#F0F0F0;stroke-width:8.64"/>
	<line x1="4097.66" y1="1418.33" x2="4155.30" y2="1418.33" style="stroke:#F0F0F0;stroke-width:8.64"/>
	<line x1="4184.06" y1="1418.33" x2="4219.16" y2="1418.33" style="stroke:#F0F0F0;stroke-width:8.64"/>
	<line x1="641.66" y1="1000.23" x2="699.30" y2="1000.23" style="stroke:#F0F0F0;stroke-width:8.64"/>
	<line x1="728.06" y1="1000.23" x2="785.70" y2="1000.23" style="stroke:#F0F0F0;stroke-width:8.64"/>
	<line x1="814.46" y1="1000.23" x2="872.10" y2="1000.23" style="stroke:#F0F0F0;stroke-width:8.64"/>
	<line x1="900.86" y1="1000.23" x2="958.50" y2="1000.23" style="stroke:#F0F0F0;stroke-width:8.64"/>
	<line x1="987.26" y1="1000.23" x2="1044.90" y2="1000.23" style="stroke:#F0F0F0;stroke-width:8.64"/>
	<line x1="1073.66" y1="1000.23" x2="1131.30" y2="1000.23" style="stroke:#F0F0F0;stroke-width:8.64"/>
	<line x1="1160.06" y1="1000.23" x2="1217.70" y2="1000.23" style="stroke:#F0F0F0;stroke-width:8.64"/>
	<line x1="1246.46" y1="1000.23" x2="1304.10" y2="1000.23" style="stroke:#F0F0F0;stroke-width:8.64"/>
	<line x1="1332.86" y1="1000.23" x2="1390.50" y2="1000.23" style="stroke:#F0F0F0;stroke-width:8.64"/>
	<line x1="1419.26" y1="1000.23" x2="1476.90" y2="1000.23" style="stroke:#F0F0F0;stroke-width:8.64"/>
	<line x1="1505.66" y1="1000.23" x2="1563.30" y2="1000.23" style="stroke:#F0F0F0;stroke-width:8.64"/>
	<line x1="1592.06" y1="1000.23" x2="1649.70" y2="1000.23" style="stroke:#F0F0F0;stroke-width:8.64"/>
	<line x1="1678.46" y1="1000.23" x2="1736.10" y2="1000.23" style="stroke:#F0F0F0;stroke-width:8.64"/>
	<line x1="1764.86" y1="1000.23" x2="1822.50" y2="1000.23" style="stroke:#F0F0F0;stroke-width:8.64"/>
	<line x1="1851.26" y1="1000.23" x2="1908.90" y2="1000.23" style="stroke:#F0F0F0;stroke-width:8.64"/>
	<line x1="1937.66" y1="1000.23" x2="1995.30" y2="1000.23" style="stroke:#F0F0F0;stroke-width:8.64"/>
	<line x1="2024.06" y1="1000.23" x2="2081.70" y2="1000.23" style="stroke:#F0F0F0;stroke-width:8.64"/>
	<line x1="2110.46" y1="1000.23" x2="2168.10" y2="1000.23" style="stroke:#F0F0F0;stroke-width:8.64"/>
	<line x1="2196.86" y1="1000.23" x2="2254.50" y2="1000.23" style="stroke:#F0F0F0;stroke-width:8.64"/>
	<line x1="2283.26" y1="1000.23" x2="2340.90" y2="1000.23" style="stroke:#F0F0F0;stroke-width:8.64"/>
	<line x1="2369.66" y1="1000.23" x2="2427.30" y2="1000.23" style="stroke:#F0F0F0;stroke-width:8.64"/>
	<line x1="2456.05" y1="1000.23" x2="2513.70" y2="1000.23" style="stroke:#F0F0F0;stroke-width:8.64"/>
	<line x1="2542.46" y1="1000.23" x2="2600.10" y2="1000.23" style="stroke:#F0F0F0;stroke-width:8.64"/>
	<line x1="2628.86" y1="1000.23" x2="2686.50" y2="1000.23" style="stroke:#F0F0F0;stroke-width:8.64"/>
	<line x1="2715.26" y1="1000.23" x2="2772.90" y2="1000.23" style="stroke:#F0F0F0;stroke-width:8.64"/>
	<line x1="2801.66" y1="1000.23" x2="2859.30" y2="1000.23" style="stroke:#F0F0F0;stroke-width:8.64"/>
	<line x1="2888.06" y1="1000.23" x2="2945.70" y2="1000.23" style="stroke:#F0F0F0;stroke-width:8.64"/>
	<line x1="2974.46" y1="1000.23" x2="3032.10" y2="1000.23" style="stroke:#F0F0F0;stroke-width:8.64"/>
	<line x1="3060.86" y1="1000.23" x2="3118.50" y2="1000.23" style="stroke:#F0F0F0;stroke-width:8.64"/>
	<line x1="3147.26" y1="1000.23" x2="3204.90" y2="1000.23" style="stroke:#F0F0F0;stroke-width:8.64"/>
	<line x1="3233.66" y1="1000.23" x2="3291.30" y2="1000.23" style="stroke:#F0F0F0;stroke-width:8.64"/>
	<line x1="3320.06" y1="1000.23" x2="3377.70" y2="1000.23" style="stroke:#F0F0F0;stroke-width:8.64"/>
	<line x1="3406.46" y1="1000.23" x2="3464.10" y2="1000.23" style="stroke:#F0F0F0;stroke-width:8.64"/>
	<line x1="3492.86" y1="1000.23" x2="3550.50" y2="1000.23" style="stroke:#F0F0F0;stroke-width:8.64"/>
	<line x1="3579.26" y1="1000.23" x2="3636.90" y2="1000.23" style="stroke:#F0F0F0;stroke-width:8.64"/>
	<line x1="3665.66" y1="1000.23" x2="3723.30" y2="1000.23" style="stroke:#F0F0F0;stroke-width:8.64"/>
	<line x1="3752.06" y1="1000.23" x2="3809.70" y2="1000.23" style="stroke:#F0F0F0;stroke-width:8.64"/>
	<line x1="3838.46" y1="1000.23" x2="3896.10" y2="1000.23" style="stroke:#F0F0F0;stroke-width:8.64"/>
	<line x1="3924.86" y1="1000.23" x2="3982.50" y2="1000.23" style="stroke:#F0F0F0;stroke-width:8.64"/>
	<line x1="4011.26" y1="1000.23" x2="4068.90" y2="1000.23" style="stroke:#F0F0F0;stroke-width:8.64"/>
	<line x1="4097.66" y1="1000.23" x2="4155.30" y2="1000.23" style="stroke:#F0F0F0;stroke-width:8.64"/>
	<line x1="4184.06" y1="1000.23" x2="4219.16" y2="1000.23" style="stroke:#F0F0F0;stroke-width:8.64"/>
	<line x1="641.66" y1="582.26" x2="699.30" y2="582.26" style="stroke:#F0F0F0;stroke-width:8.64"/>
	<line x1="728.06" y1="582.26" x2="785.70" y2="582.26" style="stroke:#F0F0F0;stroke-width:8.64"/>
	<line x1="814.46" y1="582.26" x2="872.10" y2="582.26" style="stroke:#F0F0F0;stroke-width:8.64"/>
	<line x1="900.86" y1="582.26" x2="958.50" y2="582.26" style="stroke:#F0F0F0;stroke-width:8.64"/>
	<line x1="987.26" y1="582.26" x2="1044.90" y2="582.26" style="stroke:#F0F0F0;stroke-width:8.64"/>
	<line x1="1073.66" y1="582.26" x2="1131.30" y2="582.26" style="stroke:#F0F0F0;stroke-width:8.64"/>
	<line x1="1160.06" y1="582.26" x2="1217.70" y2="582.26" style="stroke:#F0F0F0;stroke-width:8.64"/>
	<line x1="1246.46" y1="582.26" x2="1304.10" y2="582.26" style="stroke:#F0F0F0;stroke-width:8.64"/>
	<line x1="1332.86" y1="582.26" x2="1390.50" y2="582.26" style="stroke:#F0F0F0;stroke-width:8.64"/>
	<line x1="1419.26" y1="582.26" x2="1476.90" y2="582.26" style="stroke:#F0F0F0;stroke-width:8.64"/>
	<line x1="1505.66" y1="582.26" x2="1563.30" y2="582.26" style="stroke:#F0F0F0;stroke-width:8.64"/>
	<line x1="1592.06" y1="582.26" x2="1649.70" y2="582.26" style="stroke:#F0F0F0;stroke-width:8.64"/>
	<line x1="1678.46" y1="582.26" x2="1736.10" y2="582.26" style="stroke:#F0F0F0;stroke-width:8.64"/>
	<line x1="1764.86" y1="582.26" x2="1822.50" y2="582.26" style="stroke:#F0F0F0;stroke-width:8.64"/>
	<line x1="1851.26" y1="582.26" x2="1908.90" y2="582.26" style="stroke:#F0F0F0;stroke-width:8.64"/>
	<line x1="1937.66" y1="582.26" x2="1995.30" y2="582.26" style="stroke:#F0F0F0;stroke-width:8.64"/>
	<line x1="2024.06" y1="582.26" x2="2081.70" y2="582.26" style="stroke:#F0F0F0;stroke-width:8.64"/>
	<line x1="2110.46" y1="582.26" x2="2168.10" y2="582.26" style="stroke:#F0F0F0;stroke-width:8.64"/>
	<line x1="2196.86" y1="582.26" x2="2254.50" y2="582.26" style="stroke:#F0F0F0;stroke-width:8.64"/>
	<line x1="2283.26" y1="582.26" x2="2340.90" y2="582.26" style="stroke:#F0F0F0;stroke-width:8.64"/>
	<line x1="2369.66" y1="582.26" x2="2427.30" y2="582.26" style="stroke:#F0F0F0;stroke-width:8.64"/>
	<line x1="2456.05" y1="582.26" x2="2513.70" y2="582.26" style="stroke:#F0F0F0;stroke-width:8.64"/>
	<line x1="2542.46" y1="582.26" x2="2600.10" y2="582.26" style="stroke:#F0F0F0;stroke-width:8.64"/>
	<line x1="2628.86" y1="582.26" x2="2686.50" y2="582.26" style="stroke:#F0F0F0;stroke-width:8.64"/>
	<line x1="2715.26" y1="582.26" x2="2772.90" y2="582.26" style="stroke:#F0F0F0;stroke-width:8.64"/>
	<line x1="2801.66" y1="582.26" x2="2859.30" y2="582.26" style="stroke:#F0F0F0;stroke-width:8.64"/>
	<line x1="2888.06" y1="582.26" x2="2945.70" y2="582.26" style="stroke:#F0F0F0;stroke-width:8.64"/>
	<line x1="2974.46" y1="582.26" x2="3032.10" y2="582.26" style="stroke:#F0F0F0;stroke-width:8.64"/>
	<line x1="3060.86" y1="582.26" x2="3118.50" y2="582.26" style="stroke:#F0F0F0;stroke-width:8.64"/>
	<line x1="3147.26" y1="582.26" x2="3204.90" y2="582.26" style="stroke:#F0F0F0;stroke-width:8.64"/>
	<line x1="3233.66" y1="582.26" x2="3291.30" y2="582.26" style="stroke:#F0F0F0;stroke-width:8.64"/>
	<line x1="3320.06" y1="582.26" x2="3377.70" y2="582.26" style="stroke:#F0F0F0;stroke-width:8.64"/>
	<line x1="3406.46" y1="582.26" x2="3464.10" y2="582.26" style="stroke:#F0F0F0;stroke-width:8.64"/>
	<line x1="3492.86" y1="582.26" x2="3550.50" y2="582.26" style="stroke:#F0F0F0;stroke-width:8.64"/>
	<line x1="3579.26" y1="582.26" x2="3636.90" y2="582.26" style="stroke:#F0F0F0;stroke-width:8.64"/>
	<line x1="3665.66" y1="582.26" x2="3723.30" y2="582.26" style="stroke:#F0F0F0;stroke-width:8.64"/>
	<line x1="3752.06" y1="582.26" x2="3809.70" y2="582.26" style="stroke:#F0F0F0;stroke-width:8.64"/>
	<line x1="3838.46" y1="582.26" x2="3896.10" y2="582.26" style="stroke:#F0F0F0;stroke-width:8.64"/>
	<line x1="3924.86" y1="582.26" x2="3982.50" y2="582.26" style="stroke:#F0F0F0;stroke-width:8.64"/>
	<line x1="4011.26" y1="582.26" x2="4068.90" y2="582.26" style="stroke:#F0F0F0;stroke-width:8.64"/>
	<line x1="4097.66" y1="582.26" x2="4155.30" y2="582.26" style="stroke:#F0F0F0;stroke-width:8.64"/>
	<line x1="4184.06" y1="582.26" x2="4219.16" y2="582.26" style="stroke:#F0F0F0;stroke-width:8.64"/>
	<line x1="641.66" y1="164.16" x2="699.30" y2="164.16" style="stroke:#F0F0F0;stroke-width:8.64"/>
	<line x1="728.06" y1="164.16" x2="785.70" y2="164.16" style="stroke:#F0F0F0;stroke-width:8.64"/>
	<line x1="814.46" y1="164.16" x2="872.10" y2="164.16" style="stroke:#F0F0F0;stroke-width:8.64"/>
	<line x1="900.86" y1="164.16" x2="958.50" y2="164.16" style="stroke:#F0F0F0;stroke-width:8.64"/>
	<line x1="987.26" y1="164.16" x2="1044.90" y2="164.16" style="stroke:#F0F0F0;stroke-width:8.64"/>
	<line x1="1073.66" y1="164.16" x2="1131.30" y2="164.16" style="stroke:#F0F0F0;stroke-width:8.64"/>
	<line x1="1160.06" y1="164.16" x2="1217.70" y2="164.16" style="stroke:#F0F0F0;stroke-width:8.64"/>
	<line x1="1246.46" y1="164.16" x2="1304.10" y2="164.16" style="stroke:#F0F0F0;stroke-width:8.64"/>
	<line x1="1332.86" y1="164.16" x2="1390.50" y2="164.16" style="stroke:#F0F0F0;stroke-width:8.64"/>
	<line x1="1419.26" y1="164.16" x2="1476.90" y2="164.16" style="stroke:#F0F0F0;stroke-width:8.64"/>
	<line x1="1505.66" y1="164.16" x2="1563.30" y2="164.16" style="stroke:#F0F0F0;stroke-width:8.64"/>
	<line x1="1592.06" y1="164.16" x2="1649.70" y2="164.16" style="stroke:#F0F0F0;stroke-width:8.64"/>
	<line x1="1678.46" y1="164.16" x2="1736.10" y2="164.16" style="stroke:#F0F0F0;stroke-width:8.64"/>
	<line x1="1764.86" y1="164.16" x2="1822.50" y2="164.16" style="stroke:#F0F0F0;stroke-width:8.64"/>
	<line x1="1851.26" y1="164.16" x2="1908.90" y2="164.16" style="stroke:#F0F0F0;stroke-width:8.64"/>
	<line x1="1937.66" y1="164.16" x2="1995.30" y2="164.16" style="stroke:#F0F0F0;stroke-width:8.64"/>
	<line x1="2024.06" y1="164.16" x2="2081.70" y2="164.16" style="stroke:#F0F0F0;stroke-width:8.64"/>
	<line x1="2110.46" y1="164.16" x2="2168.10" y2="164.16" style="stroke:#F0F0F0;stroke-width:8.64"/>
	<line x1="2196.86" y1="164.16" x2="2254.50" y2="164.16" style="stroke:#F0F0F0;stroke-width:8.64"/>
	<line x1="2283.26" y1="164.16" x2="2340.90" y2="164.16" style="stroke:#F0F0F0;stroke-width:8.64"/>
	<line x1="2369.66" y1="164.16" x2="2427.30" y2="164.16" style="stroke:#F0F0F0;stroke-width:8.64"/>
	<line x1="2456.05" y1="164.16" x2="2513.70" y2="164.16" style="stroke:#F0F0F0;stroke-width:8.64"/>
	<line x1="2542.46" y1="164.16" x2="2600.10" y2="164.16" style="stroke:#F0F0F0;stroke-width:8.64"/>
	<line x1="2628.86" y1="164.16" x2="2686.50" y2="164.16" style="stroke:#F0F0F0;stroke-width:8.64"/>
	<line x1="2715.26" y1="164.16" x2="2772.90" y2="164.16" style="stroke:#F0F0F0;stroke-width:8.64"/>
	<line x1="2801.66" y1="164.16" x2="2859.30" y2="164.16" style="stroke:#F0F0F0;stroke-width:8.64"/>
	<line x1="2888.06" y1="164.16" x2="2945.70" y2="164.16" style="stroke:#F0F0F0;stroke-width:8.64"/>
	<line x1="2974.46" y1="164.16" x2="3032.10" y2="164.16" style="stroke:#F0F0F0;stroke-width:8.64"/>
	<line x1="3060.86" y1="164.16" x2="3118.50" y2="164.16" style="stroke:#F0F0F0;stroke-width:8.64"/>
	<line x1="3147.26" y1="164.16" x2="3204.90" y2="164.16" style="stroke:#F0F0F0;stroke-width:8.64"/>
	<line x1="3233.66" y1="164.16" x2="3291.30" y2="164.16" style="stroke:#F0F0F0;stroke-width:8.64"/>
	<line x1="3320.06" y1="164.16" x2="3377.70" y2="164.16" style="stroke:#F0F0F0;stroke-width:8.64"/>
	<line x1="3406.46" y1="164.16" x2="3464.10" y2="164.16" style="stroke:#F0F0F0;stroke-width:8.64"/>
	<line x1="3492.86" y1="164.16" x2="3550.50" y2="164.16" style="stroke:#F0F0F0;stroke-width:8.64"/>
	<line x1="3579.26" y1="164.16" x2="3636.90" y2="164.16" style="stroke:#F0F0F0;stroke-width:8.64"/>
	<line x1="3665.66" y1="164.16" x2="3723.30" y2="164.16" style="stroke:#F0F0F0;stroke-width:8.64"/>
	<line x1="3752.06" y1="164.16" x2="3809.70" y2="164.16" style="stroke:#F0F0F0;stroke-width:8.64"/>
	<line x1="3838.46" y1="164.16" x2="3896.10" y2="164.16" style="stroke:#F0F0F0;stroke-width:8.64"/>
	<line x1="3924.86" y1="164.16" x2="3982.50" y2="164.16" style="stroke:#F0F0F0;stroke-width:8.64"/>
	<line x1="4011.26" y1="164.16" x2="4068.90" y2="164.16" style="stroke:#F0F0F0;stroke-width:8.64"/>
	<line x1="4097.66" y1="164.16" x2="4155.30" y2="164.16" style="stroke:#F0F0F0;stroke-width:8.64"/>
	<line x1="4184.06" y1="164.16" x2="4219.16" y2="164.16" style="stroke:#F0F0F0;stroke-width:8.64"/>
	<line x1="704.97" y1="2459.20" x2="704.97" y2="2401.55" style="stroke:#F0F0F0;stroke-width:8.64"/>
	<line x1="704.97" y1="2372.80" x2="704.97" y2="2315.15" style="stroke:#F0F0F0;stroke-width:8.64"/>
	<line x1="704.97" y1="2286.40" x2="704.97" y2="2228.75" style="stroke:#F0F0F0;stroke-width:8.64"/>
	<line x1="704.97" y1="2199.99" x2="704.97" y2="2142.35" style="stroke:#F0F0F0;stroke-width:8.64"/>
	<line x1="704.97" y1="2113.59" x2="704.97" y2="2055.95" style="stroke:#F0F0F0;stroke-width:8.64"/>
	<line x1="704.97" y1="2027.19" x2="704.97" y2="1969.55" style="stroke:#F0F0F0;stroke-width:8.64"/>
	<line x1="704.97" y1="1940.79" x2="704.97" y2="1883.14" style="stroke:#F0F0F0;stroke-width:8.64"/>
	<line x1="704.97" y1="1854.39" x2="704.97" y2="1796.74" style="stroke:#F0F0F0;stroke-width:8.64"/>
	<line x1="704.97" y1="1767.99" x2="704.97" y2="1710.34" style="stroke:#F0F0F0;stroke-width:8.64"/>
	<line x1="704.97" y1="1681.59" x2="704.97" y2="1623.94" style="stroke:#F0F0F0;stroke-width:8.64"/>
	<line x1="704.97" y1="1595.18" x2="704.97" y2="1537.54" style="stroke:#F0F0F0;stroke-width:8.64"/>
	<line x1="704.97" y1="1508.78" x2="704.97" y2="1451.14" style="stroke:#F0F0F0;stroke-width:8.64"/>
	<line x1="704.97" y1="1422.38" x2="704.97" y2="1364.74" style="stroke:#F0F0F0;stroke-width:8.64"/>
	<line x1="704.97" y1="1335.98" x2="704.97" y2="1278.33" style="stroke:#F0F0F0;stroke-width:8.64"/>
	<line x1="704.97" y1="1249.58" x2="704.97" y2="1191.93" style="stroke:#F0F0F0;stroke-width:8.64"/>
	<line x1="704.97" y1="1163.18" x2="704.97" y2="1105.53" style="stroke:#F0F0F0;stroke-width:8.64"/>
	<line x1="704.97" y1="1076.78" x2="704.97" y2="1019.13" style="stroke:#F0F0F0;stroke-width:8.64"/>
	<line x1="704.97" y1="990.38" x2="704.97" y2="932.73" style="stroke:#F0F0F0;stroke-width:8.64"/>
	<line x1="704.97" y1="903.97" x2="704.97" y2="846.33" style="stroke:#F0F0F0;stroke-width:8.64"/>
	<line x1="704.97" y1="817.57" x2="704.97" y2="759.93" style="stroke:#F0F0F0;stroke-width:8.64"/>
	<line x1="704.97" y1="731.17" x2="704.97" y2="673.53" style="stroke:#F0F0F0;stroke-width:8.64"/>
	<line x1="704.97" y1="644.77" x2="704.97" y2="587.12" style="stroke:#F0F0F0;stroke-width:8.64"/>
	<line x1="704.97" y1="558.37" x2="704.97" y2="500.72" style="stroke:#F0F0F0;stroke-width:8.64"/>
	<line x1="704.97" y1="471.97" x2="704.97" y2="414.32" style="stroke:#F0F0F0;stroke-width:8.64"/>
	<line x1="704.97" y1="385.57" x2="704.97" y2="327.92" style="stroke:#F0F0F0;stroke-width:8.64"/>
	<line x1="704.97" y1="299.16" x2="704.97" y2="241.52" style="stroke:#F0F0F0;stroke-width:8.64"/>
	<line x1="704.97" y1="212.76" x2="704.97" y2="155.12" style="stroke:#F0F0F0;stroke-width:8.64"/>
	<line x1="704.97" y1="126.36" x2="704.97" y2="100.85" style="stroke:#F0F0F0;stroke-width:8.64"/>
	<line x1="2085.34" y1="2459.20" x2="2085.34" y2="2401.55" style="stroke:#F0F0F0;stroke-width:8.64"/>
	<line x1="2085.34" y1="2372.80" x2="2085.34" y2="2315.15" style="stroke:#F0F0F0;stroke-width:8.64"/>
	<line x1="2085.34" y1="2286.40" x2="2085.34" y2="2228.75" style="stroke:#F0F0F0;stroke-width:8.64"/>
	<line x1="2085.34" y1="2199.99" x2="2085.34" y2="2142.35" style="stroke:#F0F0F0;stroke-width:8.64"/>
	<line x1="2085.34" y1="2113.59" x2="2085.34" y2="2055.95" style="stroke:#F0F0F0;stroke-width:8.64"/>
	<line x1="2085.34" y1="2027.19" x2="2085.34" y2="1969.55" style="stroke:#F0F0F0;stroke-width:8.64"/>
	<line x1="2085.34" y1="1940.79" x2="2085.34" y2="1883.14" style="stroke:#F0F0F0;stroke-width:8.64"/>
	<line x1="2085.34" y1="1854.39" x2="2085.34" y2="1796.74" style="stroke:#F0F0F0;stroke-width:8.64"/>
	<line x1="2085.34" y1="1767.99" x2="2085.34" y2="1710.34" style="stroke:#F0F0F0;stroke-width:8.64"/>
	<line x1="2085.34" y1="1681.59" x2="2085.34" y2="1623.94" style="stroke:#F0F0F0;stroke-width:8.64"/>
	<line x1="2085.34" y1="1595.18" x2="2085.34" y2="1537.54" style="stroke:#F0F0F0;stroke-width:8.64"/>
	<line x1="2085.34" y1="1508.78" x2="2085.34" y2="1451.14" style="stroke:#F0F0F0;stroke-width:8.64"/>
	<line x1="2085.34" y1="1422.38" x2="2085.34" y2="1364.74" style="stroke:#F0F0F0;stroke-width:8.64"/>
	<line x1="2085.34" y1="1335.98" x2="2085.34" y2="1278.33" style="stroke:#F0F0F0;stroke-width:8.64"/>
	<line x1="2085.34" y1="1249.58" x2="2085.34" y2="1191.93" style="stroke:#F0F0F0;stroke-width:8.64"/>
	<line x1="2085.34" y1="1163.18" x2="2085.34" y2="1105.53" style="stroke:#F0F0F0;stroke-width:8.64"/>
	<line x1="2085.34" y1="1076.78" x2="2085.34" y2="1019.13" style="stroke:#F0F0F0;stroke-width:8.64"/>
	<line x1="2085.34" y1="990.38" x2="2085.34" y2="932.73" style="stroke:#F0F0F0;stroke-width:8.64"/>
	<line x1="2085.34" y1="903.97" x2="2085.34" y2="846.33" style="stroke:#F0F0F0;stroke-width:8.64"/>
	<line x1="2085.34" y1="817.57" x2="2085.34" y2="759.93" style="stroke:#F0F0F0;stroke-width:8.64"/>
	<line x1="2085.34" y1="731.17" x2="2085.34" y2="673.53" style="stroke:#F0F0F0;stroke-width:8.64"/>
	<line x1="2085.34" y1="644.77" x2="2085.34" y2="587.12" style="stroke:#F0F0F0;stroke-width:8.64"/>
	<line x1="2085.34" y1="558.37" x2="2085.34" y2="500.72" style="stroke:#F0F0F0;stroke-width:8.64"/>
	<line x1="2085.34" y1="471.97" x2="2085.34" y2="414.32" style="stroke:#F0F0F0;stroke-width:8.64"/>
	<line x1="2085.34" y1="385.57" x2="2085.34" y2="327.92" style="stroke:#F0F0F0;stroke-width:8.64"/>
	<line x1="2085.34" y1="299.16" x2="2085.34" y2="241.52" style="stroke:#F0F0F0;stroke-width:8.64"/>
	<line x1="2085.34" y1="212.76" x2="2085.34" y2="155.12" style="stroke:#F0F0F0;stroke-width:8.64"/>
	<line x1="2085.34" y1="126.36" x2="2085.34" y2="100.85" style="stroke:#F0F0F0;stroke-width:8.64"/>
	<line x1="3465.59" y1="2459.20" x2="3465.59" y2="2401.55" style="stroke:#F0F0F0;stroke-width:8.64"/>
	<line x1="3465.59" y1="2372.80" x2="3465.59" y2="2315.15" style="stroke:#F0F0F0;stroke-width:8.64"/>
	<line x1="3465.59" y1="2286.40" x2="3465.59" y2="2228.75" style="stroke:#F0F0F0;stroke-width:8.64"/>
	<line x1="3465.59" y1="2199.99" x2="3465.59" y2="2142.35" style="stroke:#F0F0F0;stroke-width:8.64"/>
	<line x1="3465.59" y1="2113.59" x2="3465.59" y2="2055.95" style="stroke:#F0F0F0;stroke-width:8.64"/>
	<line x1="3465.59" y1="2027.19" x2="3465.59" y2="1969.55" style="stroke:#F0F0F0;stroke-width:8.64"/>
	<line x1="3465.59" y1="1940.79" x2="3465.59" y2="1883.14" style="stroke:#F0F0F0;stroke-width:8.64"/>
	<line x1="3465.59" y1="1854.39" x2="3465.59" y2="1796.74" style="stroke:#F0F0F0;stroke-width:8.64"/>
	<line x1="3465.59" y1="1767.99" x2="3465.59" y2="1710.34" style="stroke:#F0F0F0;stroke-width:8.64"/>
	<line x1="3465.59" y1="1681.59" x2="3465.59" y2="1623.94" style="stroke:#F0F0F0;stroke-width:8.64"/>
	<line x1="3465.59" y1="1595.18" x2="3465.59" y2="1537.54" style="stroke:#F0F0F0;stroke-width:8.64"/>
	<line x1="3465.59" y1="1508.78" x2="3465.59" y2="1451.14" style="stroke:#F0F0F0;stroke-width:8.64"/>
	<line x1="3465.59" y1="1422.38" x2="3465.59" y2="1364.74" style="stroke:#F0F0F0;stroke-width:8.64"/>
	<line x1="3465.59" y1="1335.98" x2="3465.59" y2="1278.33" style="stroke:#F0F0F0;stroke-width:8.64"/>
	<line x1="3465.59" y1="1249.58" x2="3465.59" y2="1191.93" style="stroke:#F0F0F0;stroke-width:8.64"/>
	<line x1="3465.59" y1="1163.18" x2="3465.59" y2="1105.53" style="stroke:#F0F0F0;stroke-width:8.64"/>
	<line x1="3465.59" y1="1076.78" x2="3465.59" y2="1019.13" style="stroke:#F0F0F0;stroke-width:8.64"/>
	<line x1="3465.59" y1="990.38" x2="3465.59" y2="932.73" style="stroke:#F0F0F0;stroke-width:8.64"/>
	<line x1="3465.59" y1="903.97" x2="3465.59" y2="846.33" style="stroke:#F0F0F0;stroke-width:8.64"/>
	<line x1="3465.59" y1="817.57" x2="3465.59" y2="759.93" style="stroke:#F0F0F0;stroke-width:8.64"/>
	<line x1="3465.59" y1="731.17" x2="3465.59" y2="673.53" style="stroke:#F0F0F0;stroke-width:8.64"/>
	<line x1="3465.59" y1="644.77" x2="3465.59" y2="587.12" style="stroke:#F0F0F0;stroke-width:8.64"/>
	<line x1="3465.59" y1="558.37" x2="3465.59" y2="500.72" style="stroke:#F0F0F0;stroke-width:8.64"/>
	<line x1="3465.59" y1="471.97" x2="3465.59" y2="414.32" style="stroke:#F0F0F0;stroke-width:8.64"/>
	<line x1="3465.59" y1="385.57" x2="3465.59" y2="327.92" style="stroke:#F0F0F0;stroke-width:8.64"/>
	<line x1="3465.59" y1="299.16" x2="3465.59" y2="241.52" style="stroke:#F0F0F0;stroke-width:8.64"/>
	<line x1="3465.59" y1="212.76" x2="3465.59" y2="155.12" style="stroke:#F0F0F0;stroke-width:8.64"/>
	<line x1="3465.59" y1="126.36" x2="3465.59" y2="100.85" style="stroke:#F0F0F0;stroke-width:8.64"/>
	<line x1="4155.84" y1="2459.20" x2="4155.84" y2="2401.55" style="stroke:#F0F0F0;stroke-width:8.64"/>
	<line x1="4155.84" y1="2372.80" x2="4155.84" y2="2315.15" style="stroke:#F0F0F0;stroke-width:8.64"/>
	<line x1="4155.84" y1="2286.40" x2="4155.84" y2="2228.75" style="stroke:#F0F0F0;stroke-width:8.64"/>
	<line x1="4155.84" y1="2199.99" x2="4155.84" y2="2142.35" style="stroke:#F0F0F0;stroke-width:8.64"/>
	<line x1="4155.84" y1="2113.59" x2="4155.84" y2="2055.95" style="stroke:#F0F0F0;stroke-width:8.64"/>
	<line x1="4155.84" y1="2027.19" x2="4155.84" y2="1969.55" style="stroke:#F0F0F0;stroke-width:8.64"/>
	<line x1="4155.84" y1="1940.79" x2="4155.84" y2="1883.14" style="stroke:#F0F0F0;stroke-width:8.64"/>
	<line x1="4155.84" y1="1854.39" x2="4155.84" y2="1796.74" style="stroke:#F0F0F0;stroke-width:8.64"/>
	<line x1="4155.84" y1="1767.99" x2="4155.84" y2="1710.34" style="stroke:#F0F0F0;stroke-width:8.64"/>
	<line x1="4155.84" y1="1681.59" x2="4155.84" y2="1623.94" style="stroke:#F0F0F0;stroke-width:8.64"/>
	<line x1="4155.84" y1="1595.18" x2="4155.84" y2="1537.54" style="stroke:#F0F0F0;stroke-width:8.64"/>
	<line x1="4155.84" y1="1508.78" x2="4155.84" y2="1451.14" style="stroke:#F0F0F0;stroke-width:8.64"/>
	<line x1="4155.84" y1="1422.38" x2="4155.84" y2="1364.74" style="stroke:#F0F0F0;stroke-width:8.64"/>
	<line x1="4155.84" y1="1335.98" x2="4155.84" y2="1278.33" style="stroke:#F0F0F0;stroke-width:8.64"/>
	<line x1="4155.84" y1="1249.58" x2="4155.84" y2="1191.93" style="stroke:#F0F0F0;stroke-width:8.64"/>
	<line x1="4155.84" y1="1163.18" x2="4155.84" y2="1105.53" style="stroke:#F0F0F0;stroke-width:8.64"/>
	<line x1="4155.84" y1="1076.78" x2="4155.84" y2="1019.13" style="stroke:#F0F0F0;stroke-width:8.64"/>
	<line x1="4155.84" y1="990.38" x2="4155.84" y2="932.73" style="stroke:#F0F0F0;stroke-width:8.64"/>
	<line x1="4155.84" y1="903.97" x2="4155.84" y2="846.33" style="stroke:#F0F0F0;stroke-width:8.64"/>
	<line x1="4155.84" y1="817.57" x2="4155.84" y2="759.93" style="stroke:#F0F0F0;stroke-width:8.64"/>
	<line x1="4155.84" y1="731.17" x2="4155.84" y2="673.53" style="stroke:#F0F0F0;stroke-width:8.64"/>
	<line x1="4155.84" y1="644.77" x2="4155.84" y2="587.12" style="stroke:#F0F0F0;stroke-width:8.64"/>
	<line x1="4155.84" y1="558.37" x2="4155.84" y2="500.72" style="stroke:#F0F0F0;stroke-width:8.64"/>
	<line x1="4155.84" y1="471.97" x2="4155.84" y2="414.32" style="stroke:#F0F0F0;stroke-width:8.64"/>
	<line x1="4155.84" y1="385.57" x2="4155.84" y2="327.92" style="stroke:#F0F0F0;stroke-width:8.64"/>
	<line x1="4155.84" y1="299.16" x2="4155.84" y2="241.52" style="stroke:#F0F0F0;stroke-width:8.64"/>
	<line x1="4155.84" y1="212.76" x2="4155.84" y2="155.12" style="stroke:#F0F0F0;stroke-width:8.64"/>
	<line x1="4155.84" y1="126.36" x2="4155.84" y2="100.85" style="stroke:#F0F0F0;stroke-width:8.64"/>
	<line x1="2775.47" y1="2459.20" x2="2775.47" y2="2401.55" style="stroke:#F0F0F0;stroke-width:8.64"/>
	<line x1="2775.47" y1="2372.80" x2="2775.47" y2="2315.15" style="stroke:#F0F0F0;stroke-width:8.64"/>
	<line x1="2775.47" y1="2286.40" x2="2775.47" y2="2228.75" style="stroke:#F0F0F0;stroke-width:8.64"/>
	<line x1="2775.47" y1="2199.99" x2="2775.47" y2="2142.35" style="stroke:#F0F0F0;stroke-width:8.64"/>
	<line x1="2775.47" y1="2113.59" x2="2775.47" y2="2055.95" style="stroke:#F0F0F0;stroke-width:8.64"/>
	<line x1="2775.47" y1="2027.19" x2="2775.47" y2="1969.55" style="stroke:#F0F0F0;stroke-width:8.64"/>
	<line x1="2775.47" y1="1940.79" x2="2775.47" y2="1883.14" style="stroke:#F0F0F0;stroke-width:8.64"/>
	<line x1="2775.47" y1="1854.39" x2="2775.47" y2="1796.74" style="stroke:#F0F0F0;stroke-width:8.64"/>
	<line x1="2775.47" y1="1767.99" x2="2775.47" y2="1710.34" style="stroke:#F0F0F0;stroke-width:8.64"/>
	<line x1="2775.47" y1="1681.59" x2="2775.47" y2="1623.94" style="stroke:#F0F0F0;stroke-width:8.64"/>
	<line x1="2775.47" y1="1595.18" x2="2775.47" y2="1537.54" style="stroke:#F0F0F0;stroke-width:8.64"/>
	<line x1="2775.47" y1="1508.78" x2="2775.47" y2="1451.14" style="stroke:#F0F0F0;stroke-width:8.64"/>
	<line x1="2775.47" y1="1422.38" x2="2775.47" y2="1364.74" style="stroke:#F0F0F0;stroke-width:8.64"/>
	<line x1="2775.47" y1="1335.98" x2="2775.47" y2="1278.33" style="stroke:#F0F0F0;stroke-width:8.64"/>
	<line x1="2775.47" y1="1249.58" x2="2775.47" y2="1191.93" style="stroke:#F0F0F0;stroke-width:8.64"/>
	<line x1="2775.47" y1="1163.18" x2="2775.47" y2="1105.53" style="stroke:#F0F0F0;stroke-width:8.64"/>
	<line x1="2775.47" y1="1076.78" x2="2775.47" y2="1019.13" style="stroke:#F0F0F0;stroke-width:8.64"/>
	<line x1="2775.47" y1="990.38" x2="2775.47" y2="932.73" style="stroke:#F0F0F0;stroke-width:8.64"/>
	<line x1="2775.47" y1="903.97" x2="2775.47" y2="846.33" style="stroke:#F0F0F0;stroke-width:8.64"/>
	<line x1="2775.47" y1="817.57" x2="2775.47" y2="759.93" style="stroke:#F0F0F0;stroke-width:8.64"/>
	<line x1="2775.47" y1="731.17" x2="2775.47" y2="673.53" style="stroke:#F0F0F0;stroke-width:8.64"/>
	<line x1="2775.47" y1="644.77" x2="2775.47" y2="587.12" style="stroke:#F0F0F0;stroke-width:8.64"/>
	<line x1="2775.47" y1="558.37" x2="2775.47" y2="500.72" style="stroke:#F0F0F0;stroke-width:8.64"/>
	<line x1="2775.47" y1="471.97" x2="2775.47" y2="414.32" style="stroke:#F0F0F0;stroke-width:8.64"/>
	<line x1="2775.47" y1="385.57" x2="2775.47" y2="327.92" style="stroke:#F0F0F0;stroke-width:8.64"/>
	<line x1="2775.47" y1="299.16" x2="2775.47" y2="241.52" style="stroke:#F0F0F0;stroke-width:8.64"/>
	<line x1="2775.47" y1="212.76" x2="2775.47" y2="155.12" style="stroke:#F0F0F0;stroke-width:8.64"/>
	<line x1="2775.47" y1="126.36" x2="2775.47" y2="100.85" style="stroke:#F0F0F0;stroke-width:8.64"/>
	<line x1="1395.09" y1="2459.20" x2="1395.09" y2="2401.55" style="stroke:#F0F0F0;stroke-width:8.64"/>
	<line x1="1395.09" y1="2372.80" x2="1395.09" y2="2315.15" style="stroke:#F0F0F0;stroke-width:8.64"/>
	<line x1="1395.09" y1="2286.40" x2="1395.09" y2="2228.75" style="stroke:#F0F0F0;stroke-width:8.64"/>
	<line x1="1395.09" y1="2199.99" x2="1395.09" y2="2142.35" style="stroke:#F0F0F0;stroke-width:8.64"/>
	<line x1="1395.09" y1="2113.59" x2="1395.09" y2="2055.95" style="stroke:#F0F0F0;stroke-width:8.64"/>
	<line x1="1395.09" y1="2027.19" x2="1395.09" y2="1969.55" style="stroke:#F0F0F0;stroke-width:8.64"/>
	<line x1="1395.09" y1="1940.79" x2="1395.09" y2="1883.14" style="stroke:#F0F0F0;stroke-width:8.64"/>
	<line x1="1395.09" y1="1854.39" x2="1395.09" y2="1796.74" style="stroke:#F0F0F0;stroke-width:8.64"/>
	<line x1="1395.09" y1="1767.99" x2="1395.09" y2="1710.34" style="stroke:#F0F0F0;stroke-width:8.64"/>
	<line x1="1395.09" y1="1681.59" x2="1395.09" y2="1623.94" style="stroke:#F0F0F0;stroke-width:8.64"/>
	<line x1="1395.09" y1="1595.18" x2="1395.09" y2="1537.54" style="stroke:#F0F0F0;stroke-width:8.64"/>
	<line x1="1395.09" y1="1508.78" x2="1395.09" y2="1451.14" style="stroke:#F0F0F0;stroke-width:8.64"/>
	<line x1="1395.09" y1="1422.38" x2="1395.09" y2="1364.74" style="stroke:#F0F0F0;stroke-width:8.64"/>
	<line x1="1395.09" y1="1335.98" x2="1395.09" y2="1278.33" style="stroke:#F0F0F0;stroke-width:8.64"/>
	<line x1="1395.09" y1="1249.58" x2="1395.09" y2="1191.93" style="stroke:#F0F0F0;stroke-width:8.64"/>
	<line x1="1395.09" y1="1163.18" x2="1395.09" y2="1105.53" style="stroke:#F0F0F0;stroke-width:8.64"/>
	<line x1="1395.09" y1="1076.78" x2="1395.09" y2="1019.13" style="stroke:#F0F0F0;stroke-width:8.64"/>
	<line x1="1395.09" y1="990.38" x2="1395.09" y2="932.73" style="stroke:#F0F0F0;stroke-width:8.64"/>
	<line x1="1395.09" y1="903.97" x2="1395.09" y2="846.33" style="stroke:#F0F0F0;stroke-width:8.64"/>
	<line x1="1395.09" y1="817.57" x2="1395.09" y2="759.93" style="stroke:#F0F0F0;stroke-width:8.64"/>
	<line x1="1395.09" y1="731.17" x2="1395.09" y2="673.53" style="stroke:#F0F0F0;stroke-width:8.64"/>
	<line x1="1395.09" y1="644.77" x2="1395.09" y2="587.12" style="stroke:#F0F0F0;stroke-width:8.64"/>
	<line x1="1395.09" y1="558.37" x2="1395.09" y2="500.72" style="stroke:#F0F0F0;stroke-width:8.64"/>
	<line x1="1395.09" y1="471.97" x2="1395.09" y2="414.32" style="stroke:#F0F0F0;stroke-width:8.64"/>
	<line x1="1395.09" y1="385.57" x2="1395.09" y2="327.92" style="stroke:#F0F0F0;stroke-width:8.64"/>
	<line x1="1395.09" y1="299.16" x2="1395.09" y2="241.52" style="stroke:#F0F0F0;stroke-width:8.64"/>
	<line x1="1395.09" y1="212.76" x2="1395.09" y2="155.12" style="stroke:#F0F0F0;stroke-width:8.64"/>
	<line x1="1395.09" y1="126.36" x2="1395.09" y2="100.85" style="stroke:#F0F0F0;stroke-width:8.64"/>
	<path d=" M704.97 1653.51 L733.73 2025.30 L762.48 1432.37 L791.24 1735.18 L819.99 1529.17 L848.75 2108.87 L877.50 1744.63 L906.26 1758.40 L935.01 2043.53 L963.77 1592.08 L992.52 1765.69 L1021.28 1885.44 L1050.03 1429.40 L1078.79 1650.54 L1107.54 898.98 L1136.30 1439.93 L1165.05 1706.43 L1193.81 1989.39 L1222.56 1894.48 L1251.32 1916.49 L1280.07 1822.39 L1308.83 1633.26 L1337.58 1783.65 L1366.34 2202.83 L1395.09 1697.11 L1423.85 1839.94 L1452.60 1433.99 L1481.36 1783.65 L1510.11 1910.95 L1538.87 2395.88 L1567.62 2385.62 L1596.38 2251.30 L1625.13 1991.69 L1653.89 1748.41 L1682.64 1586.95 L1711.40 1939.98 L1740.15 1271.18 L1768.91 1537.54 L1797.66 760.20 L1826.42 1335.58 L1855.17 1612.74 L1883.93 2328.25 L1912.68 2168.54 L1941.44 2120.61 L1970.19 1846.42 L1998.95 1253.36 L2027.70 1103.10 L2056.46 1919.73 L2085.21 1224.20 L2113.97 1578.44 L2142.72 762.90 L2171.48 1106.75 L2200.23 1555.90 L2228.99 2313.40 L2257.74 2271.28 L2286.50 2158.28 L2315.25 1962.80 L2344.01 1276.04 L2372.76 1345.16 L2401.52 1903.93 L2430.27 1367.71 L2459.03 1503.25 L2487.78 861.04 L2516.54 1142.25 L2545.29 1475.03 L2574.05 2177.85 L2602.80 2026.11 L2631.56 2013.83 L2660.31 1749.63 L2689.07 1259.70 L2717.82 1389.44 L2746.58 1797.96 L2775.33 1390.79 L2804.09 1413.74 L2832.84 1089.74 L2861.60 704.31 L2890.35 567.01 L2919.11 1234.59 L2947.86 1482.46 L2976.75 1477.87 L3005.51 1084.34 L3034.26 1055.45 L3063.02 1186.94 L3091.77 1309.25 L3120.53 772.08 L3149.28 922.74 L3178.04 243.00 L3206.79 589.01 L3235.55 837.96 L3264.30 1563.46 L3293.06 1631.37 L3321.81 1607.34 L3350.57 1327.21 L3379.32 1297.91 L3408.08 1390.52 L3436.83 1669.17 L3465.59 1199.09 L3494.34 1468.28 L3523.10 1022.10 L3551.85 1269.56 L3580.61 1370.68 L3609.36 1956.59 L3638.12 1774.06 L3666.87 1810.92 L3695.63 1427.92 L3724.38 1107.29 L3753.14 1404.16 L3781.89 1593.97 L3810.65 976.47 L3839.40 1331.80 L3868.16 731.31 L3896.91 1004.69 L3925.67 1231.08" stroke-linejoin="round" style="fill:none;stroke:#1A85FF;stroke-width:8.64"/>
	<line x1="641.66" y1="2459.20" x2="641.66" y2="100.85" style="stroke:#000000;stroke-width:5.76"/>
	<line x1="641.66" y1="2254.40" x2="601.56" y2="2254.40" style="stroke:#000000;stroke-width:5.76"/>
	<text x="581.58" y="2289.45" style="font-family:'Helvetica';font-size:100.04px;fill:#000000" text-anchor="end">34000</text>
	<line x1="641.66" y1="1836.30" x2="601.56" y2="1836.30" style="stroke:#000000;stroke-width:5.76"/>
	<text x="581.58" y="1871.35" style="font-family:'Helvetica';font-size:100.04px;fill:#000000" text-anchor="end">36000</text>
	<line x1="641.66" y1="1418.33" x2="601.56" y2="1418.33" style="stroke:#000000;stroke-width:5.76"/>
	<text x="581.58" y="1453.38" style="font-family:'Helvetica';font-size:100.04px;fill:#000000" text-anchor="end">38000</text>
	<line x1="641.66" y1="1000.23" x2="601.56" y2="1000.23" style="stroke:#000000;stroke-width:5.76"/>
	<text x="581.58" y="1035.28" style="font-family:'Helvetica';font-size:100.04px;fill:#000000" text-anchor="end">40000</text>
	<line x1="641.66" y1="582.26" x2="601.56" y2="582.26" style="stroke:#000000;stroke-width:5.76"/>
	<text x="581.58" y="617.31" style="font-family:'Helvetica';font-size:100.04px;fill:#000000" text-anchor="end">42000</text>
	<line x1="641.66" y1="164.16" x2="601.56" y2="164.16" style="stroke:#000000;stroke-width:5.76"/>
	<text x="581.58" y="199.21" style="font-family:'Helvetica';font-size:100.04px;fill:#000000" text-anchor="end">44000</text>
	<text x="190.78" y="1279.95" style="font-family:'Helvetica';font-size:100.04px;fill:#000000" transform="rotate(-90 190.78,1279.95)" text-anchor="middle">Active editors</text>
	<line x1="641.66" y1="2459.20" x2="4219.16" y2="2459.20" style="stroke:#000000;stroke-width:5.76"/>
	<line x1="704.97" y1="2459.20" x2="704.97" y2="2499.16" style="stroke:#000000;stroke-width:5.76"/>
	<text x="704.97" y="2589.10" style="font-family:'Helvetica';font-size:100.04px;fill:#000000" text-anchor="middle">2014</text>
	<line x1="2085.34" y1="2459.20" x2="2085.34" y2="2499.16" style="stroke:#000000;stroke-width:5.76"/>
	<text x="2085.34" y="2589.10" style="font-family:'Helvetica';font-size:100.04px;fill:#000000" text-anchor="middle">2018</text>
	<line x1="3465.59" y1="2459.20" x2="3465.59" y2="2499.16" style="stroke:#000000;stroke-width:5.76"/>
	<text x="3465.59" y="2589.10" style="font-family:'Helvetica';font-size:100.04px;fill:#000000" text-anchor="middle">2022</text>
	<line x1="4155.84" y1="2459.20" x2="4155.84" y2="2499.16" style="stroke:#000000;stroke-width:5.76"/>
	<text x="4155.84" y="2589.10" style="font-family:'Helvetica';font-size:100.04px;fill:#000000" text-anchor="middle">2024</text>
	<line x1="2775.47" y1="2459.20" x2="2775.47" y2="2499.16" style="stroke:#000000;stroke-width:5.76"/>
	<text x="2775.47" y="2589.10" style="font-family:'Helvetica';font-size:100.04px;fill:#000000" text-anchor="middle">2020</text>
	<line x1="1395.09" y1="2459.20" x2="1395.09" y2="2499.16" style="stroke:#000000;stroke-width:5.76"/>
	<text x="1395.09" y="2589.10" style="font-family:'Helvetica';font-size:100.04px;fill:#000000" text-anchor="middle">2016</text>
	<text x="2430.41" y="2729.09" style="font-family:'Helvetica';font-size:100.04px;fill:#000000" text-anchor="middle">Month</text>
</svg>
