<?xml version="1.0" encoding="UTF-8" standalone="no"?>
<!-- This is a Stata 18.0 generated SVG file (http://www.stata.com) -->

<svg version="1.1" width="6.000in" height="4.000in" viewBox="0 0 4320 2880" xmlns="http://www.w3.org/2000/svg" xmlns:xlink="http://www.w3.org/1999/xlink">
	<desc>Stata Graph - graph1</desc>
	<rect x="0" y="0" width="4320" height="2880" style="fill:#FFFFFF;stroke:none"/>
	<rect x="0.00" y="0.00" width="4320.00" height="2880.00" style="fill:#FFFFFF"/>
	<rect x="2.88" y="2.88" width="4314.24" height="2874.24" style="fill:none;stroke:#FFFFFF;stroke-width:5.76"/>
	<rect x="589.14" y="100.85" width="3630.02" height="2243.87" style="fill:#FFFFFF"/>
	<rect x="592.02" y="103.73" width="3624.26" height="2238.11" style="fill:none;stroke:#FFFFFF;stroke-width:5.76"/>
	<line x1="589.14" y1="2281.27" x2="646.79" y2="2281.27" style="stroke:#F0F0F0;stroke-width:8.64"/>
	<line x1="675.54" y1="2281.27" x2="733.19" y2="2281.27" style="stroke:#F0F0F0;stroke-width:8.64"/>
	<line x1="761.94" y1="2281.27" x2="819.59" y2="2281.27" style="stroke:#F0F0F0;stroke-width:8.64"/>
	<line x1="848.34" y1="2281.27" x2="905.99" y2="2281.27" style="stroke:#F0F0F0;stroke-width:8.64"/>
	<line x1="934.74" y1="2281.27" x2="992.39" y2="2281.27" style="stroke:#F0F0F0;stroke-width:8.64"/>
	<line x1="1021.14" y1="2281.27" x2="1078.79" y2="2281.27" style="stroke:#F0F0F0;stroke-width:8.64"/>
	<line x1="1107.54" y1="2281.27" x2="1165.19" y2="2281.27" style="stroke:#F0F0F0;stroke-width:8.64"/>
	<line x1="1193.94" y1="2281.27" x2="1251.59" y2="2281.27" style="stroke:#F0F0F0;stroke-width:8.64"/>
	<line x1="1280.34" y1="2281.27" x2="1337.99" y2="2281.27" style="stroke:#F0F0F0;stroke-width:8.64"/>
	<line x1="1366.74" y1="2281.27" x2="1424.39" y2="2281.27" style="stroke:#F0F0F0;stroke-width:8.64"/>
	<line x1="1453.14" y1="2281.27" x2="1510.79" y2="2281.27" style="stroke:#F0F0F0;stroke-width:8.64"/>
	<line x1="1539.54" y1="2281.27" x2="1597.19" y2="2281.27" style="stroke:#F0F0F0;stroke-width:8.64"/>
	<line x1="1625.94" y1="2281.27" x2="1683.59" y2="2281.27" style="stroke:#F0F0F0;stroke-width:8.64"/>
	<line x1="1712.34" y1="2281.27" x2="1769.99" y2="2281.27" style="stroke:#F0F0F0;stroke-width:8.64"/>
	<line x1="1798.74" y1="2281.27" x2="1856.39" y2="2281.27" style="stroke:#F0F0F0;stroke-width:8.64"/>
	<line x1="1885.14" y1="2281.27" x2="1942.79" y2="2281.27" style="stroke:#F0F0F0;stroke-width:8.64"/>
	<line x1="1971.54" y1="2281.27" x2="2029.19" y2="2281.27" style="stroke:#F0F0F0;stroke-width:8.64"/>
	<line x1="2057.94" y1="2281.27" x2="2115.59" y2="2281.27" style="stroke:#F0F0F0;stroke-width:8.64"/>
	<line x1="2144.34" y1="2281.27" x2="2201.99" y2="2281.27" style="stroke:#F0F0F0;stroke-width:8.64"/>
	<line x1="2230.74" y1="2281.27" x2="2288.39" y2="2281.27" style="stroke:#F0F0F0;stroke-width:8.64"/>
	<line x1="2317.14" y1="2281.27" x2="2374.79" y2="2281.27" style="stroke:#F0F0F0;stroke-width:8.64"/>
	<line x1="2403.54" y1="2281.27" x2="2461.19" y2="2281.27" style="stroke:#F0F0F0;stroke-width:8.64"/>
	<line x1="2489.94" y1="2281.27" x2="2547.59" y2="2281.27" style="stroke:#F0F0F0;stroke-width:8.64"/>
	<line x1="2576.34" y1="2281.27" x2="2633.99" y2="2281.27" style="stroke:#F0F0F0;stroke-width:8.64"/>
	<line x1="2662.74" y1="2281.27" x2="2720.39" y2="2281.27" style="stroke:#F0F0F0;stroke-width:8.64"/>
	<line x1="2749.14" y1="2281.27" x2="2806.79" y2="2281.27" style="stroke:#F0F0F0;stroke-width:8.64"/>
	<line x1="2835.54" y1="2281.27" x2="2893.19" y2="2281.27" style="stroke:#F0F0F0;stroke-width:8.64"/>
	<line x1="2921.94" y1="2281.27" x2="2979.59" y2="2281.27" style="stroke:#F0F0F0;stroke-width:8.64"/>
	<line x1="3008.34" y1="2281.27" x2="3065.99" y2="2281.27" style="stroke:#F0F0F0;stroke-width:8.64"/>
	<line x1="3094.74" y1="2281.27" x2="3152.39" y2="2281.27" style="stroke:#F0F0F0;stroke-width:8.64"/>
	<line x1="3181.14" y1="2281.27" x2="3238.79" y2="2281.27" style="stroke:#F0F0F0;stroke-width:8.64"/>
	<line x1="3267.54" y1="2281.27" x2="3325.19" y2="2281.27" style="stroke:#F0F0F0;stroke-width:8.64"/>
	<line x1="3353.94" y1="2281.27" x2="3411.59" y2="2281.27" style="stroke:#F0F0F0;stroke-width:8.64"/>
	<line x1="3440.34" y1="2281.27" x2="3497.99" y2="2281.27" style="stroke:#F0F0F0;stroke-width:8.64"/>
	<line x1="3526.74" y1="2281.27" x2="3584.39" y2="2281.27" style="stroke:#F0F0F0;stroke-width:8.64"/>
	<line x1="3613.14" y1="2281.27" x2="3670.79" y2="2281.27" style="stroke:#F0F0F0;stroke-width:8.64"/>
	<line x1="3699.54" y1="2281.27" x2="3757.19" y2="2281.27" style="stroke:#F0F0F0;stroke-width:8.64"/>
	<line x1="3785.94" y1="2281.27" x2="3843.59" y2="2281.27" style="stroke:#F0F0F0;stroke-width:8.64"/>
	<line x1="3872.34" y1="2281.27" x2="3929.99" y2="2281.27" style="stroke:#F0F0F0;stroke-width:8.64"/>
	<line x1="3958.74" y1="2281.27" x2="4016.39" y2="2281.27" style="stroke:#F0F0F0;stroke-width:8.64"/>
	<line x1="4045.14" y1="2281.27" x2="4102.79" y2="2281.27" style="stroke:#F0F0F0;stroke-width:8.64"/>
	<line x1="4131.54" y1="2281.27" x2="4189.19" y2="2281.27" style="stroke:#F0F0F0;stroke-width:8.64"/>
	<line x1="4217.94" y1="2281.27" x2="4219.16" y2="2281.27" style="stroke:#F0F0F0;stroke-width:8.64"/>
	<line x1="589.14" y1="1222.71" x2="646.79" y2="1222.71" style="stroke:#F0F0F0;stroke-width:8.64"/>
	<line x1="675.54" y1="1222.71" x2="733.19" y2="1222.71" style="stroke:#F0F0F0;stroke-width:8.64"/>
	<line x1="761.94" y1="1222.71" x2="819.59" y2="1222.71" style="stroke:#F0F0F0;stroke-width:8.64"/>
	<line x1="848.34" y1="1222.71" x2="905.99" y2="1222.71" style="stroke:#F0F0F0;stroke-width:8.64"/>
	<line x1="934.74" y1="1222.71" x2="992.39" y2="1222.71" style="stroke:#F0F0F0;stroke-width:8.64"/>
	<line x1="1021.14" y1="1222.71" x2="1078.79" y2="1222.71" style="stroke:#F0F0F0;stroke-width:8.64"/>
	<line x1="1107.54" y1="1222.71" x2="1165.19" y2="1222.71" style="stroke:#F0F0F0;stroke-width:8.64"/>
	<line x1="1193.94" y1="1222.71" x2="1251.59" y2="1222.71" style="stroke:#F0F0F0;stroke-width:8.64"/>
	<line x1="1280.34" y1="1222.71" x2="1337.99" y2="1222.71" style="stroke:#F0F0F0;stroke-width:8.64"/>
	<line x1="1366.74" y1="1222.71" x2="1424.39" y2="1222.71" style="stroke:#F0F0F0;stroke-width:8.64"/>
	<line x1="1453.14" y1="1222.71" x2="1510.79" y2="1222.71" style="stroke:#F0F0F0;stroke-width:8.64"/>
	<line x1="1539.54" y1="1222.71" x2="1597.19" y2="1222.71" style="stroke:#F0F0F0;stroke-width:8.64"/>
	<line x1="1625.94" y1="1222.71" x2="1683.59" y2="1222.71" style="stroke:#F0F0F0;stroke-width:8.64"/>
	<line x1="1712.34" y1="1222.71" x2="1769.99" y2="1222.71" style="stroke:#F0F0F0;stroke-width:8.64"/>
	<line x1="1798.74" y1="1222.71" x2="1856.39" y2="1222.71" style="stroke:#F0F0F0;stroke-width:8.64"/>
	<line x1="1885.14" y1="1222.71" x2="1942.79" y2="1222.71" style="stroke:#F0F0F0;stroke-width:8.64"/>
	<line x1="1971.54" y1="1222.71" x2="2029.19" y2="1222.71" style="stroke:#F0F0F0;stroke-width:8.64"/>
	<line x1="2057.94" y1="1222.71" x2="2115.59" y2="1222.71" style="stroke:#F0F0F0;stroke-width:8.64"/>
	<line x1="2144.34" y1="1222.71" x2="2201.99" y2="1222.71" style="stroke:#F0F0F0;stroke-width:8.64"/>
	<line x1="2230.74" y1="1222.71" x2="2288.39" y2="1222.71" style="stroke:#F0F0F0;stroke-width:8.64"/>
	<line x1="2317.14" y1="1222.71" x2="2374.79" y2="1222.71" style="stroke:#F0F0F0;stroke-width:8.64"/>
	<line x1="2403.54" y1="1222.71" x2="2461.19" y2="1222.71" style="stroke:#F0F0F0;stroke-width:8.64"/>
	<line x1="2489.94" y1="1222.71" x2="2547.59" y2="1222.71" style="stroke:#F0F0F0;stroke-width:8.64"/>
	<line x1="2576.34" y1="1222.71" x2="2633.99" y2="1222.71" style="stroke:#F0F0F0;stroke-width:8.64"/>
	<line x1="2662.74" y1="1222.71" x2="2720.39" y2="1222.71" style="stroke:#F0F0F0;stroke-width:8.64"/>
	<line x1="2749.14" y1="1222.71" x2="2806.79" y2="1222.71" style="stroke:#F0F0F0;stroke-width:8.64"/>
	<line x1="2835.54" y1="1222.71" x2="2893.19" y2="1222.71" style="stroke:#F0F0F0;stroke-width:8.64"/>
	<line x1="2921.94" y1="1222.71" x2="2979.59" y2="1222.71" style="stroke:#F0F0F0;stroke-width:8.64"/>
	<line x1="3008.34" y1="1222.71" x2="3065.99" y2="1222.71" style="stroke:#F0F0F0;stroke-width:8.64"/>
	<line x1="3094.74" y1="1222.71" x2="3152.39" y2="1222.71" style="stroke:#F0F0F0;stroke-width:8.64"/>
	<line x1="3181.14" y1="1222.71" x2="3238.79" y2="1222.71" style="stroke:#F0F0F0;stroke-width:8.64"/>
	<line x1="3267.54" y1="1222.71" x2="3325.19" y2="1222.71" style="stroke:#F0F0F0;stroke-width:8.64"/>
	<line x1="3353.94" y1="1222.71" x2="3411.59" y2="1222.71" style="stroke:#F0F0F0;stroke-width:8.64"/>
	<line x1="3440.34" y1="1222.71" x2="3497.99" y2="1222.71" style="stroke:#F0F0F0;stroke-width:8.64"/>
	<line x1="3526.74" y1="1222.71" x2="3584.39" y2="1222.71" style="stroke:#F0F0F0;stroke-width:8.64"/>
	<line x1="3613.14" y1="1222.71" x2="3670.79" y2="1222.71" style="stroke:#F0F0F0;stroke-width:8.64"/>
	<line x1="3699.54" y1="1222.71" x2="3757.19" y2="1222.71" style="stroke:#F0F0F0;stroke-width:8.64"/>
	<line x1="3785.94" y1="1222.71" x2="3843.59" y2="1222.71" style="stroke:#F0F0F0;stroke-width:8.64"/>
	<line x1="3872.34" y1="1222.71" x2="3929.99" y2="1222.71" style="stroke:#F0F0F0;stroke-width:8.64"/>
	<line x1="3958.74" y1="1222.71" x2="4016.39" y2="1222.71" style="stroke:#F0F0F0;stroke-width:8.64"/>
	<line x1="4045.14" y1="1222.71" x2="4102.79" y2="1222.71" style="stroke:#F0F0F0;stroke-width:8.64"/>
	<line x1="4131.54" y1="1222.71" x2="4189.19" y2="1222.71" style="stroke:#F0F0F0;stroke-width:8.64"/>
	<line x1="4217.94" y1="1222.71" x2="4219.16" y2="1222.71" style="stroke:#F0F0F0;stroke-width:8.64"/>
	<line x1="589.14" y1="164.16" x2="646.79" y2="164.16" style="stroke:#F0F0F0;stroke-width:8.64"/>
	<line x1="675.54" y1="164.16" x2="733.19" y2="164.16" style="stroke:#F0F0F0;stroke-width:8.64"/>
	<line x1="761.94" y1="164.16" x2="819.59" y2="164.16" style="stroke:#F0F0F0;stroke-width:8.64"/>
	<line x1="848.34" y1="164.16" x2="905.99" y2="164.16" style="stroke:#F0F0F0;stroke-width:8.64"/>
	<line x1="934.74" y1="164.16" x2="992.39" y2="164.16" style="stroke:#F0F0F0;stroke-width:8.64"/>
	<line x1="1021.14" y1="164.16" x2="1078.79" y2="164.16" style="stroke:#F0F0F0;stroke-width:8.64"/>
	<line x1="1107.54" y1="164.16" x2="1165.19" y2="164.16" style="stroke:#F0F0F0;stroke-width:8.64"/>
	<line x1="1193.94" y1="164.16" x2="1251.59" y2="164.16" style="stroke:#F0F0F0;stroke-width:8.64"/>
	<line x1="1280.34" y1="164.16" x2="1337.99" y2="164.16" style="stroke:#F0F0F0;stroke-width:8.64"/>
	<line x1="1366.74" y1="164.16" x2="1424.39" y2="164.16" style="stroke:#F0F0F0;stroke-width:8.64"/>
	<line x1="1453.14" y1="164.16" x2="1510.79" y2="164.16" style="stroke:#F0F0F0;stroke-width:8.64"/>
	<line x1="1539.54" y1="164.16" x2="1597.19" y2="164.16" style="stroke:#F0F0F0;stroke-width:8.64"/>
	<line x1="1625.94" y1="164.16" x2="1683.59" y2="164.16" style="stroke:#F0F0F0;stroke-width:8.64"/>
	<line x1="1712.34" y1="164.16" x2="1769.99" y2="164.16" style="stroke:#F0F0F0;stroke-width:8.64"/>
	<line x1="1798.74" y1="164.16" x2="1856.39" y2="164.16" style="stroke:#F0F0F0;stroke-width:8.64"/>
	<line x1="1885.14" y1="164.16" x2="1942.79" y2="164.16" style="stroke:#F0F0F0;stroke-width:8.64"/>
	<line x1="1971.54" y1="164.16" x2="2029.19" y2="164.16" style="stroke:#F0F0F0;stroke-width:8.64"/>
	<line x1="2057.94" y1="164.16" x2="2115.59" y2="164.16" style="stroke:#F0F0F0;stroke-width:8.64"/>
	<line x1="2144.34" y1="164.16" x2="2201.99" y2="164.16" style="stroke:#F0F0F0;stroke-width:8.64"/>
	<line x1="2230.74" y1="164.16" x2="2288.39" y2="164.16" style="stroke:#F0F0F0;stroke-width:8.64"/>
	<line x1="2317.14" y1="164.16" x2="2374.79" y2="164.16" style="stroke:#F0F0F0;stroke-width:8.64"/>
	<line x1="2403.54" y1="164.16" x2="2461.19" y2="164.16" style="stroke:#F0F0F0;stroke-width:8.64"/>
	<line x1="2489.94" y1="164.16" x2="2547.59" y2="164.16" style="stroke:#F0F0F0;stroke-width:8.64"/>
	<line x1="2576.34" y1="164.16" x2="2633.99" y2="164.16" style="stroke:#F0F0F0;stroke-width:8.64"/>
	<line x1="2662.74" y1="164.16" x2="2720.39" y2="164.16" style="stroke:#F0F0F0;stroke-width:8.64"/>
	<line x1="2749.14" y1="164.16" x2="2806.79" y2="164.16" style="stroke:#F0F0F0;stroke-width:8.64"/>
	<line x1="2835.54" y1="164.16" x2="2893.19" y2="164.16" style="stroke:#F0F0F0;stroke-width:8.64"/>
	<line x1="2921.94" y1="164.16" x2="2979.59" y2="164.16" style="stroke:#F0F0F0;stroke-width:8.64"/>
	<line x1="3008.34" y1="164.16" x2="3065.99" y2="164.16" style="stroke:#F0F0F0;stroke-width:8.64"/>
	<line x1="3094.74" y1="164.16" x2="3152.39" y2="164.16" style="stroke:#F0F0F0;stroke-width:8.64"/>
	<line x1="3181.14" y1="164.16" x2="3238.79" y2="164.16" style="stroke:#F0F0F0;stroke-width:8.64"/>
	<line x1="3267.54" y1="164.16" x2="3325.19" y2="164.16" style="stroke:#F0F0F0;stroke-width:8.64"/>
	<line x1="3353.94" y1="164.16" x2="3411.59" y2="164.16" style="stroke:#F0F0F0;stroke-width:8.64"/>
	<line x1="3440.34" y1="164.16" x2="3497.99" y2="164.16" style="stroke:#F0F0F0;stroke-width:8.64"/>
	<line x1="3526.74" y1="164.16" x2="3584.39" y2="164.16" style="stroke:#F0F0F0;stroke-width:8.64"/>
	<line x1="3613.14" y1="164.16" x2="3670.79" y2="164.16" style="stroke:#F0F0F0;stroke-width:8.64"/>
	<line x1="3699.54" y1="164.16" x2="3757.19" y2="164.16" style="stroke:#F0F0F0;stroke-width:8.64"/>
	<line x1="3785.94" y1="164.16" x2="3843.59" y2="164.16" style="stroke:#F0F0F0;stroke-width:8.64"/>
	<line x1="3872.34" y1="164.16" x2="3929.99" y2="164.16" style="stroke:#F0F0F0;stroke-width:8.64"/>
	<line x1="3958.74" y1="164.16" x2="4016.39" y2="164.16" style="stroke:#F0F0F0;stroke-width:8.64"/>
	<line x1="4045.14" y1="164.16" x2="4102.79" y2="164.16" style="stroke:#F0F0F0;stroke-width:8.64"/>
	<line x1="4131.54" y1="164.16" x2="4189.19" y2="164.16" style="stroke:#F0F0F0;stroke-width:8.64"/>
	<line x1="4217.94" y1="164.16" x2="4219.16" y2="164.16" style="stroke:#F0F0F0;stroke-width:8.64"/>
	<line x1="589.14" y1="1222.71" x2="646.79" y2="1222.71" style="stroke:#F0F0F0;stroke-width:8.64"/>
	<line x1="675.54" y1="1222.71" x2="733.19" y2="1222.71" style="stroke:#F0F0F0;stroke-width:8.64"/>
	<line x1="761.94" y1="1222.71" x2="819.59" y2="1222.71" style="stroke:#F0F0F0;stroke-width:8.64"/>
	<line x1="848.34" y1="1222.71" x2="905.99" y2="1222.71" style="stroke:#F0F0F0;stroke-width:8.64"/>
	<line x1="934.74" y1="1222.71" x2="992.39" y2="1222.71" style="stroke:#F0F0F0;stroke-width:8.64"/>
	<line x1="1021.14" y1="1222.71" x2="1078.79" y2="1222.71" style="stroke:#F0F0F0;stroke-width:8.64"/>
	<line x1="1107.54" y1="1222.71" x2="1165.19" y2="1222.71" style="stroke:#F0F0F0;stroke-width:8.64"/>
	<line x1="1193.94" y1="1222.71" x2="1251.59" y2="1222.71" style="stroke:#F0F0F0;stroke-width:8.64"/>
	<line x1="1280.34" y1="1222.71" x2="1337.99" y2="1222.71" style="stroke:#F0F0F0;stroke-width:8.64"/>
	<line x1="1366.74" y1="1222.71" x2="1424.39" y2="1222.71" style="stroke:#F0F0F0;stroke-width:8.64"/>
	<line x1="1453.14" y1="1222.71" x2="1510.79" y2="1222.71" style="stroke:#F0F0F0;stroke-width:8.64"/>
	<line x1="1539.54" y1="1222.71" x2="1597.19" y2="1222.71" style="stroke:#F0F0F0;stroke-width:8.64"/>
	<line x1="1625.94" y1="1222.71" x2="1683.59" y2="1222.71" style="stroke:#F0F0F0;stroke-width:8.64"/>
	<line x1="1712.34" y1="1222.71" x2="1769.99" y2="1222.71" style="stroke:#F0F0F0;stroke-width:8.64"/>
	<line x1="1798.74" y1="1222.71" x2="1856.39" y2="1222.71" style="stroke:#F0F0F0;stroke-width:8.64"/>
	<line x1="1885.14" y1="1222.71" x2="1942.79" y2="1222.71" style="stroke:#F0F0F0;stroke-width:8.64"/>
	<line x1="1971.54" y1="1222.71" x2="2029.19" y2="1222.71" style="stroke:#F0F0F0;stroke-width:8.64"/>
	<line x1="2057.94" y1="1222.71" x2="2115.59" y2="1222.71" style="stroke:#F0F0F0;stroke-width:8.64"/>
	<line x1="2144.34" y1="1222.71" x2="2201.99" y2="1222.71" style="stroke:#F0F0F0;stroke-width:8.64"/>
	<line x1="2230.74" y1="1222.71" x2="2288.39" y2="1222.71" style="stroke:#F0F0F0;stroke-width:8.64"/>
	<line x1="2317.14" y1="1222.71" x2="2374.79" y2="1222.71" style="stroke:#F0F0F0;stroke-width:8.64"/>
	<line x1="2403.54" y1="1222.71" x2="2461.19" y2="1222.71" style="stroke:#F0F0F0;stroke-width:8.64"/>
	<line x1="2489.94" y1="1222.71" x2="2547.59" y2="1222.71" style="stroke:#F0F0F0;stroke-width:8.64"/>
	<line x1="2576.34" y1="1222.71" x2="2633.99" y2="1222.71" style="stroke:#F0F0F0;stroke-width:8.64"/>
	<line x1="2662.74" y1="1222.71" x2="2720.39" y2="1222.71" style="stroke:#F0F0F0;stroke-width:8.64"/>
	<line x1="2749.14" y1="1222.71" x2="2806.79" y2="1222.71" style="stroke:#F0F0F0;stroke-width:8.64"/>
	<line x1="2835.54" y1="1222.71" x2="2893.19" y2="1222.71" style="stroke:#F0F0F0;stroke-width:8.64"/>
	<line x1="2921.94" y1="1222.71" x2="2979.59" y2="1222.71" style="stroke:#F0F0F0;stroke-width:8.64"/>
	<line x1="3008.34" y1="1222.71" x2="3065.99" y2="1222.71" style="stroke:#F0F0F0;stroke-width:8.64"/>
	<line x1="3094.74" y1="1222.71" x2="3152.39" y2="1222.71" style="stroke:#F0F0F0;stroke-width:8.64"/>
	<line x1="3181.14" y1="1222.71" x2="3238.79" y2="1222.71" style="stroke:#F0F0F0;stroke-width:8.64"/>
	<line x1="3267.54" y1="1222.71" x2="3325.19" y2="1222.71" style="stroke:#F0F0F0;stroke-width:8.64"/>
	<line x1="3353.94" y1="1222.71" x2="3411.59" y2="1222.71" style="stroke:#F0F0F0;stroke-width:8.64"/>
	<line x1="3440.34" y1="1222.71" x2="3497.99" y2="1222.71" style="stroke:#F0F0F0;stroke-width:8.64"/>
	<line x1="3526.74" y1="1222.71" x2="3584.39" y2="1222.71" style="stroke:#F0F0F0;stroke-width:8.64"/>
	<line x1="3613.14" y1="1222.71" x2="3670.79" y2="1222.71" style="stroke:#F0F0F0;stroke-width:8.64"/>
	<line x1="3699.54" y1="1222.71" x2="3757.19" y2="1222.71" style="stroke:#F0F0F0;stroke-width:8.64"/>
	<line x1="3785.94" y1="1222.71" x2="3843.59" y2="1222.71" style="stroke:#F0F0F0;stroke-width:8.64"/>
	<line x1="3872.34" y1="1222.71" x2="3929.99" y2="1222.71" style="stroke:#F0F0F0;stroke-width:8.64"/>
	<line x1="3958.74" y1="1222.71" x2="4016.39" y2="1222.71" style="stroke:#F0F0F0;stroke-width:8.64"/>
	<line x1="4045.14" y1="1222.71" x2="4102.79" y2="1222.71" style="stroke:#F0F0F0;stroke-width:8.64"/>
	<line x1="4131.54" y1="1222.71" x2="4189.19" y2="1222.71" style="stroke:#F0F0F0;stroke-width:8.64"/>
	<line x1="4217.94" y1="1222.71" x2="4219.16" y2="1222.71" style="stroke:#F0F0F0;stroke-width:8.64"/>
	<line x1="652.46" y1="2344.72" x2="652.46" y2="2287.07" style="stroke:#F0F0F0;stroke-width:8.64"/>
	<line x1="652.46" y1="2258.32" x2="652.46" y2="2200.67" style="stroke:#F0F0F0;stroke-width:8.64"/>
	<line x1="652.46" y1="2171.91" x2="652.46" y2="2114.27" style="stroke:#F0F0F0;stroke-width:8.64"/>
	<line x1="652.46" y1="2085.51" x2="652.46" y2="2027.87" style="stroke:#F0F0F0;stroke-width:8.64"/>
	<line x1="652.46" y1="1999.11" x2="652.46" y2="1941.47" style="stroke:#F0F0F0;stroke-width:8.64"/>
	<line x1="652.46" y1="1912.71" x2="652.46" y2="1855.06" style="stroke:#F0F0F0;stroke-width:8.64"/>
	<line x1="652.46" y1="1826.31" x2="652.46" y2="1768.66" style="stroke:#F0F0F0;stroke-width:8.64"/>
	<line x1="652.46" y1="1739.91" x2="652.46" y2="1682.26" style="stroke:#F0F0F0;stroke-width:8.64"/>
	<line x1="652.46" y1="1653.51" x2="652.46" y2="1595.86" style="stroke:#F0F0F0;stroke-width:8.64"/>
	<line x1="652.46" y1="1567.10" x2="652.46" y2="1509.46" style="stroke:#F0F0F0;stroke-width:8.64"/>
	<line x1="652.46" y1="1480.70" x2="652.46" y2="1423.06" style="stroke:#F0F0F0;stroke-width:8.64"/>
	<line x1="652.46" y1="1394.30" x2="652.46" y2="1336.66" style="stroke:#F0F0F0;stroke-width:8.64"/>
	<line x1="652.46" y1="1307.90" x2="652.46" y2="1250.25" style="stroke:#F0F0F0;stroke-width:8.64"/>
	<line x1="652.46" y1="1221.50" x2="652.46" y2="1163.85" style="stroke:#F0F0F0;stroke-width:8.64"/>
	<line x1="652.46" y1="1135.10" x2="652.46" y2="1077.45" style="stroke:#F0F0F0;stroke-width:8.64"/>
	<line x1="652.46" y1="1048.70" x2="652.46" y2="991.05" style="stroke:#F0F0F0;stroke-width:8.64"/>
	<line x1="652.46" y1="962.30" x2="652.46" y2="904.65" style="stroke:#F0F0F0;stroke-width:8.64"/>
	<line x1="652.46" y1="875.89" x2="652.46" y2="818.25" style="stroke:#F0F0F0;stroke-width:8.64"/>
	<line x1="652.46" y1="789.49" x2="652.46" y2="731.85" style="stroke:#F0F0F0;stroke-width:8.64"/>
	<line x1="652.46" y1="703.09" x2="652.46" y2="645.45" style="stroke:#F0F0F0;stroke-width:8.64"/>
	<line x1="652.46" y1="616.69" x2="652.46" y2="559.04" style="stroke:#F0F0F0;stroke-width:8.64"/>
	<line x1="652.46" y1="530.29" x2="652.46" y2="472.64" style="stroke:#F0F0F0;stroke-width:8.64"/>
	<line x1="652.46" y1="443.89" x2="652.46" y2="386.24" style="stroke:#F0F0F0;stroke-width:8.64"/>
	<line x1="652.46" y1="357.49" x2="652.46" y2="299.84" style="stroke:#F0F0F0;stroke-width:8.64"/>
	<line x1="652.46" y1="271.08" x2="652.46" y2="213.44" style="stroke:#F0F0F0;stroke-width:8.64"/>
	<line x1="652.46" y1="184.68" x2="652.46" y2="127.04" style="stroke:#F0F0F0;stroke-width:8.64"/>
	<line x1="1528.34" y1="2344.72" x2="1528.34" y2="2287.07" style="stroke:#F0F0F0;stroke-width:8.64"/>
	<line x1="1528.34" y1="2258.32" x2="1528.34" y2="2200.67" style="stroke:#F0F0F0;stroke-width:8.64"/>
	<line x1="1528.34" y1="2171.91" x2="1528.34" y2="2114.27" style="stroke:#F0F0F0;stroke-width:8.64"/>
	<line x1="1528.34" y1="2085.51" x2="1528.34" y2="2027.87" style="stroke:#F0F0F0;stroke-width:8.64"/>
	<line x1="1528.34" y1="1999.11" x2="1528.34" y2="1941.47" style="stroke:#F0F0F0;stroke-width:8.64"/>
	<line x1="1528.34" y1="1912.71" x2="1528.34" y2="1855.06" style="stroke:#F0F0F0;stroke-width:8.64"/>
	<line x1="1528.34" y1="1826.31" x2="1528.34" y2="1768.66" style="stroke:#F0F0F0;stroke-width:8.64"/>
	<line x1="1528.34" y1="1739.91" x2="1528.34" y2="1682.26" style="stroke:#F0F0F0;stroke-width:8.64"/>
	<line x1="1528.34" y1="1653.51" x2="1528.34" y2="1595.86" style="stroke:#F0F0F0;stroke-width:8.64"/>
	<line x1="1528.34" y1="1567.10" x2="1528.34" y2="1509.46" style="stroke:#F0F0F0;stroke-width:8.64"/>
	<line x1="1528.34" y1="1480.70" x2="1528.34" y2="1423.06" style="stroke:#F0F0F0;stroke-width:8.64"/>
	<line x1="1528.34" y1="1394.30" x2="1528.34" y2="1336.66" style="stroke:#F0F0F0;stroke-width:8.64"/>
	<line x1="1528.34" y1="1307.90" x2="1528.34" y2="1250.25" style="stroke:#F0F0F0;stroke-width:8.64"/>
	<line x1="1528.34" y1="1221.50" x2="1528.34" y2="1163.85" style="stroke:#F0F0F0;stroke-width:8.64"/>
	<line x1="1528.34" y1="1135.10" x2="1528.34" y2="1077.45" style="stroke:#F0F0F0;stroke-width:8.64"/>
	<line x1="1528.34" y1="1048.70" x2="1528.34" y2="991.05" style="stroke:#F0F0F0;stroke-width:8.64"/>
	<line x1="1528.34" y1="962.30" x2="1528.34" y2="904.65" style="stroke:#F0F0F0;stroke-width:8.64"/>
	<line x1="1528.34" y1="875.89" x2="1528.34" y2="818.25" style="stroke:#F0F0F0;stroke-width:8.64"/>
	<line x1="1528.34" y1="789.49" x2="1528.34" y2="731.85" style="stroke:#F0F0F0;stroke-width:8.64"/>
	<line x1="1528.34" y1="703.09" x2="1528.34" y2="645.45" style="stroke:#F0F0F0;stroke-width:8.64"/>
	<line x1="1528.34" y1="616.69" x2="1528.34" y2="559.04" style="stroke:#F0F0F0;stroke-width:8.64"/>
	<line x1="1528.34" y1="530.29" x2="1528.34" y2="472.64" style="stroke:#F0F0F0;stroke-width:8.64"/>
	<line x1="1528.34" y1="443.89" x2="1528.34" y2="386.24" style="stroke:#F0F0F0;stroke-width:8.64"/>
	<line x1="1528.34" y1="357.49" x2="1528.34" y2="299.84" style="stroke:#F0F0F0;stroke-width:8.64"/>
	<line x1="1528.34" y1="271.08" x2="1528.34" y2="213.44" style="stroke:#F0F0F0;stroke-width:8.64"/>
	<line x1="1528.34" y1="184.68" x2="1528.34" y2="127.04" style="stroke:#F0F0F0;stroke-width:8.64"/>
	<line x1="2404.08" y1="2344.72" x2="2404.08" y2="2287.07" style="stroke:#F0F0F0;stroke-width:8.64"/>
	<line x1="2404.08" y1="2258.32" x2="2404.08" y2="2200.67" style="stroke:#F0F0F0;stroke-width:8.64"/>
	<line x1="2404.08" y1="2171.91" x2="2404.08" y2="2114.27" style="stroke:#F0F0F0;stroke-width:8.64"/>
	<line x1="2404.08" y1="2085.51" x2="2404.08" y2="2027.87" style="stroke:#F0F0F0;stroke-width:8.64"/>
	<line x1="2404.08" y1="1999.11" x2="2404.08" y2="1941.47" style="stroke:#F0F0F0;stroke-width:8.64"/>
	<line x1="2404.08" y1="1912.71" x2="2404.08" y2="1855.06" style="stroke:#F0F0F0;stroke-width:8.64"/>
	<line x1="2404.08" y1="1826.31" x2="2404.08" y2="1768.66" style="stroke:#F0F0F0;stroke-width:8.64"/>
	<line x1="2404.08" y1="1739.91" x2="2404.08" y2="1682.26" style="stroke:#F0F0F0;stroke-width:8.64"/>
	<line x1="2404.08" y1="1653.51" x2="2404.08" y2="1595.86" style="stroke:#F0F0F0;stroke-width:8.64"/>
	<line x1="2404.08" y1="1567.10" x2="2404.08" y2="1509.46" style="stroke:#F0F0F0;stroke-width:8.64"/>
	<line x1="2404.08" y1="1480.70" x2="2404.08" y2="1423.06" style="stroke:#F0F0F0;stroke-width:8.64"/>
	<line x1="2404.08" y1="1394.30" x2="2404.08" y2="1336.66" style="stroke:#F0F0F0;stroke-width:8.64"/>
	<line x1="2404.08" y1="1307.90" x2="2404.08" y2="1250.25" style="stroke:#F0F0F0;stroke-width:8.64"/>
	<line x1="2404.08" y1="1221.50" x2="2404.08" y2="1163.85" style="stroke:#F0F0F0;stroke-width:8.64"/>
	<line x1="2404.08" y1="1135.10" x2="2404.08" y2="1077.45" style="stroke:#F0F0F0;stroke-width:8.64"/>
	<line x1="2404.08" y1="1048.70" x2="2404.08" y2="991.05" style="stroke:#F0F0F0;stroke-width:8.64"/>
	<line x1="2404.08" y1="962.30" x2="2404.08" y2="904.65" style="stroke:#F0F0F0;stroke-width:8.64"/>
	<line x1="2404.08" y1="875.89" x2="2404.08" y2="818.25" style="stroke:#F0F0F0;stroke-width:8.64"/>
	<line x1="2404.08" y1="789.49" x2="2404.08" y2="731.85" style="stroke:#F0F0F0;stroke-width:8.64"/>
	<line x1="2404.08" y1="703.09" x2="2404.08" y2="645.45" style="stroke:#F0F0F0;stroke-width:8.64"/>
	<line x1="2404.08" y1="616.69" x2="2404.08" y2="559.04" style="stroke:#F0F0F0;stroke-width:8.64"/>
	<line x1="2404.08" y1="530.29" x2="2404.08" y2="472.64" style="stroke:#F0F0F0;stroke-width:8.64"/>
	<line x1="2404.08" y1="443.89" x2="2404.08" y2="386.24" style="stroke:#F0F0F0;stroke-width:8.64"/>
	<line x1="2404.08" y1="357.49" x2="2404.08" y2="299.84" style="stroke:#F0F0F0;stroke-width:8.64"/>
	<line x1="2404.08" y1="271.08" x2="2404.08" y2="213.44" style="stroke:#F0F0F0;stroke-width:8.64"/>
	<line x1="2404.08" y1="184.68" x2="2404.08" y2="127.04" style="stroke:#F0F0F0;stroke-width:8.64"/>
	<line x1="3279.96" y1="2344.72" x2="3279.96" y2="2287.07" style="stroke:#F0F0F0;stroke-width:8.64"/>
	<line x1="3279.96" y1="2258.32" x2="3279.96" y2="2200.67" style="stroke:#F0F0F0;stroke-width:8.64"/>
	<line x1="3279.96" y1="2171.91" x2="3279.96" y2="2114.27" style="stroke:#F0F0F0;stroke-width:8.64"/>
	<line x1="3279.96" y1="2085.51" x2="3279.96" y2="2027.87" style="stroke:#F0F0F0;stroke-width:8.64"/>
	<line x1="3279.96" y1="1999.11" x2="3279.96" y2="1941.47" style="stroke:#F0F0F0;stroke-width:8.64"/>
	<line x1="3279.96" y1="1912.71" x2="3279.96" y2="1855.06" style="stroke:#F0F0F0;stroke-width:8.64"/>
	<line x1="3279.96" y1="1826.31" x2="3279.96" y2="1768.66" style="stroke:#F0F0F0;stroke-width:8.64"/>
	<line x1="3279.96" y1="1739.91" x2="3279.96" y2="1682.26" style="stroke:#F0F0F0;stroke-width:8.64"/>
	<line x1="3279.96" y1="1653.51" x2="3279.96" y2="1595.86" style="stroke:#F0F0F0;stroke-width:8.64"/>
	<line x1="3279.96" y1="1567.10" x2="3279.96" y2="1509.46" style="stroke:#F0F0F0;stroke-width:8.64"/>
	<line x1="3279.96" y1="1480.70" x2="3279.96" y2="1423.06" style="stroke:#F0F0F0;stroke-width:8.64"/>
	<line x1="3279.96" y1="1394.30" x2="3279.96" y2="1336.66" style="stroke:#F0F0F0;stroke-width:8.64"/>
	<line x1="3279.96" y1="1307.90" x2="3279.96" y2="1250.25" style="stroke:#F0F0F0;stroke-width:8.64"/>
	<line x1="3279.96" y1="1221.50" x2="3279.96" y2="1163.85" style="stroke:#F0F0F0;stroke-width:8.64"/>
	<line x1="3279.96" y1="1135.10" x2="3279.96" y2="1077.45" style="stroke:#F0F0F0;stroke-width:8.64"/>
	<line x1="3279.96" y1="1048.70" x2="3279.96" y2="991.05" style="stroke:#F0F0F0;stroke-width:8.64"/>
	<line x1="3279.96" y1="962.30" x2="3279.96" y2="904.65" style="stroke:#F0F0F0;stroke-width:8.64"/>
	<line x1="3279.96" y1="875.89" x2="3279.96" y2="818.25" style="stroke:#F0F0F0;stroke-width:8.64"/>
	<line x1="3279.96" y1="789.49" x2="3279.96" y2="731.85" style="stroke:#F0F0F0;stroke-width:8.64"/>
	<line x1="3279.96" y1="703.09" x2="3279.96" y2="645.45" style="stroke:#F0F0F0;stroke-width:8.64"/>
	<line x1="3279.96" y1="616.69" x2="3279.96" y2="559.04" style="stroke:#F0F0F0;stroke-width:8.64"/>
	<line x1="3279.96" y1="530.29" x2="3279.96" y2="472.64" style="stroke:#F0F0F0;stroke-width:8.64"/>
	<line x1="3279.96" y1="443.89" x2="3279.96" y2="386.24" style="stroke:#F0F0F0;stroke-width:8.64"/>
	<line x1="3279.96" y1="357.49" x2="3279.96" y2="299.84" style="stroke:#F0F0F0;stroke-width:8.64"/>
	<line x1="3279.96" y1="271.08" x2="3279.96" y2="213.44" style="stroke:#F0F0F0;stroke-width:8.64"/>
	<line x1="3279.96" y1="184.68" x2="3279.96" y2="127.04" style="stroke:#F0F0F0;stroke-width:8.64"/>
	<line x1="4155.84" y1="2344.72" x2="4155.84" y2="2287.07" style="stroke:#F0F0F0;stroke-width:8.64"/>
	<line x1="4155.84" y1="2258.32" x2="4155.84" y2="2200.67" style="stroke:#F0F0F0;stroke-width:8.64"/>
	<line x1="4155.84" y1="2171.91" x2="4155.84" y2="2114.27" style="stroke:#F0F0F0;stroke-width:8.64"/>
	<line x1="4155.84" y1="2085.51" x2="4155.84" y2="2027.87" style="stroke:#F0F0F0;stroke-width:8.64"/>
	<line x1="4155.84" y1="1999.11" x2="4155.84" y2="1941.47" style="stroke:#F0F0F0;stroke-width:8.64"/>
	<line x1="4155.84" y1="1912.71" x2="4155.84" y2="1855.06" style="stroke:#F0F0F0;stroke-width:8.64"/>
	<line x1="4155.84" y1="1826.31" x2="4155.84" y2="1768.66" style="stroke:#F0F0F0;stroke-width:8.64"/>
	<line x1="4155.84" y1="1739.91" x2="4155.84" y2="1682.26" style="stroke:#F0F0F0;stroke-width:8.64"/>
	<line x1="4155.84" y1="1653.51" x2="4155.84" y2="1595.86" style="stroke:#F0F0F0;stroke-width:8.64"/>
	<line x1="4155.84" y1="1567.10" x2="4155.84" y2="1509.46" style="stroke:#F0F0F0;stroke-width:8.64"/>
	<line x1="4155.84" y1="1480.70" x2="4155.84" y2="1423.06" style="stroke:#F0F0F0;stroke-width:8.64"/>
	<line x1="4155.84" y1="1394.30" x2="4155.84" y2="1336.66" style="stroke:#F0F0F0;stroke-width:8.64"/>
	<line x1="4155.84" y1="1307.90" x2="4155.84" y2="1250.25" style="stroke:#F0F0F0;stroke-width:8.64"/>
	<line x1="4155.84" y1="1221.50" x2="4155.84" y2="1163.85" style="stroke:#F0F0F0;stroke-width:8.64"/>
	<line x1="4155.84" y1="1135.10" x2="4155.84" y2="1077.45" style="stroke:#F0F0F0;stroke-width:8.64"/>
	<line x1="4155.84" y1="1048.70" x2="4155.84" y2="991.05" style="stroke:#F0F0F0;stroke-width:8.64"/>
	<line x1="4155.84" y1="962.30" x2="4155.84" y2="904.65" style="stroke:#F0F0F0;stroke-width:8.64"/>
	<line x1="4155.84" y1="875.89" x2="4155.84" y2="818.25" style="stroke:#F0F0F0;stroke-width:8.64"/>
	<line x1="4155.84" y1="789.49" x2="4155.84" y2="731.85" style="stroke:#F0F0F0;stroke-width:8.64"/>
	<line x1="4155.84" y1="703.09" x2="4155.84" y2="645.45" style="stroke:#F0F0F0;stroke-width:8.64"/>
	<line x1="4155.84" y1="616.69" x2="4155.84" y2="559.04" style="stroke:#F0F0F0;stroke-width:8.64"/>
	<line x1="4155.84" y1="530.29" x2="4155.84" y2="472.64" style="stroke:#F0F0F0;stroke-width:8.64"/>
	<line x1="4155.84" y1="443.89" x2="4155.84" y2="386.24" style="stroke:#F0F0F0;stroke-width:8.64"/>
	<line x1="4155.84" y1="357.49" x2="4155.84" y2="299.84" style="stroke:#F0F0F0;stroke-width:8.64"/>
	<line x1="4155.84" y1="271.08" x2="4155.84" y2="213.44" style="stroke:#F0F0F0;stroke-width:8.64"/>
	<line x1="4155.84" y1="184.68" x2="4155.84" y2="127.04" style="stroke:#F0F0F0;stroke-width:8.64"/>
	<defs>
		<path id="path_jKOvwlpo" d="M740.07 1711.83 L740.07 1711.83 L827.69 1812.54 L915.17 1886.38 L1002.78 1894.08 L1090.40 1895.97 L1178.01 1896.91 L1265.49 1905.28 L1353.11 1908.39 L1440.72 1916.76 L1528.34 1917.30 L1615.82 1926.75 L1703.43 1928.78 L1791.05 1983.32 L1878.66 1986.69 L1966.28 1993.17 L2053.76 1993.85 L2141.37 2002.08 L2228.99 2009.51 L2316.60 2021.66 L2404.08 2023.82 L2491.70 2029.49 L2579.31 2030.30 L2666.93 2033.67 L2754.41 2034.21 L2842.02 2061.89 L2929.64 2062.56 L3017.25 2063.10 L3104.73 2071.47 L3192.35 2101.31 L3279.96 2134.11 L3367.58 2173.94 L3455.06 2199.45 L3542.67 2222.27 L3630.29 2229.15 L3630.29 216.41 L3542.67 223.16 L3455.06 246.11 L3367.58 271.49 L3279.96 311.45 L3192.35 344.12 L3104.73 373.96 L3017.25 382.33 L2929.64 383.00 L2842.02 383.68 L2754.41 411.22 L2666.93 411.76 L2579.31 415.13 L2491.70 415.94 L2404.08 421.61 L2316.60 423.91 L2228.99 435.92 L2141.37 443.48 L2053.76 451.58 L1966.28 452.26 L1878.66 458.74 L1791.05 462.25 L1703.43 516.65 L1615.82 518.68 L1528.34 528.13 L1440.72 528.67 L1353.11 537.04 L1265.49 540.14 L1178.01 548.65 L1090.40 549.46 L1002.78 551.48 L915.17 559.18 L827.69 632.89 L740.07 733.74 L740.07 1711.83 Z" stroke-linejoin="round"/>
	</defs>
	<defs>
		<clipPath id="clipPath_RpUwfpIw">
			<use xlink:href="#path_jKOvwlpo"/>
		</clipPath>
	</defs>
	<use xlink:href="#path_jKOvwlpo" style="stroke:none;fill:#E0E0E0"/>
	<use xlink:href="#path_jKOvwlpo" style="fill:none;stroke:#E0E0E0;stroke-width:17.28" clip-path="url(#clipPath_RpUwfpIw)"/>
	<line x1="740.07" y1="1222.71" x2="740.07" y2="213.17" style="stroke:#1A85FF;stroke-width:8.64"/>
	<line x1="827.69" y1="1222.71" x2="827.69" y2="292.01" style="stroke:#1A85FF;stroke-width:8.64"/>
	<line x1="915.17" y1="1222.71" x2="915.17" y2="912.21" style="stroke:#1A85FF;stroke-width:8.64"/>
	<line x1="1002.78" y1="1222.71" x2="1002.78" y2="1377.70" style="stroke:#1A85FF;stroke-width:8.64"/>
	<line x1="1090.40" y1="1222.71" x2="1090.40" y2="1331.12" style="stroke:#1A85FF;stroke-width:8.64"/>
	<line x1="1178.01" y1="1222.71" x2="1178.01" y2="1549.69" style="stroke:#1A85FF;stroke-width:8.64"/>
	<line x1="1265.49" y1="1222.71" x2="1265.49" y2="1422.38" style="stroke:#1A85FF;stroke-width:8.64"/>
	<line x1="1353.11" y1="1222.71" x2="1353.11" y2="1552.12" style="stroke:#1A85FF;stroke-width:8.64"/>
	<line x1="1440.72" y1="1222.71" x2="1440.72" y2="1303.85" style="stroke:#1A85FF;stroke-width:8.64"/>
	<line x1="1528.34" y1="1222.71" x2="1528.34" y2="869.55" style="stroke:#1A85FF;stroke-width:8.64"/>
	<line x1="1615.82" y1="1222.71" x2="1615.82" y2="1059.50" style="stroke:#1A85FF;stroke-width:8.64"/>
	<line x1="1703.43" y1="1222.71" x2="1703.43" y2="357.62" style="stroke:#1A85FF;stroke-width:8.64"/>
	<line x1="1791.05" y1="1222.71" x2="1791.05" y2="1000.23" style="stroke:#1A85FF;stroke-width:8.64"/>
	<line x1="1878.66" y1="1222.71" x2="1878.66" y2="918.01" style="stroke:#1A85FF;stroke-width:8.64"/>
	<line x1="1966.28" y1="1222.71" x2="1966.28" y2="1321.27" style="stroke:#1A85FF;stroke-width:8.64"/>
	<line x1="2053.76" y1="1222.71" x2="2053.76" y2="1567.24" style="stroke:#1A85FF;stroke-width:8.64"/>
	<line x1="2141.37" y1="1222.71" x2="2141.37" y2="1553.47" style="stroke:#1A85FF;stroke-width:8.64"/>
	<line x1="2228.99" y1="1222.71" x2="2228.99" y2="1646.89" style="stroke:#1A85FF;stroke-width:8.64"/>
	<line x1="2316.60" y1="1222.71" x2="2316.60" y2="1407.53" style="stroke:#1A85FF;stroke-width:8.64"/>
	<line x1="2404.08" y1="1222.71" x2="2404.08" y2="1514.72" style="stroke:#1A85FF;stroke-width:8.64"/>
	<line x1="2491.70" y1="1222.71" x2="2491.70" y2="1329.77" style="stroke:#1A85FF;stroke-width:8.64"/>
	<line x1="2579.31" y1="1222.71" x2="2579.31" y2="994.97" style="stroke:#1A85FF;stroke-width:8.64"/>
	<line x1="2666.93" y1="1222.71" x2="2666.93" y2="1131.99" style="stroke:#1A85FF;stroke-width:8.64"/>
	<line x1="2754.41" y1="1222.71" x2="2754.41" y2="569.57" style="stroke:#1A85FF;stroke-width:8.64"/>
	<line x1="2842.02" y1="1222.71" x2="2842.02" y2="1117.95" style="stroke:#1A85FF;stroke-width:8.64"/>
	<line x1="2929.64" y1="1222.71" x2="2929.64" y2="1125.78" style="stroke:#1A85FF;stroke-width:8.64"/>
	<line x1="3017.25" y1="1222.71" x2="3017.25" y2="1587.22" style="stroke:#1A85FF;stroke-width:8.64"/>
	<line x1="3104.73" y1="1222.71" x2="3104.73" y2="1917.84" style="stroke:#1A85FF;stroke-width:8.64"/>
	<line x1="3192.35" y1="1222.71" x2="3192.35" y2="1963.47" style="stroke:#1A85FF;stroke-width:8.64"/>
	<line x1="3279.96" y1="1222.71" x2="3279.96" y2="2057.57" style="stroke:#1A85FF;stroke-width:8.64"/>
	<line x1="3367.58" y1="1222.71" x2="3367.58" y2="1900.42" style="stroke:#1A85FF;stroke-width:8.64"/>
	<line x1="3455.06" y1="1222.71" x2="3455.06" y2="1874.10" style="stroke:#1A85FF;stroke-width:8.64"/>
	<line x1="3542.67" y1="1222.71" x2="3542.67" y2="1580.20" style="stroke:#1A85FF;stroke-width:8.64"/>
	<line x1="3630.29" y1="1222.71" x2="3630.29" y2="1310.60" style="stroke:#1A85FF;stroke-width:8.64"/>
	<circle cx="739.94" cy="213.17" r="19.30" style="fill:#1A85FF"/>
	<circle cx="739.94" cy="213.17" r="14.99" style="fill:none;stroke:#1A85FF;stroke-width:8.64"/>
	<circle cx="827.55" cy="292.01" r="19.30" style="fill:#1A85FF"/>
	<circle cx="827.55" cy="292.01" r="14.99" style="fill:none;stroke:#1A85FF;stroke-width:8.64"/>
	<circle cx="915.17" cy="912.34" r="19.30" style="fill:#1A85FF"/>
	<circle cx="915.17" cy="912.34" r="14.99" style="fill:none;stroke:#1A85FF;stroke-width:8.64"/>
	<circle cx="1002.78" cy="1377.83" r="19.30" style="fill:#1A85FF"/>
	<circle cx="1002.78" cy="1377.83" r="14.99" style="fill:none;stroke:#1A85FF;stroke-width:8.64"/>
	<circle cx="1090.26" cy="1331.12" r="19.30" style="fill:#1A85FF"/>
	<circle cx="1090.26" cy="1331.12" r="14.99" style="fill:none;stroke:#1A85FF;stroke-width:8.64"/>
	<circle cx="1177.88" cy="1549.69" r="19.30" style="fill:#1A85FF"/>
	<circle cx="1177.88" cy="1549.69" r="14.99" style="fill:none;stroke:#1A85FF;stroke-width:8.64"/>
	<circle cx="1265.49" cy="1422.38" r="19.30" style="fill:#1A85FF"/>
	<circle cx="1265.49" cy="1422.38" r="14.99" style="fill:none;stroke:#1A85FF;stroke-width:8.64"/>
	<circle cx="1353.11" cy="1552.12" r="19.30" style="fill:#1A85FF"/>
	<circle cx="1353.11" cy="1552.12" r="14.99" style="fill:none;stroke:#1A85FF;stroke-width:8.64"/>
	<circle cx="1440.59" cy="1303.85" r="19.30" style="fill:#1A85FF"/>
	<circle cx="1440.59" cy="1303.85" r="14.99" style="fill:none;stroke:#1A85FF;stroke-width:8.64"/>
	<circle cx="1528.20" cy="869.55" r="19.30" style="fill:#1A85FF"/>
	<circle cx="1528.20" cy="869.55" r="14.99" style="fill:none;stroke:#1A85FF;stroke-width:8.64"/>
	<circle cx="1615.82" cy="1059.50" r="19.30" style="fill:#1A85FF"/>
	<circle cx="1615.82" cy="1059.50" r="14.99" style="fill:none;stroke:#1A85FF;stroke-width:8.64"/>
	<circle cx="1703.43" cy="357.76" r="19.30" style="fill:#1A85FF"/>
	<circle cx="1703.43" cy="357.76" r="14.99" style="fill:none;stroke:#1A85FF;stroke-width:8.64"/>
	<circle cx="1791.05" cy="1000.37" r="19.30" style="fill:#1A85FF"/>
	<circle cx="1791.05" cy="1000.37" r="14.99" style="fill:none;stroke:#1A85FF;stroke-width:8.64"/>
	<circle cx="1878.53" cy="918.01" r="19.30" style="fill:#1A85FF"/>
	<circle cx="1878.53" cy="918.01" r="14.99" style="fill:none;stroke:#1A85FF;stroke-width:8.64"/>
	<circle cx="1966.14" cy="1321.40" r="19.30" style="fill:#1A85FF"/>
	<circle cx="1966.14" cy="1321.40" r="14.99" style="fill:none;stroke:#1A85FF;stroke-width:8.64"/>
	<circle cx="2053.76" cy="1567.24" r="19.30" style="fill:#1A85FF"/>
	<circle cx="2053.76" cy="1567.24" r="14.99" style="fill:none;stroke:#1A85FF;stroke-width:8.64"/>
	<circle cx="2141.37" cy="1553.47" r="19.30" style="fill:#1A85FF"/>
	<circle cx="2141.37" cy="1553.47" r="14.99" style="fill:none;stroke:#1A85FF;stroke-width:8.64"/>
	<circle cx="2228.85" cy="1646.89" r="19.30" style="fill:#1A85FF"/>
	<circle cx="2228.85" cy="1646.89" r="14.99" style="fill:none;stroke:#1A85FF;stroke-width:8.64"/>
	<circle cx="2316.47" cy="1407.67" r="19.30" style="fill:#1A85FF"/>
	<circle cx="2316.47" cy="1407.67" r="14.99" style="fill:none;stroke:#1A85FF;stroke-width:8.64"/>
	<circle cx="2404.08" cy="1514.86" r="19.30" style="fill:#1A85FF"/>
	<circle cx="2404.08" cy="1514.86" r="14.99" style="fill:none;stroke:#1A85FF;stroke-width:8.64"/>
	<circle cx="2491.70" cy="1329.77" r="19.30" style="fill:#1A85FF"/>
	<circle cx="2491.70" cy="1329.77" r="14.99" style="fill:none;stroke:#1A85FF;stroke-width:8.64"/>
	<circle cx="2579.18" cy="994.97" r="19.30" style="fill:#1A85FF"/>
	<circle cx="2579.18" cy="994.97" r="14.99" style="fill:none;stroke:#1A85FF;stroke-width:8.64"/>
	<circle cx="2666.79" cy="1131.99" r="19.30" style="fill:#1A85FF"/>
	<circle cx="2666.79" cy="1131.99" r="14.99" style="fill:none;stroke:#1A85FF;stroke-width:8.64"/>
	<circle cx="2754.41" cy="569.57" r="19.30" style="fill:#1A85FF"/>
	<circle cx="2754.41" cy="569.57" r="14.99" style="fill:none;stroke:#1A85FF;stroke-width:8.64"/>
	<circle cx="2842.02" cy="1117.95" r="19.30" style="fill:#1A85FF"/>
	<circle cx="2842.02" cy="1117.95" r="14.99" style="fill:none;stroke:#1A85FF;stroke-width:8.64"/>
	<circle cx="2929.50" cy="1125.92" r="19.30" style="fill:#1A85FF"/>
	<circle cx="2929.50" cy="1125.92" r="14.99" style="fill:none;stroke:#1A85FF;stroke-width:8.64"/>
	<circle cx="3017.12" cy="1587.22" r="19.30" style="fill:#1A85FF"/>
	<circle cx="3017.12" cy="1587.22" r="14.99" style="fill:none;stroke:#1A85FF;stroke-width:8.64"/>
	<circle cx="3104.73" cy="1917.97" r="19.30" style="fill:#1A85FF"/>
	<circle cx="3104.73" cy="1917.97" r="14.99" style="fill:none;stroke:#1A85FF;stroke-width:8.64"/>
	<circle cx="3192.35" cy="1963.47" r="19.30" style="fill:#1A85FF"/>
	<circle cx="3192.35" cy="1963.47" r="14.99" style="fill:none;stroke:#1A85FF;stroke-width:8.64"/>
	<circle cx="3279.83" cy="2057.70" r="19.30" style="fill:#1A85FF"/>
	<circle cx="3279.83" cy="2057.70" r="14.99" style="fill:none;stroke:#1A85FF;stroke-width:8.64"/>
	<circle cx="3367.44" cy="1900.56" r="19.30" style="fill:#1A85FF"/>
	<circle cx="3367.44" cy="1900.56" r="14.99" style="fill:none;stroke:#1A85FF;stroke-width:8.64"/>
	<circle cx="3455.06" cy="1874.10" r="19.30" style="fill:#1A85FF"/>
	<circle cx="3455.06" cy="1874.10" r="14.99" style="fill:none;stroke:#1A85FF;stroke-width:8.64"/>
	<circle cx="3542.67" cy="1580.20" r="19.30" style="fill:#1A85FF"/>
	<circle cx="3542.67" cy="1580.20" r="14.99" style="fill:none;stroke:#1A85FF;stroke-width:8.64"/>
	<circle cx="3630.15" cy="1310.74" r="19.30" style="fill:#1A85FF"/>
	<circle cx="3630.15" cy="1310.74" r="14.99" style="fill:none;stroke:#1A85FF;stroke-width:8.64"/>
	<line x1="589.14" y1="2344.72" x2="589.14" y2="100.85" style="stroke:#000000;stroke-width:5.76"/>
	<line x1="589.14" y1="2281.27" x2="549.18" y2="2281.27" style="stroke:#000000;stroke-width:5.76"/>
	<text x="529.07" y="2316.31" style="font-family:'Helvetica';font-size:100.04px;fill:#000000" text-anchor="end">-0.50</text>
	<line x1="589.14" y1="1222.71" x2="549.18" y2="1222.71" style="stroke:#000000;stroke-width:5.76"/>
	<text x="529.07" y="1257.76" style="font-family:'Helvetica';font-size:100.04px;fill:#000000" text-anchor="end">0.00</text>
	<line x1="589.14" y1="164.16" x2="549.18" y2="164.16" style="stroke:#000000;stroke-width:5.76"/>
	<text x="529.07" y="199.21" style="font-family:'Helvetica';font-size:100.04px;fill:#000000" text-anchor="end">0.50</text>
	<text x="190.78" y="1222.71" style="font-family:'Helvetica';font-size:100.04px;fill:#000000" transform="rotate(-90 190.78,1222.71)" text-anchor="middle">Autocorrelations of adjusted</text>
	<line x1="589.14" y1="2344.72" x2="4219.16" y2="2344.72" style="stroke:#000000;stroke-width:5.76"/>
	<line x1="652.46" y1="2344.72" x2="652.46" y2="2384.68" style="stroke:#000000;stroke-width:5.76"/>
	<text x="652.46" y="2474.62" style="font-family:'Helvetica';font-size:100.04px;fill:#000000" text-anchor="middle">0</text>
	<line x1="1528.34" y1="2344.72" x2="1528.34" y2="2384.68" style="stroke:#000000;stroke-width:5.76"/>
	<text x="1528.34" y="2474.62" style="font-family:'Helvetica';font-size:100.04px;fill:#000000" text-anchor="middle">10</text>
	<line x1="2404.08" y1="2344.72" x2="2404.08" y2="2384.68" style="stroke:#000000;stroke-width:5.76"/>
	<text x="2404.08" y="2474.62" style="font-family:'Helvetica';font-size:100.04px;fill:#000000" text-anchor="middle">20</text>
	<line x1="3279.96" y1="2344.72" x2="3279.96" y2="2384.68" style="stroke:#000000;stroke-width:5.76"/>
	<text x="3279.96" y="2474.62" style="font-family:'Helvetica';font-size:100.04px;fill:#000000" text-anchor="middle">30</text>
	<line x1="4155.84" y1="2344.72" x2="4155.84" y2="2384.68" style="stroke:#000000;stroke-width:5.76"/>
	<text x="4155.84" y="2474.62" style="font-family:'Helvetica';font-size:100.04px;fill:#000000" text-anchor="middle">40</text>
	<text x="2404.08" y="2614.61" style="font-family:'Helvetica';font-size:100.04px;fill:#000000" text-anchor="middle">Lag</text>
	<text x="606.42" y="2737.83" style="font-family:'Helvetica';font-size:79.92px;fill:#000000">Bartlett's formula for MA(q) 95% confidence bands</text>
</svg>
