<?xml version="1.0" encoding="UTF-8" standalone="no"?>
<!-- This is a Stata 18.0 generated SVG file (http://www.stata.com) -->

<svg version="1.1" width="6.000in" height="4.000in" viewBox="0 0 4320 2880" xmlns="http://www.w3.org/2000/svg" xmlns:xlink="http://www.w3.org/1999/xlink">
	<desc>Stata Graph - graph1</desc>
	<rect x="0" y="0" width="4320" height="2880" style="fill:#FFFFFF;stroke:none"/>
	<rect x="0.00" y="0.00" width="4320.00" height="2880.00" style="fill:#FFFFFF"/>
	<rect x="2.88" y="2.88" width="4314.24" height="2874.24" style="fill:none;stroke:#FFFFFF;stroke-width:5.76"/>
	<rect x="541.62" y="100.85" width="3677.54" height="2102.79" style="fill:#FFFFFF"/>
	<rect x="544.50" y="103.73" width="3671.78" height="2097.03" style="fill:none;stroke:#FFFFFF;stroke-width:5.76"/>
	<line x1="541.62" y1="2097.26" x2="599.27" y2="2097.26" style="stroke:#F0F0F0;stroke-width:8.64"/>
	<line x1="628.02" y1="2097.26" x2="685.67" y2="2097.26" style="stroke:#F0F0F0;stroke-width:8.64"/>
	<line x1="714.42" y1="2097.26" x2="772.07" y2="2097.26" style="stroke:#F0F0F0;stroke-width:8.64"/>
	<line x1="800.82" y1="2097.26" x2="858.47" y2="2097.26" style="stroke:#F0F0F0;stroke-width:8.64"/>
	<line x1="887.22" y1="2097.26" x2="944.87" y2="2097.26" style="stroke:#F0F0F0;stroke-width:8.64"/>
	<line x1="973.62" y1="2097.26" x2="1031.27" y2="2097.26" style="stroke:#F0F0F0;stroke-width:8.64"/>
	<line x1="1060.02" y1="2097.26" x2="1117.67" y2="2097.26" style="stroke:#F0F0F0;stroke-width:8.64"/>
	<line x1="1146.42" y1="2097.26" x2="1204.07" y2="2097.26" style="stroke:#F0F0F0;stroke-width:8.64"/>
	<line x1="1232.82" y1="2097.26" x2="1290.46" y2="2097.26" style="stroke:#F0F0F0;stroke-width:8.64"/>
	<line x1="1319.22" y1="2097.26" x2="1376.87" y2="2097.26" style="stroke:#F0F0F0;stroke-width:8.64"/>
	<line x1="1405.62" y1="2097.26" x2="1463.27" y2="2097.26" style="stroke:#F0F0F0;stroke-width:8.64"/>
	<line x1="1492.02" y1="2097.26" x2="1549.67" y2="2097.26" style="stroke:#F0F0F0;stroke-width:8.64"/>
	<line x1="1578.42" y1="2097.26" x2="1636.07" y2="2097.26" style="stroke:#F0F0F0;stroke-width:8.64"/>
	<line x1="1664.82" y1="2097.26" x2="1722.47" y2="2097.26" style="stroke:#F0F0F0;stroke-width:8.64"/>
	<line x1="1751.22" y1="2097.26" x2="1808.87" y2="2097.26" style="stroke:#F0F0F0;stroke-width:8.64"/>
	<line x1="1837.62" y1="2097.26" x2="1895.27" y2="2097.26" style="stroke:#F0F0F0;stroke-width:8.64"/>
	<line x1="1924.02" y1="2097.26" x2="1981.67" y2="2097.26" style="stroke:#F0F0F0;stroke-width:8.64"/>
	<line x1="2010.42" y1="2097.26" x2="2068.07" y2="2097.26" style="stroke:#F0F0F0;stroke-width:8.64"/>
	<line x1="2096.82" y1="2097.26" x2="2154.47" y2="2097.26" style="stroke:#F0F0F0;stroke-width:8.64"/>
	<line x1="2183.22" y1="2097.26" x2="2240.86" y2="2097.26" style="stroke:#F0F0F0;stroke-width:8.64"/>
	<line x1="2269.62" y1="2097.26" x2="2327.27" y2="2097.26" style="stroke:#F0F0F0;stroke-width:8.64"/>
	<line x1="2356.02" y1="2097.26" x2="2413.67" y2="2097.26" style="stroke:#F0F0F0;stroke-width:8.64"/>
	<line x1="2442.42" y1="2097.26" x2="2500.07" y2="2097.26" style="stroke:#F0F0F0;stroke-width:8.64"/>
	<line x1="2528.82" y1="2097.26" x2="2586.47" y2="2097.26" style="stroke:#F0F0F0;stroke-width:8.64"/>
	<line x1="2615.22" y1="2097.26" x2="2672.87" y2="2097.26" style="stroke:#F0F0F0;stroke-width:8.64"/>
	<line x1="2701.62" y1="2097.26" x2="2759.27" y2="2097.26" style="stroke:#F0F0F0;stroke-width:8.64"/>
	<line x1="2788.02" y1="2097.26" x2="2845.67" y2="2097.26" style="stroke:#F0F0F0;stroke-width:8.64"/>
	<line x1="2874.42" y1="2097.26" x2="2932.07" y2="2097.26" style="stroke:#F0F0F0;stroke-width:8.64"/>
	<line x1="2960.82" y1="2097.26" x2="3018.47" y2="2097.26" style="stroke:#F0F0F0;stroke-width:8.64"/>
	<line x1="3047.22" y1="2097.26" x2="3104.87" y2="2097.26" style="stroke:#F0F0F0;stroke-width:8.64"/>
	<line x1="3133.62" y1="2097.26" x2="3191.27" y2="2097.26" style="stroke:#F0F0F0;stroke-width:8.64"/>
	<line x1="3220.02" y1="2097.26" x2="3277.67" y2="2097.26" style="stroke:#F0F0F0;stroke-width:8.64"/>
	<line x1="3306.42" y1="2097.26" x2="3364.07" y2="2097.26" style="stroke:#F0F0F0;stroke-width:8.64"/>
	<line x1="3392.82" y1="2097.26" x2="3450.47" y2="2097.26" style="stroke:#F0F0F0;stroke-width:8.64"/>
	<line x1="3479.22" y1="2097.26" x2="3536.87" y2="2097.26" style="stroke:#F0F0F0;stroke-width:8.64"/>
	<line x1="3565.62" y1="2097.26" x2="3623.27" y2="2097.26" style="stroke:#F0F0F0;stroke-width:8.64"/>
	<line x1="3652.02" y1="2097.26" x2="3709.67" y2="2097.26" style="stroke:#F0F0F0;stroke-width:8.64"/>
	<line x1="3738.42" y1="2097.26" x2="3796.07" y2="2097.26" style="stroke:#F0F0F0;stroke-width:8.64"/>
	<line x1="3824.82" y1="2097.26" x2="3882.47" y2="2097.26" style="stroke:#F0F0F0;stroke-width:8.64"/>
	<line x1="3911.22" y1="2097.26" x2="3968.87" y2="2097.26" style="stroke:#F0F0F0;stroke-width:8.64"/>
	<line x1="3997.62" y1="2097.26" x2="4055.27" y2="2097.26" style="stroke:#F0F0F0;stroke-width:8.64"/>
	<line x1="4084.02" y1="2097.26" x2="4141.67" y2="2097.26" style="stroke:#F0F0F0;stroke-width:8.64"/>
	<line x1="4170.42" y1="2097.26" x2="4219.16" y2="2097.26" style="stroke:#F0F0F0;stroke-width:8.64"/>
	<line x1="541.62" y1="1655.67" x2="599.27" y2="1655.67" style="stroke:#F0F0F0;stroke-width:8.64"/>
	<line x1="628.02" y1="1655.67" x2="685.67" y2="1655.67" style="stroke:#F0F0F0;stroke-width:8.64"/>
	<line x1="714.42" y1="1655.67" x2="772.07" y2="1655.67" style="stroke:#F0F0F0;stroke-width:8.64"/>
	<line x1="800.82" y1="1655.67" x2="858.47" y2="1655.67" style="stroke:#F0F0F0;stroke-width:8.64"/>
	<line x1="887.22" y1="1655.67" x2="944.87" y2="1655.67" style="stroke:#F0F0F0;stroke-width:8.64"/>
	<line x1="973.62" y1="1655.67" x2="1031.27" y2="1655.67" style="stroke:#F0F0F0;stroke-width:8.64"/>
	<line x1="1060.02" y1="1655.67" x2="1117.67" y2="1655.67" style="stroke:#F0F0F0;stroke-width:8.64"/>
	<line x1="1146.42" y1="1655.67" x2="1204.07" y2="1655.67" style="stroke:#F0F0F0;stroke-width:8.64"/>
	<line x1="1232.82" y1="1655.67" x2="1290.46" y2="1655.67" style="stroke:#F0F0F0;stroke-width:8.64"/>
	<line x1="1319.22" y1="1655.67" x2="1376.87" y2="1655.67" style="stroke:#F0F0F0;stroke-width:8.64"/>
	<line x1="1405.62" y1="1655.67" x2="1463.27" y2="1655.67" style="stroke:#F0F0F0;stroke-width:8.64"/>
	<line x1="1492.02" y1="1655.67" x2="1549.67" y2="1655.67" style="stroke:#F0F0F0;stroke-width:8.64"/>
	<line x1="1578.42" y1="1655.67" x2="1636.07" y2="1655.67" style="stroke:#F0F0F0;stroke-width:8.64"/>
	<line x1="1664.82" y1="1655.67" x2="1722.47" y2="1655.67" style="stroke:#F0F0F0;stroke-width:8.64"/>
	<line x1="1751.22" y1="1655.67" x2="1808.87" y2="1655.67" style="stroke:#F0F0F0;stroke-width:8.64"/>
	<line x1="1837.62" y1="1655.67" x2="1895.27" y2="1655.67" style="stroke:#F0F0F0;stroke-width:8.64"/>
	<line x1="1924.02" y1="1655.67" x2="1981.67" y2="1655.67" style="stroke:#F0F0F0;stroke-width:8.64"/>
	<line x1="2010.42" y1="1655.67" x2="2068.07" y2="1655.67" style="stroke:#F0F0F0;stroke-width:8.64"/>
	<line x1="2096.82" y1="1655.67" x2="2154.47" y2="1655.67" style="stroke:#F0F0F0;stroke-width:8.64"/>
	<line x1="2183.22" y1="1655.67" x2="2240.86" y2="1655.67" style="stroke:#F0F0F0;stroke-width:8.64"/>
	<line x1="2269.62" y1="1655.67" x2="2327.27" y2="1655.67" style="stroke:#F0F0F0;stroke-width:8.64"/>
	<line x1="2356.02" y1="1655.67" x2="2413.67" y2="1655.67" style="stroke:#F0F0F0;stroke-width:8.64"/>
	<line x1="2442.42" y1="1655.67" x2="2500.07" y2="1655.67" style="stroke:#F0F0F0;stroke-width:8.64"/>
	<line x1="2528.82" y1="1655.67" x2="2586.47" y2="1655.67" style="stroke:#F0F0F0;stroke-width:8.64"/>
	<line x1="2615.22" y1="1655.67" x2="2672.87" y2="1655.67" style="stroke:#F0F0F0;stroke-width:8.64"/>
	<line x1="2701.62" y1="1655.67" x2="2759.27" y2="1655.67" style="stroke:#F0F0F0;stroke-width:8.64"/>
	<line x1="2788.02" y1="1655.67" x2="2845.67" y2="1655.67" style="stroke:#F0F0F0;stroke-width:8.64"/>
	<line x1="2874.42" y1="1655.67" x2="2932.07" y2="1655.67" style="stroke:#F0F0F0;stroke-width:8.64"/>
	<line x1="2960.82" y1="1655.67" x2="3018.47" y2="1655.67" style="stroke:#F0F0F0;stroke-width:8.64"/>
	<line x1="3047.22" y1="1655.67" x2="3104.87" y2="1655.67" style="stroke:#F0F0F0;stroke-width:8.64"/>
	<line x1="3133.62" y1="1655.67" x2="3191.27" y2="1655.67" style="stroke:#F0F0F0;stroke-width:8.64"/>
	<line x1="3220.02" y1="1655.67" x2="3277.67" y2="1655.67" style="stroke:#F0F0F0;stroke-width:8.64"/>
	<line x1="3306.42" y1="1655.67" x2="3364.07" y2="1655.67" style="stroke:#F0F0F0;stroke-width:8.64"/>
	<line x1="3392.82" y1="1655.67" x2="3450.47" y2="1655.67" style="stroke:#F0F0F0;stroke-width:8.64"/>
	<line x1="3479.22" y1="1655.67" x2="3536.87" y2="1655.67" style="stroke:#F0F0F0;stroke-width:8.64"/>
	<line x1="3565.62" y1="1655.67" x2="3623.27" y2="1655.67" style="stroke:#F0F0F0;stroke-width:8.64"/>
	<line x1="3652.02" y1="1655.67" x2="3709.67" y2="1655.67" style="stroke:#F0F0F0;stroke-width:8.64"/>
	<line x1="3738.42" y1="1655.67" x2="3796.07" y2="1655.67" style="stroke:#F0F0F0;stroke-width:8.64"/>
	<line x1="3824.82" y1="1655.67" x2="3882.47" y2="1655.67" style="stroke:#F0F0F0;stroke-width:8.64"/>
	<line x1="3911.22" y1="1655.67" x2="3968.87" y2="1655.67" style="stroke:#F0F0F0;stroke-width:8.64"/>
	<line x1="3997.62" y1="1655.67" x2="4055.27" y2="1655.67" style="stroke:#F0F0F0;stroke-width:8.64"/>
	<line x1="4084.02" y1="1655.67" x2="4141.67" y2="1655.67" style="stroke:#F0F0F0;stroke-width:8.64"/>
	<line x1="4170.42" y1="1655.67" x2="4219.16" y2="1655.67" style="stroke:#F0F0F0;stroke-width:8.64"/>
	<line x1="541.62" y1="1214.21" x2="599.27" y2="1214.21" style="stroke:#F0F0F0;stroke-width:8.64"/>
	<line x1="628.02" y1="1214.21" x2="685.67" y2="1214.21" style="stroke:#F0F0F0;stroke-width:8.64"/>
	<line x1="714.42" y1="1214.21" x2="772.07" y2="1214.21" style="stroke:#F0F0F0;stroke-width:8.64"/>
	<line x1="800.82" y1="1214.21" x2="858.47" y2="1214.21" style="stroke:#F0F0F0;stroke-width:8.64"/>
	<line x1="887.22" y1="1214.21" x2="944.87" y2="1214.21" style="stroke:#F0F0F0;stroke-width:8.64"/>
	<line x1="973.62" y1="1214.21" x2="1031.27" y2="1214.21" style="stroke:#F0F0F0;stroke-width:8.64"/>
	<line x1="1060.02" y1="1214.21" x2="1117.67" y2="1214.21" style="stroke:#F0F0F0;stroke-width:8.64"/>
	<line x1="1146.42" y1="1214.21" x2="1204.07" y2="1214.21" style="stroke:#F0F0F0;stroke-width:8.64"/>
	<line x1="1232.82" y1="1214.21" x2="1290.46" y2="1214.21" style="stroke:#F0F0F0;stroke-width:8.64"/>
	<line x1="1319.22" y1="1214.21" x2="1376.87" y2="1214.21" style="stroke:#F0F0F0;stroke-width:8.64"/>
	<line x1="1405.62" y1="1214.21" x2="1463.27" y2="1214.21" style="stroke:#F0F0F0;stroke-width:8.64"/>
	<line x1="1492.02" y1="1214.21" x2="1549.67" y2="1214.21" style="stroke:#F0F0F0;stroke-width:8.64"/>
	<line x1="1578.42" y1="1214.21" x2="1636.07" y2="1214.21" style="stroke:#F0F0F0;stroke-width:8.64"/>
	<line x1="1664.82" y1="1214.21" x2="1722.47" y2="1214.21" style="stroke:#F0F0F0;stroke-width:8.64"/>
	<line x1="1751.22" y1="1214.21" x2="1808.87" y2="1214.21" style="stroke:#F0F0F0;stroke-width:8.64"/>
	<line x1="1837.62" y1="1214.21" x2="1895.27" y2="1214.21" style="stroke:#F0F0F0;stroke-width:8.64"/>
	<line x1="1924.02" y1="1214.21" x2="1981.67" y2="1214.21" style="stroke:#F0F0F0;stroke-width:8.64"/>
	<line x1="2010.42" y1="1214.21" x2="2068.07" y2="1214.21" style="stroke:#F0F0F0;stroke-width:8.64"/>
	<line x1="2096.82" y1="1214.21" x2="2154.47" y2="1214.21" style="stroke:#F0F0F0;stroke-width:8.64"/>
	<line x1="2183.22" y1="1214.21" x2="2240.86" y2="1214.21" style="stroke:#F0F0F0;stroke-width:8.64"/>
	<line x1="2269.62" y1="1214.21" x2="2327.27" y2="1214.21" style="stroke:#F0F0F0;stroke-width:8.64"/>
	<line x1="2356.02" y1="1214.21" x2="2413.67" y2="1214.21" style="stroke:#F0F0F0;stroke-width:8.64"/>
	<line x1="2442.42" y1="1214.21" x2="2500.07" y2="1214.21" style="stroke:#F0F0F0;stroke-width:8.64"/>
	<line x1="2528.82" y1="1214.21" x2="2586.47" y2="1214.21" style="stroke:#F0F0F0;stroke-width:8.64"/>
	<line x1="2615.22" y1="1214.21" x2="2672.87" y2="1214.21" style="stroke:#F0F0F0;stroke-width:8.64"/>
	<line x1="2701.62" y1="1214.21" x2="2759.27" y2="1214.21" style="stroke:#F0F0F0;stroke-width:8.64"/>
	<line x1="2788.02" y1="1214.21" x2="2845.67" y2="1214.21" style="stroke:#F0F0F0;stroke-width:8.64"/>
	<line x1="2874.42" y1="1214.21" x2="2932.07" y2="1214.21" style="stroke:#F0F0F0;stroke-width:8.64"/>
	<line x1="2960.82" y1="1214.21" x2="3018.47" y2="1214.21" style="stroke:#F0F0F0;stroke-width:8.64"/>
	<line x1="3047.22" y1="1214.21" x2="3104.87" y2="1214.21" style="stroke:#F0F0F0;stroke-width:8.64"/>
	<line x1="3133.62" y1="1214.21" x2="3191.27" y2="1214.21" style="stroke:#F0F0F0;stroke-width:8.64"/>
	<line x1="3220.02" y1="1214.21" x2="3277.67" y2="1214.21" style="stroke:#F0F0F0;stroke-width:8.64"/>
	<line x1="3306.42" y1="1214.21" x2="3364.07" y2="1214.21" style="stroke:#F0F0F0;stroke-width:8.64"/>
	<line x1="3392.82" y1="1214.21" x2="3450.47" y2="1214.21" style="stroke:#F0F0F0;stroke-width:8.64"/>
	<line x1="3479.22" y1="1214.21" x2="3536.87" y2="1214.21" style="stroke:#F0F0F0;stroke-width:8.64"/>
	<line x1="3565.62" y1="1214.21" x2="3623.27" y2="1214.21" style="stroke:#F0F0F0;stroke-width:8.64"/>
	<line x1="3652.02" y1="1214.21" x2="3709.67" y2="1214.21" style="stroke:#F0F0F0;stroke-width:8.64"/>
	<line x1="3738.42" y1="1214.21" x2="3796.07" y2="1214.21" style="stroke:#F0F0F0;stroke-width:8.64"/>
	<line x1="3824.82" y1="1214.21" x2="3882.47" y2="1214.21" style="stroke:#F0F0F0;stroke-width:8.64"/>
	<line x1="3911.22" y1="1214.21" x2="3968.87" y2="1214.21" style="stroke:#F0F0F0;stroke-width:8.64"/>
	<line x1="3997.62" y1="1214.21" x2="4055.27" y2="1214.21" style="stroke:#F0F0F0;stroke-width:8.64"/>
	<line x1="4084.02" y1="1214.21" x2="4141.67" y2="1214.21" style="stroke:#F0F0F0;stroke-width:8.64"/>
	<line x1="4170.42" y1="1214.21" x2="4219.16" y2="1214.21" style="stroke:#F0F0F0;stroke-width:8.64"/>
	<line x1="541.62" y1="772.62" x2="599.27" y2="772.62" style="stroke:#F0F0F0;stroke-width:8.64"/>
	<line x1="628.02" y1="772.62" x2="685.67" y2="772.62" style="stroke:#F0F0F0;stroke-width:8.64"/>
	<line x1="714.42" y1="772.62" x2="772.07" y2="772.62" style="stroke:#F0F0F0;stroke-width:8.64"/>
	<line x1="800.82" y1="772.62" x2="858.47" y2="772.62" style="stroke:#F0F0F0;stroke-width:8.64"/>
	<line x1="887.22" y1="772.62" x2="944.87" y2="772.62" style="stroke:#F0F0F0;stroke-width:8.64"/>
	<line x1="973.62" y1="772.62" x2="1031.27" y2="772.62" style="stroke:#F0F0F0;stroke-width:8.64"/>
	<line x1="1060.02" y1="772.62" x2="1117.67" y2="772.62" style="stroke:#F0F0F0;stroke-width:8.64"/>
	<line x1="1146.42" y1="772.62" x2="1204.07" y2="772.62" style="stroke:#F0F0F0;stroke-width:8.64"/>
	<line x1="1232.82" y1="772.62" x2="1290.46" y2="772.62" style="stroke:#F0F0F0;stroke-width:8.64"/>
	<line x1="1319.22" y1="772.62" x2="1376.87" y2="772.62" style="stroke:#F0F0F0;stroke-width:8.64"/>
	<line x1="1405.62" y1="772.62" x2="1463.27" y2="772.62" style="stroke:#F0F0F0;stroke-width:8.64"/>
	<line x1="1492.02" y1="772.62" x2="1549.67" y2="772.62" style="stroke:#F0F0F0;stroke-width:8.64"/>
	<line x1="1578.42" y1="772.62" x2="1636.07" y2="772.62" style="stroke:#F0F0F0;stroke-width:8.64"/>
	<line x1="1664.82" y1="772.62" x2="1722.47" y2="772.62" style="stroke:#F0F0F0;stroke-width:8.64"/>
	<line x1="1751.22" y1="772.62" x2="1808.87" y2="772.62" style="stroke:#F0F0F0;stroke-width:8.64"/>
	<line x1="1837.62" y1="772.62" x2="1895.27" y2="772.62" style="stroke:#F0F0F0;stroke-width:8.64"/>
	<line x1="1924.02" y1="772.62" x2="1981.67" y2="772.62" style="stroke:#F0F0F0;stroke-width:8.64"/>
	<line x1="2010.42" y1="772.62" x2="2068.07" y2="772.62" style="stroke:#F0F0F0;stroke-width:8.64"/>
	<line x1="2096.82" y1="772.62" x2="2154.47" y2="772.62" style="stroke:#F0F0F0;stroke-width:8.64"/>
	<line x1="2183.22" y1="772.62" x2="2240.86" y2="772.62" style="stroke:#F0F0F0;stroke-width:8.64"/>
	<line x1="2269.62" y1="772.62" x2="2327.27" y2="772.62" style="stroke:#F0F0F0;stroke-width:8.64"/>
	<line x1="2356.02" y1="772.62" x2="2413.67" y2="772.62" style="stroke:#F0F0F0;stroke-width:8.64"/>
	<line x1="2442.42" y1="772.62" x2="2500.07" y2="772.62" style="stroke:#F0F0F0;stroke-width:8.64"/>
	<line x1="2528.82" y1="772.62" x2="2586.47" y2="772.62" style="stroke:#F0F0F0;stroke-width:8.64"/>
	<line x1="2615.22" y1="772.62" x2="2672.87" y2="772.62" style="stroke:#F0F0F0;stroke-width:8.64"/>
	<line x1="2701.62" y1="772.62" x2="2759.27" y2="772.62" style="stroke:#F0F0F0;stroke-width:8.64"/>
	<line x1="2788.02" y1="772.62" x2="2845.67" y2="772.62" style="stroke:#F0F0F0;stroke-width:8.64"/>
	<line x1="2874.42" y1="772.62" x2="2932.07" y2="772.62" style="stroke:#F0F0F0;stroke-width:8.64"/>
	<line x1="2960.82" y1="772.62" x2="3018.47" y2="772.62" style="stroke:#F0F0F0;stroke-width:8.64"/>
	<line x1="3047.22" y1="772.62" x2="3104.87" y2="772.62" style="stroke:#F0F0F0;stroke-width:8.64"/>
	<line x1="3133.62" y1="772.62" x2="3191.27" y2="772.62" style="stroke:#F0F0F0;stroke-width:8.64"/>
	<line x1="3220.02" y1="772.62" x2="3277.67" y2="772.62" style="stroke:#F0F0F0;stroke-width:8.64"/>
	<line x1="3306.42" y1="772.62" x2="3364.07" y2="772.62" style="stroke:#F0F0F0;stroke-width:8.64"/>
	<line x1="3392.82" y1="772.62" x2="3450.47" y2="772.62" style="stroke:#F0F0F0;stroke-width:8.64"/>
	<line x1="3479.22" y1="772.62" x2="3536.87" y2="772.62" style="stroke:#F0F0F0;stroke-width:8.64"/>
	<line x1="3565.62" y1="772.62" x2="3623.27" y2="772.62" style="stroke:#F0F0F0;stroke-width:8.64"/>
	<line x1="3652.02" y1="772.62" x2="3709.67" y2="772.62" style="stroke:#F0F0F0;stroke-width:8.64"/>
	<line x1="3738.42" y1="772.62" x2="3796.07" y2="772.62" style="stroke:#F0F0F0;stroke-width:8.64"/>
	<line x1="3824.82" y1="772.62" x2="3882.47" y2="772.62" style="stroke:#F0F0F0;stroke-width:8.64"/>
	<line x1="3911.22" y1="772.62" x2="3968.87" y2="772.62" style="stroke:#F0F0F0;stroke-width:8.64"/>
	<line x1="3997.62" y1="772.62" x2="4055.27" y2="772.62" style="stroke:#F0F0F0;stroke-width:8.64"/>
	<line x1="4084.02" y1="772.62" x2="4141.67" y2="772.62" style="stroke:#F0F0F0;stroke-width:8.64"/>
	<line x1="4170.42" y1="772.62" x2="4219.16" y2="772.62" style="stroke:#F0F0F0;stroke-width:8.64"/>
	<line x1="541.62" y1="331.03" x2="599.27" y2="331.03" style="stroke:#F0F0F0;stroke-width:8.64"/>
	<line x1="628.02" y1="331.03" x2="685.67" y2="331.03" style="stroke:#F0F0F0;stroke-width:8.64"/>
	<line x1="714.42" y1="331.03" x2="772.07" y2="331.03" style="stroke:#F0F0F0;stroke-width:8.64"/>
	<line x1="800.82" y1="331.03" x2="858.47" y2="331.03" style="stroke:#F0F0F0;stroke-width:8.64"/>
	<line x1="887.22" y1="331.03" x2="944.87" y2="331.03" style="stroke:#F0F0F0;stroke-width:8.64"/>
	<line x1="973.62" y1="331.03" x2="1031.27" y2="331.03" style="stroke:#F0F0F0;stroke-width:8.64"/>
	<line x1="1060.02" y1="331.03" x2="1117.67" y2="331.03" style="stroke:#F0F0F0;stroke-width:8.64"/>
	<line x1="1146.42" y1="331.03" x2="1204.07" y2="331.03" style="stroke:#F0F0F0;stroke-width:8.64"/>
	<line x1="1232.82" y1="331.03" x2="1290.46" y2="331.03" style="stroke:#F0F0F0;stroke-width:8.64"/>
	<line x1="1319.22" y1="331.03" x2="1376.87" y2="331.03" style="stroke:#F0F0F0;stroke-width:8.64"/>
	<line x1="1405.62" y1="331.03" x2="1463.27" y2="331.03" style="stroke:#F0F0F0;stroke-width:8.64"/>
	<line x1="1492.02" y1="331.03" x2="1549.67" y2="331.03" style="stroke:#F0F0F0;stroke-width:8.64"/>
	<line x1="1578.42" y1="331.03" x2="1636.07" y2="331.03" style="stroke:#F0F0F0;stroke-width:8.64"/>
	<line x1="1664.82" y1="331.03" x2="1722.47" y2="331.03" style="stroke:#F0F0F0;stroke-width:8.64"/>
	<line x1="1751.22" y1="331.03" x2="1808.87" y2="331.03" style="stroke:#F0F0F0;stroke-width:8.64"/>
	<line x1="1837.62" y1="331.03" x2="1895.27" y2="331.03" style="stroke:#F0F0F0;stroke-width:8.64"/>
	<line x1="1924.02" y1="331.03" x2="1981.67" y2="331.03" style="stroke:#F0F0F0;stroke-width:8.64"/>
	<line x1="2010.42" y1="331.03" x2="2068.07" y2="331.03" style="stroke:#F0F0F0;stroke-width:8.64"/>
	<line x1="2096.82" y1="331.03" x2="2154.47" y2="331.03" style="stroke:#F0F0F0;stroke-width:8.64"/>
	<line x1="2183.22" y1="331.03" x2="2240.86" y2="331.03" style="stroke:#F0F0F0;stroke-width:8.64"/>
	<line x1="2269.62" y1="331.03" x2="2327.27" y2="331.03" style="stroke:#F0F0F0;stroke-width:8.64"/>
	<line x1="2356.02" y1="331.03" x2="2413.67" y2="331.03" style="stroke:#F0F0F0;stroke-width:8.64"/>
	<line x1="2442.42" y1="331.03" x2="2500.07" y2="331.03" style="stroke:#F0F0F0;stroke-width:8.64"/>
	<line x1="2528.82" y1="331.03" x2="2586.47" y2="331.03" style="stroke:#F0F0F0;stroke-width:8.64"/>
	<line x1="2615.22" y1="331.03" x2="2672.87" y2="331.03" style="stroke:#F0F0F0;stroke-width:8.64"/>
	<line x1="2701.62" y1="331.03" x2="2759.27" y2="331.03" style="stroke:#F0F0F0;stroke-width:8.64"/>
	<line x1="2788.02" y1="331.03" x2="2845.67" y2="331.03" style="stroke:#F0F0F0;stroke-width:8.64"/>
	<line x1="2874.42" y1="331.03" x2="2932.07" y2="331.03" style="stroke:#F0F0F0;stroke-width:8.64"/>
	<line x1="2960.82" y1="331.03" x2="3018.47" y2="331.03" style="stroke:#F0F0F0;stroke-width:8.64"/>
	<line x1="3047.22" y1="331.03" x2="3104.87" y2="331.03" style="stroke:#F0F0F0;stroke-width:8.64"/>
	<line x1="3133.62" y1="331.03" x2="3191.27" y2="331.03" style="stroke:#F0F0F0;stroke-width:8.64"/>
	<line x1="3220.02" y1="331.03" x2="3277.67" y2="331.03" style="stroke:#F0F0F0;stroke-width:8.64"/>
	<line x1="3306.42" y1="331.03" x2="3364.07" y2="331.03" style="stroke:#F0F0F0;stroke-width:8.64"/>
	<line x1="3392.82" y1="331.03" x2="3450.47" y2="331.03" style="stroke:#F0F0F0;stroke-width:8.64"/>
	<line x1="3479.22" y1="331.03" x2="3536.87" y2="331.03" style="stroke:#F0F0F0;stroke-width:8.64"/>
	<line x1="3565.62" y1="331.03" x2="3623.27" y2="331.03" style="stroke:#F0F0F0;stroke-width:8.64"/>
	<line x1="3652.02" y1="331.03" x2="3709.67" y2="331.03" style="stroke:#F0F0F0;stroke-width:8.64"/>
	<line x1="3738.42" y1="331.03" x2="3796.07" y2="331.03" style="stroke:#F0F0F0;stroke-width:8.64"/>
	<line x1="3824.82" y1="331.03" x2="3882.47" y2="331.03" style="stroke:#F0F0F0;stroke-width:8.64"/>
	<line x1="3911.22" y1="331.03" x2="3968.87" y2="331.03" style="stroke:#F0F0F0;stroke-width:8.64"/>
	<line x1="3997.62" y1="331.03" x2="4055.27" y2="331.03" style="stroke:#F0F0F0;stroke-width:8.64"/>
	<line x1="4084.02" y1="331.03" x2="4141.67" y2="331.03" style="stroke:#F0F0F0;stroke-width:8.64"/>
	<line x1="4170.42" y1="331.03" x2="4219.16" y2="331.03" style="stroke:#F0F0F0;stroke-width:8.64"/>
	<line x1="604.93" y1="2203.64" x2="604.93" y2="2145.99" style="stroke:#F0F0F0;stroke-width:8.64"/>
	<line x1="604.93" y1="2117.24" x2="604.93" y2="2059.59" style="stroke:#F0F0F0;stroke-width:8.64"/>
	<line x1="604.93" y1="2030.84" x2="604.93" y2="1973.19" style="stroke:#F0F0F0;stroke-width:8.64"/>
	<line x1="604.93" y1="1944.44" x2="604.93" y2="1886.79" style="stroke:#F0F0F0;stroke-width:8.64"/>
	<line x1="604.93" y1="1858.03" x2="604.93" y2="1800.39" style="stroke:#F0F0F0;stroke-width:8.64"/>
	<line x1="604.93" y1="1771.63" x2="604.93" y2="1713.99" style="stroke:#F0F0F0;stroke-width:8.64"/>
	<line x1="604.93" y1="1685.23" x2="604.93" y2="1627.59" style="stroke:#F0F0F0;stroke-width:8.64"/>
	<line x1="604.93" y1="1598.83" x2="604.93" y2="1541.18" style="stroke:#F0F0F0;stroke-width:8.64"/>
	<line x1="604.93" y1="1512.43" x2="604.93" y2="1454.78" style="stroke:#F0F0F0;stroke-width:8.64"/>
	<line x1="604.93" y1="1426.03" x2="604.93" y2="1368.38" style="stroke:#F0F0F0;stroke-width:8.64"/>
	<line x1="604.93" y1="1339.63" x2="604.93" y2="1281.98" style="stroke:#F0F0F0;stroke-width:8.64"/>
	<line x1="604.93" y1="1253.22" x2="604.93" y2="1195.58" style="stroke:#F0F0F0;stroke-width:8.64"/>
	<line x1="604.93" y1="1166.82" x2="604.93" y2="1109.18" style="stroke:#F0F0F0;stroke-width:8.64"/>
	<line x1="604.93" y1="1080.42" x2="604.93" y2="1022.78" style="stroke:#F0F0F0;stroke-width:8.64"/>
	<line x1="604.93" y1="994.02" x2="604.93" y2="936.37" style="stroke:#F0F0F0;stroke-width:8.64"/>
	<line x1="604.93" y1="907.62" x2="604.93" y2="849.97" style="stroke:#F0F0F0;stroke-width:8.64"/>
	<line x1="604.93" y1="821.22" x2="604.93" y2="763.57" style="stroke:#F0F0F0;stroke-width:8.64"/>
	<line x1="604.93" y1="734.82" x2="604.93" y2="677.17" style="stroke:#F0F0F0;stroke-width:8.64"/>
	<line x1="604.93" y1="648.42" x2="604.93" y2="590.77" style="stroke:#F0F0F0;stroke-width:8.64"/>
	<line x1="604.93" y1="562.01" x2="604.93" y2="504.37" style="stroke:#F0F0F0;stroke-width:8.64"/>
	<line x1="604.93" y1="475.61" x2="604.93" y2="417.97" style="stroke:#F0F0F0;stroke-width:8.64"/>
	<line x1="604.93" y1="389.21" x2="604.93" y2="331.57" style="stroke:#F0F0F0;stroke-width:8.64"/>
	<line x1="604.93" y1="302.81" x2="604.93" y2="245.16" style="stroke:#F0F0F0;stroke-width:8.64"/>
	<line x1="604.93" y1="216.41" x2="604.93" y2="158.76" style="stroke:#F0F0F0;stroke-width:8.64"/>
	<line x1="604.93" y1="130.01" x2="604.93" y2="100.85" style="stroke:#F0F0F0;stroke-width:8.64"/>
	<line x1="1315.17" y1="2203.64" x2="1315.17" y2="2145.99" style="stroke:#F0F0F0;stroke-width:8.64"/>
	<line x1="1315.17" y1="2117.24" x2="1315.17" y2="2059.59" style="stroke:#F0F0F0;stroke-width:8.64"/>
	<line x1="1315.17" y1="2030.84" x2="1315.17" y2="1973.19" style="stroke:#F0F0F0;stroke-width:8.64"/>
	<line x1="1315.17" y1="1944.44" x2="1315.17" y2="1886.79" style="stroke:#F0F0F0;stroke-width:8.64"/>
	<line x1="1315.17" y1="1858.03" x2="1315.17" y2="1800.39" style="stroke:#F0F0F0;stroke-width:8.64"/>
	<line x1="1315.17" y1="1771.63" x2="1315.17" y2="1713.99" style="stroke:#F0F0F0;stroke-width:8.64"/>
	<line x1="1315.17" y1="1685.23" x2="1315.17" y2="1627.59" style="stroke:#F0F0F0;stroke-width:8.64"/>
	<line x1="1315.17" y1="1598.83" x2="1315.17" y2="1541.18" style="stroke:#F0F0F0;stroke-width:8.64"/>
	<line x1="1315.17" y1="1512.43" x2="1315.17" y2="1454.78" style="stroke:#F0F0F0;stroke-width:8.64"/>
	<line x1="1315.17" y1="1426.03" x2="1315.17" y2="1368.38" style="stroke:#F0F0F0;stroke-width:8.64"/>
	<line x1="1315.17" y1="1339.63" x2="1315.17" y2="1281.98" style="stroke:#F0F0F0;stroke-width:8.64"/>
	<line x1="1315.17" y1="1253.22" x2="1315.17" y2="1195.58" style="stroke:#F0F0F0;stroke-width:8.64"/>
	<line x1="1315.17" y1="1166.82" x2="1315.17" y2="1109.18" style="stroke:#F0F0F0;stroke-width:8.64"/>
	<line x1="1315.17" y1="1080.42" x2="1315.17" y2="1022.78" style="stroke:#F0F0F0;stroke-width:8.64"/>
	<line x1="1315.17" y1="994.02" x2="1315.17" y2="936.37" style="stroke:#F0F0F0;stroke-width:8.64"/>
	<line x1="1315.17" y1="907.62" x2="1315.17" y2="849.97" style="stroke:#F0F0F0;stroke-width:8.64"/>
	<line x1="1315.17" y1="821.22" x2="1315.17" y2="763.57" style="stroke:#F0F0F0;stroke-width:8.64"/>
	<line x1="1315.17" y1="734.82" x2="1315.17" y2="677.17" style="stroke:#F0F0F0;stroke-width:8.64"/>
	<line x1="1315.17" y1="648.42" x2="1315.17" y2="590.77" style="stroke:#F0F0F0;stroke-width:8.64"/>
	<line x1="1315.17" y1="562.01" x2="1315.17" y2="504.37" style="stroke:#F0F0F0;stroke-width:8.64"/>
	<line x1="1315.17" y1="475.61" x2="1315.17" y2="417.97" style="stroke:#F0F0F0;stroke-width:8.64"/>
	<line x1="1315.17" y1="389.21" x2="1315.17" y2="331.57" style="stroke:#F0F0F0;stroke-width:8.64"/>
	<line x1="1315.17" y1="302.81" x2="1315.17" y2="245.16" style="stroke:#F0F0F0;stroke-width:8.64"/>
	<line x1="1315.17" y1="216.41" x2="1315.17" y2="158.76" style="stroke:#F0F0F0;stroke-width:8.64"/>
	<line x1="1315.17" y1="130.01" x2="1315.17" y2="100.85" style="stroke:#F0F0F0;stroke-width:8.64"/>
	<line x1="2025.27" y1="2203.64" x2="2025.27" y2="2145.99" style="stroke:#F0F0F0;stroke-width:8.64"/>
	<line x1="2025.27" y1="2117.24" x2="2025.27" y2="2059.59" style="stroke:#F0F0F0;stroke-width:8.64"/>
	<line x1="2025.27" y1="2030.84" x2="2025.27" y2="1973.19" style="stroke:#F0F0F0;stroke-width:8.64"/>
	<line x1="2025.27" y1="1944.44" x2="2025.27" y2="1886.79" style="stroke:#F0F0F0;stroke-width:8.64"/>
	<line x1="2025.27" y1="1858.03" x2="2025.27" y2="1800.39" style="stroke:#F0F0F0;stroke-width:8.64"/>
	<line x1="2025.27" y1="1771.63" x2="2025.27" y2="1713.99" style="stroke:#F0F0F0;stroke-width:8.64"/>
	<line x1="2025.27" y1="1685.23" x2="2025.27" y2="1627.59" style="stroke:#F0F0F0;stroke-width:8.64"/>
	<line x1="2025.27" y1="1598.83" x2="2025.27" y2="1541.18" style="stroke:#F0F0F0;stroke-width:8.64"/>
	<line x1="2025.27" y1="1512.43" x2="2025.27" y2="1454.78" style="stroke:#F0F0F0;stroke-width:8.64"/>
	<line x1="2025.27" y1="1426.03" x2="2025.27" y2="1368.38" style="stroke:#F0F0F0;stroke-width:8.64"/>
	<line x1="2025.27" y1="1339.63" x2="2025.27" y2="1281.98" style="stroke:#F0F0F0;stroke-width:8.64"/>
	<line x1="2025.27" y1="1253.22" x2="2025.27" y2="1195.58" style="stroke:#F0F0F0;stroke-width:8.64"/>
	<line x1="2025.27" y1="1166.82" x2="2025.27" y2="1109.18" style="stroke:#F0F0F0;stroke-width:8.64"/>
	<line x1="2025.27" y1="1080.42" x2="2025.27" y2="1022.78" style="stroke:#F0F0F0;stroke-width:8.64"/>
	<line x1="2025.27" y1="994.02" x2="2025.27" y2="936.37" style="stroke:#F0F0F0;stroke-width:8.64"/>
	<line x1="2025.27" y1="907.62" x2="2025.27" y2="849.97" style="stroke:#F0F0F0;stroke-width:8.64"/>
	<line x1="2025.27" y1="821.22" x2="2025.27" y2="763.57" style="stroke:#F0F0F0;stroke-width:8.64"/>
	<line x1="2025.27" y1="734.82" x2="2025.27" y2="677.17" style="stroke:#F0F0F0;stroke-width:8.64"/>
	<line x1="2025.27" y1="648.42" x2="2025.27" y2="590.77" style="stroke:#F0F0F0;stroke-width:8.64"/>
	<line x1="2025.27" y1="562.01" x2="2025.27" y2="504.37" style="stroke:#F0F0F0;stroke-width:8.64"/>
	<line x1="2025.27" y1="475.61" x2="2025.27" y2="417.97" style="stroke:#F0F0F0;stroke-width:8.64"/>
	<line x1="2025.27" y1="389.21" x2="2025.27" y2="331.57" style="stroke:#F0F0F0;stroke-width:8.64"/>
	<line x1="2025.27" y1="302.81" x2="2025.27" y2="245.16" style="stroke:#F0F0F0;stroke-width:8.64"/>
	<line x1="2025.27" y1="216.41" x2="2025.27" y2="158.76" style="stroke:#F0F0F0;stroke-width:8.64"/>
	<line x1="2025.27" y1="130.01" x2="2025.27" y2="100.85" style="stroke:#F0F0F0;stroke-width:8.64"/>
	<line x1="2735.51" y1="2203.64" x2="2735.51" y2="2145.99" style="stroke:#F0F0F0;stroke-width:8.64"/>
	<line x1="2735.51" y1="2117.24" x2="2735.51" y2="2059.59" style="stroke:#F0F0F0;stroke-width:8.64"/>
	<line x1="2735.51" y1="2030.84" x2="2735.51" y2="1973.19" style="stroke:#F0F0F0;stroke-width:8.64"/>
	<line x1="2735.51" y1="1944.44" x2="2735.51" y2="1886.79" style="stroke:#F0F0F0;stroke-width:8.64"/>
	<line x1="2735.51" y1="1858.03" x2="2735.51" y2="1800.39" style="stroke:#F0F0F0;stroke-width:8.64"/>
	<line x1="2735.51" y1="1771.63" x2="2735.51" y2="1713.99" style="stroke:#F0F0F0;stroke-width:8.64"/>
	<line x1="2735.51" y1="1685.23" x2="2735.51" y2="1627.59" style="stroke:#F0F0F0;stroke-width:8.64"/>
	<line x1="2735.51" y1="1598.83" x2="2735.51" y2="1541.18" style="stroke:#F0F0F0;stroke-width:8.64"/>
	<line x1="2735.51" y1="1512.43" x2="2735.51" y2="1454.78" style="stroke:#F0F0F0;stroke-width:8.64"/>
	<line x1="2735.51" y1="1426.03" x2="2735.51" y2="1368.38" style="stroke:#F0F0F0;stroke-width:8.64"/>
	<line x1="2735.51" y1="1339.63" x2="2735.51" y2="1281.98" style="stroke:#F0F0F0;stroke-width:8.64"/>
	<line x1="2735.51" y1="1253.22" x2="2735.51" y2="1195.58" style="stroke:#F0F0F0;stroke-width:8.64"/>
	<line x1="2735.51" y1="1166.82" x2="2735.51" y2="1109.18" style="stroke:#F0F0F0;stroke-width:8.64"/>
	<line x1="2735.51" y1="1080.42" x2="2735.51" y2="1022.78" style="stroke:#F0F0F0;stroke-width:8.64"/>
	<line x1="2735.51" y1="994.02" x2="2735.51" y2="936.37" style="stroke:#F0F0F0;stroke-width:8.64"/>
	<line x1="2735.51" y1="907.62" x2="2735.51" y2="849.97" style="stroke:#F0F0F0;stroke-width:8.64"/>
	<line x1="2735.51" y1="821.22" x2="2735.51" y2="763.57" style="stroke:#F0F0F0;stroke-width:8.64"/>
	<line x1="2735.51" y1="734.82" x2="2735.51" y2="677.17" style="stroke:#F0F0F0;stroke-width:8.64"/>
	<line x1="2735.51" y1="648.42" x2="2735.51" y2="590.77" style="stroke:#F0F0F0;stroke-width:8.64"/>
	<line x1="2735.51" y1="562.01" x2="2735.51" y2="504.37" style="stroke:#F0F0F0;stroke-width:8.64"/>
	<line x1="2735.51" y1="475.61" x2="2735.51" y2="417.97" style="stroke:#F0F0F0;stroke-width:8.64"/>
	<line x1="2735.51" y1="389.21" x2="2735.51" y2="331.57" style="stroke:#F0F0F0;stroke-width:8.64"/>
	<line x1="2735.51" y1="302.81" x2="2735.51" y2="245.16" style="stroke:#F0F0F0;stroke-width:8.64"/>
	<line x1="2735.51" y1="216.41" x2="2735.51" y2="158.76" style="stroke:#F0F0F0;stroke-width:8.64"/>
	<line x1="2735.51" y1="130.01" x2="2735.51" y2="100.85" style="stroke:#F0F0F0;stroke-width:8.64"/>
	<line x1="3445.61" y1="2203.64" x2="3445.61" y2="2145.99" style="stroke:#F0F0F0;stroke-width:8.64"/>
	<line x1="3445.61" y1="2117.24" x2="3445.61" y2="2059.59" style="stroke:#F0F0F0;stroke-width:8.64"/>
	<line x1="3445.61" y1="2030.84" x2="3445.61" y2="1973.19" style="stroke:#F0F0F0;stroke-width:8.64"/>
	<line x1="3445.61" y1="1944.44" x2="3445.61" y2="1886.79" style="stroke:#F0F0F0;stroke-width:8.64"/>
	<line x1="3445.61" y1="1858.03" x2="3445.61" y2="1800.39" style="stroke:#F0F0F0;stroke-width:8.64"/>
	<line x1="3445.61" y1="1771.63" x2="3445.61" y2="1713.99" style="stroke:#F0F0F0;stroke-width:8.64"/>
	<line x1="3445.61" y1="1685.23" x2="3445.61" y2="1627.59" style="stroke:#F0F0F0;stroke-width:8.64"/>
	<line x1="3445.61" y1="1598.83" x2="3445.61" y2="1541.18" style="stroke:#F0F0F0;stroke-width:8.64"/>
	<line x1="3445.61" y1="1512.43" x2="3445.61" y2="1454.78" style="stroke:#F0F0F0;stroke-width:8.64"/>
	<line x1="3445.61" y1="1426.03" x2="3445.61" y2="1368.38" style="stroke:#F0F0F0;stroke-width:8.64"/>
	<line x1="3445.61" y1="1339.63" x2="3445.61" y2="1281.98" style="stroke:#F0F0F0;stroke-width:8.64"/>
	<line x1="3445.61" y1="1253.22" x2="3445.61" y2="1195.58" style="stroke:#F0F0F0;stroke-width:8.64"/>
	<line x1="3445.61" y1="1166.82" x2="3445.61" y2="1109.18" style="stroke:#F0F0F0;stroke-width:8.64"/>
	<line x1="3445.61" y1="1080.42" x2="3445.61" y2="1022.78" style="stroke:#F0F0F0;stroke-width:8.64"/>
	<line x1="3445.61" y1="994.02" x2="3445.61" y2="936.37" style="stroke:#F0F0F0;stroke-width:8.64"/>
	<line x1="3445.61" y1="907.62" x2="3445.61" y2="849.97" style="stroke:#F0F0F0;stroke-width:8.64"/>
	<line x1="3445.61" y1="821.22" x2="3445.61" y2="763.57" style="stroke:#F0F0F0;stroke-width:8.64"/>
	<line x1="3445.61" y1="734.82" x2="3445.61" y2="677.17" style="stroke:#F0F0F0;stroke-width:8.64"/>
	<line x1="3445.61" y1="648.42" x2="3445.61" y2="590.77" style="stroke:#F0F0F0;stroke-width:8.64"/>
	<line x1="3445.61" y1="562.01" x2="3445.61" y2="504.37" style="stroke:#F0F0F0;stroke-width:8.64"/>
	<line x1="3445.61" y1="475.61" x2="3445.61" y2="417.97" style="stroke:#F0F0F0;stroke-width:8.64"/>
	<line x1="3445.61" y1="389.21" x2="3445.61" y2="331.57" style="stroke:#F0F0F0;stroke-width:8.64"/>
	<line x1="3445.61" y1="302.81" x2="3445.61" y2="245.16" style="stroke:#F0F0F0;stroke-width:8.64"/>
	<line x1="3445.61" y1="216.41" x2="3445.61" y2="158.76" style="stroke:#F0F0F0;stroke-width:8.64"/>
	<line x1="3445.61" y1="130.01" x2="3445.61" y2="100.85" style="stroke:#F0F0F0;stroke-width:8.64"/>
	<line x1="4155.84" y1="2203.64" x2="4155.84" y2="2145.99" style="stroke:#F0F0F0;stroke-width:8.64"/>
	<line x1="4155.84" y1="2117.24" x2="4155.84" y2="2059.59" style="stroke:#F0F0F0;stroke-width:8.64"/>
	<line x1="4155.84" y1="2030.84" x2="4155.84" y2="1973.19" style="stroke:#F0F0F0;stroke-width:8.64"/>
	<line x1="4155.84" y1="1944.44" x2="4155.84" y2="1886.79" style="stroke:#F0F0F0;stroke-width:8.64"/>
	<line x1="4155.84" y1="1858.03" x2="4155.84" y2="1800.39" style="stroke:#F0F0F0;stroke-width:8.64"/>
	<line x1="4155.84" y1="1771.63" x2="4155.84" y2="1713.99" style="stroke:#F0F0F0;stroke-width:8.64"/>
	<line x1="4155.84" y1="1685.23" x2="4155.84" y2="1627.59" style="stroke:#F0F0F0;stroke-width:8.64"/>
	<line x1="4155.84" y1="1598.83" x2="4155.84" y2="1541.18" style="stroke:#F0F0F0;stroke-width:8.64"/>
	<line x1="4155.84" y1="1512.43" x2="4155.84" y2="1454.78" style="stroke:#F0F0F0;stroke-width:8.64"/>
	<line x1="4155.84" y1="1426.03" x2="4155.84" y2="1368.38" style="stroke:#F0F0F0;stroke-width:8.64"/>
	<line x1="4155.84" y1="1339.63" x2="4155.84" y2="1281.98" style="stroke:#F0F0F0;stroke-width:8.64"/>
	<line x1="4155.84" y1="1253.22" x2="4155.84" y2="1195.58" style="stroke:#F0F0F0;stroke-width:8.64"/>
	<line x1="4155.84" y1="1166.82" x2="4155.84" y2="1109.18" style="stroke:#F0F0F0;stroke-width:8.64"/>
	<line x1="4155.84" y1="1080.42" x2="4155.84" y2="1022.78" style="stroke:#F0F0F0;stroke-width:8.64"/>
	<line x1="4155.84" y1="994.02" x2="4155.84" y2="936.37" style="stroke:#F0F0F0;stroke-width:8.64"/>
	<line x1="4155.84" y1="907.62" x2="4155.84" y2="849.97" style="stroke:#F0F0F0;stroke-width:8.64"/>
	<line x1="4155.84" y1="821.22" x2="4155.84" y2="763.57" style="stroke:#F0F0F0;stroke-width:8.64"/>
	<line x1="4155.84" y1="734.82" x2="4155.84" y2="677.17" style="stroke:#F0F0F0;stroke-width:8.64"/>
	<line x1="4155.84" y1="648.42" x2="4155.84" y2="590.77" style="stroke:#F0F0F0;stroke-width:8.64"/>
	<line x1="4155.84" y1="562.01" x2="4155.84" y2="504.37" style="stroke:#F0F0F0;stroke-width:8.64"/>
	<line x1="4155.84" y1="475.61" x2="4155.84" y2="417.97" style="stroke:#F0F0F0;stroke-width:8.64"/>
	<line x1="4155.84" y1="389.21" x2="4155.84" y2="331.57" style="stroke:#F0F0F0;stroke-width:8.64"/>
	<line x1="4155.84" y1="302.81" x2="4155.84" y2="245.16" style="stroke:#F0F0F0;stroke-width:8.64"/>
	<line x1="4155.84" y1="216.41" x2="4155.84" y2="158.76" style="stroke:#F0F0F0;stroke-width:8.64"/>
	<line x1="4155.84" y1="130.01" x2="4155.84" y2="100.85" style="stroke:#F0F0F0;stroke-width:8.64"/>
	<path d=" M604.93 1105.40 L634.50 1504.46 L664.07 884.53 L693.63 1210.83 L723.33 999.56 L752.90 1618.27 L782.46 1239.86 L812.03 1260.78 L841.59 1568.32 L871.16 1097.84 L900.86 1287.65 L930.42 1420.63 L959.99 945.28 L989.55 1185.18 L1019.12 397.72 L1048.82 975.39 L1078.38 1263.21 L1107.95 1568.59 L1137.51 1474.76 L1167.08 1504.33 L1196.64 1411.31 L1226.34 1217.85 L1255.91 1383.23 L1285.47 1832.25 L1315.04 1304.53 L1344.60 1461.80 L1374.30 1039.38 L1403.87 1415.09 L1433.43 1555.90 L1463.00 2074.44 L1492.56 2070.12 L1522.26 1934.45 L1551.83 1666.74 L1581.39 1416.04 L1610.96 1252.01 L1640.52 1631.23 L1670.09 931.24 L1699.79 1218.80 L1729.35 404.20 L1758.92 1018.32 L1788.48 1317.49 L1818.05 2079.57 L1847.75 1917.30 L1877.31 1873.02 L1906.88 1589.78 L1936.44 969.86 L1966.01 817.57 L1995.57 1686.45 L2025.27 958.11 L2054.84 1338.68 L2084.40 483.58 L2113.97 853.21 L2143.53 1333.96 L2173.23 2140.46 L2202.80 2102.39 L2232.36 1989.39 L2261.93 1789.32 L2291.49 1070.30 L2321.19 1149.68 L2350.76 1746.25 L2380.32 1186.26 L2409.89 1335.71 L2439.45 663.94 L2469.02 967.29 L2498.72 1325.05 L2528.28 2073.90 L2557.84 1920.00 L2587.41 1913.38 L2616.98 1640.68 L2646.68 1129.56 L2676.24 1273.07 L2705.81 1710.88 L2735.37 1287.11 L2764.94 1317.76 L2794.50 982.01 L2824.20 581.32 L2853.77 442.67 L2883.33 1154.13 L2912.90 1422.38 L2942.46 1423.87 L2972.16 1014.54 L3001.73 990.51 L3031.29 1135.64 L3060.86 1271.18 L3090.42 710.25 L3120.12 875.76 L3149.69 164.16 L3179.25 535.96 L3208.82 805.29 L3238.38 1577.90 L3267.95 1656.07 L3297.65 1637.04 L3327.21 1347.59 L3356.78 1323.02 L3386.34 1427.24 L3415.91 1727.89 L3445.61 1237.83 L3475.17 1528.49 L3504.74 1063.55 L3534.30 1331.39 L3563.87 1444.52 L3593.43 2069.72 L3623.13 1883.41 L3652.70 1928.64 L3682.26 1530.52 L3711.83 1198.28 L3741.39 1518.10 L3771.09 1725.06 L3800.66 1079.21 L3830.22 1460.86 L3859.79 833.10 L3889.35 1128.21 L3919.05 1373.65" stroke-linejoin="round" style="fill:none;stroke:#1A85FF;stroke-width:8.64"/>
	<path d=" M604.93 1360.42 L634.50 1511.35 L664.07 1522.55 L693.63 1538.75 L723.33 1142.93 L752.90 1130.37 L782.46 826.62 L812.03 872.11 L841.59 1391.33 L871.16 1270.37 L900.86 1367.84 L930.42 1111.07 L959.99 1200.30 L989.55 1192.07 L1019.12 1035.60 L1048.82 1303.31 L1078.38 1406.72 L1107.95 1080.69 L1137.51 1061.39 L1167.08 1115.52 L1196.64 1234.32 L1226.34 1390.39 L1255.91 1463.42 L1285.47 1522.69 L1315.04 1559.68 L1344.60 1468.55 L1374.30 1677.40 L1403.87 1743.01 L1433.43 1699.41 L1463.00 1586.68 L1492.56 1656.75 L1522.26 1545.77 L1551.83 1489.75 L1581.39 1588.57 L1610.96 1332.20 L1640.52 1321.81 L1670.09 1186.26 L1699.79 1225.68 L1729.35 1042.22 L1758.92 1346.24 L1788.48 1460.86 L1818.05 1591.67 L1847.75 1503.92 L1877.31 1484.35 L1906.88 1412.80 L1936.44 1142.39 L1966.01 897.76 L1995.57 1376.89 L2025.27 1213.13 L2054.84 1345.43 L2084.40 1121.60 L2113.97 1181.00 L2143.53 1477.46 L2173.23 1652.56 L2202.80 1689.15 L2232.36 1600.59 L2261.93 1612.33 L2291.49 1242.83 L2321.19 1229.87 L2350.76 1436.69 L2380.32 1441.42 L2409.89 1342.60 L2439.45 1301.96 L2469.02 1295.08 L2498.72 1468.55 L2528.28 1586.00 L2557.84 1506.62 L2587.41 1524.58 L2616.98 1463.69 L2646.68 1302.10 L2676.24 1353.26 L2705.81 1401.32 L2735.37 1542.26 L2764.94 1324.64 L2794.50 1620.03 L2824.20 909.24 L2853.77 586.04 L2883.33 666.24 L2912.90 1009.01 L2942.46 1035.06 L2972.16 837.55 L3001.73 1163.04 L3031.29 1215.96 L3060.86 961.76 L3090.42 965.27 L3120.12 882.64 L3149.69 802.18 L3179.25 863.88 L3208.82 948.79 L3238.38 1090.14 L3267.95 1242.69 L3297.65 1248.36 L3327.21 1170.60 L3356.78 1495.69 L3386.34 1507.43 L3415.91 1418.47 L3445.61 1492.85 L3475.17 1535.38 L3504.74 1701.57 L3534.30 1659.18 L3563.87 1588.03 L3593.43 1581.95 L3623.13 1470.04 L3652.70 1539.83 L3682.26 1353.67 L3711.83 1370.81 L3741.39 1598.42 L3771.09 1415.50 L3800.66 1334.36 L3830.22 1467.74 L3859.79 1470.98 L3889.35 1456.13 L3919.05 1517.15" stroke-linejoin="round" style="fill:none;stroke:#D41159;stroke-width:8.64"/>
	<line x1="541.62" y1="2203.64" x2="541.62" y2="100.85" style="stroke:#000000;stroke-width:5.76"/>
	<line x1="541.62" y1="2097.26" x2="501.66" y2="2097.26" style="stroke:#000000;stroke-width:5.76"/>
	<text x="481.68" y="2132.30" style="font-family:'Helvetica';font-size:100.04px;fill:#000000" text-anchor="end">34000</text>
	<line x1="541.62" y1="1655.67" x2="501.66" y2="1655.67" style="stroke:#000000;stroke-width:5.76"/>
	<text x="481.68" y="1690.71" style="font-family:'Helvetica';font-size:100.04px;fill:#000000" text-anchor="end">36000</text>
	<line x1="541.62" y1="1214.21" x2="501.66" y2="1214.21" style="stroke:#000000;stroke-width:5.76"/>
	<text x="481.68" y="1249.26" style="font-family:'Helvetica';font-size:100.04px;fill:#000000" text-anchor="end">38000</text>
	<line x1="541.62" y1="772.62" x2="501.66" y2="772.62" style="stroke:#000000;stroke-width:5.76"/>
	<text x="481.68" y="807.66" style="font-family:'Helvetica';font-size:100.04px;fill:#000000" text-anchor="end">40000</text>
	<line x1="541.62" y1="331.03" x2="501.66" y2="331.03" style="stroke:#000000;stroke-width:5.76"/>
	<text x="481.68" y="366.07" style="font-family:'Helvetica';font-size:100.04px;fill:#000000" text-anchor="end">42000</text>
	<line x1="541.62" y1="2203.64" x2="4219.16" y2="2203.64" style="stroke:#000000;stroke-width:5.76"/>
	<line x1="604.93" y1="2203.64" x2="604.93" y2="2243.74" style="stroke:#000000;stroke-width:5.76"/>
	<text x="604.93" y="2333.67" style="font-family:'Helvetica';font-size:100.04px;fill:#000000" text-anchor="middle">2014</text>
	<line x1="1315.17" y1="2203.64" x2="1315.17" y2="2243.74" style="stroke:#000000;stroke-width:5.76"/>
	<text x="1315.17" y="2333.67" style="font-family:'Helvetica';font-size:100.04px;fill:#000000" text-anchor="middle">2016</text>
	<line x1="2025.27" y1="2203.64" x2="2025.27" y2="2243.74" style="stroke:#000000;stroke-width:5.76"/>
	<text x="2025.27" y="2333.67" style="font-family:'Helvetica';font-size:100.04px;fill:#000000" text-anchor="middle">2018</text>
	<line x1="2735.51" y1="2203.64" x2="2735.51" y2="2243.74" style="stroke:#000000;stroke-width:5.76"/>
	<text x="2735.51" y="2333.67" style="font-family:'Helvetica';font-size:100.04px;fill:#000000" text-anchor="middle">2020</text>
	<line x1="3445.61" y1="2203.64" x2="3445.61" y2="2243.74" style="stroke:#000000;stroke-width:5.76"/>
	<text x="3445.61" y="2333.67" style="font-family:'Helvetica';font-size:100.04px;fill:#000000" text-anchor="middle">2022</text>
	<line x1="4155.84" y1="2203.64" x2="4155.84" y2="2243.74" style="stroke:#000000;stroke-width:5.76"/>
	<text x="4155.84" y="2333.67" style="font-family:'Helvetica';font-size:100.04px;fill:#000000" text-anchor="middle">2024</text>
	<text x="2380.32" y="2473.67" style="font-family:'Helvetica';font-size:100.04px;fill:#000000" text-anchor="middle">Month</text>
	<rect x="1469.34" y="2558.29" width="1822.10" height="186.30" style="fill:#FFFFFF"/>
	<rect x="1472.22" y="2561.17" width="1816.34" height="180.54" style="fill:none;stroke:#FFFFFF;stroke-width:5.76"/>
	<line x1="1512.54" y1="2651.44" x2="1742.85" y2="2651.44" style="stroke:#1A85FF;stroke-width:8.64"/>
	<line x1="2561.22" y1="2651.44" x2="2791.67" y2="2651.44" style="stroke:#D41159;stroke-width:8.64"/>
	<text x="1802.93" y="2686.49" style="font-family:'Helvetica';font-size:100.04px;fill:#000000">Active editors</text>
	<text x="2851.61" y="2686.49" style="font-family:'Helvetica';font-size:100.04px;fill:#000000">adjusted</text>
</svg>
