<?xml version="1.0" encoding="UTF-8" standalone="no"?>
<!-- This is a Stata 18.0 generated SVG file (http://www.stata.com) -->

<svg version="1.1" width="7.500in" height="4.500in" viewBox="0 0 5400 3240" xmlns="http://www.w3.org/2000/svg" xmlns:xlink="http://www.w3.org/1999/xlink">
	<desc>Stata Graph - graph1</desc>
	<rect x="0" y="0" width="5400" height="3240" style="fill:#FFFFFF;stroke:none"/>
	<rect x="0.00" y="0.00" width="5400.00" height="3240.00" style="fill:#FFFFFF"/>
	<rect x="3.24" y="3.24" width="5393.52" height="3233.52" style="fill:none;stroke:#FFFFFF;stroke-width:6.48"/>
	<rect x="524.98" y="113.40" width="3603.66" height="2653.26" style="fill:#FFFFFF"/>
	<rect x="528.22" y="116.64" width="3597.18" height="2646.78" style="fill:none;stroke:#FFFFFF;stroke-width:6.48"/>
	<line x1="524.98" y1="2695.28" x2="589.78" y2="2695.28" style="stroke:#F0F0F0;stroke-width:9.72"/>
	<line x1="622.18" y1="2695.28" x2="686.98" y2="2695.28" style="stroke:#F0F0F0;stroke-width:9.72"/>
	<line x1="719.38" y1="2695.28" x2="784.18" y2="2695.28" style="stroke:#F0F0F0;stroke-width:9.72"/>
	<line x1="816.58" y1="2695.28" x2="881.38" y2="2695.28" style="stroke:#F0F0F0;stroke-width:9.72"/>
	<line x1="913.78" y1="2695.28" x2="978.58" y2="2695.28" style="stroke:#F0F0F0;stroke-width:9.72"/>
	<line x1="1010.98" y1="2695.28" x2="1075.78" y2="2695.28" style="stroke:#F0F0F0;stroke-width:9.72"/>
	<line x1="1108.18" y1="2695.28" x2="1172.98" y2="2695.28" style="stroke:#F0F0F0;stroke-width:9.72"/>
	<line x1="1205.38" y1="2695.28" x2="1270.18" y2="2695.28" style="stroke:#F0F0F0;stroke-width:9.72"/>
	<line x1="1302.58" y1="2695.28" x2="1367.38" y2="2695.28" style="stroke:#F0F0F0;stroke-width:9.72"/>
	<line x1="1399.78" y1="2695.28" x2="1464.58" y2="2695.28" style="stroke:#F0F0F0;stroke-width:9.72"/>
	<line x1="1496.98" y1="2695.28" x2="1561.78" y2="2695.28" style="stroke:#F0F0F0;stroke-width:9.72"/>
	<line x1="1594.18" y1="2695.28" x2="1658.98" y2="2695.28" style="stroke:#F0F0F0;stroke-width:9.72"/>
	<line x1="1691.38" y1="2695.28" x2="1756.18" y2="2695.28" style="stroke:#F0F0F0;stroke-width:9.72"/>
	<line x1="1788.58" y1="2695.28" x2="1853.38" y2="2695.28" style="stroke:#F0F0F0;stroke-width:9.72"/>
	<line x1="1885.78" y1="2695.28" x2="1950.58" y2="2695.28" style="stroke:#F0F0F0;stroke-width:9.72"/>
	<line x1="1982.98" y1="2695.28" x2="2047.78" y2="2695.28" style="stroke:#F0F0F0;stroke-width:9.72"/>
	<line x1="2080.18" y1="2695.28" x2="2144.98" y2="2695.28" style="stroke:#F0F0F0;stroke-width:9.72"/>
	<line x1="2177.38" y1="2695.28" x2="2242.18" y2="2695.28" style="stroke:#F0F0F0;stroke-width:9.72"/>
	<line x1="2274.58" y1="2695.28" x2="2339.38" y2="2695.28" style="stroke:#F0F0F0;stroke-width:9.72"/>
	<line x1="2371.78" y1="2695.28" x2="2436.58" y2="2695.28" style="stroke:#F0F0F0;stroke-width:9.72"/>
	<line x1="2468.98" y1="2695.28" x2="2533.78" y2="2695.28" style="stroke:#F0F0F0;stroke-width:9.72"/>
	<line x1="2566.18" y1="2695.28" x2="2630.98" y2="2695.28" style="stroke:#F0F0F0;stroke-width:9.72"/>
	<line x1="2663.38" y1="2695.28" x2="2728.18" y2="2695.28" style="stroke:#F0F0F0;stroke-width:9.72"/>
	<line x1="2760.58" y1="2695.28" x2="2825.38" y2="2695.28" style="stroke:#F0F0F0;stroke-width:9.72"/>
	<line x1="2857.78" y1="2695.28" x2="2922.58" y2="2695.28" style="stroke:#F0F0F0;stroke-width:9.72"/>
	<line x1="2954.98" y1="2695.28" x2="3019.78" y2="2695.28" style="stroke:#F0F0F0;stroke-width:9.72"/>
	<line x1="3052.18" y1="2695.28" x2="3116.98" y2="2695.28" style="stroke:#F0F0F0;stroke-width:9.72"/>
	<line x1="3149.38" y1="2695.28" x2="3214.18" y2="2695.28" style="stroke:#F0F0F0;stroke-width:9.72"/>
	<line x1="3246.58" y1="2695.28" x2="3311.38" y2="2695.28" style="stroke:#F0F0F0;stroke-width:9.72"/>
	<line x1="3343.78" y1="2695.28" x2="3408.58" y2="2695.28" style="stroke:#F0F0F0;stroke-width:9.72"/>
	<line x1="3440.98" y1="2695.28" x2="3505.78" y2="2695.28" style="stroke:#F0F0F0;stroke-width:9.72"/>
	<line x1="3538.18" y1="2695.28" x2="3602.98" y2="2695.28" style="stroke:#F0F0F0;stroke-width:9.72"/>
	<line x1="3635.38" y1="2695.28" x2="3700.18" y2="2695.28" style="stroke:#F0F0F0;stroke-width:9.72"/>
	<line x1="3732.58" y1="2695.28" x2="3797.38" y2="2695.28" style="stroke:#F0F0F0;stroke-width:9.72"/>
	<line x1="3829.78" y1="2695.28" x2="3894.58" y2="2695.28" style="stroke:#F0F0F0;stroke-width:9.72"/>
	<line x1="3926.98" y1="2695.28" x2="3991.78" y2="2695.28" style="stroke:#F0F0F0;stroke-width:9.72"/>
	<line x1="4024.18" y1="2695.28" x2="4088.98" y2="2695.28" style="stroke:#F0F0F0;stroke-width:9.72"/>
	<line x1="4121.38" y1="2695.28" x2="4128.64" y2="2695.28" style="stroke:#F0F0F0;stroke-width:9.72"/>
	<line x1="524.98" y1="2067.69" x2="589.78" y2="2067.69" style="stroke:#F0F0F0;stroke-width:9.72"/>
	<line x1="622.18" y1="2067.69" x2="686.98" y2="2067.69" style="stroke:#F0F0F0;stroke-width:9.72"/>
	<line x1="719.38" y1="2067.69" x2="784.18" y2="2067.69" style="stroke:#F0F0F0;stroke-width:9.72"/>
	<line x1="816.58" y1="2067.69" x2="881.38" y2="2067.69" style="stroke:#F0F0F0;stroke-width:9.72"/>
	<line x1="913.78" y1="2067.69" x2="978.58" y2="2067.69" style="stroke:#F0F0F0;stroke-width:9.72"/>
	<line x1="1010.98" y1="2067.69" x2="1075.78" y2="2067.69" style="stroke:#F0F0F0;stroke-width:9.72"/>
	<line x1="1108.18" y1="2067.69" x2="1172.98" y2="2067.69" style="stroke:#F0F0F0;stroke-width:9.72"/>
	<line x1="1205.38" y1="2067.69" x2="1270.18" y2="2067.69" style="stroke:#F0F0F0;stroke-width:9.72"/>
	<line x1="1302.58" y1="2067.69" x2="1367.38" y2="2067.69" style="stroke:#F0F0F0;stroke-width:9.72"/>
	<line x1="1399.78" y1="2067.69" x2="1464.58" y2="2067.69" style="stroke:#F0F0F0;stroke-width:9.72"/>
	<line x1="1496.98" y1="2067.69" x2="1561.78" y2="2067.69" style="stroke:#F0F0F0;stroke-width:9.72"/>
	<line x1="1594.18" y1="2067.69" x2="1658.98" y2="2067.69" style="stroke:#F0F0F0;stroke-width:9.72"/>
	<line x1="1691.38" y1="2067.69" x2="1756.18" y2="2067.69" style="stroke:#F0F0F0;stroke-width:9.72"/>
	<line x1="1788.58" y1="2067.69" x2="1853.38" y2="2067.69" style="stroke:#F0F0F0;stroke-width:9.72"/>
	<line x1="1885.78" y1="2067.69" x2="1950.58" y2="2067.69" style="stroke:#F0F0F0;stroke-width:9.72"/>
	<line x1="1982.98" y1="2067.69" x2="2047.78" y2="2067.69" style="stroke:#F0F0F0;stroke-width:9.72"/>
	<line x1="2080.18" y1="2067.69" x2="2144.98" y2="2067.69" style="stroke:#F0F0F0;stroke-width:9.72"/>
	<line x1="2177.38" y1="2067.69" x2="2242.18" y2="2067.69" style="stroke:#F0F0F0;stroke-width:9.72"/>
	<line x1="2274.58" y1="2067.69" x2="2339.38" y2="2067.69" style="stroke:#F0F0F0;stroke-width:9.72"/>
	<line x1="2371.78" y1="2067.69" x2="2436.58" y2="2067.69" style="stroke:#F0F0F0;stroke-width:9.72"/>
	<line x1="2468.98" y1="2067.69" x2="2533.78" y2="2067.69" style="stroke:#F0F0F0;stroke-width:9.72"/>
	<line x1="2566.18" y1="2067.69" x2="2630.98" y2="2067.69" style="stroke:#F0F0F0;stroke-width:9.72"/>
	<line x1="2663.38" y1="2067.69" x2="2728.18" y2="2067.69" style="stroke:#F0F0F0;stroke-width:9.72"/>
	<line x1="2760.58" y1="2067.69" x2="2825.38" y2="2067.69" style="stroke:#F0F0F0;stroke-width:9.72"/>
	<line x1="2857.78" y1="2067.69" x2="2922.58" y2="2067.69" style="stroke:#F0F0F0;stroke-width:9.72"/>
	<line x1="2954.98" y1="2067.69" x2="3019.78" y2="2067.69" style="stroke:#F0F0F0;stroke-width:9.72"/>
	<line x1="3052.18" y1="2067.69" x2="3116.98" y2="2067.69" style="stroke:#F0F0F0;stroke-width:9.72"/>
	<line x1="3149.38" y1="2067.69" x2="3214.18" y2="2067.69" style="stroke:#F0F0F0;stroke-width:9.72"/>
	<line x1="3246.58" y1="2067.69" x2="3311.38" y2="2067.69" style="stroke:#F0F0F0;stroke-width:9.72"/>
	<line x1="3343.78" y1="2067.69" x2="3408.58" y2="2067.69" style="stroke:#F0F0F0;stroke-width:9.72"/>
	<line x1="3440.98" y1="2067.69" x2="3505.78" y2="2067.69" style="stroke:#F0F0F0;stroke-width:9.72"/>
	<line x1="3538.18" y1="2067.69" x2="3602.98" y2="2067.69" style="stroke:#F0F0F0;stroke-width:9.72"/>
	<line x1="3635.38" y1="2067.69" x2="3700.18" y2="2067.69" style="stroke:#F0F0F0;stroke-width:9.72"/>
	<line x1="3732.58" y1="2067.69" x2="3797.38" y2="2067.69" style="stroke:#F0F0F0;stroke-width:9.72"/>
	<line x1="3829.78" y1="2067.69" x2="3894.58" y2="2067.69" style="stroke:#F0F0F0;stroke-width:9.72"/>
	<line x1="3926.98" y1="2067.69" x2="3991.78" y2="2067.69" style="stroke:#F0F0F0;stroke-width:9.72"/>
	<line x1="4024.18" y1="2067.69" x2="4088.98" y2="2067.69" style="stroke:#F0F0F0;stroke-width:9.72"/>
	<line x1="4121.38" y1="2067.69" x2="4128.64" y2="2067.69" style="stroke:#F0F0F0;stroke-width:9.72"/>
	<line x1="524.98" y1="1439.94" x2="589.78" y2="1439.94" style="stroke:#F0F0F0;stroke-width:9.72"/>
	<line x1="622.18" y1="1439.94" x2="686.98" y2="1439.94" style="stroke:#F0F0F0;stroke-width:9.72"/>
	<line x1="719.38" y1="1439.94" x2="784.18" y2="1439.94" style="stroke:#F0F0F0;stroke-width:9.72"/>
	<line x1="816.58" y1="1439.94" x2="881.38" y2="1439.94" style="stroke:#F0F0F0;stroke-width:9.72"/>
	<line x1="913.78" y1="1439.94" x2="978.58" y2="1439.94" style="stroke:#F0F0F0;stroke-width:9.72"/>
	<line x1="1010.98" y1="1439.94" x2="1075.78" y2="1439.94" style="stroke:#F0F0F0;stroke-width:9.72"/>
	<line x1="1108.18" y1="1439.94" x2="1172.98" y2="1439.94" style="stroke:#F0F0F0;stroke-width:9.72"/>
	<line x1="1205.38" y1="1439.94" x2="1270.18" y2="1439.94" style="stroke:#F0F0F0;stroke-width:9.72"/>
	<line x1="1302.58" y1="1439.94" x2="1367.38" y2="1439.94" style="stroke:#F0F0F0;stroke-width:9.72"/>
	<line x1="1399.78" y1="1439.94" x2="1464.58" y2="1439.94" style="stroke:#F0F0F0;stroke-width:9.72"/>
	<line x1="1496.98" y1="1439.94" x2="1561.78" y2="1439.94" style="stroke:#F0F0F0;stroke-width:9.72"/>
	<line x1="1594.18" y1="1439.94" x2="1658.98" y2="1439.94" style="stroke:#F0F0F0;stroke-width:9.72"/>
	<line x1="1691.38" y1="1439.94" x2="1756.18" y2="1439.94" style="stroke:#F0F0F0;stroke-width:9.72"/>
	<line x1="1788.58" y1="1439.94" x2="1853.38" y2="1439.94" style="stroke:#F0F0F0;stroke-width:9.72"/>
	<line x1="1885.78" y1="1439.94" x2="1950.58" y2="1439.94" style="stroke:#F0F0F0;stroke-width:9.72"/>
	<line x1="1982.98" y1="1439.94" x2="2047.78" y2="1439.94" style="stroke:#F0F0F0;stroke-width:9.72"/>
	<line x1="2080.18" y1="1439.94" x2="2144.98" y2="1439.94" style="stroke:#F0F0F0;stroke-width:9.72"/>
	<line x1="2177.38" y1="1439.94" x2="2242.18" y2="1439.94" style="stroke:#F0F0F0;stroke-width:9.72"/>
	<line x1="2274.58" y1="1439.94" x2="2339.38" y2="1439.94" style="stroke:#F0F0F0;stroke-width:9.72"/>
	<line x1="2371.78" y1="1439.94" x2="2436.58" y2="1439.94" style="stroke:#F0F0F0;stroke-width:9.72"/>
	<line x1="2468.98" y1="1439.94" x2="2533.78" y2="1439.94" style="stroke:#F0F0F0;stroke-width:9.72"/>
	<line x1="2566.18" y1="1439.94" x2="2630.98" y2="1439.94" style="stroke:#F0F0F0;stroke-width:9.72"/>
	<line x1="2663.38" y1="1439.94" x2="2728.18" y2="1439.94" style="stroke:#F0F0F0;stroke-width:9.72"/>
	<line x1="2760.58" y1="1439.94" x2="2825.38" y2="1439.94" style="stroke:#F0F0F0;stroke-width:9.72"/>
	<line x1="2857.78" y1="1439.94" x2="2922.58" y2="1439.94" style="stroke:#F0F0F0;stroke-width:9.72"/>
	<line x1="2954.98" y1="1439.94" x2="3019.78" y2="1439.94" style="stroke:#F0F0F0;stroke-width:9.72"/>
	<line x1="3052.18" y1="1439.94" x2="3116.98" y2="1439.94" style="stroke:#F0F0F0;stroke-width:9.72"/>
	<line x1="3149.38" y1="1439.94" x2="3214.18" y2="1439.94" style="stroke:#F0F0F0;stroke-width:9.72"/>
	<line x1="3246.58" y1="1439.94" x2="3311.38" y2="1439.94" style="stroke:#F0F0F0;stroke-width:9.72"/>
	<line x1="3343.78" y1="1439.94" x2="3408.58" y2="1439.94" style="stroke:#F0F0F0;stroke-width:9.72"/>
	<line x1="3440.98" y1="1439.94" x2="3505.78" y2="1439.94" style="stroke:#F0F0F0;stroke-width:9.72"/>
	<line x1="3538.18" y1="1439.94" x2="3602.98" y2="1439.94" style="stroke:#F0F0F0;stroke-width:9.72"/>
	<line x1="3635.38" y1="1439.94" x2="3700.18" y2="1439.94" style="stroke:#F0F0F0;stroke-width:9.72"/>
	<line x1="3732.58" y1="1439.94" x2="3797.38" y2="1439.94" style="stroke:#F0F0F0;stroke-width:9.72"/>
	<line x1="3829.78" y1="1439.94" x2="3894.58" y2="1439.94" style="stroke:#F0F0F0;stroke-width:9.72"/>
	<line x1="3926.98" y1="1439.94" x2="3991.78" y2="1439.94" style="stroke:#F0F0F0;stroke-width:9.72"/>
	<line x1="4024.18" y1="1439.94" x2="4088.98" y2="1439.94" style="stroke:#F0F0F0;stroke-width:9.72"/>
	<line x1="4121.38" y1="1439.94" x2="4128.64" y2="1439.94" style="stroke:#F0F0F0;stroke-width:9.72"/>
	<line x1="524.98" y1="812.36" x2="589.78" y2="812.36" style="stroke:#F0F0F0;stroke-width:9.72"/>
	<line x1="622.18" y1="812.36" x2="686.98" y2="812.36" style="stroke:#F0F0F0;stroke-width:9.72"/>
	<line x1="719.38" y1="812.36" x2="784.18" y2="812.36" style="stroke:#F0F0F0;stroke-width:9.72"/>
	<line x1="816.58" y1="812.36" x2="881.38" y2="812.36" style="stroke:#F0F0F0;stroke-width:9.72"/>
	<line x1="913.78" y1="812.36" x2="978.58" y2="812.36" style="stroke:#F0F0F0;stroke-width:9.72"/>
	<line x1="1010.98" y1="812.36" x2="1075.78" y2="812.36" style="stroke:#F0F0F0;stroke-width:9.72"/>
	<line x1="1108.18" y1="812.36" x2="1172.98" y2="812.36" style="stroke:#F0F0F0;stroke-width:9.72"/>
	<line x1="1205.38" y1="812.36" x2="1270.18" y2="812.36" style="stroke:#F0F0F0;stroke-width:9.72"/>
	<line x1="1302.58" y1="812.36" x2="1367.38" y2="812.36" style="stroke:#F0F0F0;stroke-width:9.72"/>
	<line x1="1399.78" y1="812.36" x2="1464.58" y2="812.36" style="stroke:#F0F0F0;stroke-width:9.72"/>
	<line x1="1496.98" y1="812.36" x2="1561.78" y2="812.36" style="stroke:#F0F0F0;stroke-width:9.72"/>
	<line x1="1594.18" y1="812.36" x2="1658.98" y2="812.36" style="stroke:#F0F0F0;stroke-width:9.72"/>
	<line x1="1691.38" y1="812.36" x2="1756.18" y2="812.36" style="stroke:#F0F0F0;stroke-width:9.72"/>
	<line x1="1788.58" y1="812.36" x2="1853.38" y2="812.36" style="stroke:#F0F0F0;stroke-width:9.72"/>
	<line x1="1885.78" y1="812.36" x2="1950.58" y2="812.36" style="stroke:#F0F0F0;stroke-width:9.72"/>
	<line x1="1982.98" y1="812.36" x2="2047.78" y2="812.36" style="stroke:#F0F0F0;stroke-width:9.72"/>
	<line x1="2080.18" y1="812.36" x2="2144.98" y2="812.36" style="stroke:#F0F0F0;stroke-width:9.72"/>
	<line x1="2177.38" y1="812.36" x2="2242.18" y2="812.36" style="stroke:#F0F0F0;stroke-width:9.72"/>
	<line x1="2274.58" y1="812.36" x2="2339.38" y2="812.36" style="stroke:#F0F0F0;stroke-width:9.72"/>
	<line x1="2371.78" y1="812.36" x2="2436.58" y2="812.36" style="stroke:#F0F0F0;stroke-width:9.72"/>
	<line x1="2468.98" y1="812.36" x2="2533.78" y2="812.36" style="stroke:#F0F0F0;stroke-width:9.72"/>
	<line x1="2566.18" y1="812.36" x2="2630.98" y2="812.36" style="stroke:#F0F0F0;stroke-width:9.72"/>
	<line x1="2663.38" y1="812.36" x2="2728.18" y2="812.36" style="stroke:#F0F0F0;stroke-width:9.72"/>
	<line x1="2760.58" y1="812.36" x2="2825.38" y2="812.36" style="stroke:#F0F0F0;stroke-width:9.72"/>
	<line x1="2857.78" y1="812.36" x2="2922.58" y2="812.36" style="stroke:#F0F0F0;stroke-width:9.72"/>
	<line x1="2954.98" y1="812.36" x2="3019.78" y2="812.36" style="stroke:#F0F0F0;stroke-width:9.72"/>
	<line x1="3052.18" y1="812.36" x2="3116.98" y2="812.36" style="stroke:#F0F0F0;stroke-width:9.72"/>
	<line x1="3149.38" y1="812.36" x2="3214.18" y2="812.36" style="stroke:#F0F0F0;stroke-width:9.72"/>
	<line x1="3246.58" y1="812.36" x2="3311.38" y2="812.36" style="stroke:#F0F0F0;stroke-width:9.72"/>
	<line x1="3343.78" y1="812.36" x2="3408.58" y2="812.36" style="stroke:#F0F0F0;stroke-width:9.72"/>
	<line x1="3440.98" y1="812.36" x2="3505.78" y2="812.36" style="stroke:#F0F0F0;stroke-width:9.72"/>
	<line x1="3538.18" y1="812.36" x2="3602.98" y2="812.36" style="stroke:#F0F0F0;stroke-width:9.72"/>
	<line x1="3635.38" y1="812.36" x2="3700.18" y2="812.36" style="stroke:#F0F0F0;stroke-width:9.72"/>
	<line x1="3732.58" y1="812.36" x2="3797.38" y2="812.36" style="stroke:#F0F0F0;stroke-width:9.72"/>
	<line x1="3829.78" y1="812.36" x2="3894.58" y2="812.36" style="stroke:#F0F0F0;stroke-width:9.72"/>
	<line x1="3926.98" y1="812.36" x2="3991.78" y2="812.36" style="stroke:#F0F0F0;stroke-width:9.72"/>
	<line x1="4024.18" y1="812.36" x2="4088.98" y2="812.36" style="stroke:#F0F0F0;stroke-width:9.72"/>
	<line x1="4121.38" y1="812.36" x2="4128.64" y2="812.36" style="stroke:#F0F0F0;stroke-width:9.72"/>
	<line x1="524.98" y1="184.61" x2="589.78" y2="184.61" style="stroke:#F0F0F0;stroke-width:9.72"/>
	<line x1="622.18" y1="184.61" x2="686.98" y2="184.61" style="stroke:#F0F0F0;stroke-width:9.72"/>
	<line x1="719.38" y1="184.61" x2="784.18" y2="184.61" style="stroke:#F0F0F0;stroke-width:9.72"/>
	<line x1="816.58" y1="184.61" x2="881.38" y2="184.61" style="stroke:#F0F0F0;stroke-width:9.72"/>
	<line x1="913.78" y1="184.61" x2="978.58" y2="184.61" style="stroke:#F0F0F0;stroke-width:9.72"/>
	<line x1="1010.98" y1="184.61" x2="1075.78" y2="184.61" style="stroke:#F0F0F0;stroke-width:9.72"/>
	<line x1="1108.18" y1="184.61" x2="1172.98" y2="184.61" style="stroke:#F0F0F0;stroke-width:9.72"/>
	<line x1="1205.38" y1="184.61" x2="1270.18" y2="184.61" style="stroke:#F0F0F0;stroke-width:9.72"/>
	<line x1="1302.58" y1="184.61" x2="1367.38" y2="184.61" style="stroke:#F0F0F0;stroke-width:9.72"/>
	<line x1="1399.78" y1="184.61" x2="1464.58" y2="184.61" style="stroke:#F0F0F0;stroke-width:9.72"/>
	<line x1="1496.98" y1="184.61" x2="1561.78" y2="184.61" style="stroke:#F0F0F0;stroke-width:9.72"/>
	<line x1="1594.18" y1="184.61" x2="1658.98" y2="184.61" style="stroke:#F0F0F0;stroke-width:9.72"/>
	<line x1="1691.38" y1="184.61" x2="1756.18" y2="184.61" style="stroke:#F0F0F0;stroke-width:9.72"/>
	<line x1="1788.58" y1="184.61" x2="1853.38" y2="184.61" style="stroke:#F0F0F0;stroke-width:9.72"/>
	<line x1="1885.78" y1="184.61" x2="1950.58" y2="184.61" style="stroke:#F0F0F0;stroke-width:9.72"/>
	<line x1="1982.98" y1="184.61" x2="2047.78" y2="184.61" style="stroke:#F0F0F0;stroke-width:9.72"/>
	<line x1="2080.18" y1="184.61" x2="2144.98" y2="184.61" style="stroke:#F0F0F0;stroke-width:9.72"/>
	<line x1="2177.38" y1="184.61" x2="2242.18" y2="184.61" style="stroke:#F0F0F0;stroke-width:9.72"/>
	<line x1="2274.58" y1="184.61" x2="2339.38" y2="184.61" style="stroke:#F0F0F0;stroke-width:9.72"/>
	<line x1="2371.78" y1="184.61" x2="2436.58" y2="184.61" style="stroke:#F0F0F0;stroke-width:9.72"/>
	<line x1="2468.98" y1="184.61" x2="2533.78" y2="184.61" style="stroke:#F0F0F0;stroke-width:9.72"/>
	<line x1="2566.18" y1="184.61" x2="2630.98" y2="184.61" style="stroke:#F0F0F0;stroke-width:9.72"/>
	<line x1="2663.38" y1="184.61" x2="2728.18" y2="184.61" style="stroke:#F0F0F0;stroke-width:9.72"/>
	<line x1="2760.58" y1="184.61" x2="2825.38" y2="184.61" style="stroke:#F0F0F0;stroke-width:9.72"/>
	<line x1="2857.78" y1="184.61" x2="2922.58" y2="184.61" style="stroke:#F0F0F0;stroke-width:9.72"/>
	<line x1="2954.98" y1="184.61" x2="3019.78" y2="184.61" style="stroke:#F0F0F0;stroke-width:9.72"/>
	<line x1="3052.18" y1="184.61" x2="3116.98" y2="184.61" style="stroke:#F0F0F0;stroke-width:9.72"/>
	<line x1="3149.38" y1="184.61" x2="3214.18" y2="184.61" style="stroke:#F0F0F0;stroke-width:9.72"/>
	<line x1="3246.58" y1="184.61" x2="3311.38" y2="184.61" style="stroke:#F0F0F0;stroke-width:9.72"/>
	<line x1="3343.78" y1="184.61" x2="3408.58" y2="184.61" style="stroke:#F0F0F0;stroke-width:9.72"/>
	<line x1="3440.98" y1="184.61" x2="3505.78" y2="184.61" style="stroke:#F0F0F0;stroke-width:9.72"/>
	<line x1="3538.18" y1="184.61" x2="3602.98" y2="184.61" style="stroke:#F0F0F0;stroke-width:9.72"/>
	<line x1="3635.38" y1="184.61" x2="3700.18" y2="184.61" style="stroke:#F0F0F0;stroke-width:9.72"/>
	<line x1="3732.58" y1="184.61" x2="3797.38" y2="184.61" style="stroke:#F0F0F0;stroke-width:9.72"/>
	<line x1="3829.78" y1="184.61" x2="3894.58" y2="184.61" style="stroke:#F0F0F0;stroke-width:9.72"/>
	<line x1="3926.98" y1="184.61" x2="3991.78" y2="184.61" style="stroke:#F0F0F0;stroke-width:9.72"/>
	<line x1="4024.18" y1="184.61" x2="4088.98" y2="184.61" style="stroke:#F0F0F0;stroke-width:9.72"/>
	<line x1="4121.38" y1="184.61" x2="4128.64" y2="184.61" style="stroke:#F0F0F0;stroke-width:9.72"/>
	<line x1="596.19" y1="2766.66" x2="596.19" y2="2701.86" style="stroke:#F0F0F0;stroke-width:9.72"/>
	<line x1="596.19" y1="2669.46" x2="596.19" y2="2604.66" style="stroke:#F0F0F0;stroke-width:9.72"/>
	<line x1="596.19" y1="2572.26" x2="596.19" y2="2507.46" style="stroke:#F0F0F0;stroke-width:9.72"/>
	<line x1="596.19" y1="2475.06" x2="596.19" y2="2410.26" style="stroke:#F0F0F0;stroke-width:9.72"/>
	<line x1="596.19" y1="2377.86" x2="596.19" y2="2313.06" style="stroke:#F0F0F0;stroke-width:9.72"/>
	<line x1="596.19" y1="2280.66" x2="596.19" y2="2215.86" style="stroke:#F0F0F0;stroke-width:9.72"/>
	<line x1="596.19" y1="2183.46" x2="596.19" y2="2118.66" style="stroke:#F0F0F0;stroke-width:9.72"/>
	<line x1="596.19" y1="2086.26" x2="596.19" y2="2021.46" style="stroke:#F0F0F0;stroke-width:9.72"/>
	<line x1="596.19" y1="1989.06" x2="596.19" y2="1924.26" style="stroke:#F0F0F0;stroke-width:9.72"/>
	<line x1="596.19" y1="1891.86" x2="596.19" y2="1827.06" style="stroke:#F0F0F0;stroke-width:9.72"/>
	<line x1="596.19" y1="1794.66" x2="596.19" y2="1729.86" style="stroke:#F0F0F0;stroke-width:9.72"/>
	<line x1="596.19" y1="1697.46" x2="596.19" y2="1632.66" style="stroke:#F0F0F0;stroke-width:9.72"/>
	<line x1="596.19" y1="1600.26" x2="596.19" y2="1535.46" style="stroke:#F0F0F0;stroke-width:9.72"/>
	<line x1="596.19" y1="1503.06" x2="596.19" y2="1438.26" style="stroke:#F0F0F0;stroke-width:9.72"/>
	<line x1="596.19" y1="1405.86" x2="596.19" y2="1341.06" style="stroke:#F0F0F0;stroke-width:9.72"/>
	<line x1="596.19" y1="1308.66" x2="596.19" y2="1243.86" style="stroke:#F0F0F0;stroke-width:9.72"/>
	<line x1="596.19" y1="1211.46" x2="596.19" y2="1146.66" style="stroke:#F0F0F0;stroke-width:9.72"/>
	<line x1="596.19" y1="1114.26" x2="596.19" y2="1049.46" style="stroke:#F0F0F0;stroke-width:9.72"/>
	<line x1="596.19" y1="1017.06" x2="596.19" y2="952.26" style="stroke:#F0F0F0;stroke-width:9.72"/>
	<line x1="596.19" y1="919.86" x2="596.19" y2="855.06" style="stroke:#F0F0F0;stroke-width:9.72"/>
	<line x1="596.19" y1="822.66" x2="596.19" y2="757.86" style="stroke:#F0F0F0;stroke-width:9.72"/>
	<line x1="596.19" y1="725.46" x2="596.19" y2="660.66" style="stroke:#F0F0F0;stroke-width:9.72"/>
	<line x1="596.19" y1="628.26" x2="596.19" y2="563.46" style="stroke:#F0F0F0;stroke-width:9.72"/>
	<line x1="596.19" y1="531.06" x2="596.19" y2="466.26" style="stroke:#F0F0F0;stroke-width:9.72"/>
	<line x1="596.19" y1="433.86" x2="596.19" y2="369.06" style="stroke:#F0F0F0;stroke-width:9.72"/>
	<line x1="596.19" y1="336.66" x2="596.19" y2="271.86" style="stroke:#F0F0F0;stroke-width:9.72"/>
	<line x1="596.19" y1="239.46" x2="596.19" y2="174.66" style="stroke:#F0F0F0;stroke-width:9.72"/>
	<line x1="596.19" y1="142.26" x2="596.19" y2="113.40" style="stroke:#F0F0F0;stroke-width:9.72"/>
	<line x1="1090.63" y1="2766.66" x2="1090.63" y2="2701.86" style="stroke:#F0F0F0;stroke-width:9.72"/>
	<line x1="1090.63" y1="2669.46" x2="1090.63" y2="2604.66" style="stroke:#F0F0F0;stroke-width:9.72"/>
	<line x1="1090.63" y1="2572.26" x2="1090.63" y2="2507.46" style="stroke:#F0F0F0;stroke-width:9.72"/>
	<line x1="1090.63" y1="2475.06" x2="1090.63" y2="2410.26" style="stroke:#F0F0F0;stroke-width:9.72"/>
	<line x1="1090.63" y1="2377.86" x2="1090.63" y2="2313.06" style="stroke:#F0F0F0;stroke-width:9.72"/>
	<line x1="1090.63" y1="2280.66" x2="1090.63" y2="2215.86" style="stroke:#F0F0F0;stroke-width:9.72"/>
	<line x1="1090.63" y1="2183.46" x2="1090.63" y2="2118.66" style="stroke:#F0F0F0;stroke-width:9.72"/>
	<line x1="1090.63" y1="2086.26" x2="1090.63" y2="2021.46" style="stroke:#F0F0F0;stroke-width:9.72"/>
	<line x1="1090.63" y1="1989.06" x2="1090.63" y2="1924.26" style="stroke:#F0F0F0;stroke-width:9.72"/>
	<line x1="1090.63" y1="1891.86" x2="1090.63" y2="1827.06" style="stroke:#F0F0F0;stroke-width:9.72"/>
	<line x1="1090.63" y1="1794.66" x2="1090.63" y2="1729.86" style="stroke:#F0F0F0;stroke-width:9.72"/>
	<line x1="1090.63" y1="1697.46" x2="1090.63" y2="1632.66" style="stroke:#F0F0F0;stroke-width:9.72"/>
	<line x1="1090.63" y1="1600.26" x2="1090.63" y2="1535.46" style="stroke:#F0F0F0;stroke-width:9.72"/>
	<line x1="1090.63" y1="1503.06" x2="1090.63" y2="1438.26" style="stroke:#F0F0F0;stroke-width:9.72"/>
	<line x1="1090.63" y1="1405.86" x2="1090.63" y2="1341.06" style="stroke:#F0F0F0;stroke-width:9.72"/>
	<line x1="1090.63" y1="1308.66" x2="1090.63" y2="1243.86" style="stroke:#F0F0F0;stroke-width:9.72"/>
	<line x1="1090.63" y1="1211.46" x2="1090.63" y2="1146.66" style="stroke:#F0F0F0;stroke-width:9.72"/>
	<line x1="1090.63" y1="1114.26" x2="1090.63" y2="1049.46" style="stroke:#F0F0F0;stroke-width:9.72"/>
	<line x1="1090.63" y1="1017.06" x2="1090.63" y2="952.26" style="stroke:#F0F0F0;stroke-width:9.72"/>
	<line x1="1090.63" y1="919.86" x2="1090.63" y2="855.06" style="stroke:#F0F0F0;stroke-width:9.72"/>
	<line x1="1090.63" y1="822.66" x2="1090.63" y2="757.86" style="stroke:#F0F0F0;stroke-width:9.72"/>
	<line x1="1090.63" y1="725.46" x2="1090.63" y2="660.66" style="stroke:#F0F0F0;stroke-width:9.72"/>
	<line x1="1090.63" y1="628.26" x2="1090.63" y2="563.46" style="stroke:#F0F0F0;stroke-width:9.72"/>
	<line x1="1090.63" y1="531.06" x2="1090.63" y2="466.26" style="stroke:#F0F0F0;stroke-width:9.72"/>
	<line x1="1090.63" y1="433.86" x2="1090.63" y2="369.06" style="stroke:#F0F0F0;stroke-width:9.72"/>
	<line x1="1090.63" y1="336.66" x2="1090.63" y2="271.86" style="stroke:#F0F0F0;stroke-width:9.72"/>
	<line x1="1090.63" y1="239.46" x2="1090.63" y2="174.66" style="stroke:#F0F0F0;stroke-width:9.72"/>
	<line x1="1090.63" y1="142.26" x2="1090.63" y2="113.40" style="stroke:#F0F0F0;stroke-width:9.72"/>
	<line x1="1585.07" y1="2766.66" x2="1585.07" y2="2701.86" style="stroke:#F0F0F0;stroke-width:9.72"/>
	<line x1="1585.07" y1="2669.46" x2="1585.07" y2="2604.66" style="stroke:#F0F0F0;stroke-width:9.72"/>
	<line x1="1585.07" y1="2572.26" x2="1585.07" y2="2507.46" style="stroke:#F0F0F0;stroke-width:9.72"/>
	<line x1="1585.07" y1="2475.06" x2="1585.07" y2="2410.26" style="stroke:#F0F0F0;stroke-width:9.72"/>
	<line x1="1585.07" y1="2377.86" x2="1585.07" y2="2313.06" style="stroke:#F0F0F0;stroke-width:9.72"/>
	<line x1="1585.07" y1="2280.66" x2="1585.07" y2="2215.86" style="stroke:#F0F0F0;stroke-width:9.72"/>
	<line x1="1585.07" y1="2183.46" x2="1585.07" y2="2118.66" style="stroke:#F0F0F0;stroke-width:9.72"/>
	<line x1="1585.07" y1="2086.26" x2="1585.07" y2="2021.46" style="stroke:#F0F0F0;stroke-width:9.72"/>
	<line x1="1585.07" y1="1989.06" x2="1585.07" y2="1924.26" style="stroke:#F0F0F0;stroke-width:9.72"/>
	<line x1="1585.07" y1="1891.86" x2="1585.07" y2="1827.06" style="stroke:#F0F0F0;stroke-width:9.72"/>
	<line x1="1585.07" y1="1794.66" x2="1585.07" y2="1729.86" style="stroke:#F0F0F0;stroke-width:9.72"/>
	<line x1="1585.07" y1="1697.46" x2="1585.07" y2="1632.66" style="stroke:#F0F0F0;stroke-width:9.72"/>
	<line x1="1585.07" y1="1600.26" x2="1585.07" y2="1535.46" style="stroke:#F0F0F0;stroke-width:9.72"/>
	<line x1="1585.07" y1="1503.06" x2="1585.07" y2="1438.26" style="stroke:#F0F0F0;stroke-width:9.72"/>
	<line x1="1585.07" y1="1405.86" x2="1585.07" y2="1341.06" style="stroke:#F0F0F0;stroke-width:9.72"/>
	<line x1="1585.07" y1="1308.66" x2="1585.07" y2="1243.86" style="stroke:#F0F0F0;stroke-width:9.72"/>
	<line x1="1585.07" y1="1211.46" x2="1585.07" y2="1146.66" style="stroke:#F0F0F0;stroke-width:9.72"/>
	<line x1="1585.07" y1="1114.26" x2="1585.07" y2="1049.46" style="stroke:#F0F0F0;stroke-width:9.72"/>
	<line x1="1585.07" y1="1017.06" x2="1585.07" y2="952.26" style="stroke:#F0F0F0;stroke-width:9.72"/>
	<line x1="1585.07" y1="919.86" x2="1585.07" y2="855.06" style="stroke:#F0F0F0;stroke-width:9.72"/>
	<line x1="1585.07" y1="822.66" x2="1585.07" y2="757.86" style="stroke:#F0F0F0;stroke-width:9.72"/>
	<line x1="1585.07" y1="725.46" x2="1585.07" y2="660.66" style="stroke:#F0F0F0;stroke-width:9.72"/>
	<line x1="1585.07" y1="628.26" x2="1585.07" y2="563.46" style="stroke:#F0F0F0;stroke-width:9.72"/>
	<line x1="1585.07" y1="531.06" x2="1585.07" y2="466.26" style="stroke:#F0F0F0;stroke-width:9.72"/>
	<line x1="1585.07" y1="433.86" x2="1585.07" y2="369.06" style="stroke:#F0F0F0;stroke-width:9.72"/>
	<line x1="1585.07" y1="336.66" x2="1585.07" y2="271.86" style="stroke:#F0F0F0;stroke-width:9.72"/>
	<line x1="1585.07" y1="239.46" x2="1585.07" y2="174.66" style="stroke:#F0F0F0;stroke-width:9.72"/>
	<line x1="1585.07" y1="142.26" x2="1585.07" y2="113.40" style="stroke:#F0F0F0;stroke-width:9.72"/>
	<line x1="2079.68" y1="2766.66" x2="2079.68" y2="2701.86" style="stroke:#F0F0F0;stroke-width:9.72"/>
	<line x1="2079.68" y1="2669.46" x2="2079.68" y2="2604.66" style="stroke:#F0F0F0;stroke-width:9.72"/>
	<line x1="2079.68" y1="2572.26" x2="2079.68" y2="2507.46" style="stroke:#F0F0F0;stroke-width:9.72"/>
	<line x1="2079.68" y1="2475.06" x2="2079.68" y2="2410.26" style="stroke:#F0F0F0;stroke-width:9.72"/>
	<line x1="2079.68" y1="2377.86" x2="2079.68" y2="2313.06" style="stroke:#F0F0F0;stroke-width:9.72"/>
	<line x1="2079.68" y1="2280.66" x2="2079.68" y2="2215.86" style="stroke:#F0F0F0;stroke-width:9.72"/>
	<line x1="2079.68" y1="2183.46" x2="2079.68" y2="2118.66" style="stroke:#F0F0F0;stroke-width:9.72"/>
	<line x1="2079.68" y1="2086.26" x2="2079.68" y2="2021.46" style="stroke:#F0F0F0;stroke-width:9.72"/>
	<line x1="2079.68" y1="1989.06" x2="2079.68" y2="1924.26" style="stroke:#F0F0F0;stroke-width:9.72"/>
	<line x1="2079.68" y1="1891.86" x2="2079.68" y2="1827.06" style="stroke:#F0F0F0;stroke-width:9.72"/>
	<line x1="2079.68" y1="1794.66" x2="2079.68" y2="1729.86" style="stroke:#F0F0F0;stroke-width:9.72"/>
	<line x1="2079.68" y1="1697.46" x2="2079.68" y2="1632.66" style="stroke:#F0F0F0;stroke-width:9.72"/>
	<line x1="2079.68" y1="1600.26" x2="2079.68" y2="1535.46" style="stroke:#F0F0F0;stroke-width:9.72"/>
	<line x1="2079.68" y1="1503.06" x2="2079.68" y2="1438.26" style="stroke:#F0F0F0;stroke-width:9.72"/>
	<line x1="2079.68" y1="1405.86" x2="2079.68" y2="1341.06" style="stroke:#F0F0F0;stroke-width:9.72"/>
	<line x1="2079.68" y1="1308.66" x2="2079.68" y2="1243.86" style="stroke:#F0F0F0;stroke-width:9.72"/>
	<line x1="2079.68" y1="1211.46" x2="2079.68" y2="1146.66" style="stroke:#F0F0F0;stroke-width:9.72"/>
	<line x1="2079.68" y1="1114.26" x2="2079.68" y2="1049.46" style="stroke:#F0F0F0;stroke-width:9.72"/>
	<line x1="2079.68" y1="1017.06" x2="2079.68" y2="952.26" style="stroke:#F0F0F0;stroke-width:9.72"/>
	<line x1="2079.68" y1="919.86" x2="2079.68" y2="855.06" style="stroke:#F0F0F0;stroke-width:9.72"/>
	<line x1="2079.68" y1="822.66" x2="2079.68" y2="757.86" style="stroke:#F0F0F0;stroke-width:9.72"/>
	<line x1="2079.68" y1="725.46" x2="2079.68" y2="660.66" style="stroke:#F0F0F0;stroke-width:9.72"/>
	<line x1="2079.68" y1="628.26" x2="2079.68" y2="563.46" style="stroke:#F0F0F0;stroke-width:9.72"/>
	<line x1="2079.68" y1="531.06" x2="2079.68" y2="466.26" style="stroke:#F0F0F0;stroke-width:9.72"/>
	<line x1="2079.68" y1="433.86" x2="2079.68" y2="369.06" style="stroke:#F0F0F0;stroke-width:9.72"/>
	<line x1="2079.68" y1="336.66" x2="2079.68" y2="271.86" style="stroke:#F0F0F0;stroke-width:9.72"/>
	<line x1="2079.68" y1="239.46" x2="2079.68" y2="174.66" style="stroke:#F0F0F0;stroke-width:9.72"/>
	<line x1="2079.68" y1="142.26" x2="2079.68" y2="113.40" style="stroke:#F0F0F0;stroke-width:9.72"/>
	<line x1="2574.11" y1="2766.66" x2="2574.11" y2="2701.86" style="stroke:#F0F0F0;stroke-width:9.72"/>
	<line x1="2574.11" y1="2669.46" x2="2574.11" y2="2604.66" style="stroke:#F0F0F0;stroke-width:9.72"/>
	<line x1="2574.11" y1="2572.26" x2="2574.11" y2="2507.46" style="stroke:#F0F0F0;stroke-width:9.72"/>
	<line x1="2574.11" y1="2475.06" x2="2574.11" y2="2410.26" style="stroke:#F0F0F0;stroke-width:9.72"/>
	<line x1="2574.11" y1="2377.86" x2="2574.11" y2="2313.06" style="stroke:#F0F0F0;stroke-width:9.72"/>
	<line x1="2574.11" y1="2280.66" x2="2574.11" y2="2215.86" style="stroke:#F0F0F0;stroke-width:9.72"/>
	<line x1="2574.11" y1="2183.46" x2="2574.11" y2="2118.66" style="stroke:#F0F0F0;stroke-width:9.72"/>
	<line x1="2574.11" y1="2086.26" x2="2574.11" y2="2021.46" style="stroke:#F0F0F0;stroke-width:9.72"/>
	<line x1="2574.11" y1="1989.06" x2="2574.11" y2="1924.26" style="stroke:#F0F0F0;stroke-width:9.72"/>
	<line x1="2574.11" y1="1891.86" x2="2574.11" y2="1827.06" style="stroke:#F0F0F0;stroke-width:9.72"/>
	<line x1="2574.11" y1="1794.66" x2="2574.11" y2="1729.86" style="stroke:#F0F0F0;stroke-width:9.72"/>
	<line x1="2574.11" y1="1697.46" x2="2574.11" y2="1632.66" style="stroke:#F0F0F0;stroke-width:9.72"/>
	<line x1="2574.11" y1="1600.26" x2="2574.11" y2="1535.46" style="stroke:#F0F0F0;stroke-width:9.72"/>
	<line x1="2574.11" y1="1503.06" x2="2574.11" y2="1438.26" style="stroke:#F0F0F0;stroke-width:9.72"/>
	<line x1="2574.11" y1="1405.86" x2="2574.11" y2="1341.06" style="stroke:#F0F0F0;stroke-width:9.72"/>
	<line x1="2574.11" y1="1308.66" x2="2574.11" y2="1243.86" style="stroke:#F0F0F0;stroke-width:9.72"/>
	<line x1="2574.11" y1="1211.46" x2="2574.11" y2="1146.66" style="stroke:#F0F0F0;stroke-width:9.72"/>
	<line x1="2574.11" y1="1114.26" x2="2574.11" y2="1049.46" style="stroke:#F0F0F0;stroke-width:9.72"/>
	<line x1="2574.11" y1="1017.06" x2="2574.11" y2="952.26" style="stroke:#F0F0F0;stroke-width:9.72"/>
	<line x1="2574.11" y1="919.86" x2="2574.11" y2="855.06" style="stroke:#F0F0F0;stroke-width:9.72"/>
	<line x1="2574.11" y1="822.66" x2="2574.11" y2="757.86" style="stroke:#F0F0F0;stroke-width:9.72"/>
	<line x1="2574.11" y1="725.46" x2="2574.11" y2="660.66" style="stroke:#F0F0F0;stroke-width:9.72"/>
	<line x1="2574.11" y1="628.26" x2="2574.11" y2="563.46" style="stroke:#F0F0F0;stroke-width:9.72"/>
	<line x1="2574.11" y1="531.06" x2="2574.11" y2="466.26" style="stroke:#F0F0F0;stroke-width:9.72"/>
	<line x1="2574.11" y1="433.86" x2="2574.11" y2="369.06" style="stroke:#F0F0F0;stroke-width:9.72"/>
	<line x1="2574.11" y1="336.66" x2="2574.11" y2="271.86" style="stroke:#F0F0F0;stroke-width:9.72"/>
	<line x1="2574.11" y1="239.46" x2="2574.11" y2="174.66" style="stroke:#F0F0F0;stroke-width:9.72"/>
	<line x1="2574.11" y1="142.26" x2="2574.11" y2="113.40" style="stroke:#F0F0F0;stroke-width:9.72"/>
	<line x1="3068.55" y1="2766.66" x2="3068.55" y2="2701.86" style="stroke:#F0F0F0;stroke-width:9.72"/>
	<line x1="3068.55" y1="2669.46" x2="3068.55" y2="2604.66" style="stroke:#F0F0F0;stroke-width:9.72"/>
	<line x1="3068.55" y1="2572.26" x2="3068.55" y2="2507.46" style="stroke:#F0F0F0;stroke-width:9.72"/>
	<line x1="3068.55" y1="2475.06" x2="3068.55" y2="2410.26" style="stroke:#F0F0F0;stroke-width:9.72"/>
	<line x1="3068.55" y1="2377.86" x2="3068.55" y2="2313.06" style="stroke:#F0F0F0;stroke-width:9.72"/>
	<line x1="3068.55" y1="2280.66" x2="3068.55" y2="2215.86" style="stroke:#F0F0F0;stroke-width:9.72"/>
	<line x1="3068.55" y1="2183.46" x2="3068.55" y2="2118.66" style="stroke:#F0F0F0;stroke-width:9.72"/>
	<line x1="3068.55" y1="2086.26" x2="3068.55" y2="2021.46" style="stroke:#F0F0F0;stroke-width:9.72"/>
	<line x1="3068.55" y1="1989.06" x2="3068.55" y2="1924.26" style="stroke:#F0F0F0;stroke-width:9.72"/>
	<line x1="3068.55" y1="1891.86" x2="3068.55" y2="1827.06" style="stroke:#F0F0F0;stroke-width:9.72"/>
	<line x1="3068.55" y1="1794.66" x2="3068.55" y2="1729.86" style="stroke:#F0F0F0;stroke-width:9.72"/>
	<line x1="3068.55" y1="1697.46" x2="3068.55" y2="1632.66" style="stroke:#F0F0F0;stroke-width:9.72"/>
	<line x1="3068.55" y1="1600.26" x2="3068.55" y2="1535.46" style="stroke:#F0F0F0;stroke-width:9.72"/>
	<line x1="3068.55" y1="1503.06" x2="3068.55" y2="1438.26" style="stroke:#F0F0F0;stroke-width:9.72"/>
	<line x1="3068.55" y1="1405.86" x2="3068.55" y2="1341.06" style="stroke:#F0F0F0;stroke-width:9.72"/>
	<line x1="3068.55" y1="1308.66" x2="3068.55" y2="1243.86" style="stroke:#F0F0F0;stroke-width:9.72"/>
	<line x1="3068.55" y1="1211.46" x2="3068.55" y2="1146.66" style="stroke:#F0F0F0;stroke-width:9.72"/>
	<line x1="3068.55" y1="1114.26" x2="3068.55" y2="1049.46" style="stroke:#F0F0F0;stroke-width:9.72"/>
	<line x1="3068.55" y1="1017.06" x2="3068.55" y2="952.26" style="stroke:#F0F0F0;stroke-width:9.72"/>
	<line x1="3068.55" y1="919.86" x2="3068.55" y2="855.06" style="stroke:#F0F0F0;stroke-width:9.72"/>
	<line x1="3068.55" y1="822.66" x2="3068.55" y2="757.86" style="stroke:#F0F0F0;stroke-width:9.72"/>
	<line x1="3068.55" y1="725.46" x2="3068.55" y2="660.66" style="stroke:#F0F0F0;stroke-width:9.72"/>
	<line x1="3068.55" y1="628.26" x2="3068.55" y2="563.46" style="stroke:#F0F0F0;stroke-width:9.72"/>
	<line x1="3068.55" y1="531.06" x2="3068.55" y2="466.26" style="stroke:#F0F0F0;stroke-width:9.72"/>
	<line x1="3068.55" y1="433.86" x2="3068.55" y2="369.06" style="stroke:#F0F0F0;stroke-width:9.72"/>
	<line x1="3068.55" y1="336.66" x2="3068.55" y2="271.86" style="stroke:#F0F0F0;stroke-width:9.72"/>
	<line x1="3068.55" y1="239.46" x2="3068.55" y2="174.66" style="stroke:#F0F0F0;stroke-width:9.72"/>
	<line x1="3068.55" y1="142.26" x2="3068.55" y2="113.40" style="stroke:#F0F0F0;stroke-width:9.72"/>
	<line x1="3562.99" y1="2766.66" x2="3562.99" y2="2701.86" style="stroke:#F0F0F0;stroke-width:9.72"/>
	<line x1="3562.99" y1="2669.46" x2="3562.99" y2="2604.66" style="stroke:#F0F0F0;stroke-width:9.72"/>
	<line x1="3562.99" y1="2572.26" x2="3562.99" y2="2507.46" style="stroke:#F0F0F0;stroke-width:9.72"/>
	<line x1="3562.99" y1="2475.06" x2="3562.99" y2="2410.26" style="stroke:#F0F0F0;stroke-width:9.72"/>
	<line x1="3562.99" y1="2377.86" x2="3562.99" y2="2313.06" style="stroke:#F0F0F0;stroke-width:9.72"/>
	<line x1="3562.99" y1="2280.66" x2="3562.99" y2="2215.86" style="stroke:#F0F0F0;stroke-width:9.72"/>
	<line x1="3562.99" y1="2183.46" x2="3562.99" y2="2118.66" style="stroke:#F0F0F0;stroke-width:9.72"/>
	<line x1="3562.99" y1="2086.26" x2="3562.99" y2="2021.46" style="stroke:#F0F0F0;stroke-width:9.72"/>
	<line x1="3562.99" y1="1989.06" x2="3562.99" y2="1924.26" style="stroke:#F0F0F0;stroke-width:9.72"/>
	<line x1="3562.99" y1="1891.86" x2="3562.99" y2="1827.06" style="stroke:#F0F0F0;stroke-width:9.72"/>
	<line x1="3562.99" y1="1794.66" x2="3562.99" y2="1729.86" style="stroke:#F0F0F0;stroke-width:9.72"/>
	<line x1="3562.99" y1="1697.46" x2="3562.99" y2="1632.66" style="stroke:#F0F0F0;stroke-width:9.72"/>
	<line x1="3562.99" y1="1600.26" x2="3562.99" y2="1535.46" style="stroke:#F0F0F0;stroke-width:9.72"/>
	<line x1="3562.99" y1="1503.06" x2="3562.99" y2="1438.26" style="stroke:#F0F0F0;stroke-width:9.72"/>
	<line x1="3562.99" y1="1405.86" x2="3562.99" y2="1341.06" style="stroke:#F0F0F0;stroke-width:9.72"/>
	<line x1="3562.99" y1="1308.66" x2="3562.99" y2="1243.86" style="stroke:#F0F0F0;stroke-width:9.72"/>
	<line x1="3562.99" y1="1211.46" x2="3562.99" y2="1146.66" style="stroke:#F0F0F0;stroke-width:9.72"/>
	<line x1="3562.99" y1="1114.26" x2="3562.99" y2="1049.46" style="stroke:#F0F0F0;stroke-width:9.72"/>
	<line x1="3562.99" y1="1017.06" x2="3562.99" y2="952.26" style="stroke:#F0F0F0;stroke-width:9.72"/>
	<line x1="3562.99" y1="919.86" x2="3562.99" y2="855.06" style="stroke:#F0F0F0;stroke-width:9.72"/>
	<line x1="3562.99" y1="822.66" x2="3562.99" y2="757.86" style="stroke:#F0F0F0;stroke-width:9.72"/>
	<line x1="3562.99" y1="725.46" x2="3562.99" y2="660.66" style="stroke:#F0F0F0;stroke-width:9.72"/>
	<line x1="3562.99" y1="628.26" x2="3562.99" y2="563.46" style="stroke:#F0F0F0;stroke-width:9.72"/>
	<line x1="3562.99" y1="531.06" x2="3562.99" y2="466.26" style="stroke:#F0F0F0;stroke-width:9.72"/>
	<line x1="3562.99" y1="433.86" x2="3562.99" y2="369.06" style="stroke:#F0F0F0;stroke-width:9.72"/>
	<line x1="3562.99" y1="336.66" x2="3562.99" y2="271.86" style="stroke:#F0F0F0;stroke-width:9.72"/>
	<line x1="3562.99" y1="239.46" x2="3562.99" y2="174.66" style="stroke:#F0F0F0;stroke-width:9.72"/>
	<line x1="3562.99" y1="142.26" x2="3562.99" y2="113.40" style="stroke:#F0F0F0;stroke-width:9.72"/>
	<line x1="4057.43" y1="2766.66" x2="4057.43" y2="2701.86" style="stroke:#F0F0F0;stroke-width:9.72"/>
	<line x1="4057.43" y1="2669.46" x2="4057.43" y2="2604.66" style="stroke:#F0F0F0;stroke-width:9.72"/>
	<line x1="4057.43" y1="2572.26" x2="4057.43" y2="2507.46" style="stroke:#F0F0F0;stroke-width:9.72"/>
	<line x1="4057.43" y1="2475.06" x2="4057.43" y2="2410.26" style="stroke:#F0F0F0;stroke-width:9.72"/>
	<line x1="4057.43" y1="2377.86" x2="4057.43" y2="2313.06" style="stroke:#F0F0F0;stroke-width:9.72"/>
	<line x1="4057.43" y1="2280.66" x2="4057.43" y2="2215.86" style="stroke:#F0F0F0;stroke-width:9.72"/>
	<line x1="4057.43" y1="2183.46" x2="4057.43" y2="2118.66" style="stroke:#F0F0F0;stroke-width:9.72"/>
	<line x1="4057.43" y1="2086.26" x2="4057.43" y2="2021.46" style="stroke:#F0F0F0;stroke-width:9.72"/>
	<line x1="4057.43" y1="1989.06" x2="4057.43" y2="1924.26" style="stroke:#F0F0F0;stroke-width:9.72"/>
	<line x1="4057.43" y1="1891.86" x2="4057.43" y2="1827.06" style="stroke:#F0F0F0;stroke-width:9.72"/>
	<line x1="4057.43" y1="1794.66" x2="4057.43" y2="1729.86" style="stroke:#F0F0F0;stroke-width:9.72"/>
	<line x1="4057.43" y1="1697.46" x2="4057.43" y2="1632.66" style="stroke:#F0F0F0;stroke-width:9.72"/>
	<line x1="4057.43" y1="1600.26" x2="4057.43" y2="1535.46" style="stroke:#F0F0F0;stroke-width:9.72"/>
	<line x1="4057.43" y1="1503.06" x2="4057.43" y2="1438.26" style="stroke:#F0F0F0;stroke-width:9.72"/>
	<line x1="4057.43" y1="1405.86" x2="4057.43" y2="1341.06" style="stroke:#F0F0F0;stroke-width:9.72"/>
	<line x1="4057.43" y1="1308.66" x2="4057.43" y2="1243.86" style="stroke:#F0F0F0;stroke-width:9.72"/>
	<line x1="4057.43" y1="1211.46" x2="4057.43" y2="1146.66" style="stroke:#F0F0F0;stroke-width:9.72"/>
	<line x1="4057.43" y1="1114.26" x2="4057.43" y2="1049.46" style="stroke:#F0F0F0;stroke-width:9.72"/>
	<line x1="4057.43" y1="1017.06" x2="4057.43" y2="952.26" style="stroke:#F0F0F0;stroke-width:9.72"/>
	<line x1="4057.43" y1="919.86" x2="4057.43" y2="855.06" style="stroke:#F0F0F0;stroke-width:9.72"/>
	<line x1="4057.43" y1="822.66" x2="4057.43" y2="757.86" style="stroke:#F0F0F0;stroke-width:9.72"/>
	<line x1="4057.43" y1="725.46" x2="4057.43" y2="660.66" style="stroke:#F0F0F0;stroke-width:9.72"/>
	<line x1="4057.43" y1="628.26" x2="4057.43" y2="563.46" style="stroke:#F0F0F0;stroke-width:9.72"/>
	<line x1="4057.43" y1="531.06" x2="4057.43" y2="466.26" style="stroke:#F0F0F0;stroke-width:9.72"/>
	<line x1="4057.43" y1="433.86" x2="4057.43" y2="369.06" style="stroke:#F0F0F0;stroke-width:9.72"/>
	<line x1="4057.43" y1="336.66" x2="4057.43" y2="271.86" style="stroke:#F0F0F0;stroke-width:9.72"/>
	<line x1="4057.43" y1="239.46" x2="4057.43" y2="174.66" style="stroke:#F0F0F0;stroke-width:9.72"/>
	<line x1="4057.43" y1="142.26" x2="4057.43" y2="113.40" style="stroke:#F0F0F0;stroke-width:9.72"/>
	<circle cx="596.19" cy="686.81" r="21.74" style="fill:#1A85FF"/>
	<circle cx="596.19" cy="686.81" r="16.88" style="fill:none;stroke:#1A85FF;stroke-width:9.72"/>
	<circle cx="843.41" cy="561.43" r="21.74" style="fill:#1A85FF"/>
	<circle cx="843.41" cy="561.43" r="16.88" style="fill:none;stroke:#1A85FF;stroke-width:9.72"/>
	<circle cx="1090.63" cy="561.43" r="21.74" style="fill:#1A85FF"/>
	<circle cx="1090.63" cy="561.43" r="16.88" style="fill:none;stroke:#1A85FF;stroke-width:9.72"/>
	<circle cx="1337.85" cy="1691.21" r="21.74" style="fill:#1A85FF"/>
	<circle cx="1337.85" cy="1691.21" r="16.88" style="fill:none;stroke:#1A85FF;stroke-width:9.72"/>
	<circle cx="1585.07" cy="1063.46" r="21.74" style="fill:#1A85FF"/>
	<circle cx="1585.07" cy="1063.46" r="16.88" style="fill:none;stroke:#1A85FF;stroke-width:9.72"/>
	<circle cx="1832.29" cy="1440.11" r="21.74" style="fill:#1A85FF"/>
	<circle cx="1832.29" cy="1440.11" r="16.88" style="fill:none;stroke:#1A85FF;stroke-width:9.72"/>
	<circle cx="2079.51" cy="561.43" r="21.74" style="fill:#1A85FF"/>
	<circle cx="2079.51" cy="561.43" r="16.88" style="fill:none;stroke:#1A85FF;stroke-width:9.72"/>
	<circle cx="2326.73" cy="1691.21" r="21.74" style="fill:#1A85FF"/>
	<circle cx="2326.73" cy="1691.21" r="16.88" style="fill:none;stroke:#1A85FF;stroke-width:9.72"/>
	<circle cx="2573.94" cy="1816.76" r="21.74" style="fill:#1A85FF"/>
	<circle cx="2573.94" cy="1816.76" r="16.88" style="fill:none;stroke:#1A85FF;stroke-width:9.72"/>
	<circle cx="2821.16" cy="1816.76" r="21.74" style="fill:#1A85FF"/>
	<circle cx="2821.16" cy="1816.76" r="16.88" style="fill:none;stroke:#1A85FF;stroke-width:9.72"/>
	<circle cx="3068.38" cy="2444.34" r="21.74" style="fill:#1A85FF"/>
	<circle cx="3068.38" cy="2444.34" r="16.88" style="fill:none;stroke:#1A85FF;stroke-width:9.72"/>
	<circle cx="3315.60" cy="2444.34" r="21.74" style="fill:#1A85FF"/>
	<circle cx="3315.60" cy="2444.34" r="16.88" style="fill:none;stroke:#1A85FF;stroke-width:9.72"/>
	<circle cx="3562.82" cy="435.88" r="21.74" style="fill:#1A85FF"/>
	<circle cx="3562.82" cy="435.88" r="16.88" style="fill:none;stroke:#1A85FF;stroke-width:9.72"/>
	<circle cx="3810.04" cy="1565.66" r="21.74" style="fill:#1A85FF"/>
	<circle cx="3810.04" cy="1565.66" r="16.88" style="fill:none;stroke:#1A85FF;stroke-width:9.72"/>
	<circle cx="4057.26" cy="2193.24" r="21.74" style="fill:#1A85FF"/>
	<circle cx="4057.26" cy="2193.24" r="16.88" style="fill:none;stroke:#1A85FF;stroke-width:9.72"/>
	<path d=" M596.19 770.51 L2326.73 1398.26 L4057.26 2025.84" stroke-linejoin="round" style="fill:none;stroke:#D41159;stroke-width:9.72"/>
	<line x1="524.98" y1="2766.66" x2="524.98" y2="113.40" style="stroke:#000000;stroke-width:6.48"/>
	<line x1="524.98" y1="2695.28" x2="479.93" y2="2695.28" style="stroke:#000000;stroke-width:6.48"/>
	<text x="457.48" y="2734.71" style="font-family:'Helvetica';font-size:112.56px;fill:#000000" text-anchor="end">0</text>
	<line x1="524.98" y1="2067.69" x2="479.93" y2="2067.69" style="stroke:#000000;stroke-width:6.48"/>
	<text x="457.48" y="2107.13" style="font-family:'Helvetica';font-size:112.56px;fill:#000000" text-anchor="end">5</text>
	<line x1="524.98" y1="1439.94" x2="479.93" y2="1439.94" style="stroke:#000000;stroke-width:6.48"/>
	<text x="457.48" y="1479.38" style="font-family:'Helvetica';font-size:112.56px;fill:#000000" text-anchor="end">10</text>
	<line x1="524.98" y1="812.36" x2="479.93" y2="812.36" style="stroke:#000000;stroke-width:6.48"/>
	<text x="457.48" y="851.80" style="font-family:'Helvetica';font-size:112.56px;fill:#000000" text-anchor="end">15</text>
	<line x1="524.98" y1="184.61" x2="479.93" y2="184.61" style="stroke:#000000;stroke-width:6.48"/>
	<text x="457.48" y="224.05" style="font-family:'Helvetica';font-size:112.56px;fill:#000000" text-anchor="end">20</text>
	<text x="214.55" y="1439.94" style="font-family:'Helvetica';font-size:112.56px;fill:#000000" transform="rotate(-90 214.55,1439.94)" text-anchor="middle">Kendall tau distance</text>
	<line x1="524.98" y1="2766.66" x2="4128.64" y2="2766.66" style="stroke:#000000;stroke-width:6.48"/>
	<line x1="596.19" y1="2766.66" x2="596.19" y2="2811.54" style="stroke:#000000;stroke-width:6.48"/>
	<text x="596.19" y="2912.86" style="font-family:'Helvetica';font-size:112.56px;fill:#000000" text-anchor="middle">2008</text>
	<line x1="1090.63" y1="2766.66" x2="1090.63" y2="2811.54" style="stroke:#000000;stroke-width:6.48"/>
	<text x="1090.63" y="2912.86" style="font-family:'Helvetica';font-size:112.56px;fill:#000000" text-anchor="middle">2010</text>
	<line x1="1585.07" y1="2766.66" x2="1585.07" y2="2811.54" style="stroke:#000000;stroke-width:6.48"/>
	<text x="1585.07" y="2912.86" style="font-family:'Helvetica';font-size:112.56px;fill:#000000" text-anchor="middle">2012</text>
	<line x1="2079.68" y1="2766.66" x2="2079.68" y2="2811.54" style="stroke:#000000;stroke-width:6.48"/>
	<text x="2079.68" y="2912.86" style="font-family:'Helvetica';font-size:112.56px;fill:#000000" text-anchor="middle">2014</text>
	<line x1="2574.11" y1="2766.66" x2="2574.11" y2="2811.54" style="stroke:#000000;stroke-width:6.48"/>
	<text x="2574.11" y="2912.86" style="font-family:'Helvetica';font-size:112.56px;fill:#000000" text-anchor="middle">2016</text>
	<line x1="3068.55" y1="2766.66" x2="3068.55" y2="2811.54" style="stroke:#000000;stroke-width:6.48"/>
	<text x="3068.55" y="2912.86" style="font-family:'Helvetica';font-size:112.56px;fill:#000000" text-anchor="middle">2018</text>
	<line x1="3562.99" y1="2766.66" x2="3562.99" y2="2811.54" style="stroke:#000000;stroke-width:6.48"/>
	<text x="3562.99" y="2912.86" style="font-family:'Helvetica';font-size:112.56px;fill:#000000" text-anchor="middle">2020</text>
	<line x1="4057.43" y1="2766.66" x2="4057.43" y2="2811.54" style="stroke:#000000;stroke-width:6.48"/>
	<text x="4057.43" y="2912.86" style="font-family:'Helvetica';font-size:112.56px;fill:#000000" text-anchor="middle">2022</text>
	<text x="2326.89" y="3070.31" style="font-family:'Helvetica';font-size:112.56px;fill:#000000" text-anchor="middle">Year</text>
	<rect x="4167.62" y="1256.34" width="1080.17" height="367.20" style="fill:#FFFFFF"/>
	<rect x="4170.86" y="1259.58" width="1073.69" height="360.72" style="fill:none;stroke:#FFFFFF;stroke-width:6.48"/>
	<circle cx="4345.82" cy="1361.31" r="21.74" style="fill:#1A85FF"/>
	<circle cx="4345.82" cy="1361.31" r="16.88" style="fill:none;stroke:#1A85FF;stroke-width:9.72"/>
	<line x1="4216.22" y1="1518.75" x2="4475.42" y2="1518.75" style="stroke:#D41159;stroke-width:9.72"/>
	<text x="4542.92" y="1400.74" style="font-family:'Helvetica';font-size:112.56px;fill:#000000">Distance</text>
	<text x="4542.92" y="1558.19" style="font-family:'Helvetica';font-size:112.56px;fill:#000000">Fitted values</text>
</svg>
