<?xml version="1.0" encoding="UTF-8" standalone="no"?>
<!-- This is a Stata 18.0 generated SVG file (http://www.stata.com) -->

<svg version="1.1" width="6.000in" height="4.000in" viewBox="0 0 4320 2880" xmlns="http://www.w3.org/2000/svg" xmlns:xlink="http://www.w3.org/1999/xlink">
	<desc>Stata Graph - graph1</desc>
	<rect x="0" y="0" width="4320" height="2880" style="fill:#FFFFFF;stroke:none"/>
	<rect x="0.00" y="0.00" width="4320.00" height="2880.00" style="fill:#FFFFFF"/>
	<rect x="2.88" y="2.88" width="4314.24" height="2874.24" style="fill:none;stroke:#FFFFFF;stroke-width:5.76"/>
	<rect x="641.66" y="100.85" width="3577.50" height="2358.35" style="fill:#FFFFFF"/>
	<rect x="644.53" y="103.73" width="3571.74" height="2352.59" style="fill:none;stroke:#FFFFFF;stroke-width:5.76"/>
	<line x1="641.66" y1="2395.88" x2="699.30" y2="2395.88" style="stroke:#F0F0F0;stroke-width:8.64"/>
	<line x1="728.06" y1="2395.88" x2="785.70" y2="2395.88" style="stroke:#F0F0F0;stroke-width:8.64"/>
	<line x1="814.46" y1="2395.88" x2="872.10" y2="2395.88" style="stroke:#F0F0F0;stroke-width:8.64"/>
	<line x1="900.86" y1="2395.88" x2="958.50" y2="2395.88" style="stroke:#F0F0F0;stroke-width:8.64"/>
	<line x1="987.26" y1="2395.88" x2="1044.90" y2="2395.88" style="stroke:#F0F0F0;stroke-width:8.64"/>
	<line x1="1073.66" y1="2395.88" x2="1131.30" y2="2395.88" style="stroke:#F0F0F0;stroke-width:8.64"/>
	<line x1="1160.06" y1="2395.88" x2="1217.70" y2="2395.88" style="stroke:#F0F0F0;stroke-width:8.64"/>
	<line x1="1246.46" y1="2395.88" x2="1304.10" y2="2395.88" style="stroke:#F0F0F0;stroke-width:8.64"/>
	<line x1="1332.86" y1="2395.88" x2="1390.50" y2="2395.88" style="stroke:#F0F0F0;stroke-width:8.64"/>
	<line x1="1419.26" y1="2395.88" x2="1476.90" y2="2395.88" style="stroke:#F0F0F0;stroke-width:8.64"/>
	<line x1="1505.66" y1="2395.88" x2="1563.30" y2="2395.88" style="stroke:#F0F0F0;stroke-width:8.64"/>
	<line x1="1592.06" y1="2395.88" x2="1649.70" y2="2395.88" style="stroke:#F0F0F0;stroke-width:8.64"/>
	<line x1="1678.46" y1="2395.88" x2="1736.10" y2="2395.88" style="stroke:#F0F0F0;stroke-width:8.64"/>
	<line x1="1764.86" y1="2395.88" x2="1822.50" y2="2395.88" style="stroke:#F0F0F0;stroke-width:8.64"/>
	<line x1="1851.26" y1="2395.88" x2="1908.90" y2="2395.88" style="stroke:#F0F0F0;stroke-width:8.64"/>
	<line x1="1937.66" y1="2395.88" x2="1995.30" y2="2395.88" style="stroke:#F0F0F0;stroke-width:8.64"/>
	<line x1="2024.06" y1="2395.88" x2="2081.70" y2="2395.88" style="stroke:#F0F0F0;stroke-width:8.64"/>
	<line x1="2110.46" y1="2395.88" x2="2168.10" y2="2395.88" style="stroke:#F0F0F0;stroke-width:8.64"/>
	<line x1="2196.86" y1="2395.88" x2="2254.50" y2="2395.88" style="stroke:#F0F0F0;stroke-width:8.64"/>
	<line x1="2283.26" y1="2395.88" x2="2340.90" y2="2395.88" style="stroke:#F0F0F0;stroke-width:8.64"/>
	<line x1="2369.66" y1="2395.88" x2="2427.30" y2="2395.88" style="stroke:#F0F0F0;stroke-width:8.64"/>
	<line x1="2456.05" y1="2395.88" x2="2513.70" y2="2395.88" style="stroke:#F0F0F0;stroke-width:8.64"/>
	<line x1="2542.46" y1="2395.88" x2="2600.10" y2="2395.88" style="stroke:#F0F0F0;stroke-width:8.64"/>
	<line x1="2628.86" y1="2395.88" x2="2686.50" y2="2395.88" style="stroke:#F0F0F0;stroke-width:8.64"/>
	<line x1="2715.26" y1="2395.88" x2="2772.90" y2="2395.88" style="stroke:#F0F0F0;stroke-width:8.64"/>
	<line x1="2801.66" y1="2395.88" x2="2859.30" y2="2395.88" style="stroke:#F0F0F0;stroke-width:8.64"/>
	<line x1="2888.06" y1="2395.88" x2="2945.70" y2="2395.88" style="stroke:#F0F0F0;stroke-width:8.64"/>
	<line x1="2974.46" y1="2395.88" x2="3032.10" y2="2395.88" style="stroke:#F0F0F0;stroke-width:8.64"/>
	<line x1="3060.86" y1="2395.88" x2="3118.50" y2="2395.88" style="stroke:#F0F0F0;stroke-width:8.64"/>
	<line x1="3147.26" y1="2395.88" x2="3204.90" y2="2395.88" style="stroke:#F0F0F0;stroke-width:8.64"/>
	<line x1="3233.66" y1="2395.88" x2="3291.30" y2="2395.88" style="stroke:#F0F0F0;stroke-width:8.64"/>
	<line x1="3320.06" y1="2395.88" x2="3377.70" y2="2395.88" style="stroke:#F0F0F0;stroke-width:8.64"/>
	<line x1="3406.46" y1="2395.88" x2="3464.10" y2="2395.88" style="stroke:#F0F0F0;stroke-width:8.64"/>
	<line x1="3492.86" y1="2395.88" x2="3550.50" y2="2395.88" style="stroke:#F0F0F0;stroke-width:8.64"/>
	<line x1="3579.26" y1="2395.88" x2="3636.90" y2="2395.88" style="stroke:#F0F0F0;stroke-width:8.64"/>
	<line x1="3665.66" y1="2395.88" x2="3723.30" y2="2395.88" style="stroke:#F0F0F0;stroke-width:8.64"/>
	<line x1="3752.06" y1="2395.88" x2="3809.70" y2="2395.88" style="stroke:#F0F0F0;stroke-width:8.64"/>
	<line x1="3838.46" y1="2395.88" x2="3896.10" y2="2395.88" style="stroke:#F0F0F0;stroke-width:8.64"/>
	<line x1="3924.86" y1="2395.88" x2="3982.50" y2="2395.88" style="stroke:#F0F0F0;stroke-width:8.64"/>
	<line x1="4011.26" y1="2395.88" x2="4068.90" y2="2395.88" style="stroke:#F0F0F0;stroke-width:8.64"/>
	<line x1="4097.66" y1="2395.88" x2="4155.30" y2="2395.88" style="stroke:#F0F0F0;stroke-width:8.64"/>
	<line x1="4184.06" y1="2395.88" x2="4219.16" y2="2395.88" style="stroke:#F0F0F0;stroke-width:8.64"/>
	<line x1="641.66" y1="1696.30" x2="699.30" y2="1696.30" style="stroke:#F0F0F0;stroke-width:8.64"/>
	<line x1="728.06" y1="1696.30" x2="785.70" y2="1696.30" style="stroke:#F0F0F0;stroke-width:8.64"/>
	<line x1="814.46" y1="1696.30" x2="872.10" y2="1696.30" style="stroke:#F0F0F0;stroke-width:8.64"/>
	<line x1="900.86" y1="1696.30" x2="958.50" y2="1696.30" style="stroke:#F0F0F0;stroke-width:8.64"/>
	<line x1="987.26" y1="1696.30" x2="1044.90" y2="1696.30" style="stroke:#F0F0F0;stroke-width:8.64"/>
	<line x1="1073.66" y1="1696.30" x2="1131.30" y2="1696.30" style="stroke:#F0F0F0;stroke-width:8.64"/>
	<line x1="1160.06" y1="1696.30" x2="1217.70" y2="1696.30" style="stroke:#F0F0F0;stroke-width:8.64"/>
	<line x1="1246.46" y1="1696.30" x2="1304.10" y2="1696.30" style="stroke:#F0F0F0;stroke-width:8.64"/>
	<line x1="1332.86" y1="1696.30" x2="1390.50" y2="1696.30" style="stroke:#F0F0F0;stroke-width:8.64"/>
	<line x1="1419.26" y1="1696.30" x2="1476.90" y2="1696.30" style="stroke:#F0F0F0;stroke-width:8.64"/>
	<line x1="1505.66" y1="1696.30" x2="1563.30" y2="1696.30" style="stroke:#F0F0F0;stroke-width:8.64"/>
	<line x1="1592.06" y1="1696.30" x2="1649.70" y2="1696.30" style="stroke:#F0F0F0;stroke-width:8.64"/>
	<line x1="1678.46" y1="1696.30" x2="1736.10" y2="1696.30" style="stroke:#F0F0F0;stroke-width:8.64"/>
	<line x1="1764.86" y1="1696.30" x2="1822.50" y2="1696.30" style="stroke:#F0F0F0;stroke-width:8.64"/>
	<line x1="1851.26" y1="1696.30" x2="1908.90" y2="1696.30" style="stroke:#F0F0F0;stroke-width:8.64"/>
	<line x1="1937.66" y1="1696.30" x2="1995.30" y2="1696.30" style="stroke:#F0F0F0;stroke-width:8.64"/>
	<line x1="2024.06" y1="1696.30" x2="2081.70" y2="1696.30" style="stroke:#F0F0F0;stroke-width:8.64"/>
	<line x1="2110.46" y1="1696.30" x2="2168.10" y2="1696.30" style="stroke:#F0F0F0;stroke-width:8.64"/>
	<line x1="2196.86" y1="1696.30" x2="2254.50" y2="1696.30" style="stroke:#F0F0F0;stroke-width:8.64"/>
	<line x1="2283.26" y1="1696.30" x2="2340.90" y2="1696.30" style="stroke:#F0F0F0;stroke-width:8.64"/>
	<line x1="2369.66" y1="1696.30" x2="2427.30" y2="1696.30" style="stroke:#F0F0F0;stroke-width:8.64"/>
	<line x1="2456.05" y1="1696.30" x2="2513.70" y2="1696.30" style="stroke:#F0F0F0;stroke-width:8.64"/>
	<line x1="2542.46" y1="1696.30" x2="2600.10" y2="1696.30" style="stroke:#F0F0F0;stroke-width:8.64"/>
	<line x1="2628.86" y1="1696.30" x2="2686.50" y2="1696.30" style="stroke:#F0F0F0;stroke-width:8.64"/>
	<line x1="2715.26" y1="1696.30" x2="2772.90" y2="1696.30" style="stroke:#F0F0F0;stroke-width:8.64"/>
	<line x1="2801.66" y1="1696.30" x2="2859.30" y2="1696.30" style="stroke:#F0F0F0;stroke-width:8.64"/>
	<line x1="2888.06" y1="1696.30" x2="2945.70" y2="1696.30" style="stroke:#F0F0F0;stroke-width:8.64"/>
	<line x1="2974.46" y1="1696.30" x2="3032.10" y2="1696.30" style="stroke:#F0F0F0;stroke-width:8.64"/>
	<line x1="3060.86" y1="1696.30" x2="3118.50" y2="1696.30" style="stroke:#F0F0F0;stroke-width:8.64"/>
	<line x1="3147.26" y1="1696.30" x2="3204.90" y2="1696.30" style="stroke:#F0F0F0;stroke-width:8.64"/>
	<line x1="3233.66" y1="1696.30" x2="3291.30" y2="1696.30" style="stroke:#F0F0F0;stroke-width:8.64"/>
	<line x1="3320.06" y1="1696.30" x2="3377.70" y2="1696.30" style="stroke:#F0F0F0;stroke-width:8.64"/>
	<line x1="3406.46" y1="1696.30" x2="3464.10" y2="1696.30" style="stroke:#F0F0F0;stroke-width:8.64"/>
	<line x1="3492.86" y1="1696.30" x2="3550.50" y2="1696.30" style="stroke:#F0F0F0;stroke-width:8.64"/>
	<line x1="3579.26" y1="1696.30" x2="3636.90" y2="1696.30" style="stroke:#F0F0F0;stroke-width:8.64"/>
	<line x1="3665.66" y1="1696.30" x2="3723.30" y2="1696.30" style="stroke:#F0F0F0;stroke-width:8.64"/>
	<line x1="3752.06" y1="1696.30" x2="3809.70" y2="1696.30" style="stroke:#F0F0F0;stroke-width:8.64"/>
	<line x1="3838.46" y1="1696.30" x2="3896.10" y2="1696.30" style="stroke:#F0F0F0;stroke-width:8.64"/>
	<line x1="3924.86" y1="1696.30" x2="3982.50" y2="1696.30" style="stroke:#F0F0F0;stroke-width:8.64"/>
	<line x1="4011.26" y1="1696.30" x2="4068.90" y2="1696.30" style="stroke:#F0F0F0;stroke-width:8.64"/>
	<line x1="4097.66" y1="1696.30" x2="4155.30" y2="1696.30" style="stroke:#F0F0F0;stroke-width:8.64"/>
	<line x1="4184.06" y1="1696.30" x2="4219.16" y2="1696.30" style="stroke:#F0F0F0;stroke-width:8.64"/>
	<line x1="641.66" y1="996.72" x2="699.30" y2="996.72" style="stroke:#F0F0F0;stroke-width:8.64"/>
	<line x1="728.06" y1="996.72" x2="785.70" y2="996.72" style="stroke:#F0F0F0;stroke-width:8.64"/>
	<line x1="814.46" y1="996.72" x2="872.10" y2="996.72" style="stroke:#F0F0F0;stroke-width:8.64"/>
	<line x1="900.86" y1="996.72" x2="958.50" y2="996.72" style="stroke:#F0F0F0;stroke-width:8.64"/>
	<line x1="987.26" y1="996.72" x2="1044.90" y2="996.72" style="stroke:#F0F0F0;stroke-width:8.64"/>
	<line x1="1073.66" y1="996.72" x2="1131.30" y2="996.72" style="stroke:#F0F0F0;stroke-width:8.64"/>
	<line x1="1160.06" y1="996.72" x2="1217.70" y2="996.72" style="stroke:#F0F0F0;stroke-width:8.64"/>
	<line x1="1246.46" y1="996.72" x2="1304.10" y2="996.72" style="stroke:#F0F0F0;stroke-width:8.64"/>
	<line x1="1332.86" y1="996.72" x2="1390.50" y2="996.72" style="stroke:#F0F0F0;stroke-width:8.64"/>
	<line x1="1419.26" y1="996.72" x2="1476.90" y2="996.72" style="stroke:#F0F0F0;stroke-width:8.64"/>
	<line x1="1505.66" y1="996.72" x2="1563.30" y2="996.72" style="stroke:#F0F0F0;stroke-width:8.64"/>
	<line x1="1592.06" y1="996.72" x2="1649.70" y2="996.72" style="stroke:#F0F0F0;stroke-width:8.64"/>
	<line x1="1678.46" y1="996.72" x2="1736.10" y2="996.72" style="stroke:#F0F0F0;stroke-width:8.64"/>
	<line x1="1764.86" y1="996.72" x2="1822.50" y2="996.72" style="stroke:#F0F0F0;stroke-width:8.64"/>
	<line x1="1851.26" y1="996.72" x2="1908.90" y2="996.72" style="stroke:#F0F0F0;stroke-width:8.64"/>
	<line x1="1937.66" y1="996.72" x2="1995.30" y2="996.72" style="stroke:#F0F0F0;stroke-width:8.64"/>
	<line x1="2024.06" y1="996.72" x2="2081.70" y2="996.72" style="stroke:#F0F0F0;stroke-width:8.64"/>
	<line x1="2110.46" y1="996.72" x2="2168.10" y2="996.72" style="stroke:#F0F0F0;stroke-width:8.64"/>
	<line x1="2196.86" y1="996.72" x2="2254.50" y2="996.72" style="stroke:#F0F0F0;stroke-width:8.64"/>
	<line x1="2283.26" y1="996.72" x2="2340.90" y2="996.72" style="stroke:#F0F0F0;stroke-width:8.64"/>
	<line x1="2369.66" y1="996.72" x2="2427.30" y2="996.72" style="stroke:#F0F0F0;stroke-width:8.64"/>
	<line x1="2456.05" y1="996.72" x2="2513.70" y2="996.72" style="stroke:#F0F0F0;stroke-width:8.64"/>
	<line x1="2542.46" y1="996.72" x2="2600.10" y2="996.72" style="stroke:#F0F0F0;stroke-width:8.64"/>
	<line x1="2628.86" y1="996.72" x2="2686.50" y2="996.72" style="stroke:#F0F0F0;stroke-width:8.64"/>
	<line x1="2715.26" y1="996.72" x2="2772.90" y2="996.72" style="stroke:#F0F0F0;stroke-width:8.64"/>
	<line x1="2801.66" y1="996.72" x2="2859.30" y2="996.72" style="stroke:#F0F0F0;stroke-width:8.64"/>
	<line x1="2888.06" y1="996.72" x2="2945.70" y2="996.72" style="stroke:#F0F0F0;stroke-width:8.64"/>
	<line x1="2974.46" y1="996.72" x2="3032.10" y2="996.72" style="stroke:#F0F0F0;stroke-width:8.64"/>
	<line x1="3060.86" y1="996.72" x2="3118.50" y2="996.72" style="stroke:#F0F0F0;stroke-width:8.64"/>
	<line x1="3147.26" y1="996.72" x2="3204.90" y2="996.72" style="stroke:#F0F0F0;stroke-width:8.64"/>
	<line x1="3233.66" y1="996.72" x2="3291.30" y2="996.72" style="stroke:#F0F0F0;stroke-width:8.64"/>
	<line x1="3320.06" y1="996.72" x2="3377.70" y2="996.72" style="stroke:#F0F0F0;stroke-width:8.64"/>
	<line x1="3406.46" y1="996.72" x2="3464.10" y2="996.72" style="stroke:#F0F0F0;stroke-width:8.64"/>
	<line x1="3492.86" y1="996.72" x2="3550.50" y2="996.72" style="stroke:#F0F0F0;stroke-width:8.64"/>
	<line x1="3579.26" y1="996.72" x2="3636.90" y2="996.72" style="stroke:#F0F0F0;stroke-width:8.64"/>
	<line x1="3665.66" y1="996.72" x2="3723.30" y2="996.72" style="stroke:#F0F0F0;stroke-width:8.64"/>
	<line x1="3752.06" y1="996.72" x2="3809.70" y2="996.72" style="stroke:#F0F0F0;stroke-width:8.64"/>
	<line x1="3838.46" y1="996.72" x2="3896.10" y2="996.72" style="stroke:#F0F0F0;stroke-width:8.64"/>
	<line x1="3924.86" y1="996.72" x2="3982.50" y2="996.72" style="stroke:#F0F0F0;stroke-width:8.64"/>
	<line x1="4011.26" y1="996.72" x2="4068.90" y2="996.72" style="stroke:#F0F0F0;stroke-width:8.64"/>
	<line x1="4097.66" y1="996.72" x2="4155.30" y2="996.72" style="stroke:#F0F0F0;stroke-width:8.64"/>
	<line x1="4184.06" y1="996.72" x2="4219.16" y2="996.72" style="stroke:#F0F0F0;stroke-width:8.64"/>
	<line x1="641.66" y1="297.14" x2="699.30" y2="297.14" style="stroke:#F0F0F0;stroke-width:8.64"/>
	<line x1="728.06" y1="297.14" x2="785.70" y2="297.14" style="stroke:#F0F0F0;stroke-width:8.64"/>
	<line x1="814.46" y1="297.14" x2="872.10" y2="297.14" style="stroke:#F0F0F0;stroke-width:8.64"/>
	<line x1="900.86" y1="297.14" x2="958.50" y2="297.14" style="stroke:#F0F0F0;stroke-width:8.64"/>
	<line x1="987.26" y1="297.14" x2="1044.90" y2="297.14" style="stroke:#F0F0F0;stroke-width:8.64"/>
	<line x1="1073.66" y1="297.14" x2="1131.30" y2="297.14" style="stroke:#F0F0F0;stroke-width:8.64"/>
	<line x1="1160.06" y1="297.14" x2="1217.70" y2="297.14" style="stroke:#F0F0F0;stroke-width:8.64"/>
	<line x1="1246.46" y1="297.14" x2="1304.10" y2="297.14" style="stroke:#F0F0F0;stroke-width:8.64"/>
	<line x1="1332.86" y1="297.14" x2="1390.50" y2="297.14" style="stroke:#F0F0F0;stroke-width:8.64"/>
	<line x1="1419.26" y1="297.14" x2="1476.90" y2="297.14" style="stroke:#F0F0F0;stroke-width:8.64"/>
	<line x1="1505.66" y1="297.14" x2="1563.30" y2="297.14" style="stroke:#F0F0F0;stroke-width:8.64"/>
	<line x1="1592.06" y1="297.14" x2="1649.70" y2="297.14" style="stroke:#F0F0F0;stroke-width:8.64"/>
	<line x1="1678.46" y1="297.14" x2="1736.10" y2="297.14" style="stroke:#F0F0F0;stroke-width:8.64"/>
	<line x1="1764.86" y1="297.14" x2="1822.50" y2="297.14" style="stroke:#F0F0F0;stroke-width:8.64"/>
	<line x1="1851.26" y1="297.14" x2="1908.90" y2="297.14" style="stroke:#F0F0F0;stroke-width:8.64"/>
	<line x1="1937.66" y1="297.14" x2="1995.30" y2="297.14" style="stroke:#F0F0F0;stroke-width:8.64"/>
	<line x1="2024.06" y1="297.14" x2="2081.70" y2="297.14" style="stroke:#F0F0F0;stroke-width:8.64"/>
	<line x1="2110.46" y1="297.14" x2="2168.10" y2="297.14" style="stroke:#F0F0F0;stroke-width:8.64"/>
	<line x1="2196.86" y1="297.14" x2="2254.50" y2="297.14" style="stroke:#F0F0F0;stroke-width:8.64"/>
	<line x1="2283.26" y1="297.14" x2="2340.90" y2="297.14" style="stroke:#F0F0F0;stroke-width:8.64"/>
	<line x1="2369.66" y1="297.14" x2="2427.30" y2="297.14" style="stroke:#F0F0F0;stroke-width:8.64"/>
	<line x1="2456.05" y1="297.14" x2="2513.70" y2="297.14" style="stroke:#F0F0F0;stroke-width:8.64"/>
	<line x1="2542.46" y1="297.14" x2="2600.10" y2="297.14" style="stroke:#F0F0F0;stroke-width:8.64"/>
	<line x1="2628.86" y1="297.14" x2="2686.50" y2="297.14" style="stroke:#F0F0F0;stroke-width:8.64"/>
	<line x1="2715.26" y1="297.14" x2="2772.90" y2="297.14" style="stroke:#F0F0F0;stroke-width:8.64"/>
	<line x1="2801.66" y1="297.14" x2="2859.30" y2="297.14" style="stroke:#F0F0F0;stroke-width:8.64"/>
	<line x1="2888.06" y1="297.14" x2="2945.70" y2="297.14" style="stroke:#F0F0F0;stroke-width:8.64"/>
	<line x1="2974.46" y1="297.14" x2="3032.10" y2="297.14" style="stroke:#F0F0F0;stroke-width:8.64"/>
	<line x1="3060.86" y1="297.14" x2="3118.50" y2="297.14" style="stroke:#F0F0F0;stroke-width:8.64"/>
	<line x1="3147.26" y1="297.14" x2="3204.90" y2="297.14" style="stroke:#F0F0F0;stroke-width:8.64"/>
	<line x1="3233.66" y1="297.14" x2="3291.30" y2="297.14" style="stroke:#F0F0F0;stroke-width:8.64"/>
	<line x1="3320.06" y1="297.14" x2="3377.70" y2="297.14" style="stroke:#F0F0F0;stroke-width:8.64"/>
	<line x1="3406.46" y1="297.14" x2="3464.10" y2="297.14" style="stroke:#F0F0F0;stroke-width:8.64"/>
	<line x1="3492.86" y1="297.14" x2="3550.50" y2="297.14" style="stroke:#F0F0F0;stroke-width:8.64"/>
	<line x1="3579.26" y1="297.14" x2="3636.90" y2="297.14" style="stroke:#F0F0F0;stroke-width:8.64"/>
	<line x1="3665.66" y1="297.14" x2="3723.30" y2="297.14" style="stroke:#F0F0F0;stroke-width:8.64"/>
	<line x1="3752.06" y1="297.14" x2="3809.70" y2="297.14" style="stroke:#F0F0F0;stroke-width:8.64"/>
	<line x1="3838.46" y1="297.14" x2="3896.10" y2="297.14" style="stroke:#F0F0F0;stroke-width:8.64"/>
	<line x1="3924.86" y1="297.14" x2="3982.50" y2="297.14" style="stroke:#F0F0F0;stroke-width:8.64"/>
	<line x1="4011.26" y1="297.14" x2="4068.90" y2="297.14" style="stroke:#F0F0F0;stroke-width:8.64"/>
	<line x1="4097.66" y1="297.14" x2="4155.30" y2="297.14" style="stroke:#F0F0F0;stroke-width:8.64"/>
	<line x1="4184.06" y1="297.14" x2="4219.16" y2="297.14" style="stroke:#F0F0F0;stroke-width:8.64"/>
	<line x1="4155.84" y1="2459.20" x2="4155.84" y2="2401.55" style="stroke:#F0F0F0;stroke-width:8.64"/>
	<line x1="4155.84" y1="2372.80" x2="4155.84" y2="2315.15" style="stroke:#F0F0F0;stroke-width:8.64"/>
	<line x1="4155.84" y1="2286.40" x2="4155.84" y2="2228.75" style="stroke:#F0F0F0;stroke-width:8.64"/>
	<line x1="4155.84" y1="2199.99" x2="4155.84" y2="2142.35" style="stroke:#F0F0F0;stroke-width:8.64"/>
	<line x1="4155.84" y1="2113.59" x2="4155.84" y2="2055.95" style="stroke:#F0F0F0;stroke-width:8.64"/>
	<line x1="4155.84" y1="2027.19" x2="4155.84" y2="1969.55" style="stroke:#F0F0F0;stroke-width:8.64"/>
	<line x1="4155.84" y1="1940.79" x2="4155.84" y2="1883.14" style="stroke:#F0F0F0;stroke-width:8.64"/>
	<line x1="4155.84" y1="1854.39" x2="4155.84" y2="1796.74" style="stroke:#F0F0F0;stroke-width:8.64"/>
	<line x1="4155.84" y1="1767.99" x2="4155.84" y2="1710.34" style="stroke:#F0F0F0;stroke-width:8.64"/>
	<line x1="4155.84" y1="1681.59" x2="4155.84" y2="1623.94" style="stroke:#F0F0F0;stroke-width:8.64"/>
	<line x1="4155.84" y1="1595.18" x2="4155.84" y2="1537.54" style="stroke:#F0F0F0;stroke-width:8.64"/>
	<line x1="4155.84" y1="1508.78" x2="4155.84" y2="1451.14" style="stroke:#F0F0F0;stroke-width:8.64"/>
	<line x1="4155.84" y1="1422.38" x2="4155.84" y2="1364.74" style="stroke:#F0F0F0;stroke-width:8.64"/>
	<line x1="4155.84" y1="1335.98" x2="4155.84" y2="1278.33" style="stroke:#F0F0F0;stroke-width:8.64"/>
	<line x1="4155.84" y1="1249.58" x2="4155.84" y2="1191.93" style="stroke:#F0F0F0;stroke-width:8.64"/>
	<line x1="4155.84" y1="1163.18" x2="4155.84" y2="1105.53" style="stroke:#F0F0F0;stroke-width:8.64"/>
	<line x1="4155.84" y1="1076.78" x2="4155.84" y2="1019.13" style="stroke:#F0F0F0;stroke-width:8.64"/>
	<line x1="4155.84" y1="990.38" x2="4155.84" y2="932.73" style="stroke:#F0F0F0;stroke-width:8.64"/>
	<line x1="4155.84" y1="903.97" x2="4155.84" y2="846.33" style="stroke:#F0F0F0;stroke-width:8.64"/>
	<line x1="4155.84" y1="817.57" x2="4155.84" y2="759.93" style="stroke:#F0F0F0;stroke-width:8.64"/>
	<line x1="4155.84" y1="731.17" x2="4155.84" y2="673.53" style="stroke:#F0F0F0;stroke-width:8.64"/>
	<line x1="4155.84" y1="644.77" x2="4155.84" y2="587.12" style="stroke:#F0F0F0;stroke-width:8.64"/>
	<line x1="4155.84" y1="558.37" x2="4155.84" y2="500.72" style="stroke:#F0F0F0;stroke-width:8.64"/>
	<line x1="4155.84" y1="471.97" x2="4155.84" y2="414.32" style="stroke:#F0F0F0;stroke-width:8.64"/>
	<line x1="4155.84" y1="385.57" x2="4155.84" y2="327.92" style="stroke:#F0F0F0;stroke-width:8.64"/>
	<line x1="4155.84" y1="299.16" x2="4155.84" y2="241.52" style="stroke:#F0F0F0;stroke-width:8.64"/>
	<line x1="4155.84" y1="212.76" x2="4155.84" y2="155.12" style="stroke:#F0F0F0;stroke-width:8.64"/>
	<line x1="4155.84" y1="126.36" x2="4155.84" y2="100.85" style="stroke:#F0F0F0;stroke-width:8.64"/>
	<line x1="3465.59" y1="2459.20" x2="3465.59" y2="2401.55" style="stroke:#F0F0F0;stroke-width:8.64"/>
	<line x1="3465.59" y1="2372.80" x2="3465.59" y2="2315.15" style="stroke:#F0F0F0;stroke-width:8.64"/>
	<line x1="3465.59" y1="2286.40" x2="3465.59" y2="2228.75" style="stroke:#F0F0F0;stroke-width:8.64"/>
	<line x1="3465.59" y1="2199.99" x2="3465.59" y2="2142.35" style="stroke:#F0F0F0;stroke-width:8.64"/>
	<line x1="3465.59" y1="2113.59" x2="3465.59" y2="2055.95" style="stroke:#F0F0F0;stroke-width:8.64"/>
	<line x1="3465.59" y1="2027.19" x2="3465.59" y2="1969.55" style="stroke:#F0F0F0;stroke-width:8.64"/>
	<line x1="3465.59" y1="1940.79" x2="3465.59" y2="1883.14" style="stroke:#F0F0F0;stroke-width:8.64"/>
	<line x1="3465.59" y1="1854.39" x2="3465.59" y2="1796.74" style="stroke:#F0F0F0;stroke-width:8.64"/>
	<line x1="3465.59" y1="1767.99" x2="3465.59" y2="1710.34" style="stroke:#F0F0F0;stroke-width:8.64"/>
	<line x1="3465.59" y1="1681.59" x2="3465.59" y2="1623.94" style="stroke:#F0F0F0;stroke-width:8.64"/>
	<line x1="3465.59" y1="1595.18" x2="3465.59" y2="1537.54" style="stroke:#F0F0F0;stroke-width:8.64"/>
	<line x1="3465.59" y1="1508.78" x2="3465.59" y2="1451.14" style="stroke:#F0F0F0;stroke-width:8.64"/>
	<line x1="3465.59" y1="1422.38" x2="3465.59" y2="1364.74" style="stroke:#F0F0F0;stroke-width:8.64"/>
	<line x1="3465.59" y1="1335.98" x2="3465.59" y2="1278.33" style="stroke:#F0F0F0;stroke-width:8.64"/>
	<line x1="3465.59" y1="1249.58" x2="3465.59" y2="1191.93" style="stroke:#F0F0F0;stroke-width:8.64"/>
	<line x1="3465.59" y1="1163.18" x2="3465.59" y2="1105.53" style="stroke:#F0F0F0;stroke-width:8.64"/>
	<line x1="3465.59" y1="1076.78" x2="3465.59" y2="1019.13" style="stroke:#F0F0F0;stroke-width:8.64"/>
	<line x1="3465.59" y1="990.38" x2="3465.59" y2="932.73" style="stroke:#F0F0F0;stroke-width:8.64"/>
	<line x1="3465.59" y1="903.97" x2="3465.59" y2="846.33" style="stroke:#F0F0F0;stroke-width:8.64"/>
	<line x1="3465.59" y1="817.57" x2="3465.59" y2="759.93" style="stroke:#F0F0F0;stroke-width:8.64"/>
	<line x1="3465.59" y1="731.17" x2="3465.59" y2="673.53" style="stroke:#F0F0F0;stroke-width:8.64"/>
	<line x1="3465.59" y1="644.77" x2="3465.59" y2="587.12" style="stroke:#F0F0F0;stroke-width:8.64"/>
	<line x1="3465.59" y1="558.37" x2="3465.59" y2="500.72" style="stroke:#F0F0F0;stroke-width:8.64"/>
	<line x1="3465.59" y1="471.97" x2="3465.59" y2="414.32" style="stroke:#F0F0F0;stroke-width:8.64"/>
	<line x1="3465.59" y1="385.57" x2="3465.59" y2="327.92" style="stroke:#F0F0F0;stroke-width:8.64"/>
	<line x1="3465.59" y1="299.16" x2="3465.59" y2="241.52" style="stroke:#F0F0F0;stroke-width:8.64"/>
	<line x1="3465.59" y1="212.76" x2="3465.59" y2="155.12" style="stroke:#F0F0F0;stroke-width:8.64"/>
	<line x1="3465.59" y1="126.36" x2="3465.59" y2="100.85" style="stroke:#F0F0F0;stroke-width:8.64"/>
	<line x1="2775.47" y1="2459.20" x2="2775.47" y2="2401.55" style="stroke:#F0F0F0;stroke-width:8.64"/>
	<line x1="2775.47" y1="2372.80" x2="2775.47" y2="2315.15" style="stroke:#F0F0F0;stroke-width:8.64"/>
	<line x1="2775.47" y1="2286.40" x2="2775.47" y2="2228.75" style="stroke:#F0F0F0;stroke-width:8.64"/>
	<line x1="2775.47" y1="2199.99" x2="2775.47" y2="2142.35" style="stroke:#F0F0F0;stroke-width:8.64"/>
	<line x1="2775.47" y1="2113.59" x2="2775.47" y2="2055.95" style="stroke:#F0F0F0;stroke-width:8.64"/>
	<line x1="2775.47" y1="2027.19" x2="2775.47" y2="1969.55" style="stroke:#F0F0F0;stroke-width:8.64"/>
	<line x1="2775.47" y1="1940.79" x2="2775.47" y2="1883.14" style="stroke:#F0F0F0;stroke-width:8.64"/>
	<line x1="2775.47" y1="1854.39" x2="2775.47" y2="1796.74" style="stroke:#F0F0F0;stroke-width:8.64"/>
	<line x1="2775.47" y1="1767.99" x2="2775.47" y2="1710.34" style="stroke:#F0F0F0;stroke-width:8.64"/>
	<line x1="2775.47" y1="1681.59" x2="2775.47" y2="1623.94" style="stroke:#F0F0F0;stroke-width:8.64"/>
	<line x1="2775.47" y1="1595.18" x2="2775.47" y2="1537.54" style="stroke:#F0F0F0;stroke-width:8.64"/>
	<line x1="2775.47" y1="1508.78" x2="2775.47" y2="1451.14" style="stroke:#F0F0F0;stroke-width:8.64"/>
	<line x1="2775.47" y1="1422.38" x2="2775.47" y2="1364.74" style="stroke:#F0F0F0;stroke-width:8.64"/>
	<line x1="2775.47" y1="1335.98" x2="2775.47" y2="1278.33" style="stroke:#F0F0F0;stroke-width:8.64"/>
	<line x1="2775.47" y1="1249.58" x2="2775.47" y2="1191.93" style="stroke:#F0F0F0;stroke-width:8.64"/>
	<line x1="2775.47" y1="1163.18" x2="2775.47" y2="1105.53" style="stroke:#F0F0F0;stroke-width:8.64"/>
	<line x1="2775.47" y1="1076.78" x2="2775.47" y2="1019.13" style="stroke:#F0F0F0;stroke-width:8.64"/>
	<line x1="2775.47" y1="990.38" x2="2775.47" y2="932.73" style="stroke:#F0F0F0;stroke-width:8.64"/>
	<line x1="2775.47" y1="903.97" x2="2775.47" y2="846.33" style="stroke:#F0F0F0;stroke-width:8.64"/>
	<line x1="2775.47" y1="817.57" x2="2775.47" y2="759.93" style="stroke:#F0F0F0;stroke-width:8.64"/>
	<line x1="2775.47" y1="731.17" x2="2775.47" y2="673.53" style="stroke:#F0F0F0;stroke-width:8.64"/>
	<line x1="2775.47" y1="644.77" x2="2775.47" y2="587.12" style="stroke:#F0F0F0;stroke-width:8.64"/>
	<line x1="2775.47" y1="558.37" x2="2775.47" y2="500.72" style="stroke:#F0F0F0;stroke-width:8.64"/>
	<line x1="2775.47" y1="471.97" x2="2775.47" y2="414.32" style="stroke:#F0F0F0;stroke-width:8.64"/>
	<line x1="2775.47" y1="385.57" x2="2775.47" y2="327.92" style="stroke:#F0F0F0;stroke-width:8.64"/>
	<line x1="2775.47" y1="299.16" x2="2775.47" y2="241.52" style="stroke:#F0F0F0;stroke-width:8.64"/>
	<line x1="2775.47" y1="212.76" x2="2775.47" y2="155.12" style="stroke:#F0F0F0;stroke-width:8.64"/>
	<line x1="2775.47" y1="126.36" x2="2775.47" y2="100.85" style="stroke:#F0F0F0;stroke-width:8.64"/>
	<line x1="2085.34" y1="2459.20" x2="2085.34" y2="2401.55" style="stroke:#F0F0F0;stroke-width:8.64"/>
	<line x1="2085.34" y1="2372.80" x2="2085.34" y2="2315.15" style="stroke:#F0F0F0;stroke-width:8.64"/>
	<line x1="2085.34" y1="2286.40" x2="2085.34" y2="2228.75" style="stroke:#F0F0F0;stroke-width:8.64"/>
	<line x1="2085.34" y1="2199.99" x2="2085.34" y2="2142.35" style="stroke:#F0F0F0;stroke-width:8.64"/>
	<line x1="2085.34" y1="2113.59" x2="2085.34" y2="2055.95" style="stroke:#F0F0F0;stroke-width:8.64"/>
	<line x1="2085.34" y1="2027.19" x2="2085.34" y2="1969.55" style="stroke:#F0F0F0;stroke-width:8.64"/>
	<line x1="2085.34" y1="1940.79" x2="2085.34" y2="1883.14" style="stroke:#F0F0F0;stroke-width:8.64"/>
	<line x1="2085.34" y1="1854.39" x2="2085.34" y2="1796.74" style="stroke:#F0F0F0;stroke-width:8.64"/>
	<line x1="2085.34" y1="1767.99" x2="2085.34" y2="1710.34" style="stroke:#F0F0F0;stroke-width:8.64"/>
	<line x1="2085.34" y1="1681.59" x2="2085.34" y2="1623.94" style="stroke:#F0F0F0;stroke-width:8.64"/>
	<line x1="2085.34" y1="1595.18" x2="2085.34" y2="1537.54" style="stroke:#F0F0F0;stroke-width:8.64"/>
	<line x1="2085.34" y1="1508.78" x2="2085.34" y2="1451.14" style="stroke:#F0F0F0;stroke-width:8.64"/>
	<line x1="2085.34" y1="1422.38" x2="2085.34" y2="1364.74" style="stroke:#F0F0F0;stroke-width:8.64"/>
	<line x1="2085.34" y1="1335.98" x2="2085.34" y2="1278.33" style="stroke:#F0F0F0;stroke-width:8.64"/>
	<line x1="2085.34" y1="1249.58" x2="2085.34" y2="1191.93" style="stroke:#F0F0F0;stroke-width:8.64"/>
	<line x1="2085.34" y1="1163.18" x2="2085.34" y2="1105.53" style="stroke:#F0F0F0;stroke-width:8.64"/>
	<line x1="2085.34" y1="1076.78" x2="2085.34" y2="1019.13" style="stroke:#F0F0F0;stroke-width:8.64"/>
	<line x1="2085.34" y1="990.38" x2="2085.34" y2="932.73" style="stroke:#F0F0F0;stroke-width:8.64"/>
	<line x1="2085.34" y1="903.97" x2="2085.34" y2="846.33" style="stroke:#F0F0F0;stroke-width:8.64"/>
	<line x1="2085.34" y1="817.57" x2="2085.34" y2="759.93" style="stroke:#F0F0F0;stroke-width:8.64"/>
	<line x1="2085.34" y1="731.17" x2="2085.34" y2="673.53" style="stroke:#F0F0F0;stroke-width:8.64"/>
	<line x1="2085.34" y1="644.77" x2="2085.34" y2="587.12" style="stroke:#F0F0F0;stroke-width:8.64"/>
	<line x1="2085.34" y1="558.37" x2="2085.34" y2="500.72" style="stroke:#F0F0F0;stroke-width:8.64"/>
	<line x1="2085.34" y1="471.97" x2="2085.34" y2="414.32" style="stroke:#F0F0F0;stroke-width:8.64"/>
	<line x1="2085.34" y1="385.57" x2="2085.34" y2="327.92" style="stroke:#F0F0F0;stroke-width:8.64"/>
	<line x1="2085.34" y1="299.16" x2="2085.34" y2="241.52" style="stroke:#F0F0F0;stroke-width:8.64"/>
	<line x1="2085.34" y1="212.76" x2="2085.34" y2="155.12" style="stroke:#F0F0F0;stroke-width:8.64"/>
	<line x1="2085.34" y1="126.36" x2="2085.34" y2="100.85" style="stroke:#F0F0F0;stroke-width:8.64"/>
	<line x1="1395.09" y1="2459.20" x2="1395.09" y2="2401.55" style="stroke:#F0F0F0;stroke-width:8.64"/>
	<line x1="1395.09" y1="2372.80" x2="1395.09" y2="2315.15" style="stroke:#F0F0F0;stroke-width:8.64"/>
	<line x1="1395.09" y1="2286.40" x2="1395.09" y2="2228.75" style="stroke:#F0F0F0;stroke-width:8.64"/>
	<line x1="1395.09" y1="2199.99" x2="1395.09" y2="2142.35" style="stroke:#F0F0F0;stroke-width:8.64"/>
	<line x1="1395.09" y1="2113.59" x2="1395.09" y2="2055.95" style="stroke:#F0F0F0;stroke-width:8.64"/>
	<line x1="1395.09" y1="2027.19" x2="1395.09" y2="1969.55" style="stroke:#F0F0F0;stroke-width:8.64"/>
	<line x1="1395.09" y1="1940.79" x2="1395.09" y2="1883.14" style="stroke:#F0F0F0;stroke-width:8.64"/>
	<line x1="1395.09" y1="1854.39" x2="1395.09" y2="1796.74" style="stroke:#F0F0F0;stroke-width:8.64"/>
	<line x1="1395.09" y1="1767.99" x2="1395.09" y2="1710.34" style="stroke:#F0F0F0;stroke-width:8.64"/>
	<line x1="1395.09" y1="1681.59" x2="1395.09" y2="1623.94" style="stroke:#F0F0F0;stroke-width:8.64"/>
	<line x1="1395.09" y1="1595.18" x2="1395.09" y2="1537.54" style="stroke:#F0F0F0;stroke-width:8.64"/>
	<line x1="1395.09" y1="1508.78" x2="1395.09" y2="1451.14" style="stroke:#F0F0F0;stroke-width:8.64"/>
	<line x1="1395.09" y1="1422.38" x2="1395.09" y2="1364.74" style="stroke:#F0F0F0;stroke-width:8.64"/>
	<line x1="1395.09" y1="1335.98" x2="1395.09" y2="1278.33" style="stroke:#F0F0F0;stroke-width:8.64"/>
	<line x1="1395.09" y1="1249.58" x2="1395.09" y2="1191.93" style="stroke:#F0F0F0;stroke-width:8.64"/>
	<line x1="1395.09" y1="1163.18" x2="1395.09" y2="1105.53" style="stroke:#F0F0F0;stroke-width:8.64"/>
	<line x1="1395.09" y1="1076.78" x2="1395.09" y2="1019.13" style="stroke:#F0F0F0;stroke-width:8.64"/>
	<line x1="1395.09" y1="990.38" x2="1395.09" y2="932.73" style="stroke:#F0F0F0;stroke-width:8.64"/>
	<line x1="1395.09" y1="903.97" x2="1395.09" y2="846.33" style="stroke:#F0F0F0;stroke-width:8.64"/>
	<line x1="1395.09" y1="817.57" x2="1395.09" y2="759.93" style="stroke:#F0F0F0;stroke-width:8.64"/>
	<line x1="1395.09" y1="731.17" x2="1395.09" y2="673.53" style="stroke:#F0F0F0;stroke-width:8.64"/>
	<line x1="1395.09" y1="644.77" x2="1395.09" y2="587.12" style="stroke:#F0F0F0;stroke-width:8.64"/>
	<line x1="1395.09" y1="558.37" x2="1395.09" y2="500.72" style="stroke:#F0F0F0;stroke-width:8.64"/>
	<line x1="1395.09" y1="471.97" x2="1395.09" y2="414.32" style="stroke:#F0F0F0;stroke-width:8.64"/>
	<line x1="1395.09" y1="385.57" x2="1395.09" y2="327.92" style="stroke:#F0F0F0;stroke-width:8.64"/>
	<line x1="1395.09" y1="299.16" x2="1395.09" y2="241.52" style="stroke:#F0F0F0;stroke-width:8.64"/>
	<line x1="1395.09" y1="212.76" x2="1395.09" y2="155.12" style="stroke:#F0F0F0;stroke-width:8.64"/>
	<line x1="1395.09" y1="126.36" x2="1395.09" y2="100.85" style="stroke:#F0F0F0;stroke-width:8.64"/>
	<line x1="704.97" y1="2459.20" x2="704.97" y2="2401.55" style="stroke:#F0F0F0;stroke-width:8.64"/>
	<line x1="704.97" y1="2372.80" x2="704.97" y2="2315.15" style="stroke:#F0F0F0;stroke-width:8.64"/>
	<line x1="704.97" y1="2286.40" x2="704.97" y2="2228.75" style="stroke:#F0F0F0;stroke-width:8.64"/>
	<line x1="704.97" y1="2199.99" x2="704.97" y2="2142.35" style="stroke:#F0F0F0;stroke-width:8.64"/>
	<line x1="704.97" y1="2113.59" x2="704.97" y2="2055.95" style="stroke:#F0F0F0;stroke-width:8.64"/>
	<line x1="704.97" y1="2027.19" x2="704.97" y2="1969.55" style="stroke:#F0F0F0;stroke-width:8.64"/>
	<line x1="704.97" y1="1940.79" x2="704.97" y2="1883.14" style="stroke:#F0F0F0;stroke-width:8.64"/>
	<line x1="704.97" y1="1854.39" x2="704.97" y2="1796.74" style="stroke:#F0F0F0;stroke-width:8.64"/>
	<line x1="704.97" y1="1767.99" x2="704.97" y2="1710.34" style="stroke:#F0F0F0;stroke-width:8.64"/>
	<line x1="704.97" y1="1681.59" x2="704.97" y2="1623.94" style="stroke:#F0F0F0;stroke-width:8.64"/>
	<line x1="704.97" y1="1595.18" x2="704.97" y2="1537.54" style="stroke:#F0F0F0;stroke-width:8.64"/>
	<line x1="704.97" y1="1508.78" x2="704.97" y2="1451.14" style="stroke:#F0F0F0;stroke-width:8.64"/>
	<line x1="704.97" y1="1422.38" x2="704.97" y2="1364.74" style="stroke:#F0F0F0;stroke-width:8.64"/>
	<line x1="704.97" y1="1335.98" x2="704.97" y2="1278.33" style="stroke:#F0F0F0;stroke-width:8.64"/>
	<line x1="704.97" y1="1249.58" x2="704.97" y2="1191.93" style="stroke:#F0F0F0;stroke-width:8.64"/>
	<line x1="704.97" y1="1163.18" x2="704.97" y2="1105.53" style="stroke:#F0F0F0;stroke-width:8.64"/>
	<line x1="704.97" y1="1076.78" x2="704.97" y2="1019.13" style="stroke:#F0F0F0;stroke-width:8.64"/>
	<line x1="704.97" y1="990.38" x2="704.97" y2="932.73" style="stroke:#F0F0F0;stroke-width:8.64"/>
	<line x1="704.97" y1="903.97" x2="704.97" y2="846.33" style="stroke:#F0F0F0;stroke-width:8.64"/>
	<line x1="704.97" y1="817.57" x2="704.97" y2="759.93" style="stroke:#F0F0F0;stroke-width:8.64"/>
	<line x1="704.97" y1="731.17" x2="704.97" y2="673.53" style="stroke:#F0F0F0;stroke-width:8.64"/>
	<line x1="704.97" y1="644.77" x2="704.97" y2="587.12" style="stroke:#F0F0F0;stroke-width:8.64"/>
	<line x1="704.97" y1="558.37" x2="704.97" y2="500.72" style="stroke:#F0F0F0;stroke-width:8.64"/>
	<line x1="704.97" y1="471.97" x2="704.97" y2="414.32" style="stroke:#F0F0F0;stroke-width:8.64"/>
	<line x1="704.97" y1="385.57" x2="704.97" y2="327.92" style="stroke:#F0F0F0;stroke-width:8.64"/>
	<line x1="704.97" y1="299.16" x2="704.97" y2="241.52" style="stroke:#F0F0F0;stroke-width:8.64"/>
	<line x1="704.97" y1="212.76" x2="704.97" y2="155.12" style="stroke:#F0F0F0;stroke-width:8.64"/>
	<line x1="704.97" y1="126.36" x2="704.97" y2="100.85" style="stroke:#F0F0F0;stroke-width:8.64"/>
	<path d=" M842.94 2395.34 L854.42 2395.21 L865.89 2394.67 L877.50 2395.07 L888.98 2394.80 L900.45 2394.94 L911.93 2393.45 L923.40 2393.32 L935.01 2391.83 L946.49 2391.16 L957.96 2390.21 L969.44 2389.13 L980.91 2389.81 L992.52 2389.94 L1004.00 2389.67 L1015.47 2390.48 L1026.95 2390.89 L1038.42 2390.08 L1050.03 2388.73 L1061.51 2386.57 L1072.98 2384.27 L1084.46 2383.19 L1095.93 2383.73 L1107.54 2382.25 L1119.02 2376.58 L1130.49 2374.96 L1141.96 2376.98 L1153.58 2376.17 L1165.05 2370.50 L1176.53 2366.86 L1188.00 2362.27 L1199.47 2357.41 L1211.09 2359.16 L1222.56 2352.41 L1234.04 2348.77 L1245.51 2344.18 L1256.98 2337.16 L1268.60 2316.64 L1280.07 2290.45 L1291.55 2289.10 L1303.02 2280.86 L1314.50 2274.92 L1326.11 2251.97 L1337.58 2244.01 L1349.06 2223.48 L1360.53 2200.80 L1372.01 2171.24 L1383.62 2152.61 L1395.09 2155.58 L1406.57 2155.44 L1418.04 2097.12 L1429.52 2044.74 L1441.13 2014.23 L1452.60 1982.64 L1464.08 1888.14 L1475.55 1833.33 L1487.03 1865.59 L1498.64 1784.46 L1510.11 1771.63 L1521.59 1474.76 L1533.06 1354.75 L1544.54 1297.51 L1556.15 1127.00 L1567.62 1088.93 L1579.10 942.85 L1590.57 893.58 L1602.18 808.12 L1613.66 633.83 L1625.13 686.76 L1636.61 601.57 L1648.08 483.17 L1659.69 461.44 L1671.17 294.57 L1682.64 301.32 L1694.12 164.16 L1705.59 210.60 L1717.20 262.58 L1728.68 492.89 L1740.15 454.42 L1751.63 524.08 L1763.10 558.50 L1774.71 490.87 L1786.19 594.01 L1797.66 700.66 L1809.14 551.08 L1820.61 556.48 L1832.22 470.89 L1843.70 512.20 L1855.17 551.08 L1866.65 679.87 L1878.12 671.37 L1889.73 699.58 L1901.21 746.83 L1912.68 678.93 L1924.16 751.29 L1935.63 776.67 L1947.24 654.76 L1958.72 733.20 L1970.19 634.37 L1981.67 734.68 L1993.14 710.65 L2004.75 756.01 L2016.23 773.29 L2027.70 788.82 L2039.18 840.52 L2050.65 787.06 L2062.26 807.99 L2073.74 866.85 L2085.21 787.33 L2096.69 849.43 L2108.30 766.68 L2119.77 829.45 L2131.25 814.74 L2142.72 940.83 L2154.20 960.27 L2165.80 937.05 L2177.28 994.97 L2188.76 973.10 L2200.23 999.15 L2211.71 1027.37 L2223.32 881.16 L2234.79 917.47 L2246.27 837.28 L2257.74 904.11 L2269.22 923.95 L2280.82 964.73 L2292.30 971.34 L2303.78 957.30 L2315.25 963.92 L2326.73 956.35 L2338.34 1003.34 L2349.81 1015.22 L2361.29 979.85 L2372.76 1000.77 L2384.24 962.43 L2395.84 1009.41 L2407.32 1010.36 L2418.80 1074.62 L2430.27 1040.19 L2441.75 1053.83 L2453.36 1108.23 L2464.83 1033.71 L2476.30 1068.81 L2487.78 1112.96 L2499.26 1046.00 L2510.86 1115.93 L2522.34 1033.58 L2533.82 1027.10 L2545.29 1051.40 L2556.90 1163.85 L2568.38 1155.62 L2579.85 1155.35 L2591.32 1230.95 L2602.80 1132.53 L2614.41 1152.78 L2625.89 1169.66 L2637.36 1106.07 L2648.84 1168.31 L2660.31 1069.08 L2671.92 1119.84 L2683.40 1085.28 L2694.87 1182.35 L2706.35 1121.33 L2717.82 1123.62 L2729.43 1171.41 L2740.91 1095.81 L2752.38 1124.84 L2763.86 1144.95 L2775.33 1068.68 L2786.94 1105.67 L2798.42 979.85 L2809.89 1070.30 L2821.37 1114.98 L2832.84 1162.37 L2844.45 1146.44 L2855.93 1150.08 L2867.40 1134.42 L2878.88 1102.70 L2890.35 1127.94 L2901.96 1198.01 L2913.44 1113.36 L2924.91 1137.26 L2936.39 1069.35 L2947.86 1127.94 L2959.47 1149.14 L2970.95 1230.41 L2982.42 1228.65 L2993.90 1206.11 L3005.51 1162.64 L3016.98 1122.00 L3028.46 1095.00 L3039.93 1154.00 L3051.41 1042.08 L3063.02 1086.63 L3074.49 956.62 L3085.97 1052.88 L3097.44 1099.32 L3108.92 1219.07 L3120.53 1192.34 L3132.00 1184.24 L3143.48 1138.34 L3154.95 1039.11 L3166.43 1014.00 L3178.04 1150.62 L3189.51 1034.25 L3200.99 1093.52 L3212.46 957.03 L3223.94 1014.54 L3235.55 1089.74 L3247.02 1216.50 L3258.50 1209.48 L3269.97 1190.58 L3281.45 1157.91 L3293.06 1042.89 L3304.53 1054.50 L3316.01 1148.06 L3327.48 1058.28 L3338.96 1080.96 L3350.57 973.50 L3362.04 1020.62 L3373.52 1076.24 L3384.99 1193.82 L3396.47 1168.44 L3408.08 1166.42 L3419.55 1122.14 L3431.03 1040.19 L3442.50 1061.93 L3454.11 1130.24 L3465.59 1062.20 L3477.06 1065.98 L3488.54 1011.84 L3500.01 947.31 L3511.62 924.36 L3523.10 1036.01 L3534.57 1077.45 L3546.05 1076.78 L3557.52 1010.90 L3569.13 1006.04 L3580.61 1028.04 L3592.08 1048.56 L3603.56 958.65 L3615.03 983.76 L3626.64 870.09 L3638.12 928.00 L3649.59 969.59 L3661.07 1091.09 L3672.54 1102.43 L3684.15 1098.38 L3695.63 1051.53 L3707.10 1046.67 L3718.58 1062.06 L3730.05 1108.77 L3741.66 1030.07 L3753.14 1075.16 L3764.61 1000.50 L3776.09 1041.81 L3787.56 1058.82 L3799.17 1156.83 L3810.65 1126.32 L3822.12 1132.40 L3833.60 1068.41 L3845.07 1014.68 L3856.68 1064.36 L3868.16 1096.08 L3879.63 992.81 L3891.11 1052.34 L3902.72 951.76 L3914.19 997.53 L3925.67 1035.47" stroke-linejoin="round" style="fill:none;stroke:#1A85FF;stroke-width:8.64"/>
	<line x1="641.66" y1="2459.20" x2="641.66" y2="100.85" style="stroke:#000000;stroke-width:5.76"/>
	<line x1="641.66" y1="2395.88" x2="601.56" y2="2395.88" style="stroke:#000000;stroke-width:5.76"/>
	<text x="581.58" y="2430.93" style="font-family:'Helvetica';font-size:100.04px;fill:#000000" text-anchor="end">0</text>
	<line x1="641.66" y1="1696.30" x2="601.56" y2="1696.30" style="stroke:#000000;stroke-width:5.76"/>
	<text x="581.58" y="1731.35" style="font-family:'Helvetica';font-size:100.04px;fill:#000000" text-anchor="end">20000</text>
	<line x1="641.66" y1="996.72" x2="601.56" y2="996.72" style="stroke:#000000;stroke-width:5.76"/>
	<text x="581.58" y="1031.77" style="font-family:'Helvetica';font-size:100.04px;fill:#000000" text-anchor="end">40000</text>
	<line x1="641.66" y1="297.14" x2="601.56" y2="297.14" style="stroke:#000000;stroke-width:5.76"/>
	<text x="581.58" y="332.19" style="font-family:'Helvetica';font-size:100.04px;fill:#000000" text-anchor="end">60000</text>
	<text x="190.78" y="1279.95" style="font-family:'Helvetica';font-size:100.04px;fill:#000000" transform="rotate(-90 190.78,1279.95)" text-anchor="middle">Active editors</text>
	<line x1="641.66" y1="2459.20" x2="4219.16" y2="2459.20" style="stroke:#000000;stroke-width:5.76"/>
	<line x1="4155.84" y1="2459.20" x2="4155.84" y2="2499.16" style="stroke:#000000;stroke-width:5.76"/>
	<text x="4155.84" y="2589.10" style="font-family:'Helvetica';font-size:100.04px;fill:#000000" text-anchor="middle">2025</text>
	<line x1="3465.59" y1="2459.20" x2="3465.59" y2="2499.16" style="stroke:#000000;stroke-width:5.76"/>
	<text x="3465.59" y="2589.10" style="font-family:'Helvetica';font-size:100.04px;fill:#000000" text-anchor="middle">2020</text>
	<line x1="2775.47" y1="2459.20" x2="2775.47" y2="2499.16" style="stroke:#000000;stroke-width:5.76"/>
	<text x="2775.47" y="2589.10" style="font-family:'Helvetica';font-size:100.04px;fill:#000000" text-anchor="middle">2015</text>
	<line x1="2085.34" y1="2459.20" x2="2085.34" y2="2499.16" style="stroke:#000000;stroke-width:5.76"/>
	<text x="2085.34" y="2589.10" style="font-family:'Helvetica';font-size:100.04px;fill:#000000" text-anchor="middle">2010</text>
	<line x1="1395.09" y1="2459.20" x2="1395.09" y2="2499.16" style="stroke:#000000;stroke-width:5.76"/>
	<text x="1395.09" y="2589.10" style="font-family:'Helvetica';font-size:100.04px;fill:#000000" text-anchor="middle">2005</text>
	<line x1="704.97" y1="2459.20" x2="704.97" y2="2499.16" style="stroke:#000000;stroke-width:5.76"/>
	<text x="704.97" y="2589.10" style="font-family:'Helvetica';font-size:100.04px;fill:#000000" text-anchor="middle">2000</text>
	<text x="2430.41" y="2729.09" style="font-family:'Helvetica';font-size:100.04px;fill:#000000" text-anchor="middle">Month</text>
</svg>
