<?xml version="1.0" encoding="UTF-8" standalone="no"?>
<!-- This is a Stata 18.0 generated SVG file (http://www.stata.com) -->

<svg version="1.1" width="6.000in" height="4.000in" viewBox="0 0 4320 2880" xmlns="http://www.w3.org/2000/svg" xmlns:xlink="http://www.w3.org/1999/xlink">
	<desc>Stata Graph - graph1</desc>
	<rect x="0" y="0" width="4320" height="2880" style="fill:#FFFFFF;stroke:none"/>
	<rect x="0.00" y="0.00" width="4320.00" height="2880.00" style="fill:#FFFFFF"/>
	<rect x="2.88" y="2.88" width="4314.24" height="2874.24" style="fill:none;stroke:#FFFFFF;stroke-width:5.76"/>
	<rect x="541.62" y="100.85" width="3677.54" height="2102.79" style="fill:#FFFFFF"/>
	<rect x="544.50" y="103.73" width="3671.78" height="2097.03" style="fill:none;stroke:#FFFFFF;stroke-width:5.76"/>
	<line x1="541.62" y1="2015.04" x2="599.27" y2="2015.04" style="stroke:#F0F0F0;stroke-width:8.64"/>
	<line x1="628.02" y1="2015.04" x2="685.67" y2="2015.04" style="stroke:#F0F0F0;stroke-width:8.64"/>
	<line x1="714.42" y1="2015.04" x2="772.07" y2="2015.04" style="stroke:#F0F0F0;stroke-width:8.64"/>
	<line x1="800.82" y1="2015.04" x2="858.47" y2="2015.04" style="stroke:#F0F0F0;stroke-width:8.64"/>
	<line x1="887.22" y1="2015.04" x2="944.87" y2="2015.04" style="stroke:#F0F0F0;stroke-width:8.64"/>
	<line x1="973.62" y1="2015.04" x2="1031.27" y2="2015.04" style="stroke:#F0F0F0;stroke-width:8.64"/>
	<line x1="1060.02" y1="2015.04" x2="1117.67" y2="2015.04" style="stroke:#F0F0F0;stroke-width:8.64"/>
	<line x1="1146.42" y1="2015.04" x2="1204.07" y2="2015.04" style="stroke:#F0F0F0;stroke-width:8.64"/>
	<line x1="1232.82" y1="2015.04" x2="1290.46" y2="2015.04" style="stroke:#F0F0F0;stroke-width:8.64"/>
	<line x1="1319.22" y1="2015.04" x2="1376.87" y2="2015.04" style="stroke:#F0F0F0;stroke-width:8.64"/>
	<line x1="1405.62" y1="2015.04" x2="1463.27" y2="2015.04" style="stroke:#F0F0F0;stroke-width:8.64"/>
	<line x1="1492.02" y1="2015.04" x2="1549.67" y2="2015.04" style="stroke:#F0F0F0;stroke-width:8.64"/>
	<line x1="1578.42" y1="2015.04" x2="1636.07" y2="2015.04" style="stroke:#F0F0F0;stroke-width:8.64"/>
	<line x1="1664.82" y1="2015.04" x2="1722.47" y2="2015.04" style="stroke:#F0F0F0;stroke-width:8.64"/>
	<line x1="1751.22" y1="2015.04" x2="1808.87" y2="2015.04" style="stroke:#F0F0F0;stroke-width:8.64"/>
	<line x1="1837.62" y1="2015.04" x2="1895.27" y2="2015.04" style="stroke:#F0F0F0;stroke-width:8.64"/>
	<line x1="1924.02" y1="2015.04" x2="1981.67" y2="2015.04" style="stroke:#F0F0F0;stroke-width:8.64"/>
	<line x1="2010.42" y1="2015.04" x2="2068.07" y2="2015.04" style="stroke:#F0F0F0;stroke-width:8.64"/>
	<line x1="2096.82" y1="2015.04" x2="2154.47" y2="2015.04" style="stroke:#F0F0F0;stroke-width:8.64"/>
	<line x1="2183.22" y1="2015.04" x2="2240.86" y2="2015.04" style="stroke:#F0F0F0;stroke-width:8.64"/>
	<line x1="2269.62" y1="2015.04" x2="2327.27" y2="2015.04" style="stroke:#F0F0F0;stroke-width:8.64"/>
	<line x1="2356.02" y1="2015.04" x2="2413.67" y2="2015.04" style="stroke:#F0F0F0;stroke-width:8.64"/>
	<line x1="2442.42" y1="2015.04" x2="2500.07" y2="2015.04" style="stroke:#F0F0F0;stroke-width:8.64"/>
	<line x1="2528.82" y1="2015.04" x2="2586.47" y2="2015.04" style="stroke:#F0F0F0;stroke-width:8.64"/>
	<line x1="2615.22" y1="2015.04" x2="2672.87" y2="2015.04" style="stroke:#F0F0F0;stroke-width:8.64"/>
	<line x1="2701.62" y1="2015.04" x2="2759.27" y2="2015.04" style="stroke:#F0F0F0;stroke-width:8.64"/>
	<line x1="2788.02" y1="2015.04" x2="2845.67" y2="2015.04" style="stroke:#F0F0F0;stroke-width:8.64"/>
	<line x1="2874.42" y1="2015.04" x2="2932.07" y2="2015.04" style="stroke:#F0F0F0;stroke-width:8.64"/>
	<line x1="2960.82" y1="2015.04" x2="3018.47" y2="2015.04" style="stroke:#F0F0F0;stroke-width:8.64"/>
	<line x1="3047.22" y1="2015.04" x2="3104.87" y2="2015.04" style="stroke:#F0F0F0;stroke-width:8.64"/>
	<line x1="3133.62" y1="2015.04" x2="3191.27" y2="2015.04" style="stroke:#F0F0F0;stroke-width:8.64"/>
	<line x1="3220.02" y1="2015.04" x2="3277.67" y2="2015.04" style="stroke:#F0F0F0;stroke-width:8.64"/>
	<line x1="3306.42" y1="2015.04" x2="3364.07" y2="2015.04" style="stroke:#F0F0F0;stroke-width:8.64"/>
	<line x1="3392.82" y1="2015.04" x2="3450.47" y2="2015.04" style="stroke:#F0F0F0;stroke-width:8.64"/>
	<line x1="3479.22" y1="2015.04" x2="3536.87" y2="2015.04" style="stroke:#F0F0F0;stroke-width:8.64"/>
	<line x1="3565.62" y1="2015.04" x2="3623.27" y2="2015.04" style="stroke:#F0F0F0;stroke-width:8.64"/>
	<line x1="3652.02" y1="2015.04" x2="3709.67" y2="2015.04" style="stroke:#F0F0F0;stroke-width:8.64"/>
	<line x1="3738.42" y1="2015.04" x2="3796.07" y2="2015.04" style="stroke:#F0F0F0;stroke-width:8.64"/>
	<line x1="3824.82" y1="2015.04" x2="3882.47" y2="2015.04" style="stroke:#F0F0F0;stroke-width:8.64"/>
	<line x1="3911.22" y1="2015.04" x2="3968.87" y2="2015.04" style="stroke:#F0F0F0;stroke-width:8.64"/>
	<line x1="3997.62" y1="2015.04" x2="4055.27" y2="2015.04" style="stroke:#F0F0F0;stroke-width:8.64"/>
	<line x1="4084.02" y1="2015.04" x2="4141.67" y2="2015.04" style="stroke:#F0F0F0;stroke-width:8.64"/>
	<line x1="4170.42" y1="2015.04" x2="4219.16" y2="2015.04" style="stroke:#F0F0F0;stroke-width:8.64"/>
	<line x1="541.62" y1="1644.87" x2="599.27" y2="1644.87" style="stroke:#F0F0F0;stroke-width:8.64"/>
	<line x1="628.02" y1="1644.87" x2="685.67" y2="1644.87" style="stroke:#F0F0F0;stroke-width:8.64"/>
	<line x1="714.42" y1="1644.87" x2="772.07" y2="1644.87" style="stroke:#F0F0F0;stroke-width:8.64"/>
	<line x1="800.82" y1="1644.87" x2="858.47" y2="1644.87" style="stroke:#F0F0F0;stroke-width:8.64"/>
	<line x1="887.22" y1="1644.87" x2="944.87" y2="1644.87" style="stroke:#F0F0F0;stroke-width:8.64"/>
	<line x1="973.62" y1="1644.87" x2="1031.27" y2="1644.87" style="stroke:#F0F0F0;stroke-width:8.64"/>
	<line x1="1060.02" y1="1644.87" x2="1117.67" y2="1644.87" style="stroke:#F0F0F0;stroke-width:8.64"/>
	<line x1="1146.42" y1="1644.87" x2="1204.07" y2="1644.87" style="stroke:#F0F0F0;stroke-width:8.64"/>
	<line x1="1232.82" y1="1644.87" x2="1290.46" y2="1644.87" style="stroke:#F0F0F0;stroke-width:8.64"/>
	<line x1="1319.22" y1="1644.87" x2="1376.87" y2="1644.87" style="stroke:#F0F0F0;stroke-width:8.64"/>
	<line x1="1405.62" y1="1644.87" x2="1463.27" y2="1644.87" style="stroke:#F0F0F0;stroke-width:8.64"/>
	<line x1="1492.02" y1="1644.87" x2="1549.67" y2="1644.87" style="stroke:#F0F0F0;stroke-width:8.64"/>
	<line x1="1578.42" y1="1644.87" x2="1636.07" y2="1644.87" style="stroke:#F0F0F0;stroke-width:8.64"/>
	<line x1="1664.82" y1="1644.87" x2="1722.47" y2="1644.87" style="stroke:#F0F0F0;stroke-width:8.64"/>
	<line x1="1751.22" y1="1644.87" x2="1808.87" y2="1644.87" style="stroke:#F0F0F0;stroke-width:8.64"/>
	<line x1="1837.62" y1="1644.87" x2="1895.27" y2="1644.87" style="stroke:#F0F0F0;stroke-width:8.64"/>
	<line x1="1924.02" y1="1644.87" x2="1981.67" y2="1644.87" style="stroke:#F0F0F0;stroke-width:8.64"/>
	<line x1="2010.42" y1="1644.87" x2="2068.07" y2="1644.87" style="stroke:#F0F0F0;stroke-width:8.64"/>
	<line x1="2096.82" y1="1644.87" x2="2154.47" y2="1644.87" style="stroke:#F0F0F0;stroke-width:8.64"/>
	<line x1="2183.22" y1="1644.87" x2="2240.86" y2="1644.87" style="stroke:#F0F0F0;stroke-width:8.64"/>
	<line x1="2269.62" y1="1644.87" x2="2327.27" y2="1644.87" style="stroke:#F0F0F0;stroke-width:8.64"/>
	<line x1="2356.02" y1="1644.87" x2="2413.67" y2="1644.87" style="stroke:#F0F0F0;stroke-width:8.64"/>
	<line x1="2442.42" y1="1644.87" x2="2500.07" y2="1644.87" style="stroke:#F0F0F0;stroke-width:8.64"/>
	<line x1="2528.82" y1="1644.87" x2="2586.47" y2="1644.87" style="stroke:#F0F0F0;stroke-width:8.64"/>
	<line x1="2615.22" y1="1644.87" x2="2672.87" y2="1644.87" style="stroke:#F0F0F0;stroke-width:8.64"/>
	<line x1="2701.62" y1="1644.87" x2="2759.27" y2="1644.87" style="stroke:#F0F0F0;stroke-width:8.64"/>
	<line x1="2788.02" y1="1644.87" x2="2845.67" y2="1644.87" style="stroke:#F0F0F0;stroke-width:8.64"/>
	<line x1="2874.42" y1="1644.87" x2="2932.07" y2="1644.87" style="stroke:#F0F0F0;stroke-width:8.64"/>
	<line x1="2960.82" y1="1644.87" x2="3018.47" y2="1644.87" style="stroke:#F0F0F0;stroke-width:8.64"/>
	<line x1="3047.22" y1="1644.87" x2="3104.87" y2="1644.87" style="stroke:#F0F0F0;stroke-width:8.64"/>
	<line x1="3133.62" y1="1644.87" x2="3191.27" y2="1644.87" style="stroke:#F0F0F0;stroke-width:8.64"/>
	<line x1="3220.02" y1="1644.87" x2="3277.67" y2="1644.87" style="stroke:#F0F0F0;stroke-width:8.64"/>
	<line x1="3306.42" y1="1644.87" x2="3364.07" y2="1644.87" style="stroke:#F0F0F0;stroke-width:8.64"/>
	<line x1="3392.82" y1="1644.87" x2="3450.47" y2="1644.87" style="stroke:#F0F0F0;stroke-width:8.64"/>
	<line x1="3479.22" y1="1644.87" x2="3536.87" y2="1644.87" style="stroke:#F0F0F0;stroke-width:8.64"/>
	<line x1="3565.62" y1="1644.87" x2="3623.27" y2="1644.87" style="stroke:#F0F0F0;stroke-width:8.64"/>
	<line x1="3652.02" y1="1644.87" x2="3709.67" y2="1644.87" style="stroke:#F0F0F0;stroke-width:8.64"/>
	<line x1="3738.42" y1="1644.87" x2="3796.07" y2="1644.87" style="stroke:#F0F0F0;stroke-width:8.64"/>
	<line x1="3824.82" y1="1644.87" x2="3882.47" y2="1644.87" style="stroke:#F0F0F0;stroke-width:8.64"/>
	<line x1="3911.22" y1="1644.87" x2="3968.87" y2="1644.87" style="stroke:#F0F0F0;stroke-width:8.64"/>
	<line x1="3997.62" y1="1644.87" x2="4055.27" y2="1644.87" style="stroke:#F0F0F0;stroke-width:8.64"/>
	<line x1="4084.02" y1="1644.87" x2="4141.67" y2="1644.87" style="stroke:#F0F0F0;stroke-width:8.64"/>
	<line x1="4170.42" y1="1644.87" x2="4219.16" y2="1644.87" style="stroke:#F0F0F0;stroke-width:8.64"/>
	<line x1="541.62" y1="1274.69" x2="599.27" y2="1274.69" style="stroke:#F0F0F0;stroke-width:8.64"/>
	<line x1="628.02" y1="1274.69" x2="685.67" y2="1274.69" style="stroke:#F0F0F0;stroke-width:8.64"/>
	<line x1="714.42" y1="1274.69" x2="772.07" y2="1274.69" style="stroke:#F0F0F0;stroke-width:8.64"/>
	<line x1="800.82" y1="1274.69" x2="858.47" y2="1274.69" style="stroke:#F0F0F0;stroke-width:8.64"/>
	<line x1="887.22" y1="1274.69" x2="944.87" y2="1274.69" style="stroke:#F0F0F0;stroke-width:8.64"/>
	<line x1="973.62" y1="1274.69" x2="1031.27" y2="1274.69" style="stroke:#F0F0F0;stroke-width:8.64"/>
	<line x1="1060.02" y1="1274.69" x2="1117.67" y2="1274.69" style="stroke:#F0F0F0;stroke-width:8.64"/>
	<line x1="1146.42" y1="1274.69" x2="1204.07" y2="1274.69" style="stroke:#F0F0F0;stroke-width:8.64"/>
	<line x1="1232.82" y1="1274.69" x2="1290.46" y2="1274.69" style="stroke:#F0F0F0;stroke-width:8.64"/>
	<line x1="1319.22" y1="1274.69" x2="1376.87" y2="1274.69" style="stroke:#F0F0F0;stroke-width:8.64"/>
	<line x1="1405.62" y1="1274.69" x2="1463.27" y2="1274.69" style="stroke:#F0F0F0;stroke-width:8.64"/>
	<line x1="1492.02" y1="1274.69" x2="1549.67" y2="1274.69" style="stroke:#F0F0F0;stroke-width:8.64"/>
	<line x1="1578.42" y1="1274.69" x2="1636.07" y2="1274.69" style="stroke:#F0F0F0;stroke-width:8.64"/>
	<line x1="1664.82" y1="1274.69" x2="1722.47" y2="1274.69" style="stroke:#F0F0F0;stroke-width:8.64"/>
	<line x1="1751.22" y1="1274.69" x2="1808.87" y2="1274.69" style="stroke:#F0F0F0;stroke-width:8.64"/>
	<line x1="1837.62" y1="1274.69" x2="1895.27" y2="1274.69" style="stroke:#F0F0F0;stroke-width:8.64"/>
	<line x1="1924.02" y1="1274.69" x2="1981.67" y2="1274.69" style="stroke:#F0F0F0;stroke-width:8.64"/>
	<line x1="2010.42" y1="1274.69" x2="2068.07" y2="1274.69" style="stroke:#F0F0F0;stroke-width:8.64"/>
	<line x1="2096.82" y1="1274.69" x2="2154.47" y2="1274.69" style="stroke:#F0F0F0;stroke-width:8.64"/>
	<line x1="2183.22" y1="1274.69" x2="2240.86" y2="1274.69" style="stroke:#F0F0F0;stroke-width:8.64"/>
	<line x1="2269.62" y1="1274.69" x2="2327.27" y2="1274.69" style="stroke:#F0F0F0;stroke-width:8.64"/>
	<line x1="2356.02" y1="1274.69" x2="2413.67" y2="1274.69" style="stroke:#F0F0F0;stroke-width:8.64"/>
	<line x1="2442.42" y1="1274.69" x2="2500.07" y2="1274.69" style="stroke:#F0F0F0;stroke-width:8.64"/>
	<line x1="2528.82" y1="1274.69" x2="2586.47" y2="1274.69" style="stroke:#F0F0F0;stroke-width:8.64"/>
	<line x1="2615.22" y1="1274.69" x2="2672.87" y2="1274.69" style="stroke:#F0F0F0;stroke-width:8.64"/>
	<line x1="2701.62" y1="1274.69" x2="2759.27" y2="1274.69" style="stroke:#F0F0F0;stroke-width:8.64"/>
	<line x1="2788.02" y1="1274.69" x2="2845.67" y2="1274.69" style="stroke:#F0F0F0;stroke-width:8.64"/>
	<line x1="2874.42" y1="1274.69" x2="2932.07" y2="1274.69" style="stroke:#F0F0F0;stroke-width:8.64"/>
	<line x1="2960.82" y1="1274.69" x2="3018.47" y2="1274.69" style="stroke:#F0F0F0;stroke-width:8.64"/>
	<line x1="3047.22" y1="1274.69" x2="3104.87" y2="1274.69" style="stroke:#F0F0F0;stroke-width:8.64"/>
	<line x1="3133.62" y1="1274.69" x2="3191.27" y2="1274.69" style="stroke:#F0F0F0;stroke-width:8.64"/>
	<line x1="3220.02" y1="1274.69" x2="3277.67" y2="1274.69" style="stroke:#F0F0F0;stroke-width:8.64"/>
	<line x1="3306.42" y1="1274.69" x2="3364.07" y2="1274.69" style="stroke:#F0F0F0;stroke-width:8.64"/>
	<line x1="3392.82" y1="1274.69" x2="3450.47" y2="1274.69" style="stroke:#F0F0F0;stroke-width:8.64"/>
	<line x1="3479.22" y1="1274.69" x2="3536.87" y2="1274.69" style="stroke:#F0F0F0;stroke-width:8.64"/>
	<line x1="3565.62" y1="1274.69" x2="3623.27" y2="1274.69" style="stroke:#F0F0F0;stroke-width:8.64"/>
	<line x1="3652.02" y1="1274.69" x2="3709.67" y2="1274.69" style="stroke:#F0F0F0;stroke-width:8.64"/>
	<line x1="3738.42" y1="1274.69" x2="3796.07" y2="1274.69" style="stroke:#F0F0F0;stroke-width:8.64"/>
	<line x1="3824.82" y1="1274.69" x2="3882.47" y2="1274.69" style="stroke:#F0F0F0;stroke-width:8.64"/>
	<line x1="3911.22" y1="1274.69" x2="3968.87" y2="1274.69" style="stroke:#F0F0F0;stroke-width:8.64"/>
	<line x1="3997.62" y1="1274.69" x2="4055.27" y2="1274.69" style="stroke:#F0F0F0;stroke-width:8.64"/>
	<line x1="4084.02" y1="1274.69" x2="4141.67" y2="1274.69" style="stroke:#F0F0F0;stroke-width:8.64"/>
	<line x1="4170.42" y1="1274.69" x2="4219.16" y2="1274.69" style="stroke:#F0F0F0;stroke-width:8.64"/>
	<line x1="541.62" y1="904.51" x2="599.27" y2="904.51" style="stroke:#F0F0F0;stroke-width:8.64"/>
	<line x1="628.02" y1="904.51" x2="685.67" y2="904.51" style="stroke:#F0F0F0;stroke-width:8.64"/>
	<line x1="714.42" y1="904.51" x2="772.07" y2="904.51" style="stroke:#F0F0F0;stroke-width:8.64"/>
	<line x1="800.82" y1="904.51" x2="858.47" y2="904.51" style="stroke:#F0F0F0;stroke-width:8.64"/>
	<line x1="887.22" y1="904.51" x2="944.87" y2="904.51" style="stroke:#F0F0F0;stroke-width:8.64"/>
	<line x1="973.62" y1="904.51" x2="1031.27" y2="904.51" style="stroke:#F0F0F0;stroke-width:8.64"/>
	<line x1="1060.02" y1="904.51" x2="1117.67" y2="904.51" style="stroke:#F0F0F0;stroke-width:8.64"/>
	<line x1="1146.42" y1="904.51" x2="1204.07" y2="904.51" style="stroke:#F0F0F0;stroke-width:8.64"/>
	<line x1="1232.82" y1="904.51" x2="1290.46" y2="904.51" style="stroke:#F0F0F0;stroke-width:8.64"/>
	<line x1="1319.22" y1="904.51" x2="1376.87" y2="904.51" style="stroke:#F0F0F0;stroke-width:8.64"/>
	<line x1="1405.62" y1="904.51" x2="1463.27" y2="904.51" style="stroke:#F0F0F0;stroke-width:8.64"/>
	<line x1="1492.02" y1="904.51" x2="1549.67" y2="904.51" style="stroke:#F0F0F0;stroke-width:8.64"/>
	<line x1="1578.42" y1="904.51" x2="1636.07" y2="904.51" style="stroke:#F0F0F0;stroke-width:8.64"/>
	<line x1="1664.82" y1="904.51" x2="1722.47" y2="904.51" style="stroke:#F0F0F0;stroke-width:8.64"/>
	<line x1="1751.22" y1="904.51" x2="1808.87" y2="904.51" style="stroke:#F0F0F0;stroke-width:8.64"/>
	<line x1="1837.62" y1="904.51" x2="1895.27" y2="904.51" style="stroke:#F0F0F0;stroke-width:8.64"/>
	<line x1="1924.02" y1="904.51" x2="1981.67" y2="904.51" style="stroke:#F0F0F0;stroke-width:8.64"/>
	<line x1="2010.42" y1="904.51" x2="2068.07" y2="904.51" style="stroke:#F0F0F0;stroke-width:8.64"/>
	<line x1="2096.82" y1="904.51" x2="2154.47" y2="904.51" style="stroke:#F0F0F0;stroke-width:8.64"/>
	<line x1="2183.22" y1="904.51" x2="2240.86" y2="904.51" style="stroke:#F0F0F0;stroke-width:8.64"/>
	<line x1="2269.62" y1="904.51" x2="2327.27" y2="904.51" style="stroke:#F0F0F0;stroke-width:8.64"/>
	<line x1="2356.02" y1="904.51" x2="2413.67" y2="904.51" style="stroke:#F0F0F0;stroke-width:8.64"/>
	<line x1="2442.42" y1="904.51" x2="2500.07" y2="904.51" style="stroke:#F0F0F0;stroke-width:8.64"/>
	<line x1="2528.82" y1="904.51" x2="2586.47" y2="904.51" style="stroke:#F0F0F0;stroke-width:8.64"/>
	<line x1="2615.22" y1="904.51" x2="2672.87" y2="904.51" style="stroke:#F0F0F0;stroke-width:8.64"/>
	<line x1="2701.62" y1="904.51" x2="2759.27" y2="904.51" style="stroke:#F0F0F0;stroke-width:8.64"/>
	<line x1="2788.02" y1="904.51" x2="2845.67" y2="904.51" style="stroke:#F0F0F0;stroke-width:8.64"/>
	<line x1="2874.42" y1="904.51" x2="2932.07" y2="904.51" style="stroke:#F0F0F0;stroke-width:8.64"/>
	<line x1="2960.82" y1="904.51" x2="3018.47" y2="904.51" style="stroke:#F0F0F0;stroke-width:8.64"/>
	<line x1="3047.22" y1="904.51" x2="3104.87" y2="904.51" style="stroke:#F0F0F0;stroke-width:8.64"/>
	<line x1="3133.62" y1="904.51" x2="3191.27" y2="904.51" style="stroke:#F0F0F0;stroke-width:8.64"/>
	<line x1="3220.02" y1="904.51" x2="3277.67" y2="904.51" style="stroke:#F0F0F0;stroke-width:8.64"/>
	<line x1="3306.42" y1="904.51" x2="3364.07" y2="904.51" style="stroke:#F0F0F0;stroke-width:8.64"/>
	<line x1="3392.82" y1="904.51" x2="3450.47" y2="904.51" style="stroke:#F0F0F0;stroke-width:8.64"/>
	<line x1="3479.22" y1="904.51" x2="3536.87" y2="904.51" style="stroke:#F0F0F0;stroke-width:8.64"/>
	<line x1="3565.62" y1="904.51" x2="3623.27" y2="904.51" style="stroke:#F0F0F0;stroke-width:8.64"/>
	<line x1="3652.02" y1="904.51" x2="3709.67" y2="904.51" style="stroke:#F0F0F0;stroke-width:8.64"/>
	<line x1="3738.42" y1="904.51" x2="3796.07" y2="904.51" style="stroke:#F0F0F0;stroke-width:8.64"/>
	<line x1="3824.82" y1="904.51" x2="3882.47" y2="904.51" style="stroke:#F0F0F0;stroke-width:8.64"/>
	<line x1="3911.22" y1="904.51" x2="3968.87" y2="904.51" style="stroke:#F0F0F0;stroke-width:8.64"/>
	<line x1="3997.62" y1="904.51" x2="4055.27" y2="904.51" style="stroke:#F0F0F0;stroke-width:8.64"/>
	<line x1="4084.02" y1="904.51" x2="4141.67" y2="904.51" style="stroke:#F0F0F0;stroke-width:8.64"/>
	<line x1="4170.42" y1="904.51" x2="4219.16" y2="904.51" style="stroke:#F0F0F0;stroke-width:8.64"/>
	<line x1="541.62" y1="534.34" x2="599.27" y2="534.34" style="stroke:#F0F0F0;stroke-width:8.64"/>
	<line x1="628.02" y1="534.34" x2="685.67" y2="534.34" style="stroke:#F0F0F0;stroke-width:8.64"/>
	<line x1="714.42" y1="534.34" x2="772.07" y2="534.34" style="stroke:#F0F0F0;stroke-width:8.64"/>
	<line x1="800.82" y1="534.34" x2="858.47" y2="534.34" style="stroke:#F0F0F0;stroke-width:8.64"/>
	<line x1="887.22" y1="534.34" x2="944.87" y2="534.34" style="stroke:#F0F0F0;stroke-width:8.64"/>
	<line x1="973.62" y1="534.34" x2="1031.27" y2="534.34" style="stroke:#F0F0F0;stroke-width:8.64"/>
	<line x1="1060.02" y1="534.34" x2="1117.67" y2="534.34" style="stroke:#F0F0F0;stroke-width:8.64"/>
	<line x1="1146.42" y1="534.34" x2="1204.07" y2="534.34" style="stroke:#F0F0F0;stroke-width:8.64"/>
	<line x1="1232.82" y1="534.34" x2="1290.46" y2="534.34" style="stroke:#F0F0F0;stroke-width:8.64"/>
	<line x1="1319.22" y1="534.34" x2="1376.87" y2="534.34" style="stroke:#F0F0F0;stroke-width:8.64"/>
	<line x1="1405.62" y1="534.34" x2="1463.27" y2="534.34" style="stroke:#F0F0F0;stroke-width:8.64"/>
	<line x1="1492.02" y1="534.34" x2="1549.67" y2="534.34" style="stroke:#F0F0F0;stroke-width:8.64"/>
	<line x1="1578.42" y1="534.34" x2="1636.07" y2="534.34" style="stroke:#F0F0F0;stroke-width:8.64"/>
	<line x1="1664.82" y1="534.34" x2="1722.47" y2="534.34" style="stroke:#F0F0F0;stroke-width:8.64"/>
	<line x1="1751.22" y1="534.34" x2="1808.87" y2="534.34" style="stroke:#F0F0F0;stroke-width:8.64"/>
	<line x1="1837.62" y1="534.34" x2="1895.27" y2="534.34" style="stroke:#F0F0F0;stroke-width:8.64"/>
	<line x1="1924.02" y1="534.34" x2="1981.67" y2="534.34" style="stroke:#F0F0F0;stroke-width:8.64"/>
	<line x1="2010.42" y1="534.34" x2="2068.07" y2="534.34" style="stroke:#F0F0F0;stroke-width:8.64"/>
	<line x1="2096.82" y1="534.34" x2="2154.47" y2="534.34" style="stroke:#F0F0F0;stroke-width:8.64"/>
	<line x1="2183.22" y1="534.34" x2="2240.86" y2="534.34" style="stroke:#F0F0F0;stroke-width:8.64"/>
	<line x1="2269.62" y1="534.34" x2="2327.27" y2="534.34" style="stroke:#F0F0F0;stroke-width:8.64"/>
	<line x1="2356.02" y1="534.34" x2="2413.67" y2="534.34" style="stroke:#F0F0F0;stroke-width:8.64"/>
	<line x1="2442.42" y1="534.34" x2="2500.07" y2="534.34" style="stroke:#F0F0F0;stroke-width:8.64"/>
	<line x1="2528.82" y1="534.34" x2="2586.47" y2="534.34" style="stroke:#F0F0F0;stroke-width:8.64"/>
	<line x1="2615.22" y1="534.34" x2="2672.87" y2="534.34" style="stroke:#F0F0F0;stroke-width:8.64"/>
	<line x1="2701.62" y1="534.34" x2="2759.27" y2="534.34" style="stroke:#F0F0F0;stroke-width:8.64"/>
	<line x1="2788.02" y1="534.34" x2="2845.67" y2="534.34" style="stroke:#F0F0F0;stroke-width:8.64"/>
	<line x1="2874.42" y1="534.34" x2="2932.07" y2="534.34" style="stroke:#F0F0F0;stroke-width:8.64"/>
	<line x1="2960.82" y1="534.34" x2="3018.47" y2="534.34" style="stroke:#F0F0F0;stroke-width:8.64"/>
	<line x1="3047.22" y1="534.34" x2="3104.87" y2="534.34" style="stroke:#F0F0F0;stroke-width:8.64"/>
	<line x1="3133.62" y1="534.34" x2="3191.27" y2="534.34" style="stroke:#F0F0F0;stroke-width:8.64"/>
	<line x1="3220.02" y1="534.34" x2="3277.67" y2="534.34" style="stroke:#F0F0F0;stroke-width:8.64"/>
	<line x1="3306.42" y1="534.34" x2="3364.07" y2="534.34" style="stroke:#F0F0F0;stroke-width:8.64"/>
	<line x1="3392.82" y1="534.34" x2="3450.47" y2="534.34" style="stroke:#F0F0F0;stroke-width:8.64"/>
	<line x1="3479.22" y1="534.34" x2="3536.87" y2="534.34" style="stroke:#F0F0F0;stroke-width:8.64"/>
	<line x1="3565.62" y1="534.34" x2="3623.27" y2="534.34" style="stroke:#F0F0F0;stroke-width:8.64"/>
	<line x1="3652.02" y1="534.34" x2="3709.67" y2="534.34" style="stroke:#F0F0F0;stroke-width:8.64"/>
	<line x1="3738.42" y1="534.34" x2="3796.07" y2="534.34" style="stroke:#F0F0F0;stroke-width:8.64"/>
	<line x1="3824.82" y1="534.34" x2="3882.47" y2="534.34" style="stroke:#F0F0F0;stroke-width:8.64"/>
	<line x1="3911.22" y1="534.34" x2="3968.87" y2="534.34" style="stroke:#F0F0F0;stroke-width:8.64"/>
	<line x1="3997.62" y1="534.34" x2="4055.27" y2="534.34" style="stroke:#F0F0F0;stroke-width:8.64"/>
	<line x1="4084.02" y1="534.34" x2="4141.67" y2="534.34" style="stroke:#F0F0F0;stroke-width:8.64"/>
	<line x1="4170.42" y1="534.34" x2="4219.16" y2="534.34" style="stroke:#F0F0F0;stroke-width:8.64"/>
	<line x1="541.62" y1="164.16" x2="599.27" y2="164.16" style="stroke:#F0F0F0;stroke-width:8.64"/>
	<line x1="628.02" y1="164.16" x2="685.67" y2="164.16" style="stroke:#F0F0F0;stroke-width:8.64"/>
	<line x1="714.42" y1="164.16" x2="772.07" y2="164.16" style="stroke:#F0F0F0;stroke-width:8.64"/>
	<line x1="800.82" y1="164.16" x2="858.47" y2="164.16" style="stroke:#F0F0F0;stroke-width:8.64"/>
	<line x1="887.22" y1="164.16" x2="944.87" y2="164.16" style="stroke:#F0F0F0;stroke-width:8.64"/>
	<line x1="973.62" y1="164.16" x2="1031.27" y2="164.16" style="stroke:#F0F0F0;stroke-width:8.64"/>
	<line x1="1060.02" y1="164.16" x2="1117.67" y2="164.16" style="stroke:#F0F0F0;stroke-width:8.64"/>
	<line x1="1146.42" y1="164.16" x2="1204.07" y2="164.16" style="stroke:#F0F0F0;stroke-width:8.64"/>
	<line x1="1232.82" y1="164.16" x2="1290.46" y2="164.16" style="stroke:#F0F0F0;stroke-width:8.64"/>
	<line x1="1319.22" y1="164.16" x2="1376.87" y2="164.16" style="stroke:#F0F0F0;stroke-width:8.64"/>
	<line x1="1405.62" y1="164.16" x2="1463.27" y2="164.16" style="stroke:#F0F0F0;stroke-width:8.64"/>
	<line x1="1492.02" y1="164.16" x2="1549.67" y2="164.16" style="stroke:#F0F0F0;stroke-width:8.64"/>
	<line x1="1578.42" y1="164.16" x2="1636.07" y2="164.16" style="stroke:#F0F0F0;stroke-width:8.64"/>
	<line x1="1664.82" y1="164.16" x2="1722.47" y2="164.16" style="stroke:#F0F0F0;stroke-width:8.64"/>
	<line x1="1751.22" y1="164.16" x2="1808.87" y2="164.16" style="stroke:#F0F0F0;stroke-width:8.64"/>
	<line x1="1837.62" y1="164.16" x2="1895.27" y2="164.16" style="stroke:#F0F0F0;stroke-width:8.64"/>
	<line x1="1924.02" y1="164.16" x2="1981.67" y2="164.16" style="stroke:#F0F0F0;stroke-width:8.64"/>
	<line x1="2010.42" y1="164.16" x2="2068.07" y2="164.16" style="stroke:#F0F0F0;stroke-width:8.64"/>
	<line x1="2096.82" y1="164.16" x2="2154.47" y2="164.16" style="stroke:#F0F0F0;stroke-width:8.64"/>
	<line x1="2183.22" y1="164.16" x2="2240.86" y2="164.16" style="stroke:#F0F0F0;stroke-width:8.64"/>
	<line x1="2269.62" y1="164.16" x2="2327.27" y2="164.16" style="stroke:#F0F0F0;stroke-width:8.64"/>
	<line x1="2356.02" y1="164.16" x2="2413.67" y2="164.16" style="stroke:#F0F0F0;stroke-width:8.64"/>
	<line x1="2442.42" y1="164.16" x2="2500.07" y2="164.16" style="stroke:#F0F0F0;stroke-width:8.64"/>
	<line x1="2528.82" y1="164.16" x2="2586.47" y2="164.16" style="stroke:#F0F0F0;stroke-width:8.64"/>
	<line x1="2615.22" y1="164.16" x2="2672.87" y2="164.16" style="stroke:#F0F0F0;stroke-width:8.64"/>
	<line x1="2701.62" y1="164.16" x2="2759.27" y2="164.16" style="stroke:#F0F0F0;stroke-width:8.64"/>
	<line x1="2788.02" y1="164.16" x2="2845.67" y2="164.16" style="stroke:#F0F0F0;stroke-width:8.64"/>
	<line x1="2874.42" y1="164.16" x2="2932.07" y2="164.16" style="stroke:#F0F0F0;stroke-width:8.64"/>
	<line x1="2960.82" y1="164.16" x2="3018.47" y2="164.16" style="stroke:#F0F0F0;stroke-width:8.64"/>
	<line x1="3047.22" y1="164.16" x2="3104.87" y2="164.16" style="stroke:#F0F0F0;stroke-width:8.64"/>
	<line x1="3133.62" y1="164.16" x2="3191.27" y2="164.16" style="stroke:#F0F0F0;stroke-width:8.64"/>
	<line x1="3220.02" y1="164.16" x2="3277.67" y2="164.16" style="stroke:#F0F0F0;stroke-width:8.64"/>
	<line x1="3306.42" y1="164.16" x2="3364.07" y2="164.16" style="stroke:#F0F0F0;stroke-width:8.64"/>
	<line x1="3392.82" y1="164.16" x2="3450.47" y2="164.16" style="stroke:#F0F0F0;stroke-width:8.64"/>
	<line x1="3479.22" y1="164.16" x2="3536.87" y2="164.16" style="stroke:#F0F0F0;stroke-width:8.64"/>
	<line x1="3565.62" y1="164.16" x2="3623.27" y2="164.16" style="stroke:#F0F0F0;stroke-width:8.64"/>
	<line x1="3652.02" y1="164.16" x2="3709.67" y2="164.16" style="stroke:#F0F0F0;stroke-width:8.64"/>
	<line x1="3738.42" y1="164.16" x2="3796.07" y2="164.16" style="stroke:#F0F0F0;stroke-width:8.64"/>
	<line x1="3824.82" y1="164.16" x2="3882.47" y2="164.16" style="stroke:#F0F0F0;stroke-width:8.64"/>
	<line x1="3911.22" y1="164.16" x2="3968.87" y2="164.16" style="stroke:#F0F0F0;stroke-width:8.64"/>
	<line x1="3997.62" y1="164.16" x2="4055.27" y2="164.16" style="stroke:#F0F0F0;stroke-width:8.64"/>
	<line x1="4084.02" y1="164.16" x2="4141.67" y2="164.16" style="stroke:#F0F0F0;stroke-width:8.64"/>
	<line x1="4170.42" y1="164.16" x2="4219.16" y2="164.16" style="stroke:#F0F0F0;stroke-width:8.64"/>
	<line x1="604.93" y1="2203.64" x2="604.93" y2="2145.99" style="stroke:#F0F0F0;stroke-width:8.64"/>
	<line x1="604.93" y1="2117.24" x2="604.93" y2="2059.59" style="stroke:#F0F0F0;stroke-width:8.64"/>
	<line x1="604.93" y1="2030.84" x2="604.93" y2="1973.19" style="stroke:#F0F0F0;stroke-width:8.64"/>
	<line x1="604.93" y1="1944.44" x2="604.93" y2="1886.79" style="stroke:#F0F0F0;stroke-width:8.64"/>
	<line x1="604.93" y1="1858.03" x2="604.93" y2="1800.39" style="stroke:#F0F0F0;stroke-width:8.64"/>
	<line x1="604.93" y1="1771.63" x2="604.93" y2="1713.99" style="stroke:#F0F0F0;stroke-width:8.64"/>
	<line x1="604.93" y1="1685.23" x2="604.93" y2="1627.59" style="stroke:#F0F0F0;stroke-width:8.64"/>
	<line x1="604.93" y1="1598.83" x2="604.93" y2="1541.18" style="stroke:#F0F0F0;stroke-width:8.64"/>
	<line x1="604.93" y1="1512.43" x2="604.93" y2="1454.78" style="stroke:#F0F0F0;stroke-width:8.64"/>
	<line x1="604.93" y1="1426.03" x2="604.93" y2="1368.38" style="stroke:#F0F0F0;stroke-width:8.64"/>
	<line x1="604.93" y1="1339.63" x2="604.93" y2="1281.98" style="stroke:#F0F0F0;stroke-width:8.64"/>
	<line x1="604.93" y1="1253.22" x2="604.93" y2="1195.58" style="stroke:#F0F0F0;stroke-width:8.64"/>
	<line x1="604.93" y1="1166.82" x2="604.93" y2="1109.18" style="stroke:#F0F0F0;stroke-width:8.64"/>
	<line x1="604.93" y1="1080.42" x2="604.93" y2="1022.78" style="stroke:#F0F0F0;stroke-width:8.64"/>
	<line x1="604.93" y1="994.02" x2="604.93" y2="936.37" style="stroke:#F0F0F0;stroke-width:8.64"/>
	<line x1="604.93" y1="907.62" x2="604.93" y2="849.97" style="stroke:#F0F0F0;stroke-width:8.64"/>
	<line x1="604.93" y1="821.22" x2="604.93" y2="763.57" style="stroke:#F0F0F0;stroke-width:8.64"/>
	<line x1="604.93" y1="734.82" x2="604.93" y2="677.17" style="stroke:#F0F0F0;stroke-width:8.64"/>
	<line x1="604.93" y1="648.42" x2="604.93" y2="590.77" style="stroke:#F0F0F0;stroke-width:8.64"/>
	<line x1="604.93" y1="562.01" x2="604.93" y2="504.37" style="stroke:#F0F0F0;stroke-width:8.64"/>
	<line x1="604.93" y1="475.61" x2="604.93" y2="417.97" style="stroke:#F0F0F0;stroke-width:8.64"/>
	<line x1="604.93" y1="389.21" x2="604.93" y2="331.57" style="stroke:#F0F0F0;stroke-width:8.64"/>
	<line x1="604.93" y1="302.81" x2="604.93" y2="245.16" style="stroke:#F0F0F0;stroke-width:8.64"/>
	<line x1="604.93" y1="216.41" x2="604.93" y2="158.76" style="stroke:#F0F0F0;stroke-width:8.64"/>
	<line x1="604.93" y1="130.01" x2="604.93" y2="100.85" style="stroke:#F0F0F0;stroke-width:8.64"/>
	<line x1="1315.17" y1="2203.64" x2="1315.17" y2="2145.99" style="stroke:#F0F0F0;stroke-width:8.64"/>
	<line x1="1315.17" y1="2117.24" x2="1315.17" y2="2059.59" style="stroke:#F0F0F0;stroke-width:8.64"/>
	<line x1="1315.17" y1="2030.84" x2="1315.17" y2="1973.19" style="stroke:#F0F0F0;stroke-width:8.64"/>
	<line x1="1315.17" y1="1944.44" x2="1315.17" y2="1886.79" style="stroke:#F0F0F0;stroke-width:8.64"/>
	<line x1="1315.17" y1="1858.03" x2="1315.17" y2="1800.39" style="stroke:#F0F0F0;stroke-width:8.64"/>
	<line x1="1315.17" y1="1771.63" x2="1315.17" y2="1713.99" style="stroke:#F0F0F0;stroke-width:8.64"/>
	<line x1="1315.17" y1="1685.23" x2="1315.17" y2="1627.59" style="stroke:#F0F0F0;stroke-width:8.64"/>
	<line x1="1315.17" y1="1598.83" x2="1315.17" y2="1541.18" style="stroke:#F0F0F0;stroke-width:8.64"/>
	<line x1="1315.17" y1="1512.43" x2="1315.17" y2="1454.78" style="stroke:#F0F0F0;stroke-width:8.64"/>
	<line x1="1315.17" y1="1426.03" x2="1315.17" y2="1368.38" style="stroke:#F0F0F0;stroke-width:8.64"/>
	<line x1="1315.17" y1="1339.63" x2="1315.17" y2="1281.98" style="stroke:#F0F0F0;stroke-width:8.64"/>
	<line x1="1315.17" y1="1253.22" x2="1315.17" y2="1195.58" style="stroke:#F0F0F0;stroke-width:8.64"/>
	<line x1="1315.17" y1="1166.82" x2="1315.17" y2="1109.18" style="stroke:#F0F0F0;stroke-width:8.64"/>
	<line x1="1315.17" y1="1080.42" x2="1315.17" y2="1022.78" style="stroke:#F0F0F0;stroke-width:8.64"/>
	<line x1="1315.17" y1="994.02" x2="1315.17" y2="936.37" style="stroke:#F0F0F0;stroke-width:8.64"/>
	<line x1="1315.17" y1="907.62" x2="1315.17" y2="849.97" style="stroke:#F0F0F0;stroke-width:8.64"/>
	<line x1="1315.17" y1="821.22" x2="1315.17" y2="763.57" style="stroke:#F0F0F0;stroke-width:8.64"/>
	<line x1="1315.17" y1="734.82" x2="1315.17" y2="677.17" style="stroke:#F0F0F0;stroke-width:8.64"/>
	<line x1="1315.17" y1="648.42" x2="1315.17" y2="590.77" style="stroke:#F0F0F0;stroke-width:8.64"/>
	<line x1="1315.17" y1="562.01" x2="1315.17" y2="504.37" style="stroke:#F0F0F0;stroke-width:8.64"/>
	<line x1="1315.17" y1="475.61" x2="1315.17" y2="417.97" style="stroke:#F0F0F0;stroke-width:8.64"/>
	<line x1="1315.17" y1="389.21" x2="1315.17" y2="331.57" style="stroke:#F0F0F0;stroke-width:8.64"/>
	<line x1="1315.17" y1="302.81" x2="1315.17" y2="245.16" style="stroke:#F0F0F0;stroke-width:8.64"/>
	<line x1="1315.17" y1="216.41" x2="1315.17" y2="158.76" style="stroke:#F0F0F0;stroke-width:8.64"/>
	<line x1="1315.17" y1="130.01" x2="1315.17" y2="100.85" style="stroke:#F0F0F0;stroke-width:8.64"/>
	<line x1="2025.27" y1="2203.64" x2="2025.27" y2="2145.99" style="stroke:#F0F0F0;stroke-width:8.64"/>
	<line x1="2025.27" y1="2117.24" x2="2025.27" y2="2059.59" style="stroke:#F0F0F0;stroke-width:8.64"/>
	<line x1="2025.27" y1="2030.84" x2="2025.27" y2="1973.19" style="stroke:#F0F0F0;stroke-width:8.64"/>
	<line x1="2025.27" y1="1944.44" x2="2025.27" y2="1886.79" style="stroke:#F0F0F0;stroke-width:8.64"/>
	<line x1="2025.27" y1="1858.03" x2="2025.27" y2="1800.39" style="stroke:#F0F0F0;stroke-width:8.64"/>
	<line x1="2025.27" y1="1771.63" x2="2025.27" y2="1713.99" style="stroke:#F0F0F0;stroke-width:8.64"/>
	<line x1="2025.27" y1="1685.23" x2="2025.27" y2="1627.59" style="stroke:#F0F0F0;stroke-width:8.64"/>
	<line x1="2025.27" y1="1598.83" x2="2025.27" y2="1541.18" style="stroke:#F0F0F0;stroke-width:8.64"/>
	<line x1="2025.27" y1="1512.43" x2="2025.27" y2="1454.78" style="stroke:#F0F0F0;stroke-width:8.64"/>
	<line x1="2025.27" y1="1426.03" x2="2025.27" y2="1368.38" style="stroke:#F0F0F0;stroke-width:8.64"/>
	<line x1="2025.27" y1="1339.63" x2="2025.27" y2="1281.98" style="stroke:#F0F0F0;stroke-width:8.64"/>
	<line x1="2025.27" y1="1253.22" x2="2025.27" y2="1195.58" style="stroke:#F0F0F0;stroke-width:8.64"/>
	<line x1="2025.27" y1="1166.82" x2="2025.27" y2="1109.18" style="stroke:#F0F0F0;stroke-width:8.64"/>
	<line x1="2025.27" y1="1080.42" x2="2025.27" y2="1022.78" style="stroke:#F0F0F0;stroke-width:8.64"/>
	<line x1="2025.27" y1="994.02" x2="2025.27" y2="936.37" style="stroke:#F0F0F0;stroke-width:8.64"/>
	<line x1="2025.27" y1="907.62" x2="2025.27" y2="849.97" style="stroke:#F0F0F0;stroke-width:8.64"/>
	<line x1="2025.27" y1="821.22" x2="2025.27" y2="763.57" style="stroke:#F0F0F0;stroke-width:8.64"/>
	<line x1="2025.27" y1="734.82" x2="2025.27" y2="677.17" style="stroke:#F0F0F0;stroke-width:8.64"/>
	<line x1="2025.27" y1="648.42" x2="2025.27" y2="590.77" style="stroke:#F0F0F0;stroke-width:8.64"/>
	<line x1="2025.27" y1="562.01" x2="2025.27" y2="504.37" style="stroke:#F0F0F0;stroke-width:8.64"/>
	<line x1="2025.27" y1="475.61" x2="2025.27" y2="417.97" style="stroke:#F0F0F0;stroke-width:8.64"/>
	<line x1="2025.27" y1="389.21" x2="2025.27" y2="331.57" style="stroke:#F0F0F0;stroke-width:8.64"/>
	<line x1="2025.27" y1="302.81" x2="2025.27" y2="245.16" style="stroke:#F0F0F0;stroke-width:8.64"/>
	<line x1="2025.27" y1="216.41" x2="2025.27" y2="158.76" style="stroke:#F0F0F0;stroke-width:8.64"/>
	<line x1="2025.27" y1="130.01" x2="2025.27" y2="100.85" style="stroke:#F0F0F0;stroke-width:8.64"/>
	<line x1="2735.51" y1="2203.64" x2="2735.51" y2="2145.99" style="stroke:#F0F0F0;stroke-width:8.64"/>
	<line x1="2735.51" y1="2117.24" x2="2735.51" y2="2059.59" style="stroke:#F0F0F0;stroke-width:8.64"/>
	<line x1="2735.51" y1="2030.84" x2="2735.51" y2="1973.19" style="stroke:#F0F0F0;stroke-width:8.64"/>
	<line x1="2735.51" y1="1944.44" x2="2735.51" y2="1886.79" style="stroke:#F0F0F0;stroke-width:8.64"/>
	<line x1="2735.51" y1="1858.03" x2="2735.51" y2="1800.39" style="stroke:#F0F0F0;stroke-width:8.64"/>
	<line x1="2735.51" y1="1771.63" x2="2735.51" y2="1713.99" style="stroke:#F0F0F0;stroke-width:8.64"/>
	<line x1="2735.51" y1="1685.23" x2="2735.51" y2="1627.59" style="stroke:#F0F0F0;stroke-width:8.64"/>
	<line x1="2735.51" y1="1598.83" x2="2735.51" y2="1541.18" style="stroke:#F0F0F0;stroke-width:8.64"/>
	<line x1="2735.51" y1="1512.43" x2="2735.51" y2="1454.78" style="stroke:#F0F0F0;stroke-width:8.64"/>
	<line x1="2735.51" y1="1426.03" x2="2735.51" y2="1368.38" style="stroke:#F0F0F0;stroke-width:8.64"/>
	<line x1="2735.51" y1="1339.63" x2="2735.51" y2="1281.98" style="stroke:#F0F0F0;stroke-width:8.64"/>
	<line x1="2735.51" y1="1253.22" x2="2735.51" y2="1195.58" style="stroke:#F0F0F0;stroke-width:8.64"/>
	<line x1="2735.51" y1="1166.82" x2="2735.51" y2="1109.18" style="stroke:#F0F0F0;stroke-width:8.64"/>
	<line x1="2735.51" y1="1080.42" x2="2735.51" y2="1022.78" style="stroke:#F0F0F0;stroke-width:8.64"/>
	<line x1="2735.51" y1="994.02" x2="2735.51" y2="936.37" style="stroke:#F0F0F0;stroke-width:8.64"/>
	<line x1="2735.51" y1="907.62" x2="2735.51" y2="849.97" style="stroke:#F0F0F0;stroke-width:8.64"/>
	<line x1="2735.51" y1="821.22" x2="2735.51" y2="763.57" style="stroke:#F0F0F0;stroke-width:8.64"/>
	<line x1="2735.51" y1="734.82" x2="2735.51" y2="677.17" style="stroke:#F0F0F0;stroke-width:8.64"/>
	<line x1="2735.51" y1="648.42" x2="2735.51" y2="590.77" style="stroke:#F0F0F0;stroke-width:8.64"/>
	<line x1="2735.51" y1="562.01" x2="2735.51" y2="504.37" style="stroke:#F0F0F0;stroke-width:8.64"/>
	<line x1="2735.51" y1="475.61" x2="2735.51" y2="417.97" style="stroke:#F0F0F0;stroke-width:8.64"/>
	<line x1="2735.51" y1="389.21" x2="2735.51" y2="331.57" style="stroke:#F0F0F0;stroke-width:8.64"/>
	<line x1="2735.51" y1="302.81" x2="2735.51" y2="245.16" style="stroke:#F0F0F0;stroke-width:8.64"/>
	<line x1="2735.51" y1="216.41" x2="2735.51" y2="158.76" style="stroke:#F0F0F0;stroke-width:8.64"/>
	<line x1="2735.51" y1="130.01" x2="2735.51" y2="100.85" style="stroke:#F0F0F0;stroke-width:8.64"/>
	<line x1="3445.61" y1="2203.64" x2="3445.61" y2="2145.99" style="stroke:#F0F0F0;stroke-width:8.64"/>
	<line x1="3445.61" y1="2117.24" x2="3445.61" y2="2059.59" style="stroke:#F0F0F0;stroke-width:8.64"/>
	<line x1="3445.61" y1="2030.84" x2="3445.61" y2="1973.19" style="stroke:#F0F0F0;stroke-width:8.64"/>
	<line x1="3445.61" y1="1944.44" x2="3445.61" y2="1886.79" style="stroke:#F0F0F0;stroke-width:8.64"/>
	<line x1="3445.61" y1="1858.03" x2="3445.61" y2="1800.39" style="stroke:#F0F0F0;stroke-width:8.64"/>
	<line x1="3445.61" y1="1771.63" x2="3445.61" y2="1713.99" style="stroke:#F0F0F0;stroke-width:8.64"/>
	<line x1="3445.61" y1="1685.23" x2="3445.61" y2="1627.59" style="stroke:#F0F0F0;stroke-width:8.64"/>
	<line x1="3445.61" y1="1598.83" x2="3445.61" y2="1541.18" style="stroke:#F0F0F0;stroke-width:8.64"/>
	<line x1="3445.61" y1="1512.43" x2="3445.61" y2="1454.78" style="stroke:#F0F0F0;stroke-width:8.64"/>
	<line x1="3445.61" y1="1426.03" x2="3445.61" y2="1368.38" style="stroke:#F0F0F0;stroke-width:8.64"/>
	<line x1="3445.61" y1="1339.63" x2="3445.61" y2="1281.98" style="stroke:#F0F0F0;stroke-width:8.64"/>
	<line x1="3445.61" y1="1253.22" x2="3445.61" y2="1195.58" style="stroke:#F0F0F0;stroke-width:8.64"/>
	<line x1="3445.61" y1="1166.82" x2="3445.61" y2="1109.18" style="stroke:#F0F0F0;stroke-width:8.64"/>
	<line x1="3445.61" y1="1080.42" x2="3445.61" y2="1022.78" style="stroke:#F0F0F0;stroke-width:8.64"/>
	<line x1="3445.61" y1="994.02" x2="3445.61" y2="936.37" style="stroke:#F0F0F0;stroke-width:8.64"/>
	<line x1="3445.61" y1="907.62" x2="3445.61" y2="849.97" style="stroke:#F0F0F0;stroke-width:8.64"/>
	<line x1="3445.61" y1="821.22" x2="3445.61" y2="763.57" style="stroke:#F0F0F0;stroke-width:8.64"/>
	<line x1="3445.61" y1="734.82" x2="3445.61" y2="677.17" style="stroke:#F0F0F0;stroke-width:8.64"/>
	<line x1="3445.61" y1="648.42" x2="3445.61" y2="590.77" style="stroke:#F0F0F0;stroke-width:8.64"/>
	<line x1="3445.61" y1="562.01" x2="3445.61" y2="504.37" style="stroke:#F0F0F0;stroke-width:8.64"/>
	<line x1="3445.61" y1="475.61" x2="3445.61" y2="417.97" style="stroke:#F0F0F0;stroke-width:8.64"/>
	<line x1="3445.61" y1="389.21" x2="3445.61" y2="331.57" style="stroke:#F0F0F0;stroke-width:8.64"/>
	<line x1="3445.61" y1="302.81" x2="3445.61" y2="245.16" style="stroke:#F0F0F0;stroke-width:8.64"/>
	<line x1="3445.61" y1="216.41" x2="3445.61" y2="158.76" style="stroke:#F0F0F0;stroke-width:8.64"/>
	<line x1="3445.61" y1="130.01" x2="3445.61" y2="100.85" style="stroke:#F0F0F0;stroke-width:8.64"/>
	<line x1="4155.84" y1="2203.64" x2="4155.84" y2="2145.99" style="stroke:#F0F0F0;stroke-width:8.64"/>
	<line x1="4155.84" y1="2117.24" x2="4155.84" y2="2059.59" style="stroke:#F0F0F0;stroke-width:8.64"/>
	<line x1="4155.84" y1="2030.84" x2="4155.84" y2="1973.19" style="stroke:#F0F0F0;stroke-width:8.64"/>
	<line x1="4155.84" y1="1944.44" x2="4155.84" y2="1886.79" style="stroke:#F0F0F0;stroke-width:8.64"/>
	<line x1="4155.84" y1="1858.03" x2="4155.84" y2="1800.39" style="stroke:#F0F0F0;stroke-width:8.64"/>
	<line x1="4155.84" y1="1771.63" x2="4155.84" y2="1713.99" style="stroke:#F0F0F0;stroke-width:8.64"/>
	<line x1="4155.84" y1="1685.23" x2="4155.84" y2="1627.59" style="stroke:#F0F0F0;stroke-width:8.64"/>
	<line x1="4155.84" y1="1598.83" x2="4155.84" y2="1541.18" style="stroke:#F0F0F0;stroke-width:8.64"/>
	<line x1="4155.84" y1="1512.43" x2="4155.84" y2="1454.78" style="stroke:#F0F0F0;stroke-width:8.64"/>
	<line x1="4155.84" y1="1426.03" x2="4155.84" y2="1368.38" style="stroke:#F0F0F0;stroke-width:8.64"/>
	<line x1="4155.84" y1="1339.63" x2="4155.84" y2="1281.98" style="stroke:#F0F0F0;stroke-width:8.64"/>
	<line x1="4155.84" y1="1253.22" x2="4155.84" y2="1195.58" style="stroke:#F0F0F0;stroke-width:8.64"/>
	<line x1="4155.84" y1="1166.82" x2="4155.84" y2="1109.18" style="stroke:#F0F0F0;stroke-width:8.64"/>
	<line x1="4155.84" y1="1080.42" x2="4155.84" y2="1022.78" style="stroke:#F0F0F0;stroke-width:8.64"/>
	<line x1="4155.84" y1="994.02" x2="4155.84" y2="936.37" style="stroke:#F0F0F0;stroke-width:8.64"/>
	<line x1="4155.84" y1="907.62" x2="4155.84" y2="849.97" style="stroke:#F0F0F0;stroke-width:8.64"/>
	<line x1="4155.84" y1="821.22" x2="4155.84" y2="763.57" style="stroke:#F0F0F0;stroke-width:8.64"/>
	<line x1="4155.84" y1="734.82" x2="4155.84" y2="677.17" style="stroke:#F0F0F0;stroke-width:8.64"/>
	<line x1="4155.84" y1="648.42" x2="4155.84" y2="590.77" style="stroke:#F0F0F0;stroke-width:8.64"/>
	<line x1="4155.84" y1="562.01" x2="4155.84" y2="504.37" style="stroke:#F0F0F0;stroke-width:8.64"/>
	<line x1="4155.84" y1="475.61" x2="4155.84" y2="417.97" style="stroke:#F0F0F0;stroke-width:8.64"/>
	<line x1="4155.84" y1="389.21" x2="4155.84" y2="331.57" style="stroke:#F0F0F0;stroke-width:8.64"/>
	<line x1="4155.84" y1="302.81" x2="4155.84" y2="245.16" style="stroke:#F0F0F0;stroke-width:8.64"/>
	<line x1="4155.84" y1="216.41" x2="4155.84" y2="158.76" style="stroke:#F0F0F0;stroke-width:8.64"/>
	<line x1="4155.84" y1="130.01" x2="4155.84" y2="100.85" style="stroke:#F0F0F0;stroke-width:8.64"/>
	<path d=" M604.93 1483.00 L634.50 1812.27 L664.07 1287.11 L693.63 1555.36 L723.33 1372.84 L752.90 1886.25 L782.46 1563.73 L812.03 1575.88 L841.59 1828.33 L871.16 1428.59 L900.86 1582.36 L930.42 1688.47 L959.99 1284.55 L989.55 1480.43 L1019.12 814.87 L1048.82 1293.86 L1078.38 1529.84 L1107.95 1780.41 L1137.51 1696.44 L1167.08 1715.74 L1196.64 1632.58 L1226.34 1465.04 L1255.91 1598.29 L1285.47 1969.41 L1315.04 1521.61 L1344.60 1648.11 L1374.30 1288.60 L1403.87 1598.29 L1433.43 1711.02 L1463.00 2140.46 L1492.56 2131.28 L1522.26 2012.34 L1551.83 1782.43 L1581.39 1566.97 L1610.96 1424.14 L1640.52 1736.67 L1670.09 1144.41 L1699.79 1380.26 L1729.35 691.89 L1758.92 1201.52 L1788.48 1446.82 L1818.05 2080.38 L1847.75 1939.04 L1877.31 1896.64 L1906.88 1653.78 L1936.44 1128.75 L1966.01 995.64 L1995.57 1718.71 L2025.27 1102.83 L2054.84 1416.58 L2084.40 694.32 L2113.97 998.75 L2143.53 1396.60 L2173.23 2067.29 L2202.80 2030.03 L2232.36 1929.99 L2261.93 1756.92 L2291.49 1148.73 L2321.19 1210.02 L2350.76 1704.67 L2380.32 1230.00 L2409.89 1349.89 L2439.45 781.26 L2469.02 1030.20 L2498.72 1324.91 L2528.28 1947.41 L2557.84 1812.94 L2587.41 1802.01 L2616.98 1568.05 L2646.68 1134.29 L2676.24 1249.17 L2705.81 1610.85 L2735.37 1250.25 L2764.94 1270.64 L2794.50 983.76 L2824.20 642.48 L2853.77 520.84 L2883.33 1112.01 L2912.90 1331.53 L2942.46 1327.48 L2972.16 979.04 L3001.73 953.38 L3031.29 1069.89 L3060.86 1178.16 L3090.42 702.42 L3120.12 835.93 L3149.69 233.96 L3179.25 540.28 L3208.82 760.74 L3238.38 1403.21 L3267.95 1463.29 L3297.65 1442.09 L3327.21 1194.09 L3356.78 1168.17 L3386.34 1250.12 L3415.91 1496.90 L3445.61 1080.56 L3475.17 1318.97 L3504.74 923.82 L3534.30 1142.93 L3563.87 1232.57 L3593.43 1751.38 L3623.13 1589.78 L3652.70 1622.32 L3682.26 1283.20 L3711.83 999.29 L3741.39 1262.13 L3771.09 1430.21 L3800.66 883.45 L3830.22 1198.14 L3859.79 666.37 L3889.35 908.43 L3919.05 1108.91" stroke-linejoin="round" style="fill:none;stroke:#1A85FF;stroke-width:8.64"/>
	<path d=" M604.93 1183.43 L634.50 1518.10 L664.07 998.34 L693.63 1271.85 L723.33 1094.73 L752.90 1613.55 L782.46 1296.29 L812.03 1313.84 L841.59 1571.69 L871.16 1177.22 L900.86 1336.39 L930.42 1447.76 L959.99 1049.24 L989.55 1250.39 L1019.12 590.23 L1048.82 1074.48 L1078.38 1315.87 L1107.95 1571.83 L1137.51 1493.12 L1167.08 1517.96 L1196.64 1439.93 L1226.34 1277.79 L1255.91 1416.44 L1285.47 1792.83 L1315.04 1350.56 L1344.60 1482.32 L1374.30 1128.21 L1403.87 1443.17 L1433.43 1561.30 L1463.00 1996.01 L1492.56 1992.23 L1522.26 1878.55 L1551.83 1654.05 L1581.39 1443.98 L1610.96 1306.42 L1640.52 1624.35 L1670.09 1037.49 L1699.79 1278.60 L1729.35 595.63 L1758.92 1110.53 L1788.48 1361.36 L1818.05 2000.19 L1847.75 1864.11 L1877.31 1827.12 L1906.88 1589.65 L1936.44 1069.89 L1966.01 942.18 L1995.57 1670.65 L2025.27 1060.04 L2054.84 1379.05 L2084.40 662.19 L2113.97 972.02 L2143.53 1375.13 L2173.23 2051.22 L2202.80 2019.36 L2232.36 1924.59 L2261.93 1756.92 L2291.49 1154.00 L2321.19 1220.69 L2350.76 1720.74 L2380.32 1251.33 L2409.89 1376.62 L2439.45 813.39 L2469.02 1067.73 L2498.72 1367.71 L2528.28 1995.47 L2557.84 1866.40 L2587.41 1860.87 L2616.98 1632.31 L2646.68 1203.81 L2676.24 1324.10 L2705.81 1691.04 L2735.37 1335.85 L2764.94 1361.63 L2794.50 1080.02 L2824.20 744.13 L2853.77 627.89 L2883.33 1224.33 L2912.90 1449.25 L2942.46 1450.46 L2972.16 1107.29 L3001.73 1087.17 L3031.29 1208.94 L3060.86 1322.48 L3090.42 852.27 L3120.12 991.05 L3149.69 394.48 L3179.25 706.06 L3208.82 931.92 L3238.38 1579.66 L3267.95 1645.14 L3297.65 1629.21 L3327.21 1386.61 L3356.78 1366.09 L3386.34 1453.30 L3415.91 1705.48 L3445.61 1294.54 L3475.17 1538.21 L3504.74 1148.46 L3534.30 1372.97 L3563.87 1467.88 L3593.43 1991.96 L3623.13 1835.76 L3652.70 1873.69 L3682.26 1539.97 L3711.83 1261.46 L3741.39 1529.57 L3771.09 1702.92 L3800.66 1161.56 L3830.22 1481.51 L3859.79 955.14 L3889.35 1202.60 L3919.05 1408.34" stroke-linejoin="round" style="fill:none;stroke:#D41159;stroke-width:8.64"/>
	<line x1="541.62" y1="2203.64" x2="541.62" y2="100.85" style="stroke:#000000;stroke-width:5.76"/>
	<line x1="541.62" y1="2015.04" x2="501.66" y2="2015.04" style="stroke:#000000;stroke-width:5.76"/>
	<text x="481.68" y="2050.09" style="font-family:'Helvetica';font-size:100.04px;fill:#000000" text-anchor="end">34000</text>
	<line x1="541.62" y1="1644.87" x2="501.66" y2="1644.87" style="stroke:#000000;stroke-width:5.76"/>
	<text x="481.68" y="1679.91" style="font-family:'Helvetica';font-size:100.04px;fill:#000000" text-anchor="end">36000</text>
	<line x1="541.62" y1="1274.69" x2="501.66" y2="1274.69" style="stroke:#000000;stroke-width:5.76"/>
	<text x="481.68" y="1309.74" style="font-family:'Helvetica';font-size:100.04px;fill:#000000" text-anchor="end">38000</text>
	<line x1="541.62" y1="904.51" x2="501.66" y2="904.51" style="stroke:#000000;stroke-width:5.76"/>
	<text x="481.68" y="939.56" style="font-family:'Helvetica';font-size:100.04px;fill:#000000" text-anchor="end">40000</text>
	<line x1="541.62" y1="534.34" x2="501.66" y2="534.34" style="stroke:#000000;stroke-width:5.76"/>
	<text x="481.68" y="569.38" style="font-family:'Helvetica';font-size:100.04px;fill:#000000" text-anchor="end">42000</text>
	<line x1="541.62" y1="164.16" x2="501.66" y2="164.16" style="stroke:#000000;stroke-width:5.76"/>
	<text x="481.68" y="199.21" style="font-family:'Helvetica';font-size:100.04px;fill:#000000" text-anchor="end">44000</text>
	<line x1="541.62" y1="2203.64" x2="4219.16" y2="2203.64" style="stroke:#000000;stroke-width:5.76"/>
	<line x1="604.93" y1="2203.64" x2="604.93" y2="2243.74" style="stroke:#000000;stroke-width:5.76"/>
	<text x="604.93" y="2333.67" style="font-family:'Helvetica';font-size:100.04px;fill:#000000" text-anchor="middle">2014</text>
	<line x1="1315.17" y1="2203.64" x2="1315.17" y2="2243.74" style="stroke:#000000;stroke-width:5.76"/>
	<text x="1315.17" y="2333.67" style="font-family:'Helvetica';font-size:100.04px;fill:#000000" text-anchor="middle">2016</text>
	<line x1="2025.27" y1="2203.64" x2="2025.27" y2="2243.74" style="stroke:#000000;stroke-width:5.76"/>
	<text x="2025.27" y="2333.67" style="font-family:'Helvetica';font-size:100.04px;fill:#000000" text-anchor="middle">2018</text>
	<line x1="2735.51" y1="2203.64" x2="2735.51" y2="2243.74" style="stroke:#000000;stroke-width:5.76"/>
	<text x="2735.51" y="2333.67" style="font-family:'Helvetica';font-size:100.04px;fill:#000000" text-anchor="middle">2020</text>
	<line x1="3445.61" y1="2203.64" x2="3445.61" y2="2243.74" style="stroke:#000000;stroke-width:5.76"/>
	<text x="3445.61" y="2333.67" style="font-family:'Helvetica';font-size:100.04px;fill:#000000" text-anchor="middle">2022</text>
	<line x1="4155.84" y1="2203.64" x2="4155.84" y2="2243.74" style="stroke:#000000;stroke-width:5.76"/>
	<text x="4155.84" y="2333.67" style="font-family:'Helvetica';font-size:100.04px;fill:#000000" text-anchor="middle">2024</text>
	<text x="2380.32" y="2473.67" style="font-family:'Helvetica';font-size:100.04px;fill:#000000" text-anchor="middle">Month</text>
	<rect x="1469.34" y="2558.29" width="1822.10" height="186.30" style="fill:#FFFFFF"/>
	<rect x="1472.22" y="2561.17" width="1816.34" height="180.54" style="fill:none;stroke:#FFFFFF;stroke-width:5.76"/>
	<line x1="1512.54" y1="2651.44" x2="1742.85" y2="2651.44" style="stroke:#1A85FF;stroke-width:8.64"/>
	<line x1="2561.22" y1="2651.44" x2="2791.67" y2="2651.44" style="stroke:#D41159;stroke-width:8.64"/>
	<text x="1802.93" y="2686.49" style="font-family:'Helvetica';font-size:100.04px;fill:#000000">Active editors</text>
	<text x="2851.61" y="2686.49" style="font-family:'Helvetica';font-size:100.04px;fill:#000000">adjusted</text>
</svg>
